<svg width="24" height="24" viewBox="0 0 24 24" fill="none" xmlns="http://www.w3.org/2000/svg">
<g clip-path="url(#clip0_361_43276)">
<mask id="mask0_361_43276" style="mask-type:luminance" maskUnits="userSpaceOnUse" x="0" y="0" width="24" height="24">
<path d="M24 12C24 5.37258 18.6274 0 12 0C5.37258 0 0 5.37258 0 12C0 18.6274 5.37258 24 12 24C18.6274 24 24 18.6274 24 12Z" fill="white"/>
</mask>
<g mask="url(#mask0_361_43276)">
<path d="M24.0015 0H12.7617V4.80104H24.0015V0Z" fill="#D31B23"/>
<path d="M24 9.60156H0V14.4026H24V9.60156Z" fill="#D31B23"/>
<path d="M24 19.1992H0V24.0003H24V19.1992Z" fill="#D31B23"/>
<path d="M12.7599 0H0V9.59997H12.7599V0Z" fill="#6B47ED"/>
<path d="M24.0015 4.80078H12.7617V9.60182H24.0015V4.80078Z" fill="white"/>
<path d="M24 14.3984H0V19.1994H24V14.3984Z" fill="white"/>
<path d="M2.76368 3.3012L2.34179 3.52479L2.42301 3.05018L2.07812 2.71478L2.55379 2.64516L2.76473 2.21484L2.97568 2.64516L3.45136 2.71478L3.10751 3.05018L3.18873 3.52479L2.76368 3.3012Z" fill="white"/>
<path d="M5.17775 3.3012L4.75587 3.52479L4.83708 3.05018L4.49219 2.71478L4.96787 2.64516L5.1788 2.21484L5.38974 2.64516L5.86542 2.71478L5.52053 3.05018L5.6028 3.52479L5.17775 3.3012Z" fill="white"/>
<path d="M7.58685 3.3012L7.16496 3.52479L7.24724 3.05018L6.90234 2.71478L7.37802 2.64516L7.58897 2.21484L7.7999 2.64516L8.27558 2.71478L7.93068 3.05018L8.01191 3.52479L7.58685 3.3012Z" fill="white"/>
<path d="M2.76368 5.22878L2.34179 5.45238L2.42301 4.97777L2.07812 4.64237L2.54957 4.57487L2.76052 4.14453L2.97146 4.57487L3.44713 4.64447L3.1033 4.97987L3.18451 5.45448L2.76368 5.22878Z" fill="white"/>
<path d="M5.17775 5.22878L4.75587 5.45238L4.83708 4.97777L4.49219 4.64237L4.96364 4.57487L5.17458 4.14453L5.38553 4.57487L5.86121 4.64447L5.51631 4.97987L5.59857 5.45448L5.17775 5.22878Z" fill="white"/>
<path d="M7.58685 5.22878L7.16496 5.45238L7.24724 4.97777L6.90234 4.64237L7.37381 4.57487L7.58474 4.14453L7.79568 4.57487L8.27136 4.64447L7.92647 4.97987L8.00768 5.45448L7.58685 5.22878Z" fill="white"/>
<path d="M2.76368 7.16056L2.34179 7.38417L2.42301 6.90954L2.07812 6.57414L2.55379 6.50454L2.76473 6.07422L2.97568 6.50454L3.45136 6.57414L3.10751 6.90954L3.18873 7.38417L2.76368 7.16056Z" fill="white"/>
<path d="M5.17775 7.16056L4.75587 7.38417L4.83708 6.90954L4.49219 6.57414L4.96787 6.50454L5.1788 6.07422L5.38974 6.50454L5.86542 6.57414L5.52053 6.90954L5.6028 7.38417L5.17775 7.16056Z" fill="white"/>
<path d="M7.58685 7.16056L7.16496 7.38417L7.24724 6.90954L6.90234 6.57414L7.37802 6.50454L7.58897 6.07422L7.7999 6.50454L8.27558 6.57414L7.93068 6.90954L8.01191 7.38417L7.58685 7.16056Z" fill="white"/>
<path d="M9.99025 3.3012L9.56836 3.52479L9.64957 3.05018L9.30469 2.71478L9.78247 2.64516L9.99341 2.21484L10.2044 2.64516L10.6821 2.71478L10.3372 3.05018L10.4185 3.52479L9.99025 3.3012Z" fill="white"/>
<path d="M9.99025 5.22878L9.56836 5.45238L9.64957 4.97777L9.30469 4.64237L9.7793 4.57487L9.99025 4.14453L10.2012 4.57487L10.679 4.64447L10.3341 4.97987L10.4153 5.45448L9.99025 5.22878Z" fill="white"/>
<path d="M9.99025 7.16056L9.56836 7.38417L9.64957 6.90954L9.30469 6.57414L9.78247 6.50454L9.99341 6.07422L10.2044 6.50454L10.6821 6.57414L10.3372 6.90954L10.4185 7.38417L9.99025 7.16056Z" fill="white"/>
</g>
</g>
<defs>
<clipPath id="clip0_361_43276">
<rect width="24" height="24" fill="white"/>
</clipPath>
</defs>
</svg>
