<svg width="16" height="16" viewBox="0 0 16 16" fill="none" xmlns="http://www.w3.org/2000/svg">
<g clip-path="url(#clip0_349_43019)">
<path d="M16.0001 0H8.50692V3.20069H16.0001V0Z" fill="#D31B23"/>
<path d="M16 6.40001H8.76831e-06V9.60071H16V6.40001Z" fill="#D31B23"/>
<path d="M16 12.7993H0V16H16V12.7993Z" fill="#D31B23"/>
<path d="M8.50659 0H0V6.39998H8.50659V0Z" fill="#6B47ED"/>
<path d="M16 3.19991H8.50683V6.4006H16V3.19991Z" fill="white"/>
<path d="M16 9.59924H0V12.7999H16V9.59924Z" fill="white"/>
<path d="M1.84312 2.2008L1.56186 2.34986L1.616 2.03345L1.38608 1.80985L1.70319 1.76344L1.84382 1.47656L1.98445 1.76344L2.30157 1.80985L2.07234 2.03345L2.12648 2.34986L1.84312 2.2008Z" fill="white"/>
<path d="M3.45124 2.2008L3.16999 2.34986L3.22413 2.03345L2.9942 1.80985L3.31132 1.76344L3.45194 1.47656L3.59257 1.76344L3.90969 1.80985L3.67976 2.03345L3.73461 2.34986L3.45124 2.2008Z" fill="white"/>
<path d="M5.0577 2.2008L4.77644 2.34986L4.83129 2.03345L4.60136 1.80985L4.91848 1.76344L5.05911 1.47656L5.19973 1.76344L5.51685 1.80985L5.28692 2.03345L5.34107 2.34986L5.0577 2.2008Z" fill="white"/>
<path d="M1.84312 3.48675L1.56186 3.63582L1.616 3.31941L1.38608 3.09581L1.70038 3.05081L1.84101 2.76392L1.98164 3.05081L2.29875 3.09721L2.06953 3.32081L2.12367 3.63722L1.84312 3.48675Z" fill="white"/>
<path d="M3.45124 3.48675L3.16999 3.63582L3.22413 3.31941L2.9942 3.09581L3.3085 3.05081L3.44913 2.76392L3.58976 3.05081L3.90688 3.09721L3.67695 3.32081L3.73179 3.63722L3.45124 3.48675Z" fill="white"/>
<path d="M5.0577 3.48675L4.77644 3.63582L4.83129 3.31941L4.60136 3.09581L4.91567 3.05081L5.05629 2.76392L5.19692 3.05081L5.51404 3.09721L5.28411 3.32081L5.33825 3.63722L5.0577 3.48675Z" fill="white"/>
<path d="M1.84312 4.77288L1.56186 4.92195L1.616 4.60553L1.38608 4.38193L1.70319 4.33553L1.84382 4.04865L1.98445 4.33553L2.30157 4.38193L2.07234 4.60553L2.12648 4.92195L1.84312 4.77288Z" fill="white"/>
<path d="M3.45124 4.77288L3.16999 4.92195L3.22413 4.60553L2.9942 4.38193L3.31132 4.33553L3.45194 4.04865L3.59257 4.33553L3.90969 4.38193L3.67976 4.60553L3.73461 4.92195L3.45124 4.77288Z" fill="white"/>
<path d="M5.0577 4.77288L4.77644 4.92195L4.83129 4.60553L4.60136 4.38193L4.91848 4.33553L5.05911 4.04865L5.19973 4.33553L5.51685 4.38193L5.28692 4.60553L5.34107 4.92195L5.0577 4.77288Z" fill="white"/>
<path d="M6.66045 2.2008L6.37919 2.34986L6.43333 2.03345L6.20341 1.80985L6.52193 1.76344L6.66256 1.47656L6.80319 1.76344L7.12171 1.80985L6.89178 2.03345L6.94592 2.34986L6.66045 2.2008Z" fill="white"/>
<path d="M6.66045 3.48675L6.37919 3.63582L6.43333 3.31941L6.20341 3.09581L6.51982 3.05081L6.66045 2.76392L6.80107 3.05081L7.1196 3.09721L6.88967 3.32081L6.94381 3.63722L6.66045 3.48675Z" fill="white"/>
<path d="M6.66045 4.77288L6.37919 4.92195L6.43333 4.60553L6.20341 4.38193L6.52193 4.33553L6.66256 4.04865L6.80319 4.33553L7.12171 4.38193L6.89178 4.60553L6.94592 4.92195L6.66045 4.77288Z" fill="white"/>
</g>
<defs>
<clipPath id="clip0_349_43019">
<rect width="16" height="16" rx="8" fill="white"/>
</clipPath>
</defs>
</svg>
