<svg width="24" height="24" viewBox="0 0 24 24" fill="none" xmlns="http://www.w3.org/2000/svg">
<g clip-path="url(#clip0_2994_15684)">
<path d="M17 13H20C21.11 13 22 12.1 22 11V7C22 5.89 21.1 5 20 5H17C15.89 5 15 5.9 15 7V8H9.01V7C9.01 5.89 8.11 5 7.01 5H4C2.9 5 2 5.9 2 7V11C2 12.11 2.9 13 4 13H7C8.11 13 9 12.1 9 11V10H11V17.01C11 18.66 12.34 20 13.99 20H15V21C15 22.11 15.9 23 17 23H20C21.11 23 22 22.1 22 21V17C22 15.89 21.1 15 20 15H17C15.89 15 15 15.9 15 17V18H13.99C13.45 18 13 17.55 13 17.01V10H15V11C15 12.1 15.9 13 17 13Z" fill="#762BBB"/>
</g>
<defs>
<clipPath id="clip0_2994_15684">
<rect width="24" height="24" fill="white"/>
</clipPath>
</defs>
</svg>
