<svg width="251" height="493" viewBox="0 0 251 493" fill="none" xmlns="http://www.w3.org/2000/svg">
<g clip-path="url(#clip0_3140_37327)">
<mask id="mask0_3140_37327" style="mask-type:luminance" maskUnits="userSpaceOnUse" x="5" y="5" width="242" height="483">
<path d="M236.365 5.45972H14.717C9.35043 5.45972 5 9.81015 5 15.1767V477.908C5 483.274 9.35043 487.625 14.717 487.625H236.365C241.732 487.625 246.082 483.274 246.082 477.908V15.1767C246.082 9.81015 241.732 5.45972 236.365 5.45972Z" fill="white"/>
</mask>
<g mask="url(#mask0_3140_37327)">
<mask id="mask1_3140_37327" style="mask-type:luminance" maskUnits="userSpaceOnUse" x="5" y="5" width="242" height="483">
<path d="M246.082 5.45972H5V487.625H246.082V5.45972Z" fill="white"/>
</mask>
<g mask="url(#mask1_3140_37327)">
<path d="M246.082 5.45972H5V487.625H246.082V5.45972Z" fill="#EDEDED"/>
<path d="M5 5.45972H246.082V59.3188H5V5.45972Z" fill="#FEFEFE"/>
<mask id="mask2_3140_37327" style="mask-type:luminance" maskUnits="userSpaceOnUse" x="5" y="5" width="242" height="56">
<path d="M247 5.45972H5V60.4597H247V5.45972Z" fill="white"/>
<path d="M5 5.45972H246.082V59.3188H5V5.45972Z" fill="black"/>
</mask>
<g mask="url(#mask2_3140_37327)">
<path d="M246.082 58.6492H5V59.9885H246.082V58.6492Z" fill="#E0E0E0"/>
</g>
<path d="M246.082 5.45972H5V21.8171H246.082V5.45972Z" fill="#FEFEFE"/>
<path d="M19.8782 12.8463C19.8782 13.1942 19.8533 13.5329 19.8036 13.8625C19.7565 14.1922 19.6741 14.4995 19.5564 14.7847C19.4413 15.0698 19.2844 15.3196 19.0855 15.5341C18.8867 15.7486 18.6369 15.9173 18.3361 16.0403C18.0379 16.1606 17.6808 16.2208 17.2649 16.2208C17.1524 16.2208 17.0242 16.2129 16.8803 16.1972C16.7365 16.1842 16.6187 16.1645 16.5272 16.1384V15.5734C16.624 15.6074 16.7378 15.6348 16.8686 15.6558C16.9994 15.6741 17.1275 15.6832 17.2531 15.6832C17.7423 15.6832 18.1268 15.5786 18.4067 15.3693C18.6866 15.1574 18.888 14.871 19.011 14.51C19.1339 14.1464 19.2033 13.7383 19.219 13.2857H19.1719C19.0934 13.4113 18.9901 13.5277 18.8619 13.635C18.7363 13.7396 18.5833 13.8246 18.4028 13.89C18.2223 13.9528 18.0117 13.9842 17.7711 13.9842C17.4388 13.9842 17.1485 13.9162 16.9 13.7801C16.6541 13.6441 16.4618 13.4466 16.3231 13.1876C16.1871 12.9287 16.1191 12.6161 16.1191 12.2498C16.1191 11.8548 16.1937 11.5135 16.3428 11.2257C16.4945 10.9353 16.7064 10.7117 16.9784 10.5547C17.2505 10.3978 17.5709 10.3193 17.9398 10.3193C18.2223 10.3193 18.4813 10.3729 18.7167 10.4802C18.9521 10.5874 19.1562 10.7483 19.3288 10.9628C19.5041 11.1747 19.6388 11.4376 19.733 11.7515C19.8298 12.0654 19.8782 12.4303 19.8782 12.8463ZM17.9398 10.8726C17.5919 10.8726 17.3093 10.9864 17.0922 11.2139C16.8777 11.4415 16.7705 11.7842 16.7705 12.242C16.7705 12.6213 16.8633 12.9208 17.0491 13.1406C17.2348 13.3603 17.5212 13.4702 17.9084 13.4702C18.1752 13.4702 18.4054 13.4165 18.599 13.3093C18.7952 13.202 18.9456 13.066 19.0502 12.9012C19.1575 12.7364 19.2111 12.5677 19.2111 12.395C19.2111 12.2224 19.185 12.0471 19.1326 11.8692C19.0829 11.6913 19.0058 11.5278 18.9011 11.3787C18.7965 11.227 18.6644 11.1054 18.5048 11.0138C18.3452 10.9196 18.1569 10.8726 17.9398 10.8726ZM20.9023 15.7303C20.9023 15.5472 20.9468 15.4177 21.0357 15.3418C21.1246 15.2634 21.2332 15.2241 21.3614 15.2241C21.4948 15.2241 21.6073 15.2634 21.6988 15.3418C21.7904 15.4177 21.8362 15.5472 21.8362 15.7303C21.8362 15.9108 21.7904 16.0429 21.6988 16.1266C21.6073 16.2077 21.4948 16.2483 21.3614 16.2483C21.2332 16.2483 21.1246 16.2077 21.0357 16.1266C20.9468 16.0429 20.9023 15.9108 20.9023 15.7303ZM20.9023 12.2498C20.9023 12.0615 20.9468 11.9294 21.0357 11.8535C21.1246 11.775 21.2332 11.7358 21.3614 11.7358C21.4948 11.7358 21.6073 11.775 21.6988 11.8535C21.7904 11.9294 21.8362 12.0615 21.8362 12.2498C21.8362 12.4277 21.7904 12.5572 21.6988 12.6383C21.6073 12.7194 21.4948 12.7599 21.3614 12.7599C21.2332 12.7599 21.1246 12.7194 21.0357 12.6383C20.9468 12.5572 20.9023 12.4277 20.9023 12.2498ZM26.8666 14.8082H26.0072V16.1384H25.3716V14.8082H22.5974V14.2589L25.3284 10.3703H26.0072V14.2196H26.8666V14.8082ZM25.3716 14.2196V12.344C25.3716 12.2001 25.3729 12.0706 25.3755 11.9555C25.3781 11.8378 25.382 11.7293 25.3873 11.6299C25.3925 11.5278 25.3964 11.4311 25.399 11.3395C25.4043 11.2479 25.4082 11.1577 25.4108 11.0688H25.3794C25.3297 11.1734 25.2722 11.2846 25.2068 11.4023C25.144 11.5174 25.0799 11.6207 25.0145 11.7123L23.2448 14.2196H25.3716ZM29.8448 16.1384H29.2091V12.0733C29.2091 11.9189 29.2091 11.7868 29.2091 11.677C29.2117 11.5645 29.2144 11.4624 29.217 11.3709C29.2222 11.2767 29.2287 11.1812 29.2366 11.0844C29.1555 11.1682 29.0796 11.2401 29.009 11.3003C28.9384 11.3578 28.8507 11.4297 28.7461 11.5161L28.0908 12.0419L27.7494 11.5985L29.3033 10.4017H29.8448V16.1384ZM38.0928 16.1384L37.3865 14.3177H35.0871L34.3847 16.1384H33.7098L35.9542 10.3782H36.5546L38.7834 16.1384H38.0928ZM37.1863 13.7252L36.5154 11.9163C36.4997 11.8692 36.4735 11.7921 36.4369 11.6848C36.4029 11.5775 36.3676 11.4664 36.3309 11.3513C36.2943 11.2362 36.2642 11.1433 36.2407 11.0727C36.2145 11.1799 36.1858 11.2872 36.1544 11.3944C36.1256 11.4991 36.0968 11.5972 36.068 11.6887C36.0393 11.7777 36.0144 11.8535 35.9935 11.9163L35.3107 13.7252H37.1863ZM42.1029 16.1384L40.1763 11.0609H40.1449C40.1554 11.1682 40.1646 11.299 40.1724 11.4533C40.1803 11.6076 40.1868 11.7764 40.192 11.9595C40.1973 12.14 40.1999 12.3244 40.1999 12.5127V16.1384H39.5799V10.4017H40.5687L42.3855 15.1731H42.4129L44.2572 10.4017H45.2381V16.1384H44.5789V12.4656C44.5789 12.2956 44.5815 12.1256 44.5868 11.9555C44.592 11.7829 44.5985 11.6207 44.6064 11.469C44.6142 11.3146 44.6221 11.1812 44.6299 11.0688H44.5985L42.6484 16.1384H42.1029Z" fill="#0F0F0F"/>
<mask id="mask3_3140_37327" style="mask-type:luminance" maskUnits="userSpaceOnUse" x="200" y="8" width="36" height="11">
<path d="M235.368 8.28101H200.545V18.9958H235.368V8.28101Z" fill="white"/>
</mask>
<g mask="url(#mask3_3140_37327)">
<path d="M201.465 12.7722C201.693 12.9999 202.054 13.0223 202.3 12.8169C204.385 11.1025 207.412 11.1025 209.501 12.8124C209.751 13.0178 210.117 12.9999 210.345 12.7722C210.608 12.5088 210.59 12.0713 210.3 11.8347C207.751 9.74977 204.063 9.74977 201.51 11.8347C201.22 12.0669 201.197 12.5044 201.465 12.7722ZM204.929 16.2367L205.586 16.893C205.76 17.0671 206.041 17.0671 206.215 16.893L206.872 16.2367C207.081 16.0269 207.037 15.6652 206.769 15.5268C206.224 15.2456 205.572 15.2456 205.023 15.5268C204.769 15.6652 204.72 16.0269 204.929 16.2367ZM203.264 14.5714C203.483 14.7902 203.827 14.8125 204.081 14.6295C205.171 13.8571 206.635 13.8571 207.724 14.6295C207.979 14.8081 208.323 14.7902 208.541 14.5714L208.546 14.567C208.814 14.2991 208.796 13.8437 208.488 13.625C206.952 12.5133 204.858 12.5133 203.318 13.625C203.01 13.8482 202.992 14.2991 203.264 14.5714Z" fill="#0F0F0F"/>
<path d="M220.859 10.0667C221.23 10.0667 221.529 10.3659 221.529 10.7364V16.5402C221.529 16.9108 221.23 17.2098 220.859 17.2098C220.489 17.2098 220.189 16.9108 220.189 16.5402V10.7364C220.189 10.3659 220.489 10.0667 220.859 10.0667ZM215.502 14.5311C215.872 14.5311 216.171 14.8303 216.171 15.2009V16.5402C216.171 16.9108 215.872 17.2098 215.502 17.2098C215.131 17.2098 214.832 16.9108 214.832 16.5402V15.2009C214.832 14.8303 215.131 14.5311 215.502 14.5311ZM218.18 12.299C218.551 12.299 218.85 12.598 218.85 12.9686V16.5402C218.85 16.9108 218.551 17.2098 218.18 17.2098C217.81 17.2098 217.511 16.9108 217.511 16.5402V12.9686C217.511 12.598 217.81 12.299 218.18 12.299Z" fill="#0F0F0F"/>
<mask id="mask4_3140_37327" style="mask-type:luminance" maskUnits="userSpaceOnUse" x="224" y="8" width="12" height="11">
<path d="M235.367 8.28101H224.652V18.9958H235.367V8.28101Z" fill="white"/>
</mask>
<g mask="url(#mask4_3140_37327)">
<path d="M231.648 10.0667H230.902V9.62028C230.902 9.37473 230.702 9.17383 230.456 9.17383H229.563C229.318 9.17383 229.117 9.37473 229.117 9.62028V10.0667H228.371C228.045 10.0667 227.777 10.3346 227.777 10.6605V17.5046C227.777 17.835 228.045 18.1028 228.376 18.1028H231.644C231.974 18.1028 232.242 17.835 232.242 17.5091V10.6605C232.242 10.3346 231.974 10.0667 231.648 10.0667Z" fill="#0F0F0F"/>
</g>
</g>
<path d="M246.082 21.8171H5V59.3188H246.082V21.8171Z" fill="#FEFEFE"/>
<path d="M28.4393 39.8982H20.9591L24.2271 36.6302C24.4883 36.3691 24.4883 35.9405 24.2271 35.6793C23.9659 35.4181 23.544 35.4181 23.2829 35.6793L18.8697 40.0924C18.6085 40.3536 18.6085 40.7755 18.8697 41.0367L23.2829 45.4498C23.544 45.711 23.9659 45.711 24.2271 45.4498C24.4883 45.1887 24.4883 44.7668 24.2271 44.5056L20.9591 41.2376H28.4393C28.8077 41.2376 29.109 40.9362 29.109 40.5679C29.109 40.1996 28.8077 39.8982 28.4393 39.8982Z" fill="#0F0F0F"/>
<path d="M51.5001 44.4055H50.2393V37.8239H48V36.7566H53.7341V37.8239H51.5001V44.4055ZM56.01 44.4055H54.7805V38.6139H56.01V44.4055ZM57.1819 36.1968V36.3014C57.0982 36.4026 56.9848 36.5246 56.8418 36.6676C56.6988 36.8072 56.5436 36.9554 56.3762 37.1123C56.2088 37.2658 56.0431 37.4141 55.8792 37.5571C55.7152 37.6966 55.567 37.8152 55.4345 37.9128H54.6131V37.7768C54.7282 37.6443 54.8555 37.4856 54.995 37.3007C55.138 37.1158 55.2775 36.9257 55.4135 36.7304C55.5531 36.5351 55.6699 36.3572 55.7641 36.1968H57.1819ZM59.9286 43.5161C60.0891 43.5161 60.2478 43.5022 60.4047 43.4743C60.5617 43.4429 60.7047 43.4063 60.8337 43.3644V44.2957C60.6977 44.355 60.5216 44.4055 60.3053 44.4474C60.0891 44.4892 59.8641 44.5102 59.6304 44.5102C59.3025 44.5102 59.0078 44.4561 58.7462 44.348C58.4846 44.2364 58.2771 44.0463 58.1236 43.7777C57.9702 43.5091 57.8934 43.1377 57.8934 42.6633V39.5504H57.1034V39.001L57.951 38.5668L58.3538 37.3269H59.1282V38.6139H60.7866V39.5504H59.1282V42.6476C59.1282 42.9406 59.2014 43.1586 59.3479 43.3016C59.4944 43.4446 59.688 43.5161 59.9286 43.5161ZM67.0596 38.6139V44.4055H66.0917L65.9243 43.626H65.8563C65.7342 43.8248 65.579 43.9905 65.3907 44.123C65.2023 44.2521 64.993 44.348 64.7628 44.4108C64.5326 44.477 64.2902 44.5102 64.0356 44.5102C63.5996 44.5102 63.2264 44.4369 62.916 44.2904C62.6091 44.1405 62.3736 43.9103 62.2097 43.5998C62.0458 43.2894 61.9638 42.8883 61.9638 42.3965V38.6139H63.1985V42.1663C63.1985 42.6162 63.2892 42.9528 63.4706 43.1761C63.6554 43.3993 63.9414 43.5109 64.3286 43.5109C64.7018 43.5109 64.9983 43.4342 65.218 43.2807C65.4378 43.1272 65.593 42.9005 65.6836 42.6005C65.7778 42.3006 65.8249 41.9326 65.8249 41.4966V38.6139H67.0596ZM70.0575 44.4055H68.8228V36.2648H70.0575V44.4055ZM76.9426 41.4966C76.9426 41.978 76.8798 42.4052 76.7542 42.7784C76.6287 43.1516 76.4455 43.4673 76.2049 43.7254C75.9642 43.98 75.6747 44.1753 75.3364 44.3114C74.9981 44.4439 74.6161 44.5102 74.1906 44.5102C73.793 44.5102 73.4285 44.4439 73.0972 44.3114C72.7658 44.1753 72.4781 43.98 72.2339 43.7254C71.9932 43.4673 71.8066 43.1516 71.6741 42.7784C71.5416 42.4052 71.4753 41.978 71.4753 41.4966C71.4753 40.8583 71.5852 40.3177 71.8049 39.8748C72.0281 39.4283 72.3455 39.0882 72.7571 38.8546C73.1687 38.6209 73.6587 38.504 74.2272 38.504C74.7609 38.504 75.2318 38.6209 75.6398 38.8546C76.0479 39.0882 76.3671 39.4283 76.5973 39.8748C76.8275 40.3212 76.9426 40.8618 76.9426 41.4966ZM72.7414 41.4966C72.7414 41.9187 72.792 42.2797 72.8931 42.5796C72.9978 42.8796 73.1582 43.1098 73.3745 43.2702C73.5907 43.4272 73.8697 43.5057 74.2115 43.5057C74.5534 43.5057 74.8324 43.4272 75.0486 43.2702C75.2649 43.1098 75.4236 42.8796 75.5247 42.5796C75.6259 42.2797 75.6765 41.9187 75.6765 41.4966C75.6765 41.0746 75.6259 40.7171 75.5247 40.4241C75.4236 40.1276 75.2649 39.9027 75.0486 39.7492C74.8324 39.5922 74.5516 39.5138 74.2063 39.5138C73.6971 39.5138 73.3256 39.6847 73.0919 40.0265C72.8582 40.3683 72.7414 40.8583 72.7414 41.4966Z" fill="#0F0F0F"/>
<path d="M151.796 116.118L149.413 123.302C149.413 123.302 147.205 116.022 140.996 113.66C134.778 111.297 131.368 111.996 131.368 111.996C131.368 111.996 133.209 110.743 132.976 109.145C132.734 107.548 130.061 106.285 130.061 106.285L119.881 106.649C119.881 106.649 117.498 107.529 117.343 109.289C117.198 111.049 118.612 112.005 118.612 112.005C118.612 112.005 113.149 111.728 109.982 113.163C106.814 114.588 102.417 116.309 100.073 123.311C97.7289 130.303 97.4965 138.252 97.4965 138.252L86.8323 140.93C86.8323 140.93 83.8103 142.738 84.2752 143.876L86.4545 155.785C86.4545 155.785 88.7791 165.751 96.2567 165.742C103.734 165.732 105.662 160.29 105.662 160.29C105.662 160.29 103.531 175.909 101.855 179.955H147.912C147.912 179.955 144.512 167.071 143.476 156.693C143.476 156.693 142.439 148.668 142.933 145.492C142.933 145.492 143.912 154.12 150.12 155.564C156.329 157.009 160.106 153.556 162.286 148.477C164.465 143.398 165.753 134.12 166.199 131.336C166.644 128.562 168.214 118.567 168.214 118.567C168.214 118.567 168.524 116.463 160.901 115.382C153.268 114.32 152.406 114.502 151.796 116.118Z" fill="#F69F37"/>
<path d="M97.4969 138.531C97.2354 138.158 97.0319 126.383 102.165 118.597C107.338 110.744 118.816 111.787 118.922 111.796C119.145 112.217 119.009 112.332 118.874 112.313C118.757 112.303 107.599 111.299 102.601 118.874C97.555 126.526 97.7584 138.148 97.7584 138.263C97.5066 138.531 97.4969 138.531 97.4969 138.531Z" fill="#0F0F0F"/>
<path d="M97.8914 142.267C97.8914 142.267 95.9076 138.491 96.0361 137.601C96.1647 136.712 97.7831 134.664 98.5889 133.895C99.4043 133.125 99.3242 131.693 98.4242 131.27C97.5242 130.847 96.1911 131.41 94.9477 132.628C93.7036 133.837 92.1795 135.687 91.588 135.695C91.588 135.695 86.8525 132.609 84.8983 132.243C82.944 131.877 82.0287 131.829 81.5944 132.642C81.5944 132.642 79.9951 132.829 79.6978 133.969C79.6978 133.969 78.3175 133.777 77.876 134.629C77.4345 135.481 78.2106 137.024 79.8745 138.021C81.5384 139.019 84.0626 140.269 85.87 140.616C87.6775 140.963 88.6299 144.851 88.6299 144.851C88.6299 144.851 94.5831 144.296 97.8914 142.267Z" fill="#9F5C2C"/>
<path d="M97.9617 142.636C97.2602 140.581 95.9508 137.654 96.3433 136.949C96.8568 136.006 97.4509 135.422 98.0275 134.869C98.2469 134.654 98.4669 134.448 98.6573 134.235C99.847 132.934 99.4882 132.007 99.283 131.675C98.8834 131.029 97.9923 130.75 97.1337 130.986C95.5784 131.409 93.7986 133.361 92.3635 134.927C91.4096 135.965 88.2775 136.161 87.1423 136.165C86.9961 136.155 86.8777 136.278 86.877 136.421C87.3106 136.682 91.4733 136.67 92.6171 135.41C94.0613 133.833 95.8494 131.862 97.2615 131.476C97.9008 131.302 98.5533 131.491 98.834 131.943C99.1466 132.441 98.9389 133.154 98.2666 133.886C98.0756 134.089 97.8654 134.294 97.6551 134.499C97.0784 135.053 96.4292 135.688 95.8716 136.7C95.236 137.862 97.2939 141.739 97.7104 142.498C97.7647 142.591 97.8554 142.643 97.9617 142.636Z" fill="#0F0F0F"/>
<path d="M88.6469 145.118C88.8288 145.078 88.9177 144.948 88.8894 144.806C88.8496 144.636 87.9726 140.714 85.9229 140.373C83.942 140.047 78.7232 137.921 78.0267 135.482C77.9284 135.153 77.9975 134.861 78.2163 134.636C78.5264 134.32 79.072 134.199 79.6532 134.335C80.8347 134.606 85.2609 136.782 85.3014 136.808C85.5158 136.824 89.7666 136.049 91.8088 137.972C90.0803 135.636 86.1269 136.201 85.4641 136.309C84.8432 136.003 80.9396 134.111 79.7773 133.839C79.0192 133.666 78.2826 133.837 77.8449 134.286C77.4986 134.643 77.3835 135.13 77.5221 135.638C78.3314 138.482 84.1036 140.612 85.8295 140.896C87.2419 141.133 88.1432 143.894 88.3734 144.934C88.3999 145.048 88.5116 145.127 88.6469 145.118Z" fill="#0F0F0F"/>
<path d="M89.1955 136.546C88.5785 135.684 82.1859 132.328 80.9587 132.568C79.8639 132.752 79.4919 133.628 79.4512 134.062C79.9756 134.067 80.0884 133.236 81.0485 133.07C81.8642 132.923 86.3883 135.112 89.0579 136.516C89.0984 136.543 89.1472 136.549 89.1955 136.546Z" fill="#0F0F0F"/>
<path d="M91.7302 135.955C91.7348 135.408 89.0791 133.917 88.4497 133.63C88.1501 133.496 87.7896 133.317 87.3988 133.121C86.0561 132.448 84.3823 131.605 83.1994 131.621C81.5693 131.628 81.3054 132.679 81.2891 132.728C81.808 132.801 81.9999 132.147 83.2028 132.139C84.2595 132.12 85.9338 132.974 87.1659 133.586C87.567 133.791 87.9275 133.97 88.2368 134.104C88.8456 134.372 91.5623 135.908 91.5925 135.925C91.633 135.951 91.6819 135.958 91.7302 135.955Z" fill="#0F0F0F"/>
<path d="M116.461 96.8447C116.461 96.8447 114.408 89.03 118.214 87.9491C118.214 87.9491 119.745 86.3135 121.178 85.6918C121.178 85.6918 117.614 81.378 118.495 79.025C119.377 76.672 121.885 76.0884 124.917 76.0502C127.949 76.0215 131.29 76.9302 131.484 79.2449C131.678 81.5597 128.637 85.6248 128.637 85.6248C128.637 85.6248 133.082 86.7535 133.286 90.4074C133.489 94.0708 132.976 96.4908 132.976 96.4908L131.949 97.2368L117.197 98.1168L116.461 96.8447Z" fill="#0F0F0F"/>
<path d="M131.766 102.116C131.766 102.116 135.843 103.35 135.921 99.5524C135.921 99.5524 135.749 98.4232 134.909 97.6713C133.298 96.6106 132.223 96.4338 131.865 96.7874L131.507 96.6106C131.507 96.6106 129.044 96.9985 125.596 94.6073C122.148 92.216 120.239 90.5229 120.239 90.5229C120.239 90.5229 118.573 94.4925 117.886 95.4586L117.876 97.3142C117.876 97.3142 114.573 96.3003 113.973 99.5524C113.973 99.5524 113.982 102.145 116.084 102.345C118.186 102.546 118.089 101.963 118.089 101.963C118.089 101.963 118.573 105.961 120.84 107.118L120.617 110.055C120.617 110.055 122.215 111.499 125.247 111.145C128.279 110.791 129.218 109.988 129.218 109.988L129.044 107.118C129.044 107.118 131.243 105.684 131.766 102.116Z" fill="#9F5C2C"/>
<path d="M86.5809 140.922L87.5204 141.132L88.4212 144.805C88.4212 144.805 84.4887 144.92 84.2756 143.868C84.0528 142.816 86.5809 140.922 86.5809 140.922Z" fill="#0F0F0F"/>
<path d="M96.3828 138.53L97.3029 142.031C97.3029 142.031 100.809 140.232 99.9957 138.893C99.182 137.554 96.3828 138.53 96.3828 138.53Z" fill="#0F0F0F"/>
<path d="M155.66 114.77C155.66 114.77 155.137 117.735 154.585 118.089C154.043 118.443 151.505 116.951 151.941 115.736C152.367 114.531 155.66 114.77 155.66 114.77Z" fill="#0F0F0F"/>
<path d="M165.318 116.301C165.318 116.301 164.01 118.96 164.126 120.041C164.126 120.041 167.972 120.06 168.204 118.578C168.388 117.401 165.318 116.301 165.318 116.301Z" fill="#0F0F0F"/>
<path d="M133.297 96.7867C133.297 96.7867 133.623 93.8527 133.187 90.6374C132.984 86.974 128.538 85.8549 128.538 85.8549C128.538 85.8549 131.58 81.7898 131.386 79.475C131.221 77.5237 128.809 76.5672 126.233 76.3376C127.599 77.8776 130.33 81.8185 126.088 85.4532C126.088 85.4532 130.175 87.0506 129.555 91.6131C128.926 96.1756 122.377 92.1904 122.377 92.1904C122.377 92.1904 124.704 93.9582 127.568 95.726L131.686 96.61L133.297 96.7867Z" fill="#313131"/>
<path d="M121.267 97.2466C121.48 97.2179 121.616 97.304 121.674 98.0405C121.742 98.8727 121.519 99.0161 121.335 99.0065C121.151 98.9969 120.957 98.7483 120.967 98.1553C120.977 97.5718 120.996 97.2944 121.267 97.2466Z" fill="#0F0F0F"/>
<path d="M128.424 97.3147C128.638 97.286 128.773 97.3816 128.812 98.1277C128.86 98.9599 128.638 99.0938 128.444 99.0842C128.26 99.0746 128.076 98.8068 128.095 98.2234C128.124 97.6303 128.144 97.3529 128.424 97.3147Z" fill="#0F0F0F"/>
<path d="M116.684 102.661C115.696 102.604 114.97 102.25 114.447 101.666C113.924 101.073 113.653 100.318 113.711 99.5331C113.759 98.7488 114.118 98.0314 114.718 97.5053C115.319 96.9888 116.065 96.7114 116.878 96.7784C117.198 96.7975 117.508 96.8644 117.798 96.9792C117.362 97.3618 117.111 97.3044 116.849 97.2853C116.2 97.2566 115.561 97.4575 115.067 97.8879C114.573 98.3183 114.282 98.9114 114.244 99.5618C114.205 100.212 114.418 100.834 114.854 101.322C115.29 101.81 115.89 102.097 116.549 102.144C116.994 102.164 117.44 102.077 117.837 101.877C117.634 102.546 117.159 102.661 116.684 102.661Z" fill="#0F0F0F"/>
<path d="M116.083 101.34C115.928 100.881 117.488 99.6853 117.488 99.6853L115.734 98.4036C116.044 97.9923 118.078 99.4749 118.078 99.4749C118.078 99.8862 116.248 101.283 116.248 101.283C116.199 101.321 116.141 101.34 116.083 101.34Z" fill="#0F0F0F"/>
<path d="M133.198 102.66C132.723 102.66 132.248 102.546 131.822 102.335C132.462 102.077 132.897 102.173 133.353 102.144C134.011 102.106 134.612 101.809 135.048 101.321C135.484 100.833 135.697 100.212 135.658 99.5612C135.619 98.9108 135.319 98.3178 134.825 97.8874C134.331 97.4569 133.701 97.2561 133.043 97.2848C132.762 97.3039 132.491 97.3613 132.239 97.4761C132.345 96.8735 132.675 96.797 133.014 96.7683C133.808 96.7204 134.573 96.9787 135.174 97.4952C135.774 98.0117 136.123 98.7387 136.181 99.523C136.229 100.307 135.968 101.063 135.445 101.656C134.922 102.249 134.186 102.593 133.391 102.651C133.324 102.66 133.266 102.66 133.198 102.66Z" fill="#0F0F0F"/>
<path d="M133.798 101.341C133.643 101.284 131.803 99.8871 131.803 99.8871C131.803 99.4759 133.837 97.9932 133.837 97.9932C134.147 98.4045 132.394 99.6863 132.394 99.6863L133.953 100.882C133.953 101.303 133.876 101.341 133.798 101.341Z" fill="#0F0F0F"/>
<path d="M152.87 156.207C152.589 156.207 152.308 156.197 152.018 156.178C147.533 155.834 142.768 152.39 142.865 143.763C143.301 152.036 147.814 155.336 152.066 155.662C152.338 155.681 152.599 155.69 152.861 155.69C161.714 155.69 163.815 143.782 164.522 139.793C165.578 133.805 167.932 118.855 167.961 118.702C168.455 118.932 166.101 133.882 165.046 139.879C164.3 143.973 162.149 156.207 152.87 156.207Z" fill="#0F0F0F"/>
<path d="M145.868 140.243C145.703 140.233 145.596 140.099 145.606 139.965C145.935 136.33 146.623 132.973 147.137 130.792C149.171 122.184 151.679 115.708 151.699 115.651C152.163 115.9 149.665 122.337 147.64 130.917C147.127 133.078 146.449 136.417 146.119 140.023C146.11 140.147 145.994 140.243 145.868 140.243Z" fill="#0F0F0F"/>
<path d="M124.937 108.447C123.629 108.447 121.75 108.198 120.258 107.022C119.106 106.123 118.341 104.669 117.924 102.584C117.643 101.206 117.585 96.8637 117.614 95.4481C118.021 95.1994 118.137 95.3142 118.137 95.4577C118.108 96.9785 118.186 101.206 118.437 102.488C118.825 104.449 119.532 105.798 120.578 106.62C121.953 107.701 123.707 107.931 124.937 107.931C125.198 108.323 125.082 108.447 124.937 108.447Z" fill="#0F0F0F"/>
<path d="M124.936 108.448C125.218 108.329 124.612 108.04 124.936 107.938C126.573 108.017 128.227 107.454 129.295 106.621C130.341 105.798 131.048 104.44 131.436 102.489C131.678 101.264 131.726 98.232 131.697 96.5007C132.24 97.7059 132.23 101.178 131.949 102.594C131.533 104.679 130.767 106.133 129.615 107.032C128.123 108.199 126.254 108.448 124.936 108.448Z" fill="#0F0F0F"/>
<path d="M131.61 96.7599C126.651 96.7599 121.546 92.1591 120.248 90.9061C119.919 91.9391 119.009 94.5887 118.079 95.6313C118.272 95.1947 117.725 95.8878 117.953 95.2311C118.526 93.5856 119.873 90.3691 119.88 90.3418C120.384 90.2939 126.476 96.473 131.939 96.2339C131.842 96.7504 131.726 96.7599 131.61 96.7599Z" fill="#0F0F0F"/>
<path d="M120.657 110.141C120.492 110.121 120.385 109.997 120.395 109.854C120.531 108.419 120.579 107.109 120.579 107.099C121.102 107.128 121.063 108.448 120.918 109.901C120.899 110.045 120.782 110.141 120.657 110.141Z" fill="#0F0F0F"/>
<path d="M129.217 110.017C128.83 108.382 128.791 107.138 128.791 107.119C129.314 107.119 129.353 108.343 129.479 109.73C129.237 110.017 129.227 110.017 129.217 110.017Z" fill="#0F0F0F"/>
<path d="M116.511 97.2859C116.191 96.8842 114.641 91.8051 116.23 89.1461C116.685 88.3809 117.363 87.8835 118.235 87.6731C118.554 87.2522 120.027 85.4444 122.555 85.014C126.148 84.3827 131.834 85.2722 133.229 89.1748C133.849 90.9252 133.858 92.9243 133.238 96.8173C133.325 92.9434 133.325 91.0017 132.735 89.3469C131.446 85.7218 126.061 84.9279 122.642 85.5209C120.056 85.9705 118.622 88.027 118.603 88.0461C117.654 88.3235 117.082 88.7252 116.675 89.4043C115.203 91.8721 116.743 96.8938 116.753 96.9512C116.559 97.286 116.54 97.2859 116.511 97.2859Z" fill="#0F0F0F"/>
<path d="M101.855 180.215C102.94 177.202 108.035 150.955 106.35 143.428C104.635 135.757 107.386 128.114 107.415 128.038C107.88 128.286 105.178 135.795 106.863 143.313C108.558 150.908 103.415 177.403 102.088 180.071C102.039 180.158 101.952 180.215 101.855 180.215Z" fill="#0F0F0F"/>
<path d="M147.913 180.215C146.354 177.412 141.21 150.917 142.906 143.313C144.581 135.785 141.888 128.286 141.859 128.21C142.382 128.114 145.124 135.756 143.419 143.428C141.743 150.955 146.828 177.202 148.146 179.842C147.991 180.205 147.952 180.215 147.913 180.215Z" fill="#0F0F0F"/>
<path d="M163.941 120.326C162.614 120.326 161.122 120.183 159.582 119.906C155.776 119.226 152.502 117.84 151.785 116.606C151.572 116.233 151.611 115.936 151.679 115.745C152.192 114.348 154.246 114.348 155.873 114.578C154.623 114.913 152.589 114.798 152.173 115.917C152.124 116.041 152.153 116.185 152.241 116.347C152.88 117.438 156.076 118.748 159.679 119.399C161.83 119.781 163.893 119.896 165.491 119.733C166.944 119.58 167.864 119.188 167.951 118.7C168.038 118.241 167.186 117.352 165.404 116.548C167.108 116.749 168.639 117.82 168.464 118.796C168.329 119.561 167.312 120.068 165.549 120.25C165.045 120.307 164.513 120.326 163.941 120.326Z" fill="#0F0F0F"/>
<path d="M155.073 118.123L156.03 113.894C156.03 113.894 154.201 111.882 155.015 107.708C155.829 103.533 158.646 104.264 158.646 104.264C158.646 104.264 160.158 100.086 160.551 97.8938C160.943 95.7019 162.224 93.0091 164.079 93.2771C165.934 93.545 166.33 96.4375 165.884 98.7276C165.438 101.018 164.382 104.38 164.382 104.38C164.382 104.38 166.38 102.506 167.166 102.527C167.953 102.548 169.579 103.114 170.05 104.068C170.521 105.023 170.711 105.991 170.711 105.991C170.711 105.991 172.308 106.75 172.428 108.295C172.549 109.841 171.532 111.535 167.516 114.212C167.516 114.212 166.955 116.316 164.694 116.708L164.255 120.396C164.255 120.396 161.544 120.273 159.381 119.627C157.178 118.973 155.073 118.123 155.073 118.123Z" fill="#9F5C2C"/>
<path d="M164.253 104.941C166.016 100.933 166.993 95.8894 165.553 93.8977C165.117 93.286 164.493 92.9991 163.699 93.0264C161.377 93.1345 160.664 96.1552 159.911 99.3597C159.507 101.092 159.086 102.884 158.398 104.141C159.579 103.062 160.008 101.232 160.421 99.4701C161.125 96.4689 161.797 93.632 163.703 93.5433C164.323 93.5145 164.789 93.7322 165.12 94.1955C166.24 95.7521 165.765 100.121 163.985 104.59C164.185 104.935 164.215 104.943 164.253 104.941Z" fill="#0F0F0F"/>
<path d="M155.086 118.382C155.328 118.179 156.285 113.95 156.285 113.95C155.535 113.248 154.288 108.126 156.135 105.311C157.086 103.859 162.735 104.601 165.99 106.221C167.4 106.922 168.084 107.656 167.868 108.231C167.549 109.079 166.908 109.683 165.974 110.033C164.21 110.68 161.554 110.277 159.225 108.997C161.432 110.79 164.254 111.214 166.161 110.513C167.229 110.118 168 109.393 168.371 108.409C168.604 107.794 168.415 106.846 166.24 105.76C162.965 104.131 156.937 103.157 155.715 105.033C153.813 107.927 154.881 112.953 155.763 113.974L154.838 118.068C155.037 118.375 155.056 118.383 155.086 118.382Z" fill="#0F0F0F"/>
<path d="M161.81 113.491C162.158 113.474 162.515 113.42 162.888 113.326C164.258 112.965 165.637 112.173 167.252 110.824C168.232 110.003 169.11 109.072 169.867 108.06C170.332 107.425 170.947 106.458 170.838 105.372C170.804 105.057 170.712 104.746 170.572 104.446C170.025 103.332 168.76 102.194 167.464 102.254C166.642 102.311 166.111 102.767 165.598 103.203C164.767 103.902 164.283 104.327 163.696 104.852C164.621 104.713 165.105 104.289 165.768 103.731C166.402 103.194 166.85 102.809 167.449 102.772C168.523 102.722 169.616 103.696 170.097 104.669C170.216 104.922 170.296 105.177 170.317 105.425C170.388 106.121 170.112 106.861 169.446 107.754C168.716 108.736 167.866 109.637 166.913 110.428C165.364 111.726 164.042 112.487 162.758 112.824C161.992 113.023 161.266 113.037 160.646 112.846C160.321 112.746 159.875 112.547 159.566 112.159C158.949 111.383 159.322 110.456 159.601 109.974C158.56 110.75 158.557 111.727 159.155 112.475C159.464 112.872 159.933 113.166 160.485 113.342C160.888 113.467 161.336 113.513 161.81 113.491Z" fill="#0F0F0F"/>
<path d="M163.378 115.899C163.542 115.891 163.716 115.874 163.88 115.857C165.277 115.658 166.751 115.034 168.511 113.889C169.583 113.188 170.574 112.376 171.442 111.454C171.988 110.883 172.712 109.997 172.729 108.895C172.734 108.579 172.68 108.266 172.578 107.945C172.331 107.209 171.79 106.229 170.712 105.762C171.412 106.63 171.868 107.47 172.091 108.111C172.181 108.375 172.223 108.641 172.215 108.89C172.199 109.59 171.834 110.297 171.067 111.108C170.226 111.999 169.274 112.79 168.229 113.461C166.535 114.565 165.128 115.167 163.808 115.352C163.028 115.465 162.297 115.385 161.703 115.125C161.397 114.996 160.978 114.747 160.715 114.319C160.453 113.89 160.4 113.577 160.535 113.149C159.866 113.563 159.936 114.039 160.272 114.588C160.535 115.016 160.958 115.37 161.493 115.604C162.037 115.828 162.681 115.932 163.378 115.899Z" fill="#0F0F0F"/>
<path d="M164.237 120.656C164.48 120.444 165.065 116.969 165.065 116.969C166.296 116.558 167.078 115.65 167.909 114.338C166.666 115.334 165.93 116.192 164.763 116.524C164.578 116.733 163.971 120.352 163.971 120.352C164.208 120.657 164.228 120.656 164.237 120.656Z" fill="#0F0F0F"/>
<path d="M97.0509 166.02C95.075 166.02 93.2928 165.504 91.743 164.48C87.7815 161.869 86.2414 156.58 85.6796 153.662C85.4375 152.428 85.1566 150.707 84.8563 148.889C84.5948 147.282 84.3043 145.561 84.0137 143.906C84.3721 143.581 84.498 143.676 84.5271 143.82C84.8273 145.475 85.1082 147.196 85.3794 148.813C85.6797 150.63 85.9702 152.352 86.2027 153.576C86.7548 156.417 88.2368 161.563 92.0434 164.069C94.1452 165.456 96.7023 165.848 99.6274 165.245C101.245 164.911 105.081 163.6 105.788 158.636C105.526 164.136 101.08 165.475 99.7339 165.752C98.8041 165.925 97.913 166.02 97.0509 166.02Z" fill="#0F0F0F"/>
<path d="M104.993 153.327C102.31 145.684 99.8495 139.19 99.8301 139.123C100.343 139.008 102.813 145.512 105.245 152.992C105.041 153.327 105.012 153.327 104.993 153.327Z" fill="#0F0F0F"/>
<path d="M86.9777 145.063C85.4086 145.063 84.2656 144.728 84.0234 143.944C84.8177 144.767 88.3046 144.91 92.8182 143.561C96.3245 142.519 99.3466 140.855 99.8502 139.697C99.9277 139.525 99.9277 139.382 99.8696 139.267C99.3563 138.253 97.7 138.454 96.4118 138.788C96.2762 138.836 96.1308 138.741 96.0921 138.607C98.4264 137.717 99.7921 137.975 100.335 139.037C100.422 139.219 100.499 139.515 100.325 139.908C99.7534 141.208 96.6636 142.959 92.9635 144.068C90.9004 144.661 88.6921 145.063 86.9777 145.063Z" fill="#0F0F0F"/>
<path d="M84.2754 144.124C83.7523 143.034 85.1955 141.599 86.6968 140.7C85.3892 142.078 84.3819 143.311 84.5272 143.79C84.3238 144.115 84.2947 144.124 84.2754 144.124Z" fill="#0F0F0F"/>
<path d="M119.465 96.4541C119.688 94.8376 121.47 94.4645 122.535 94.7036C122.7 95.1532 122.564 95.2393 122.419 95.2106C121.547 95.0193 120.056 95.3445 119.707 96.2915C119.668 96.3871 119.571 96.4541 119.465 96.4541Z" fill="#0F0F0F"/>
<path d="M125.305 104.86C124.695 104.86 124.201 104.707 124.162 104.688C124.336 104.2 125.605 104.593 126.419 104.047C126.845 103.76 127.087 103.244 127.136 102.517C127.601 103.445 127.281 104.086 126.709 104.478C126.274 104.774 125.76 104.86 125.305 104.86Z" fill="#0F0F0F"/>
<path d="M123.107 102.374C122.845 102.23 122.032 101.494 122.012 100.729C122.003 100.442 122.109 100.183 122.313 99.9824C122.545 99.7433 122.826 99.6285 123.136 99.6285C123.475 99.6285 123.795 99.772 124.027 99.925C124.182 98.4998 124.298 96.5103 124.008 96.0798C124.967 96.5868 124.569 99.8102 124.492 100.451C123.921 100.47 123.514 100.145 123.146 100.145C122.981 100.145 122.826 100.212 122.69 100.346C122.555 101.178 123.088 101.742 123.291 101.924C123.243 102.345 123.175 102.374 123.107 102.374Z" fill="#0F0F0F"/>
<path d="M119.329 89.5266C119.116 89.4213 118.273 88.2448 118.273 88.2448C118.7 87.9483 119.542 89.1153 119.542 89.1153C119.436 89.517 119.387 89.5266 119.329 89.5266Z" fill="#0F0F0F"/>
<path d="M149.414 123.561C148.639 121.811 146.809 118.903 146.799 118.874C141.801 111.289 131.505 112.246 131.398 112.255C131.457 111.729 142.063 110.744 147.235 118.597C147.312 118.721 149.114 121.591 149.656 123.217C149.463 123.561 149.443 123.561 149.414 123.561Z" fill="#0F0F0F"/>
<path d="M121.169 85.9605C120.81 85.6831 117.072 81.3406 118.428 78.4041C119.193 76.7589 121.392 75.9268 124.956 75.9268C128.521 75.9268 130.71 76.7493 131.455 78.3849C132.792 81.3023 128.985 85.6161 128.821 85.7979C128.462 85.4153 132.172 81.2067 130.981 78.5954C130.332 77.1702 128.298 76.4433 124.956 76.4433C121.605 76.4433 119.571 77.1798 118.902 78.6145C117.682 81.2449 121.324 85.4822 121.363 85.5301C121.295 85.9318 121.237 85.9605 121.169 85.9605Z" fill="#0F0F0F"/>
<path d="M124.917 111.394C119.997 111.394 119.639 109.089 119.629 108.993C120.152 108.945 120.501 110.878 124.917 110.878C129.324 110.878 129.557 108.955 129.557 108.936C130.07 109.079 129.848 111.394 124.917 111.394Z" fill="#0F0F0F"/>
<path d="M120.085 113.021C118.157 112.17 117.072 110.792 117.072 109.291C117.072 108.411 117.586 107.186 120.017 106.326C118.467 107.425 117.595 108.258 117.595 109.291C117.595 110.582 118.564 111.797 120.191 112.533C120.278 112.964 120.191 113.021 120.085 113.021Z" fill="#0F0F0F"/>
<path d="M125.16 113.929C124.414 113.929 123.707 113.891 123.049 113.804C123.756 113.374 124.444 113.412 125.16 113.412C130.071 113.412 132.715 111.289 132.715 109.29C132.715 108.247 131.718 107.338 129.897 106.726C132.115 106.927 133.238 108.018 133.238 109.29C133.238 111.538 130.41 113.929 125.16 113.929Z" fill="#0F0F0F"/>
<path d="M118.845 116.158C118.68 116.149 118.574 116.024 118.583 115.881C118.806 112.983 118.283 111.864 118.273 111.844C118.767 111.672 119.329 112.849 119.097 115.919C119.097 116.053 118.98 116.158 118.845 116.158Z" fill="#0F0F0F"/>
<path d="M131.329 116.156C130.835 112.856 131.407 111.699 131.426 111.651C131.891 111.89 131.368 112.99 131.591 115.879C131.339 116.156 131.339 116.156 131.329 116.156Z" fill="#0F0F0F"/>
<path d="M169.979 116.66H81.6972C78.7384 116.66 76.3398 119.058 76.3398 122.017V177.3C76.3398 180.259 78.7384 182.658 81.6972 182.658H169.979C172.938 182.658 175.337 180.259 175.337 177.3V122.017C175.337 119.058 172.938 116.66 169.979 116.66Z" fill="url(#paint0_linear_3140_37327)" fill-opacity="0.9"/>
<path d="M169.98 117.999H81.6977C79.4786 117.999 77.6797 119.798 77.6797 122.017V177.3C77.6797 179.519 79.4786 181.318 81.6977 181.318H169.98C172.199 181.318 173.998 179.519 173.998 177.3V122.017C173.998 119.798 172.199 117.999 169.98 117.999Z" stroke="#027333" stroke-width="2.67869"/>
<path d="M118.822 125.993H85.3632C84.2587 125.993 83.3633 126.888 83.3633 127.993C83.3633 129.097 84.2587 129.993 85.3632 129.993H118.822C119.926 129.993 120.822 129.097 120.822 127.993C120.822 126.888 119.926 125.993 118.822 125.993Z" fill="#81BC89"/>
<path d="M101.431 135.993H85.0292C83.9247 135.993 83.0293 136.888 83.0293 137.993C83.0293 139.097 83.9247 139.993 85.0292 139.993H101.431C102.535 139.993 103.431 139.097 103.431 137.993C103.431 136.888 102.535 135.993 101.431 135.993Z" fill="#027333"/>
<path d="M161.966 135.993H109.109C108.005 135.993 107.109 136.888 107.109 137.993C107.109 139.097 108.005 139.993 109.109 139.993H161.966C163.07 139.993 163.966 139.097 163.966 137.993C163.966 136.888 163.07 135.993 161.966 135.993Z" fill="#81BC89"/>
<path d="M130.028 147.327H112.566C111.807 147.327 111.191 147.942 111.191 148.702C111.191 149.461 111.807 150.077 112.566 150.077H130.028C130.787 150.077 131.403 149.461 131.403 148.702C131.403 147.942 130.787 147.327 130.028 147.327Z" fill="#027333"/>
<path d="M167.025 152.827H112.566C111.807 152.827 111.191 153.442 111.191 154.202C111.191 154.961 111.807 155.577 112.566 155.577H167.025C167.784 155.577 168.4 154.961 168.4 154.202C168.4 153.442 167.784 152.827 167.025 152.827Z" fill="#81BC89"/>
<path d="M116.325 166.66H112.566C111.807 166.66 111.191 167.275 111.191 168.035C111.191 168.794 111.807 169.41 112.566 169.41H116.325C117.085 169.41 117.7 168.794 117.7 168.035C117.7 167.275 117.085 166.66 116.325 166.66Z" fill="#027333"/>
<path d="M122.491 172.16H112.566C111.807 172.16 111.191 172.775 111.191 173.535C111.191 174.294 111.807 174.91 112.566 174.91H122.491C123.251 174.91 123.866 174.294 123.866 173.535C123.866 172.775 123.251 172.16 122.491 172.16Z" fill="#81BC89"/>
<path d="M138.591 166.66H134.832C134.073 166.66 133.457 167.275 133.457 168.035C133.457 168.794 134.073 169.41 134.832 169.41H138.591C139.35 169.41 139.966 168.794 139.966 168.035C139.966 167.275 139.35 166.66 138.591 166.66Z" fill="#027333"/>
<path d="M144.757 172.16H134.832C134.073 172.16 133.457 172.775 133.457 173.535C133.457 174.294 134.073 174.91 134.832 174.91H144.757C145.516 174.91 146.132 174.294 146.132 173.535C146.132 172.775 145.516 172.16 144.757 172.16Z" fill="#81BC89"/>
<path d="M160.858 166.66H157.1C156.34 166.66 155.725 167.275 155.725 168.035C155.725 168.794 156.34 169.41 157.1 169.41H160.858C161.618 169.41 162.233 168.794 162.233 168.035C162.233 167.275 161.618 166.66 160.858 166.66Z" fill="#027333"/>
<path d="M167.025 172.16H157.1C156.34 172.16 155.725 172.775 155.725 173.535C155.725 174.294 156.34 174.91 157.1 174.91H167.025C167.784 174.91 168.4 174.294 168.4 173.535C168.4 172.775 167.784 172.16 167.025 172.16Z" fill="#81BC89"/>
<mask id="mask5_3140_37327" style="mask-type:alpha" maskUnits="userSpaceOnUse" x="83" y="147" width="23" height="28">
<path d="M104.098 147.327H84.7026C83.9629 147.327 83.3633 147.927 83.3633 148.666V173.653C83.3633 174.393 83.9629 174.993 84.7026 174.993H104.098C104.837 174.993 105.437 174.393 105.437 173.653V148.666C105.437 147.927 104.837 147.327 104.098 147.327Z" fill="white"/>
</mask>
<g mask="url(#mask5_3140_37327)">
<path d="M105.437 147.327H83.3633V174.993H105.437V147.327Z" fill="white"/>
<path d="M112.524 174.812L110.962 179.549C110.962 179.549 109.513 174.749 105.443 173.191C101.365 171.633 99.13 172.093 99.13 172.093C99.13 172.093 100.337 171.267 100.184 170.214C100.026 169.16 98.2727 168.328 98.2727 168.328L91.598 168.567C91.598 168.567 90.0357 169.148 89.9341 170.308C89.8389 171.469 90.766 172.1 90.766 172.1C90.766 172.1 87.1843 171.917 85.1076 172.863C83.0309 173.803 80.1475 174.938 78.6107 179.556C77.0738 184.167 76.9214 189.408 76.9214 189.408L69.9292 191.175C69.9292 191.175 67.9477 192.367 68.2526 193.117L69.6815 200.971C69.6815 200.971 71.2057 207.544 76.1085 207.537C81.0113 207.531 82.2751 203.942 82.2751 203.942C82.2751 203.942 80.8779 214.242 79.7792 216.911H109.977C109.977 216.911 107.748 208.414 107.068 201.57C107.068 201.57 106.389 196.278 106.713 194.183C106.713 194.183 107.354 199.873 111.425 200.826C115.496 201.778 117.973 199.501 119.402 196.152C120.831 192.802 121.675 186.683 121.967 184.848C122.259 183.019 123.288 176.427 123.288 176.427C123.288 176.427 123.492 175.039 118.494 174.326C113.489 173.626 112.924 173.746 112.524 174.812Z" fill="#F69F37"/>
<path d="M89.3567 162.102C89.3567 162.102 88.0104 156.948 90.5063 156.235C90.5063 156.235 91.5096 155.157 92.4496 154.747C92.4496 154.747 90.1125 151.902 90.6904 150.35C91.2683 148.798 92.9132 148.414 94.9009 148.388C96.8887 148.369 99.0798 148.969 99.2068 150.495C99.3338 152.022 97.3397 154.703 97.3397 154.703C97.3397 154.703 100.255 155.447 100.388 157.856C100.521 160.272 100.185 161.868 100.185 161.868L99.5116 162.36L89.8394 162.941L89.3567 162.102Z" fill="#0F0F0F"/>
<path d="M99.391 165.578C99.391 165.578 102.065 166.392 102.115 163.887C102.115 163.887 102.003 163.143 101.452 162.647C100.395 161.947 99.691 161.831 99.4563 162.064L99.2215 161.947C99.2215 161.947 97.6064 162.203 95.3455 160.626C93.0847 159.049 91.8335 157.933 91.8335 157.933C91.8335 157.933 90.7412 160.551 90.2903 161.188L90.2839 162.411C90.2839 162.411 88.1184 161.743 87.7246 163.887C87.7246 163.887 87.7309 165.597 89.109 165.729C90.4872 165.862 90.4237 165.477 90.4237 165.477C90.4237 165.477 90.7412 168.114 92.2273 168.877L92.0812 170.813C92.0812 170.813 93.1291 171.766 95.1169 171.533C97.1047 171.299 97.7207 170.769 97.7207 170.769L97.6064 168.877C97.6064 168.877 99.048 167.931 99.391 165.578Z" fill="#9F5C2C"/>
<path d="M100.394 162.065C100.394 162.065 100.608 160.13 100.322 158.01C100.189 155.594 97.2741 154.856 97.2741 154.856C97.2741 154.856 99.2682 152.175 99.1412 150.648C99.0332 149.361 97.4519 148.731 95.7626 148.579C96.6581 149.595 98.449 152.194 95.6673 154.591C95.6673 154.591 98.3473 155.644 97.9409 158.653C97.5281 161.662 93.2344 159.034 93.2344 159.034C93.2344 159.034 94.7603 160.2 96.6383 161.365L99.3379 161.948L100.394 162.065Z" fill="#313131"/>
<path d="M92.5076 162.367C92.6473 162.348 92.7363 162.405 92.7744 162.89C92.8188 163.439 92.6728 163.534 92.5521 163.527C92.4314 163.521 92.3044 163.357 92.3108 162.966C92.3171 162.581 92.3298 162.398 92.5076 162.367Z" fill="#0F0F0F"/>
<path d="M97.1992 162.411C97.339 162.392 97.4279 162.455 97.4533 162.947C97.485 163.496 97.339 163.584 97.212 163.578C97.0913 163.572 96.9706 163.395 96.9833 163.01C97.0024 162.619 97.0151 162.436 97.1992 162.411Z" fill="#0F0F0F"/>
<path d="M89.5016 165.937C88.8538 165.9 88.3776 165.666 88.0346 165.281C87.6917 164.89 87.5138 164.392 87.552 163.875C87.5837 163.358 87.8187 162.884 88.2125 162.537C88.6062 162.197 89.0952 162.014 89.6287 162.058C89.8382 162.071 90.0414 162.115 90.232 162.191C89.9462 162.443 89.7811 162.405 89.6096 162.392C89.1841 162.373 88.765 162.506 88.4411 162.79C88.1172 163.074 87.9266 163.465 87.9012 163.894C87.8758 164.323 88.0155 164.733 88.3013 165.054C88.5871 165.376 88.9808 165.565 89.4127 165.597C89.7048 165.609 89.997 165.553 90.2574 165.42C90.124 165.862 89.8128 165.937 89.5016 165.937Z" fill="#0F0F0F"/>
<path d="M89.1095 165.067C89.0079 164.764 90.0304 163.976 90.0304 163.976L88.8809 163.13C89.0841 162.859 90.4178 163.837 90.4178 163.837C90.4178 164.108 89.2175 165.029 89.2175 165.029C89.1857 165.054 89.1476 165.067 89.1095 165.067Z" fill="#0F0F0F"/>
<path d="M100.332 165.937C100.02 165.937 99.7091 165.861 99.4297 165.722C99.8488 165.552 100.135 165.615 100.433 165.596C100.865 165.571 101.259 165.376 101.545 165.054C101.83 164.732 101.97 164.322 101.945 163.893C101.919 163.464 101.722 163.073 101.398 162.789C101.075 162.505 100.662 162.373 100.23 162.392C100.046 162.404 99.8679 162.442 99.7028 162.518C99.7727 162.121 99.9885 162.07 100.211 162.051C100.732 162.02 101.233 162.19 101.627 162.531C102.021 162.871 102.249 163.351 102.288 163.868C102.319 164.385 102.148 164.883 101.805 165.275C101.462 165.666 100.979 165.893 100.459 165.931C100.414 165.937 100.376 165.937 100.332 165.937Z" fill="#0F0F0F"/>
<path d="M100.724 165.067C100.623 165.029 99.416 164.108 99.416 164.108C99.416 163.837 100.75 162.859 100.75 162.859C100.953 163.13 99.8035 163.976 99.8035 163.976L100.826 164.764C100.826 165.042 100.775 165.067 100.724 165.067Z" fill="#0F0F0F"/>
<path d="M94.9149 169.753C94.0576 169.753 92.8256 169.589 91.8475 168.814C91.0918 168.221 90.5901 167.262 90.317 165.887C90.1328 164.978 90.0947 162.115 90.1138 161.181C90.3805 161.017 90.4567 161.093 90.4567 161.187C90.4376 162.19 90.4885 164.978 90.6536 165.824C90.9076 167.117 91.3712 168.006 92.0571 168.549C92.9589 169.261 94.1084 169.413 94.9149 169.413C95.0864 169.671 95.0102 169.753 94.9149 169.753Z" fill="#0F0F0F"/>
<path d="M94.9123 169.755C95.0968 169.677 94.6994 169.486 94.9123 169.419C95.9856 169.471 97.0698 169.1 97.7701 168.55C98.456 168.008 98.9196 167.112 99.1736 165.825C99.3324 165.018 99.3641 163.018 99.3451 161.876C99.7007 162.671 99.6944 164.961 99.5102 165.894C99.2371 167.27 98.7354 168.228 97.9797 168.821C97.0016 169.591 95.776 169.755 94.9123 169.755Z" fill="#0F0F0F"/>
<path d="M99.2883 162.047C96.0367 162.047 92.6899 159.013 91.8389 158.186C91.623 158.868 91.026 160.615 90.4163 161.302C90.5431 161.014 90.1843 161.472 90.3342 161.038C90.7097 159.953 91.593 157.832 91.5976 157.814C91.9278 157.783 95.9224 161.857 99.5042 161.7C99.4407 162.04 99.3645 162.047 99.2883 162.047Z" fill="#0F0F0F"/>
<path d="M92.1054 170.871C91.9974 170.859 91.9276 170.777 91.934 170.682C92.0229 169.736 92.0546 168.872 92.0546 168.865C92.3976 168.884 92.3721 169.755 92.2769 170.713C92.2642 170.808 92.188 170.871 92.1054 170.871Z" fill="#0F0F0F"/>
<path d="M97.7209 170.789C97.4668 169.71 97.4414 168.89 97.4414 168.877C97.7843 168.877 97.8098 169.685 97.8924 170.599C97.7336 170.789 97.7272 170.789 97.7209 170.789Z" fill="#0F0F0F"/>
<path d="M89.3882 162.393C89.1786 162.128 88.1625 158.779 89.204 157.025C89.5025 156.521 89.947 156.193 90.5186 156.054C90.7282 155.776 91.6935 154.584 93.3511 154.3C95.7072 153.884 99.4351 154.471 100.35 157.044C100.756 158.199 100.762 159.517 100.356 162.084C100.413 159.53 100.413 158.249 100.026 157.158C99.1811 154.767 95.65 154.244 93.4082 154.635C91.7126 154.931 90.7726 156.287 90.7599 156.3C90.1375 156.483 89.7628 156.748 89.4961 157.196C88.5308 158.823 89.5406 162.135 89.547 162.173C89.42 162.393 89.4073 162.393 89.3882 162.393Z" fill="#0F0F0F"/>
<path d="M91.3242 161.844C91.4703 160.778 92.6389 160.532 93.3374 160.689C93.4454 160.986 93.3565 161.043 93.2612 161.024C92.6897 160.897 91.7116 161.112 91.483 161.736C91.4576 161.799 91.3941 161.844 91.3242 161.844Z" fill="#0F0F0F"/>
<path d="M95.1536 167.388C94.7535 167.388 94.4297 167.287 94.4043 167.274C94.5186 166.952 95.3505 167.211 95.884 166.851C96.1634 166.662 96.3222 166.322 96.3539 165.842C96.6588 166.454 96.4492 166.877 96.0745 167.135C95.7887 167.331 95.4521 167.388 95.1536 167.388Z" fill="#0F0F0F"/>
<path d="M93.7122 165.749C93.5407 165.654 93.0072 165.169 92.9945 164.664C92.9882 164.475 93.0581 164.304 93.1914 164.172C93.3439 164.014 93.528 163.939 93.7312 163.939C93.9535 163.939 94.1631 164.033 94.3155 164.134C94.4172 163.194 94.4934 161.882 94.3028 161.598C94.9316 161.933 94.6712 164.058 94.6204 164.481C94.2457 164.494 93.9789 164.279 93.7376 164.279C93.6296 164.279 93.528 164.323 93.4391 164.412C93.3502 164.96 93.6995 165.333 93.8329 165.453C93.8011 165.73 93.7566 165.749 93.7122 165.749Z" fill="#0F0F0F"/>
<path d="M91.2371 157.277C91.0974 157.208 90.5449 156.432 90.5449 156.432C90.8244 156.236 91.3769 157.006 91.3769 157.006C91.3071 157.271 91.2752 157.277 91.2371 157.277Z" fill="#0F0F0F"/>
<path d="M76.9225 189.593C76.751 189.347 76.6176 181.582 79.9835 176.447C83.3749 171.268 90.9005 171.956 90.9704 171.962C91.1165 172.24 91.0275 172.315 90.9386 172.303C90.8624 172.296 83.5464 171.634 80.2694 176.63C76.9606 181.676 77.094 189.34 77.094 189.416C76.9289 189.593 76.9225 189.593 76.9225 189.593Z" fill="#0F0F0F"/>
<path d="M110.961 179.72C110.453 178.566 109.253 176.648 109.246 176.629C105.969 171.627 99.2183 172.258 99.1484 172.264C99.1865 171.917 106.141 171.268 109.532 176.446C109.583 176.528 110.764 178.421 111.12 179.493C110.993 179.72 110.98 179.72 110.961 179.72Z" fill="#0F0F0F"/>
<path d="M92.4438 154.924C92.2088 154.741 89.7574 151.878 90.6465 149.941C91.1482 148.856 92.5899 148.307 94.927 148.307C97.264 148.307 98.6993 148.85 99.1883 149.928C100.065 151.852 97.5689 154.697 97.4609 154.817C97.2259 154.565 99.6583 151.789 98.8771 150.067C98.4516 149.127 97.118 148.648 94.927 148.648C92.7296 148.648 91.3959 149.134 90.9577 150.08C90.1575 151.815 92.5454 154.609 92.5708 154.64C92.5264 154.905 92.4882 154.924 92.4438 154.924Z" fill="#0F0F0F"/>
<path d="M94.9011 171.697C91.6749 171.697 91.4399 170.177 91.4336 170.114C91.7765 170.082 92.0051 171.356 94.9011 171.356C97.7907 171.356 97.9431 170.088 97.9431 170.076C98.2797 170.17 98.1336 171.697 94.9011 171.697Z" fill="#0F0F0F"/>
<path d="M91.7309 172.769C90.4671 172.208 89.7559 171.299 89.7559 170.309C89.7559 169.729 90.0925 168.921 91.6865 168.354C90.6704 169.079 90.0988 169.628 90.0988 170.309C90.0988 171.161 90.7339 171.962 91.8008 172.447C91.8579 172.731 91.8008 172.769 91.7309 172.769Z" fill="#0F0F0F"/>
<path d="M95.0602 173.369C94.5712 173.369 94.1076 173.344 93.6758 173.287C94.1394 173.003 94.5902 173.029 95.0602 173.029C98.28 173.029 100.014 171.628 100.014 170.31C100.014 169.622 99.3597 169.023 98.1657 168.62C99.6201 168.752 100.357 169.471 100.357 170.31C100.357 171.792 98.5023 173.369 95.0602 173.369Z" fill="#0F0F0F"/>
<path d="M90.9196 174.839C90.8116 174.832 90.7418 174.75 90.7482 174.656C90.8943 172.744 90.5513 172.006 90.5449 171.994C90.8688 171.88 91.2371 172.656 91.0847 174.681C91.0847 174.769 91.0085 174.839 90.9196 174.839Z" fill="#0F0F0F"/>
<path d="M99.1061 174.837C98.7822 172.661 99.157 171.898 99.1697 171.866C99.4745 172.024 99.1315 172.749 99.2776 174.654C99.1125 174.837 99.1125 174.837 99.1061 174.837Z" fill="#0F0F0F"/>
</g>
<path d="M19.699 205.208H18.0771V198.909H16V197.559H21.776V198.909H19.699V205.208ZM24.4233 205.208H22.8276V199.359H24.4233V205.208ZM25.6842 197V197.11C25.583 197.207 25.4505 197.328 25.2866 197.471C25.1226 197.614 24.9465 197.764 24.7581 197.92C24.5698 198.074 24.3849 198.222 24.2036 198.365C24.0222 198.505 23.8635 198.622 23.7275 198.716H22.6654V198.574C22.7805 198.442 22.9131 198.285 23.063 198.104C23.2165 197.919 23.3682 197.729 23.5182 197.533C23.6682 197.338 23.7937 197.16 23.8949 197H25.6842ZM28.5669 204.042C28.7413 204.042 28.9105 204.024 29.0744 203.989C29.2418 203.955 29.4075 203.911 29.5714 203.859V205.046C29.4005 205.123 29.1878 205.186 28.9332 205.235C28.682 205.287 28.4065 205.313 28.1065 205.313C27.7577 205.313 27.4438 205.257 27.1648 205.146C26.8893 205.031 26.6713 204.833 26.5108 204.554C26.3539 204.272 26.2754 203.88 26.2754 203.377V200.557H25.5115V199.882L26.3905 199.349L26.8509 198.114H27.8711V199.359H29.5087V200.557H27.8711V203.377C27.8711 203.601 27.9339 203.768 28.0594 203.88C28.1885 203.988 28.3577 204.042 28.5669 204.042ZM36.1269 199.359V205.208H34.9027L34.6882 204.46H34.6045C34.4789 204.659 34.322 204.821 34.1336 204.947C33.9453 205.072 33.7377 205.165 33.511 205.224C33.2843 205.283 33.0489 205.313 32.8047 205.313C32.3862 205.313 32.0217 205.24 31.7113 205.093C31.4008 204.943 31.1584 204.711 30.984 204.397C30.8131 204.084 30.7277 203.676 30.7277 203.173V199.359H32.3234V202.776C32.3234 203.194 32.3984 203.51 32.5484 203.723C32.6983 203.935 32.9373 204.042 33.2651 204.042C33.5895 204.042 33.8441 203.968 34.029 203.822C34.2138 203.672 34.3429 203.454 34.4161 203.168C34.4929 202.879 34.5312 202.526 34.5312 202.111V199.359H36.1269ZM39.3968 205.208H37.8011V197.068H39.3968V205.208ZM46.3918 202.273C46.3918 202.762 46.3255 203.194 46.193 203.571C46.0639 203.948 45.8739 204.267 45.6227 204.528C45.3751 204.786 45.0751 204.982 44.7229 205.114C44.3741 205.247 43.9799 205.313 43.5405 205.313C43.1289 205.313 42.7504 205.247 42.4051 205.114C42.0633 204.982 41.7651 204.786 41.5105 204.528C41.2594 204.267 41.0641 203.948 40.9245 203.571C40.7885 203.194 40.7205 202.762 40.7205 202.273C40.7205 201.625 40.8356 201.075 41.0658 200.625C41.296 200.175 41.6239 199.834 42.0494 199.6C42.4749 199.366 42.9824 199.249 43.5718 199.249C44.1194 199.249 44.6043 199.366 45.0263 199.6C45.4518 199.834 45.7849 200.175 46.0256 200.625C46.2697 201.075 46.3918 201.625 46.3918 202.273ZM42.3476 202.273C42.3476 202.657 42.3894 202.98 42.4732 203.241C42.5569 203.503 42.6877 203.7 42.8655 203.832C43.0434 203.965 43.2754 204.031 43.5614 204.031C43.8439 204.031 44.0724 203.965 44.2468 203.832C44.4246 203.7 44.5537 203.503 44.6339 203.241C44.7176 202.98 44.7595 202.657 44.7595 202.273C44.7595 201.886 44.7176 201.565 44.6339 201.311C44.5537 201.053 44.4246 200.859 44.2468 200.73C44.0689 200.601 43.8369 200.536 43.5509 200.536C43.1289 200.536 42.8219 200.681 42.6301 200.971C42.4418 201.26 42.3476 201.694 42.3476 202.273Z" fill="#0F0F0F"/>
<path d="M22.0161 224.155C22.0161 224.909 21.8788 225.539 21.6041 226.046C21.3294 226.55 20.9312 226.93 20.4093 227.186C19.8905 227.439 19.2602 227.566 18.5186 227.566H16.7012V220.873H18.72C19.4006 220.873 19.9866 220.998 20.4779 221.248C20.9693 221.496 21.3477 221.863 21.6133 222.352C21.8818 222.837 22.0161 223.438 22.0161 224.155ZM21.1967 224.183C21.1967 223.582 21.096 223.086 20.8945 222.695C20.6962 222.304 20.4032 222.014 20.0156 221.825C19.631 221.633 19.1595 221.537 18.601 221.537H17.4794V226.897H18.4271C19.3487 226.897 20.04 226.67 20.5008 226.215C20.9647 225.761 21.1967 225.083 21.1967 224.183ZM25.3213 222.457C25.7486 222.457 26.1148 222.552 26.42 222.741C26.7252 222.93 26.9587 223.196 27.1204 223.537C27.2822 223.876 27.363 224.273 27.363 224.728V225.199H23.8976C23.9068 225.788 24.0533 226.237 24.3371 226.545C24.6209 226.853 25.0207 227.007 25.5365 227.007C25.8539 227.007 26.1347 226.978 26.3788 226.92C26.623 226.862 26.8763 226.777 27.1387 226.664V227.332C26.8854 227.445 26.6336 227.528 26.3834 227.58C26.1362 227.631 25.8432 227.657 25.5044 227.657C25.0222 227.657 24.6011 227.56 24.2409 227.364C23.8839 227.166 23.6062 226.876 23.4078 226.495C23.2094 226.113 23.1102 225.646 23.1102 225.094C23.1102 224.554 23.2002 224.087 23.3803 223.693C23.5634 223.296 23.8198 222.991 24.1494 222.777C24.482 222.564 24.8727 222.457 25.3213 222.457ZM25.3122 223.08C24.9063 223.08 24.5828 223.212 24.3417 223.478C24.1006 223.743 23.9571 224.114 23.9113 224.59H26.5665C26.5634 224.291 26.5161 224.029 26.4246 223.803C26.3361 223.574 26.2003 223.397 26.0172 223.272C25.834 223.144 25.599 223.08 25.3122 223.08ZM31.8997 226.192C31.8997 226.513 31.8188 226.783 31.6571 227.003C31.4984 227.219 31.2695 227.383 30.9704 227.493C30.6744 227.602 30.3203 227.657 29.9083 227.657C29.5574 227.657 29.2537 227.63 28.9973 227.575C28.741 227.52 28.5167 227.442 28.3244 227.342V226.641C28.5289 226.742 28.773 226.833 29.0569 226.916C29.3407 226.998 29.6306 227.039 29.9267 227.039C30.36 227.039 30.6744 226.969 30.8697 226.829C31.065 226.688 31.1627 226.498 31.1627 226.257C31.1627 226.119 31.123 225.999 31.0436 225.895C30.9674 225.788 30.8376 225.686 30.6545 225.588C30.4714 225.488 30.2181 225.378 29.8946 225.259C29.5742 225.137 29.2964 225.016 29.0614 224.897C28.8295 224.775 28.6494 224.627 28.5212 224.453C28.3961 224.279 28.3336 224.053 28.3336 223.775C28.3336 223.351 28.5045 223.026 28.8463 222.8C29.1911 222.571 29.6428 222.457 30.2013 222.457C30.5035 222.457 30.7858 222.487 31.0482 222.549C31.3137 222.607 31.5609 222.686 31.7898 222.787L31.5335 223.395C31.326 223.307 31.1047 223.232 30.8697 223.171C30.6347 223.11 30.3951 223.08 30.151 223.08C29.8 223.08 29.5299 223.138 29.3407 223.254C29.1545 223.369 29.0614 223.528 29.0614 223.73C29.0614 223.885 29.1042 224.013 29.1896 224.114C29.2781 224.215 29.4185 224.309 29.6108 224.398C29.803 224.486 30.0564 224.59 30.3707 224.709C30.685 224.825 30.9567 224.946 31.1856 225.071C31.4145 225.193 31.5899 225.343 31.712 225.52C31.8371 225.694 31.8997 225.918 31.8997 226.192ZM35.1317 227.657C34.68 227.657 34.2817 227.564 33.9369 227.378C33.592 227.192 33.3234 226.908 33.1312 226.527C32.9389 226.145 32.8427 225.665 32.8427 225.085C32.8427 224.477 32.9435 223.981 33.1449 223.597C33.3494 223.209 33.6301 222.922 33.9872 222.736C34.3443 222.55 34.7502 222.457 35.2049 222.457C35.4552 222.457 35.6963 222.483 35.9282 222.535C36.1632 222.584 36.3555 222.646 36.505 222.722L36.2761 223.359C36.1235 223.298 35.9465 223.243 35.7451 223.194C35.5467 223.145 35.3606 223.121 35.1866 223.121C34.8387 223.121 34.5488 223.196 34.3168 223.345C34.0879 223.495 33.9155 223.714 33.7995 224.004C33.6866 224.294 33.6301 224.651 33.6301 225.075C33.6301 225.481 33.6851 225.828 33.7949 226.115C33.9079 226.402 34.0742 226.621 34.2939 226.774C34.5167 226.923 34.7944 226.998 35.1271 226.998C35.3926 226.998 35.6322 226.971 35.8458 226.916C36.0595 226.858 36.2533 226.791 36.4272 226.714V227.392C36.2594 227.477 36.0717 227.543 35.8641 227.589C35.6597 227.635 35.4155 227.657 35.1317 227.657ZM39.8972 222.457C39.9979 222.457 40.1032 222.463 40.2131 222.475C40.323 222.484 40.4206 222.498 40.5061 222.516L40.41 223.221C40.3275 223.2 40.236 223.183 40.1353 223.171C40.0346 223.159 39.94 223.153 39.8515 223.153C39.65 223.153 39.4593 223.194 39.2792 223.276C39.1022 223.356 38.9466 223.472 38.8123 223.624C38.678 223.774 38.5727 223.955 38.4964 224.169C38.4201 224.38 38.382 224.615 38.382 224.874V227.566H37.6175V222.549H38.2492L38.3316 223.473H38.3636C38.4674 223.287 38.5925 223.118 38.739 222.965C38.8855 222.809 39.0549 222.686 39.2472 222.594C39.4425 222.503 39.6592 222.457 39.8972 222.457ZM42.2136 222.549V227.566H41.4537V222.549H42.2136ZM41.8428 220.672C41.968 220.672 42.0748 220.713 42.1633 220.795C42.2548 220.875 42.3006 221 42.3006 221.171C42.3006 221.338 42.2548 221.464 42.1633 221.546C42.0748 221.628 41.968 221.67 41.8428 221.67C41.7116 221.67 41.6017 221.628 41.5132 221.546C41.4278 221.464 41.385 221.338 41.385 221.171C41.385 221 41.4278 220.875 41.5132 220.795C41.6017 220.713 41.7116 220.672 41.8428 220.672ZM45.8347 227.657C45.383 227.657 44.9848 227.564 44.6399 227.378C44.295 227.192 44.0265 226.908 43.8342 226.527C43.6419 226.145 43.5458 225.665 43.5458 225.085C43.5458 224.477 43.6465 223.981 43.8479 223.597C44.0524 223.209 44.3332 222.922 44.6903 222.736C45.0473 222.55 45.4532 222.457 45.908 222.457C46.1582 222.457 46.3993 222.483 46.6313 222.535C46.8663 222.584 47.0585 222.646 47.2081 222.722L46.9792 223.359C46.8266 223.298 46.6496 223.243 46.4481 223.194C46.2498 223.145 46.0636 223.121 45.8897 223.121C45.5417 223.121 45.2518 223.196 45.0199 223.345C44.791 223.495 44.6185 223.714 44.5026 224.004C44.3896 224.294 44.3332 224.651 44.3332 225.075C44.3332 225.481 44.3881 225.828 44.498 226.115C44.6109 226.402 44.7772 226.621 44.997 226.774C45.2198 226.923 45.4975 226.998 45.8301 226.998C46.0957 226.998 46.3352 226.971 46.5489 226.916C46.7625 226.858 46.9563 226.791 47.1303 226.714V227.392C46.9624 227.477 46.7747 227.543 46.5672 227.589C46.3627 227.635 46.1185 227.657 45.8347 227.657ZM46.5809 228.875C46.5809 229.171 46.4665 229.402 46.2376 229.566C46.0087 229.734 45.673 229.818 45.2304 229.818C45.1358 229.818 45.0458 229.812 44.9603 229.8C44.8749 229.791 44.8062 229.78 44.7543 229.768V229.287C44.8123 229.299 44.8871 229.31 44.9787 229.319C45.0702 229.328 45.1618 229.333 45.2533 229.333C45.4822 229.333 45.6577 229.299 45.7798 229.232C45.9019 229.165 45.9629 229.052 45.9629 228.893C45.9629 228.726 45.8805 228.604 45.7157 228.527C45.5539 228.451 45.3464 228.399 45.0931 228.372L45.5005 227.566H46.0087L45.7615 228.079C45.9141 228.109 46.0514 228.156 46.1735 228.22C46.2986 228.285 46.3978 228.37 46.471 228.477C46.5443 228.584 46.5809 228.716 46.5809 228.875ZM50.1974 222.466C50.7956 222.466 51.2396 222.6 51.5296 222.869C51.8195 223.138 51.9645 223.566 51.9645 224.155V227.566H51.4105L51.2641 226.824H51.2274C51.087 227.007 50.9406 227.161 50.788 227.287C50.6354 227.409 50.4584 227.502 50.2569 227.566C50.0586 227.627 49.8144 227.657 49.5245 227.657C49.2193 227.657 48.9477 227.604 48.7096 227.497C48.4746 227.39 48.2884 227.229 48.1511 227.012C48.0168 226.795 47.9497 226.521 47.9497 226.188C47.9497 225.687 48.1481 225.303 48.5448 225.034C48.9416 224.766 49.5458 224.619 50.3576 224.595L51.2229 224.558V224.251C51.2229 223.818 51.1298 223.514 50.9436 223.34C50.7574 223.167 50.495 223.08 50.1562 223.08C49.8938 223.08 49.6435 223.118 49.4054 223.194C49.1674 223.27 48.9416 223.36 48.7279 223.464L48.4945 222.887C48.7203 222.771 48.9797 222.672 49.2727 222.59C49.5657 222.507 49.8739 222.466 50.1974 222.466ZM51.2137 225.094L50.4492 225.126C49.8236 225.15 49.3826 225.253 49.1262 225.433C48.8698 225.613 48.7417 225.867 48.7417 226.197C48.7417 226.484 48.8286 226.696 49.0026 226.833C49.1766 226.971 49.407 227.039 49.6939 227.039C50.1394 227.039 50.5041 226.916 50.788 226.669C51.0718 226.421 51.2137 226.051 51.2137 225.556V225.094ZM48.3937 221.871C48.412 221.688 48.4471 221.525 48.499 221.381C48.5509 221.238 48.6196 221.116 48.705 221.015C48.7905 220.914 48.8912 220.838 49.0072 220.786C49.1262 220.731 49.2574 220.704 49.4009 220.704C49.5413 220.704 49.6755 220.733 49.8037 220.791C49.9319 220.846 50.054 220.91 50.1699 220.983C50.2859 221.053 50.3973 221.117 50.5041 221.175C50.614 221.23 50.7193 221.258 50.82 221.258C50.9665 221.258 51.0794 221.213 51.1588 221.125C51.2412 221.033 51.3037 220.89 51.3465 220.694H51.7951C51.7554 221.052 51.6501 221.337 51.4792 221.551C51.3083 221.761 51.0779 221.866 50.788 221.866C50.6537 221.866 50.524 221.839 50.3988 221.784C50.2737 221.726 50.1532 221.662 50.0372 221.592C49.9212 221.518 49.8068 221.454 49.6939 221.399C49.584 221.341 49.4756 221.312 49.3688 221.312C49.2193 221.312 49.1048 221.358 49.0255 221.45C48.9461 221.538 48.8851 221.679 48.8424 221.871H48.3937ZM57.8562 225.048C57.8562 225.46 57.8028 225.828 57.696 226.151C57.5891 226.475 57.435 226.748 57.2336 226.971C57.0322 227.194 56.788 227.364 56.5011 227.483C56.2173 227.599 55.8953 227.657 55.5352 227.657C55.1995 227.657 54.8912 227.599 54.6105 227.483C54.3328 227.364 54.0916 227.194 53.8872 226.971C53.6857 226.748 53.5286 226.475 53.4157 226.151C53.3058 225.828 53.2508 225.46 53.2508 225.048C53.2508 224.499 53.3439 224.032 53.5301 223.647C53.7163 223.26 53.9818 222.965 54.3266 222.764C54.6746 222.559 55.0881 222.457 55.5672 222.457C56.025 222.457 56.4248 222.559 56.7666 222.764C57.1115 222.968 57.3786 223.264 57.5678 223.652C57.76 224.036 57.8562 224.502 57.8562 225.048ZM54.0382 225.048C54.0382 225.451 54.0916 225.8 54.1985 226.096C54.3053 226.392 54.4701 226.621 54.6929 226.783C54.9157 226.945 55.2025 227.026 55.5535 227.026C55.9014 227.026 56.1868 226.945 56.4096 226.783C56.6354 226.621 56.8017 226.392 56.9086 226.096C57.0154 225.8 57.0688 225.451 57.0688 225.048C57.0688 224.648 57.0154 224.303 56.9086 224.013C56.8017 223.72 56.6369 223.495 56.4142 223.336C56.1914 223.177 55.903 223.098 55.5489 223.098C55.0271 223.098 54.644 223.27 54.3999 223.615C54.1588 223.96 54.0382 224.438 54.0382 225.048Z" fill="#0F0F0F"/>
<path d="M22.0161 263.483C22.0161 264.237 21.8788 264.867 21.6041 265.374C21.3294 265.878 20.9312 266.258 20.4093 266.514C19.8905 266.767 19.2602 266.894 18.5186 266.894H16.7012V260.201H18.72C19.4006 260.201 19.9866 260.326 20.4779 260.576C20.9693 260.824 21.3477 261.191 21.6133 261.68C21.8818 262.165 22.0161 262.766 22.0161 263.483ZM21.1967 263.511C21.1967 262.91 21.096 262.414 20.8945 262.023C20.6962 261.632 20.4032 261.342 20.0156 261.153C19.631 260.961 19.1595 260.865 18.601 260.865H17.4794V266.225H18.4271C19.3487 266.225 20.04 265.998 20.5008 265.543C20.9647 265.089 21.1967 264.411 21.1967 263.511ZM25.3213 261.785C25.7486 261.785 26.1148 261.88 26.42 262.069C26.7252 262.258 26.9587 262.524 27.1204 262.865C27.2822 263.204 27.363 263.601 27.363 264.056V264.527H23.8976C23.9068 265.116 24.0533 265.565 24.3371 265.873C24.6209 266.181 25.0207 266.335 25.5365 266.335C25.8539 266.335 26.1347 266.306 26.3788 266.248C26.623 266.19 26.8763 266.105 27.1387 265.992V266.66C26.8854 266.773 26.6336 266.856 26.3834 266.908C26.1362 266.959 25.8432 266.985 25.5044 266.985C25.0222 266.985 24.6011 266.888 24.2409 266.692C23.8839 266.494 23.6062 266.204 23.4078 265.823C23.2094 265.441 23.1102 264.974 23.1102 264.422C23.1102 263.882 23.2002 263.415 23.3803 263.021C23.5634 262.624 23.8198 262.319 24.1494 262.105C24.482 261.892 24.8727 261.785 25.3213 261.785ZM25.3122 262.408C24.9063 262.408 24.5828 262.54 24.3417 262.806C24.1006 263.071 23.9571 263.442 23.9113 263.918H26.5665C26.5634 263.619 26.5161 263.357 26.4246 263.131C26.3361 262.902 26.2003 262.725 26.0172 262.6C25.834 262.472 25.599 262.408 25.3122 262.408ZM31.8997 265.52C31.8997 265.841 31.8188 266.111 31.6571 266.331C31.4984 266.547 31.2695 266.711 30.9704 266.821C30.6744 266.93 30.3203 266.985 29.9083 266.985C29.5574 266.985 29.2537 266.958 28.9973 266.903C28.741 266.848 28.5167 266.77 28.3244 266.67V265.969C28.5289 266.07 28.773 266.161 29.0569 266.244C29.3407 266.326 29.6306 266.367 29.9267 266.367C30.36 266.367 30.6744 266.297 30.8697 266.157C31.065 266.016 31.1627 265.826 31.1627 265.585C31.1627 265.447 31.123 265.327 31.0436 265.223C30.9674 265.116 30.8376 265.014 30.6545 264.916C30.4714 264.816 30.2181 264.706 29.8946 264.587C29.5742 264.465 29.2964 264.344 29.0614 264.225C28.8295 264.103 28.6494 263.955 28.5212 263.781C28.3961 263.607 28.3336 263.381 28.3336 263.103C28.3336 262.679 28.5045 262.354 28.8463 262.128C29.1911 261.899 29.6428 261.785 30.2013 261.785C30.5035 261.785 30.7858 261.815 31.0482 261.877C31.3137 261.935 31.5609 262.014 31.7898 262.115L31.5335 262.723C31.326 262.635 31.1047 262.56 30.8697 262.499C30.6347 262.438 30.3951 262.408 30.151 262.408C29.8 262.408 29.5299 262.466 29.3407 262.582C29.1545 262.697 29.0614 262.856 29.0614 263.058C29.0614 263.213 29.1042 263.341 29.1896 263.442C29.2781 263.543 29.4185 263.637 29.6108 263.726C29.803 263.814 30.0564 263.918 30.3707 264.037C30.685 264.153 30.9567 264.274 31.1856 264.399C31.4145 264.521 31.5899 264.671 31.712 264.848C31.8371 265.022 31.8997 265.246 31.8997 265.52ZM35.1317 266.985C34.68 266.985 34.2817 266.892 33.9369 266.706C33.592 266.52 33.3234 266.236 33.1312 265.855C32.9389 265.473 32.8427 264.993 32.8427 264.413C32.8427 263.805 32.9435 263.309 33.1449 262.925C33.3494 262.537 33.6301 262.25 33.9872 262.064C34.3443 261.878 34.7502 261.785 35.2049 261.785C35.4552 261.785 35.6963 261.811 35.9282 261.863C36.1632 261.912 36.3555 261.974 36.505 262.05L36.2761 262.687C36.1235 262.626 35.9465 262.571 35.7451 262.522C35.5467 262.473 35.3606 262.449 35.1866 262.449C34.8387 262.449 34.5488 262.524 34.3168 262.673C34.0879 262.823 33.9155 263.042 33.7995 263.332C33.6866 263.622 33.6301 263.979 33.6301 264.403C33.6301 264.809 33.6851 265.156 33.7949 265.443C33.9079 265.73 34.0742 265.949 34.2939 266.102C34.5167 266.251 34.7944 266.326 35.1271 266.326C35.3926 266.326 35.6322 266.299 35.8458 266.244C36.0595 266.186 36.2533 266.119 36.4272 266.042V266.72C36.2594 266.805 36.0717 266.871 35.8641 266.917C35.6597 266.963 35.4155 266.985 35.1317 266.985ZM39.8972 261.785C39.9979 261.785 40.1032 261.791 40.2131 261.803C40.323 261.812 40.4206 261.826 40.5061 261.844L40.41 262.549C40.3275 262.528 40.236 262.511 40.1353 262.499C40.0346 262.487 39.94 262.481 39.8515 262.481C39.65 262.481 39.4593 262.522 39.2792 262.604C39.1022 262.684 38.9466 262.8 38.8123 262.952C38.678 263.102 38.5727 263.283 38.4964 263.497C38.4201 263.708 38.382 263.943 38.382 264.202V266.894H37.6175V261.877H38.2492L38.3316 262.801H38.3636C38.4674 262.615 38.5925 262.446 38.739 262.293C38.8855 262.137 39.0549 262.014 39.2472 261.922C39.4425 261.831 39.6592 261.785 39.8972 261.785ZM42.2136 261.877V266.894H41.4537V261.877H42.2136ZM41.8428 260C41.968 260 42.0748 260.041 42.1633 260.123C42.2548 260.203 42.3006 260.328 42.3006 260.499C42.3006 260.666 42.2548 260.792 42.1633 260.874C42.0748 260.956 41.968 260.998 41.8428 260.998C41.7116 260.998 41.6017 260.956 41.5132 260.874C41.4278 260.792 41.385 260.666 41.385 260.499C41.385 260.328 41.4278 260.203 41.5132 260.123C41.6017 260.041 41.7116 260 41.8428 260ZM45.8347 266.985C45.383 266.985 44.9848 266.892 44.6399 266.706C44.295 266.52 44.0265 266.236 43.8342 265.855C43.6419 265.473 43.5458 264.993 43.5458 264.413C43.5458 263.805 43.6465 263.309 43.8479 262.925C44.0524 262.537 44.3332 262.25 44.6903 262.064C45.0473 261.878 45.4532 261.785 45.908 261.785C46.1582 261.785 46.3993 261.811 46.6313 261.863C46.8663 261.912 47.0585 261.974 47.2081 262.05L46.9792 262.687C46.8266 262.626 46.6496 262.571 46.4481 262.522C46.2498 262.473 46.0636 262.449 45.8897 262.449C45.5417 262.449 45.2518 262.524 45.0199 262.673C44.791 262.823 44.6185 263.042 44.5026 263.332C44.3896 263.622 44.3332 263.979 44.3332 264.403C44.3332 264.809 44.3881 265.156 44.498 265.443C44.6109 265.73 44.7772 265.949 44.997 266.102C45.2198 266.251 45.4975 266.326 45.8301 266.326C46.0957 266.326 46.3352 266.299 46.5489 266.244C46.7625 266.186 46.9563 266.119 47.1303 266.042V266.72C46.9624 266.805 46.7747 266.871 46.5672 266.917C46.3627 266.963 46.1185 266.985 45.8347 266.985ZM46.5809 268.203C46.5809 268.499 46.4665 268.73 46.2376 268.894C46.0087 269.062 45.673 269.146 45.2304 269.146C45.1358 269.146 45.0458 269.14 44.9603 269.128C44.8749 269.119 44.8062 269.108 44.7543 269.096V268.615C44.8123 268.627 44.8871 268.638 44.9787 268.647C45.0702 268.656 45.1618 268.661 45.2533 268.661C45.4822 268.661 45.6577 268.627 45.7798 268.56C45.9019 268.493 45.9629 268.38 45.9629 268.221C45.9629 268.054 45.8805 267.932 45.7157 267.855C45.5539 267.779 45.3464 267.727 45.0931 267.7L45.5005 266.894H46.0087L45.7615 267.407C45.9141 267.437 46.0514 267.484 46.1735 267.548C46.2986 267.613 46.3978 267.698 46.471 267.805C46.5443 267.912 46.5809 268.044 46.5809 268.203ZM50.1974 261.794C50.7956 261.794 51.2396 261.928 51.5296 262.197C51.8195 262.466 51.9645 262.894 51.9645 263.483V266.894H51.4105L51.2641 266.152H51.2274C51.087 266.335 50.9406 266.489 50.788 266.615C50.6354 266.737 50.4584 266.83 50.2569 266.894C50.0586 266.955 49.8144 266.985 49.5245 266.985C49.2193 266.985 48.9477 266.932 48.7096 266.825C48.4746 266.718 48.2884 266.557 48.1511 266.34C48.0168 266.123 47.9497 265.849 47.9497 265.516C47.9497 265.015 48.1481 264.631 48.5448 264.362C48.9416 264.094 49.5458 263.947 50.3576 263.923L51.2229 263.886V263.579C51.2229 263.146 51.1298 262.842 50.9436 262.668C50.7574 262.495 50.495 262.408 50.1562 262.408C49.8938 262.408 49.6435 262.446 49.4054 262.522C49.1674 262.598 48.9416 262.688 48.7279 262.792L48.4945 262.215C48.7203 262.099 48.9797 262 49.2727 261.918C49.5657 261.835 49.8739 261.794 50.1974 261.794ZM51.2137 264.422L50.4492 264.454C49.8236 264.478 49.3826 264.581 49.1262 264.761C48.8698 264.941 48.7417 265.195 48.7417 265.525C48.7417 265.812 48.8286 266.024 49.0026 266.161C49.1766 266.299 49.407 266.367 49.6939 266.367C50.1394 266.367 50.5041 266.244 50.788 265.997C51.0718 265.749 51.2137 265.379 51.2137 264.884V264.422ZM48.3937 261.199C48.412 261.016 48.4471 260.853 48.499 260.709C48.5509 260.566 48.6196 260.444 48.705 260.343C48.7905 260.242 48.8912 260.166 49.0072 260.114C49.1262 260.059 49.2574 260.032 49.4009 260.032C49.5413 260.032 49.6755 260.061 49.8037 260.119C49.9319 260.174 50.054 260.238 50.1699 260.311C50.2859 260.381 50.3973 260.445 50.5041 260.503C50.614 260.558 50.7193 260.586 50.82 260.586C50.9665 260.586 51.0794 260.541 51.1588 260.453C51.2412 260.361 51.3037 260.218 51.3465 260.022H51.7951C51.7554 260.38 51.6501 260.665 51.4792 260.879C51.3083 261.089 51.0779 261.194 50.788 261.194C50.6537 261.194 50.524 261.167 50.3988 261.112C50.2737 261.054 50.1532 260.99 50.0372 260.92C49.9212 260.846 49.8068 260.782 49.6939 260.727C49.584 260.669 49.4756 260.64 49.3688 260.64C49.2193 260.64 49.1048 260.686 49.0255 260.778C48.9461 260.866 48.8851 261.007 48.8424 261.199H48.3937ZM57.8562 264.376C57.8562 264.788 57.8028 265.156 57.696 265.479C57.5891 265.803 57.435 266.076 57.2336 266.299C57.0322 266.522 56.788 266.692 56.5011 266.811C56.2173 266.927 55.8953 266.985 55.5352 266.985C55.1995 266.985 54.8912 266.927 54.6105 266.811C54.3328 266.692 54.0916 266.522 53.8872 266.299C53.6857 266.076 53.5286 265.803 53.4157 265.479C53.3058 265.156 53.2508 264.788 53.2508 264.376C53.2508 263.827 53.3439 263.36 53.5301 262.975C53.7163 262.588 53.9818 262.293 54.3266 262.092C54.6746 261.887 55.0881 261.785 55.5672 261.785C56.025 261.785 56.4248 261.887 56.7666 262.092C57.1115 262.296 57.3786 262.592 57.5678 262.98C57.76 263.364 57.8562 263.83 57.8562 264.376ZM54.0382 264.376C54.0382 264.779 54.0916 265.128 54.1985 265.424C54.3053 265.72 54.4701 265.949 54.6929 266.111C54.9157 266.273 55.2025 266.354 55.5535 266.354C55.9014 266.354 56.1868 266.273 56.4096 266.111C56.6354 265.949 56.8017 265.72 56.9086 265.424C57.0154 265.128 57.0688 264.779 57.0688 264.376C57.0688 263.976 57.0154 263.631 56.9086 263.341C56.8017 263.048 56.6369 262.823 56.4142 262.664C56.1914 262.505 55.903 262.426 55.5489 262.426C55.0271 262.426 54.644 262.598 54.3999 262.943C54.1588 263.288 54.0382 263.766 54.0382 264.376Z" fill="#0F0F0F"/>
<path d="M197.865 263.715C197.865 257.798 202.662 253 208.58 253H224.652C230.57 253 235.367 257.798 235.367 263.715C235.367 269.633 230.57 274.43 224.652 274.43H208.58C202.662 274.43 197.865 269.633 197.865 263.715Z" fill="#0E4266"/>
<path d="M224.651 271.751C229.09 271.751 232.687 268.153 232.687 263.715C232.687 259.277 229.09 255.679 224.651 255.679C220.213 255.679 216.615 259.277 216.615 263.715C216.615 268.153 220.213 271.751 224.651 271.751Z" fill="#FEFEFE"/>
<path d="M5 433.123H246.082V487.625H5V433.123Z" fill="#FEFEFE"/>
<mask id="mask6_3140_37327" style="mask-type:luminance" maskUnits="userSpaceOnUse" x="5" y="432" width="242" height="57">
<path d="M247 432.123H5V488.123H247V432.123Z" fill="white"/>
<path d="M5 433.123H246.082V487.625H5V433.123Z" fill="black"/>
</mask>
<g mask="url(#mask6_3140_37327)">
<path d="M5 433.793H246.082V432.453H5V433.793Z" fill="#E0E0E0"/>
</g>
<path d="M15.7148 449.195C15.7148 446.236 18.1134 443.838 21.0722 443.838H230.01C232.969 443.838 235.368 446.236 235.368 449.195V471.552C235.368 474.511 232.969 476.91 230.01 476.91H21.0722C18.1134 476.91 15.7148 474.511 15.7148 471.552V449.195Z" fill="#0E4266"/>
<path d="M102.819 457.465C102.509 457.465 102.233 457.526 101.993 457.648C101.755 457.766 101.555 457.939 101.391 458.166C101.23 458.392 101.108 458.666 101.025 458.987C100.941 459.308 100.899 459.669 100.899 460.07C100.899 460.611 100.965 461.073 101.098 461.457C101.234 461.837 101.443 462.128 101.726 462.33C102.008 462.529 102.373 462.629 102.819 462.629C103.13 462.629 103.44 462.594 103.75 462.524C104.064 462.454 104.404 462.355 104.771 462.226V463.586C104.432 463.725 104.099 463.825 103.771 463.884C103.444 463.947 103.076 463.978 102.667 463.978C101.879 463.978 101.23 463.816 100.721 463.492C100.216 463.164 99.8409 462.707 99.5967 462.121C99.3526 461.532 99.2305 460.844 99.2305 460.06C99.2305 459.481 99.309 458.951 99.4659 458.469C99.6229 457.988 99.8531 457.571 100.156 457.219C100.46 456.867 100.835 456.594 101.281 456.403C101.728 456.211 102.24 456.115 102.819 456.115C103.199 456.115 103.58 456.164 103.96 456.261C104.343 456.356 104.71 456.486 105.058 456.654L104.535 457.972C104.249 457.836 103.961 457.718 103.672 457.616C103.383 457.515 103.098 457.465 102.819 457.465ZM111.593 460.939C111.593 461.427 111.527 461.859 111.394 462.236C111.265 462.613 111.075 462.932 110.824 463.194C110.576 463.452 110.276 463.647 109.924 463.78C109.575 463.912 109.181 463.978 108.742 463.978C108.33 463.978 107.952 463.912 107.606 463.78C107.265 463.647 106.966 463.452 106.712 463.194C106.461 462.932 106.265 462.613 106.126 462.236C105.99 461.859 105.922 461.427 105.922 460.939C105.922 460.29 106.037 459.741 106.267 459.291C106.497 458.841 106.825 458.499 107.251 458.265C107.676 458.031 108.184 457.915 108.773 457.915C109.321 457.915 109.805 458.031 110.227 458.265C110.653 458.499 110.986 458.841 111.227 459.291C111.471 459.741 111.593 460.29 111.593 460.939ZM107.549 460.939C107.549 461.322 107.591 461.645 107.674 461.907C107.758 462.168 107.889 462.365 108.067 462.498C108.245 462.63 108.477 462.697 108.763 462.697C109.045 462.697 109.274 462.63 109.448 462.498C109.626 462.365 109.755 462.168 109.835 461.907C109.919 461.645 109.961 461.322 109.961 460.939C109.961 460.551 109.919 460.231 109.835 459.976C109.755 459.718 109.626 459.524 109.448 459.395C109.27 459.266 109.038 459.202 108.752 459.202C108.33 459.202 108.023 459.346 107.831 459.636C107.643 459.925 107.549 460.36 107.549 460.939ZM116.234 457.915C116.858 457.915 117.36 458.086 117.74 458.427C118.121 458.766 118.311 459.31 118.311 460.06V463.874H116.715V460.457C116.715 460.039 116.638 459.723 116.485 459.51C116.335 459.298 116.098 459.191 115.773 459.191C115.285 459.191 114.952 459.357 114.774 459.688C114.596 460.02 114.507 460.497 114.507 461.122V463.874H112.911V458.025H114.13L114.345 458.773H114.434C114.559 458.57 114.715 458.406 114.899 458.281C115.088 458.155 115.295 458.063 115.522 458.004C115.752 457.944 115.989 457.915 116.234 457.915ZM122.418 462.707C122.592 462.707 122.761 462.69 122.925 462.655C123.093 462.62 123.258 462.576 123.422 462.524V463.712C123.251 463.788 123.038 463.851 122.784 463.9C122.533 463.952 122.257 463.978 121.957 463.978C121.608 463.978 121.295 463.923 121.015 463.811C120.74 463.696 120.522 463.499 120.362 463.22C120.205 462.937 120.126 462.545 120.126 462.043V459.223H119.362V458.548L120.241 458.014L120.702 456.779H121.722V458.025H123.359V459.223H121.722V462.043C121.722 462.266 121.785 462.433 121.91 462.545C122.039 462.653 122.208 462.707 122.418 462.707ZM126.205 458.025V463.874H124.61V458.025H126.205ZM125.41 455.733C125.647 455.733 125.851 455.789 126.022 455.9C126.193 456.009 126.279 456.213 126.279 456.513C126.279 456.809 126.193 457.015 126.022 457.13C125.851 457.241 125.647 457.297 125.41 457.297C125.17 457.297 124.964 457.241 124.793 457.13C124.625 457.015 124.542 456.809 124.542 456.513C124.542 456.213 124.625 456.009 124.793 455.9C124.964 455.789 125.17 455.733 125.41 455.733ZM131.207 457.915C131.831 457.915 132.334 458.086 132.714 458.427C133.094 458.766 133.284 459.31 133.284 460.06V463.874H131.688V460.457C131.688 460.039 131.612 459.723 131.458 459.51C131.308 459.298 131.071 459.191 130.747 459.191C130.258 459.191 129.925 459.357 129.747 459.688C129.57 460.02 129.481 460.497 129.481 461.122V463.874H127.885V458.025H129.104L129.318 458.773H129.407C129.533 458.57 129.688 458.406 129.873 458.281C130.061 458.155 130.269 458.063 130.496 458.004C130.726 457.944 130.963 457.915 131.207 457.915ZM140.295 458.025V463.874H139.071L138.856 463.126H138.772C138.647 463.324 138.49 463.487 138.301 463.612C138.113 463.738 137.906 463.83 137.679 463.889C137.452 463.949 137.217 463.978 136.973 463.978C136.554 463.978 136.19 463.905 135.879 463.759C135.569 463.609 135.326 463.377 135.152 463.063C134.981 462.749 134.896 462.341 134.896 461.839V458.025H136.491V461.441C136.491 461.859 136.566 462.175 136.716 462.388C136.866 462.601 137.105 462.707 137.433 462.707C137.757 462.707 138.012 462.634 138.197 462.487C138.382 462.337 138.511 462.119 138.584 461.833C138.661 461.544 138.699 461.192 138.699 460.776V458.025H140.295ZM144.365 457.904C145.15 457.904 145.752 458.075 146.17 458.417C146.589 458.759 146.798 459.278 146.798 459.976V463.874H145.684L145.375 463.078H145.333C145.166 463.288 144.995 463.459 144.82 463.591C144.646 463.724 144.445 463.821 144.219 463.884C143.992 463.947 143.716 463.978 143.392 463.978C143.047 463.978 142.736 463.912 142.461 463.78C142.189 463.647 141.974 463.445 141.817 463.173C141.66 462.897 141.582 462.548 141.582 462.126C141.582 461.505 141.8 461.049 142.236 460.756C142.672 460.459 143.326 460.295 144.198 460.264L145.213 460.232V459.976C145.213 459.669 145.132 459.444 144.972 459.301C144.812 459.158 144.588 459.087 144.302 459.087C144.02 459.087 143.743 459.127 143.47 459.207C143.198 459.287 142.926 459.388 142.654 459.51L142.126 458.433C142.436 458.269 142.783 458.14 143.167 458.045C143.554 457.951 143.954 457.904 144.365 457.904ZM145.213 461.164L144.595 461.185C144.079 461.198 143.72 461.291 143.518 461.462C143.319 461.633 143.219 461.858 143.219 462.137C143.219 462.381 143.291 462.555 143.434 462.66C143.577 462.761 143.763 462.812 143.994 462.812C144.335 462.812 144.623 462.71 144.857 462.508C145.094 462.306 145.213 462.018 145.213 461.645V461.164ZM151.711 457.915C151.791 457.915 151.883 457.92 151.988 457.93C152.096 457.937 152.183 457.948 152.249 457.962L152.129 459.458C152.077 459.441 152.002 459.428 151.904 459.421C151.81 459.411 151.728 459.406 151.658 459.406C151.452 459.406 151.252 459.432 151.057 459.484C150.865 459.537 150.692 459.622 150.539 459.741C150.385 459.856 150.263 460.009 150.172 460.201C150.085 460.389 150.042 460.621 150.042 460.897V463.874H148.446V458.025H149.654L149.89 459.008H149.968C150.084 458.809 150.227 458.628 150.397 458.464C150.572 458.297 150.769 458.164 150.989 458.066C151.212 457.965 151.452 457.915 151.711 457.915Z" fill="#FEFEFE"/>
</g>
</g>
<path d="M236.364 3.02881H14.7163C8.00716 3.02881 2.56836 8.46761 2.56836 15.1767V477.908C2.56836 484.617 8.00716 490.056 14.7163 490.056H236.364C243.074 490.056 248.512 484.617 248.512 477.908V15.1767C248.512 8.46761 243.074 3.02881 236.364 3.02881Z" stroke="#5C4D90" stroke-width="4.86183"/>
</g>
<defs>
<linearGradient id="paint0_linear_3140_37327" x1="77.7677" y1="118.44" x2="173.531" y2="181.682" gradientUnits="userSpaceOnUse">
<stop stop-color="#F7F6DC"/>
<stop offset="1" stop-color="#E3FFE1"/>
</linearGradient>
<clipPath id="clip0_3140_37327">
<rect width="251" height="493" fill="white"/>
</clipPath>
</defs>
</svg>
