<svg width="598" height="293" viewBox="0 0 598 293" fill="none" xmlns="http://www.w3.org/2000/svg">
<path fill-rule="evenodd" clip-rule="evenodd" d="M781.886 315.317C859.156 268.852 917.831 212.63 934.138 159.247C951.409 102.708 944.859 41.5786 873.131 16.6191C803.196 -7.71628 678.929 38.4695 584.694 37.6506C491.193 36.838 424.839 -23.0286 329.348 11.8934C231.714 47.599 266.813 124.378 200.62 178.11C133.657 232.467 -42.0999 262.957 -47.6321 317.906C-53.1923 373.133 110.322 352.478 180.397 378.975C232.644 398.731 237.324 448.598 307.629 452.237C378.905 455.927 460.237 419.922 537.957 397.483C622.98 372.937 713.831 356.241 781.886 315.317Z" fill="#D9F1FB"/>
</svg>
