<svg width="989" height="614" viewBox="0 0 989 614" fill="none" xmlns="http://www.w3.org/2000/svg">
<path opacity="0.6" fill-rule="evenodd" clip-rule="evenodd" d="M118.465 275.017C49.949 344.667 3.58384 419.526 0.907254 479.95C-1.92756 543.947 21.4745 606.319 103.488 613.114C183.452 619.739 301.357 537.675 400.459 513.053C498.79 488.624 584.604 533.5 675.36 471.036C768.153 407.17 710.563 336.097 765.491 261.816C821.057 186.673 997.235 107.155 988.182 48.0009C979.083 -11.452 813.092 54.435 732.397 45.58C672.232 38.9777 653.838 -12.0831 579.082 3.10845C503.294 18.5097 427.689 78.2816 352.203 122.842C269.625 171.589 178.81 213.674 118.465 275.017Z" fill="url(#paint0_linear_3049_31582)"/>
<defs>
<linearGradient id="paint0_linear_3049_31582" x1="343.38" y1="5.61977" x2="398.186" y2="621.187" gradientUnits="userSpaceOnUse">
<stop stop-color="#F78C33"/>
<stop offset="1" stop-color="#F8BA86"/>
</linearGradient>
</defs>
</svg>
