<svg width="16" height="16" viewBox="0 0 16 16" fill="none" xmlns="http://www.w3.org/2000/svg">
<g clip-path="url(#clip0_349_43015)">
<path fill-rule="evenodd" clip-rule="evenodd" d="M0 0H15.9761L16 16H0V0Z" fill="#89FFC1"/>
<path fill-rule="evenodd" clip-rule="evenodd" d="M8.04936 15L15.9997 9.83951V6.1872L7.98507 1L0.0078125 6.1872L0.00853729 9.83951L8.04936 15Z" fill="#F7BD2F"/>
<path fill-rule="evenodd" clip-rule="evenodd" d="M12.5492 8.00279C12.5492 10.5135 10.5099 12.5492 7.99208 12.5492C7.09233 12.5478 6.21319 12.2797 5.46581 11.7787C4.71843 11.2777 4.13636 10.5664 3.79318 9.73465C3.45 8.90292 3.36113 7.98811 3.53778 7.10587C3.71444 6.22363 4.1487 5.41357 4.78567 4.7781C5.42264 4.14263 6.23372 3.71027 7.11638 3.53569C7.99903 3.36111 8.91363 3.45214 9.74455 3.79728C10.5755 4.14241 11.2854 4.72616 11.7846 5.47471C12.2839 6.22327 12.5499 7.10303 12.5492 8.00279V8.00279Z" fill="#007AFF"/>
</g>
<defs>
<clipPath id="clip0_349_43015">
<rect width="16" height="16" rx="8" fill="white"/>
</clipPath>
</defs>
</svg>
