<svg width="158" height="158" viewBox="0 0 158 158" fill="none" xmlns="http://www.w3.org/2000/svg">
<path d="M16.6639 57.1068L15.4294 59.6967L5.57233 50.4445L7.05685 47.3299L20.6732 48.6954L19.4387 51.2853L9.0182 50.0551L8.97563 50.1444L16.6639 57.1068ZM11.9729 55.1831L14.8887 49.0657L16.826 49.9414L13.9101 56.0588L11.9729 55.1831Z" fill="black"/>
<path d="M19.0556 29.5628L29.054 37.5638L27.5536 39.3419L17.6863 38.5423L17.6261 38.6136L23.919 43.6494L22.182 45.708L12.1836 37.707L13.708 35.9004L23.5424 36.7294L23.6146 36.6438L17.3265 31.6119L19.0556 29.5628Z" fill="black"/>
<path d="M38.0216 29.4276L34.2811 32.014L26.7891 21.7383L30.5605 19.1305C31.6218 18.3966 32.6854 17.9706 33.7514 17.8523C34.8149 17.7308 35.8319 17.9105 36.8026 18.3915C37.7767 18.8701 38.6528 19.643 39.4307 20.71C40.2112 21.7804 40.674 22.8439 40.8194 23.9006C40.9681 24.955 40.8061 25.9551 40.3332 26.9009C39.8638 27.8443 39.0933 28.6865 38.0216 29.4276ZM35.1548 28.6099L36.5717 27.6302C37.2311 27.1742 37.7029 26.6769 37.9871 26.1383C38.2722 25.594 38.3525 25.0027 38.228 24.3642C38.1045 23.7201 37.7635 23.015 37.205 22.249C36.6514 21.4897 36.0839 20.9488 35.5026 20.6262C34.9247 20.3013 34.3279 20.1807 33.7121 20.2644C33.0963 20.348 32.4586 20.6179 31.7992 21.0739L30.3772 22.0572L35.1548 28.6099Z" fill="black"/>
<path d="M48.1539 22.8791L43.3633 11.1719L48.1062 9.33126C49.0141 8.97894 49.8536 8.8364 50.6248 8.90364C51.3984 8.96556 52.0712 9.21895 52.6432 9.66379C53.2176 10.1033 53.663 10.7099 53.9796 11.4835C54.2977 12.2609 54.3992 12.9966 54.2841 13.6904C54.1674 14.3805 53.8431 15.0009 53.3112 15.5518C52.7833 16.1011 52.0575 16.555 51.134 16.9134L47.9583 18.1458L47.1443 16.1565L49.9091 15.0836C50.3943 14.8952 50.7709 14.674 51.0387 14.4199C51.3066 14.1658 51.4658 13.8788 51.5163 13.5589C51.5707 13.2375 51.5191 12.8844 51.3616 12.4995C51.2025 12.1108 50.9882 11.8142 50.7186 11.6097C50.4529 11.4036 50.1296 11.2951 49.7487 11.2839C49.3701 11.2674 48.9362 11.3541 48.447 11.5439L46.733 12.2091L50.6956 21.8927L48.1539 22.8791ZM52.4659 15.0319L57.6338 19.2001L54.828 20.289L49.7247 16.0957L52.4659 15.0319Z" fill="black"/>
<path d="M62.0983 17.7532L60.06 5.30797L68.6712 3.97047L69.0265 6.13987L63.1172 7.05771L63.6029 10.0232L69.0691 9.17415L69.4244 11.3436L63.9582 12.1926L64.4449 15.1641L70.3791 14.2424L70.7344 16.4118L62.0983 17.7532ZM63.2326 3.5814L64.1026 0.611001L66.5612 0.229134L65.1108 3.28967L63.2326 3.5814Z" fill="black"/>
<path d="M83.4972 15.9379L85.582 3.5L88.2823 3.92925L86.561 14.199L92.0364 15.0694L91.673 17.2376L83.4972 15.9379Z" fill="black"/>
<path d="M103.819 7.42759L99.7309 19.3849L97.1349 18.5432L101.223 6.58594L103.819 7.42759Z" fill="black"/>
<path d="M114.492 15.8597C114.678 15.3951 114.665 14.9556 114.452 14.5411C114.238 14.1267 113.839 13.7742 113.253 13.4835C112.856 13.286 112.491 13.174 112.16 13.1477C111.83 13.1176 111.542 13.1613 111.297 13.2787C111.054 13.3979 110.87 13.5782 110.744 13.8194C110.631 14.0167 110.583 14.2135 110.598 14.41C110.617 14.6082 110.682 14.8041 110.794 14.9976C110.907 15.1875 111.054 15.3776 111.233 15.5679C111.414 15.7546 111.616 15.9378 111.839 16.1174L112.749 16.8729C113.194 17.2322 113.579 17.6076 113.904 17.999C114.228 18.3905 114.475 18.796 114.643 19.2156C114.811 19.6352 114.885 20.0678 114.864 20.5135C114.847 20.961 114.718 21.4196 114.477 21.8893C114.114 22.5745 113.622 23.0808 113.001 23.4082C112.386 23.7338 111.672 23.8696 110.859 23.8157C110.051 23.76 109.178 23.4992 108.24 23.0334C107.309 22.5713 106.571 22.0299 106.026 21.4093C105.484 20.7906 105.163 20.113 105.062 19.3765C104.966 18.6382 105.12 17.8605 105.524 17.0435L107.883 18.2146C107.712 18.6041 107.658 18.9734 107.721 19.3224C107.79 19.6697 107.956 19.9893 108.219 20.2812C108.488 20.5713 108.833 20.8207 109.253 21.0294C109.666 21.2343 110.055 21.3538 110.42 21.3878C110.789 21.4236 111.113 21.3793 111.391 21.2548C111.669 21.1304 111.878 20.9329 112.02 20.6624C112.152 20.4102 112.186 20.1601 112.122 19.9119C112.062 19.6656 111.917 19.4095 111.687 19.1435C111.462 18.8794 111.164 18.5937 110.796 18.2863L109.701 17.3561C108.85 16.6432 108.271 15.9022 107.964 15.1329C107.657 14.3637 107.723 13.5652 108.161 12.7374C108.513 12.0557 109.01 11.5541 109.651 11.2324C110.296 10.9126 111.024 10.7741 111.834 10.8169C112.643 10.8598 113.468 11.0899 114.309 11.5073C115.165 11.9321 115.837 12.4455 116.326 13.0473C116.818 13.651 117.11 14.2954 117.2 14.9804C117.291 15.6654 117.167 16.3452 116.828 17.0196L114.492 15.8597Z" fill="black"/>
<path d="M115.27 26.4946L123.332 16.6367L127.385 19.7804C128.13 20.358 128.663 20.9472 128.985 21.5482C129.306 22.1491 129.436 22.7376 129.374 23.3137C129.315 23.8866 129.084 24.4201 128.679 24.9143C128.364 25.2994 128.008 25.5766 127.611 25.7459C127.217 25.9121 126.805 25.9809 126.376 25.9523C125.953 25.9231 125.534 25.8102 125.118 25.6138L125.04 25.71C125.412 26.0251 125.686 26.4109 125.862 26.8673C126.042 27.3263 126.092 27.8141 126.015 28.3306C125.939 28.844 125.704 29.3429 125.307 29.8275C124.88 30.3505 124.364 30.7139 123.761 30.9177C123.165 31.1207 122.51 31.1404 121.799 30.9766C121.087 30.8128 120.353 30.437 119.595 29.8491L115.27 26.4946ZM118.804 26.4507L120.548 27.804C121.145 28.2666 121.67 28.4932 122.125 28.4839C122.582 28.4714 122.963 28.2791 123.267 27.9068C123.49 27.6341 123.62 27.341 123.655 27.0276C123.691 26.7143 123.632 26.4011 123.478 26.0881C123.328 25.7777 123.082 25.4896 122.739 25.2238L120.945 23.8322L118.804 26.4507ZM122.099 22.4218L123.685 23.6524C123.978 23.8799 124.279 24.0321 124.588 24.109C124.903 24.1852 125.202 24.1813 125.486 24.0975C125.773 24.0161 126.023 23.8455 126.236 23.5856C126.527 23.2294 126.632 22.8412 126.55 22.4211C126.472 22.0035 126.195 21.6107 125.721 21.2427L124.094 19.9814L122.099 22.4218Z" fill="black"/>
<path d="M138.66 40.4283C137.539 41.2635 136.423 41.7671 135.312 41.9391C134.203 42.1144 133.162 42.0015 132.189 41.6004C131.222 41.2 130.392 40.5584 129.698 39.6755C128.999 38.786 128.579 37.8332 128.439 36.8171C128.298 35.801 128.46 34.7948 128.923 33.7984C129.387 32.8021 130.178 31.8876 131.295 31.0549C132.416 30.2198 133.53 29.7146 134.639 29.5393C135.748 29.3639 136.786 29.4764 137.753 29.8768C138.723 30.2747 139.558 30.9183 140.257 31.8078C140.95 32.6907 141.368 33.6402 141.508 34.6564C141.655 35.6732 141.496 36.6799 141.033 37.6762C140.571 38.6758 139.78 39.5932 138.66 40.4283ZM136.974 38.2829C137.7 37.7419 138.229 37.1798 138.561 36.5966C138.896 36.0167 139.042 35.4401 139 34.867C138.958 34.2938 138.736 33.7515 138.335 33.24C137.933 32.7285 137.453 32.3781 136.896 32.1889C136.339 31.9996 135.728 31.9848 135.063 32.1445C134.401 32.3074 133.707 32.6594 132.981 33.2004C132.255 33.7413 131.724 34.3018 131.39 34.8817C131.058 35.465 130.912 36.0431 130.954 36.6163C130.996 37.1894 131.218 37.7318 131.62 38.2433C132.022 38.7548 132.502 39.1052 133.059 39.2944C133.616 39.4836 134.225 39.4968 134.888 39.3339C135.553 39.1742 136.248 38.8239 136.974 38.2829Z" fill="black"/>
<path d="M138.008 51.6668L136.866 49.037L150.525 48.136L151.898 51.2986L141.716 60.2081L140.574 57.5783L148.508 50.8842L148.468 50.7935L138.008 51.6668ZM142.621 49.5733L145.319 55.7851L143.351 56.5951L140.654 50.3833L142.621 49.5733Z" fill="black"/>
<path d="M151.14 75.0779L149.022 75.3474L148.257 69.6484L150.375 69.3789L151.14 75.0779Z" fill="black"/>
<path d="M144.513 87.8264L145.209 83.4107L158 85.3242L157.298 89.7764C157.1 91.0293 156.674 92.0696 156.019 92.8972C155.368 93.7255 154.528 94.3115 153.498 94.6555C152.467 95.0035 151.287 95.0781 149.959 94.8794C148.627 94.6801 147.52 94.2635 146.64 93.6296C145.759 92.9997 145.135 92.1903 144.766 91.2014C144.398 90.2165 144.313 89.0915 144.513 87.8264ZM147.111 86.3909L146.847 88.0636C146.724 88.8421 146.762 89.5181 146.962 90.0917C147.165 90.6699 147.545 91.1376 148.102 91.4949C148.663 91.8569 149.42 92.1093 150.374 92.2519C151.319 92.3933 152.113 92.373 152.755 92.191C153.397 92.0131 153.901 91.6797 154.268 91.1909C154.635 90.7021 154.88 90.0684 155.003 89.2899L155.267 87.6112L147.111 86.3909Z" fill="black"/>
<path d="M142.272 99.4698L154.254 104.23L150.96 112.093L148.871 111.263L151.132 105.868L148.277 104.733L146.186 109.724L144.097 108.895L146.188 103.903L143.327 102.767L141.057 108.185L138.968 107.355L142.272 99.4698Z" fill="black"/>
<path d="M140.249 123.066C140.7 123.302 141.15 123.342 141.598 123.185C142.046 123.029 142.453 122.685 142.82 122.154C143.069 121.793 143.227 121.454 143.293 121.137C143.363 120.822 143.353 120.538 143.263 120.286C143.171 120.038 143.009 119.838 142.778 119.687C142.591 119.555 142.396 119.484 142.194 119.475C141.989 119.47 141.782 119.51 141.571 119.594C141.364 119.681 141.153 119.8 140.937 119.951C140.725 120.104 140.514 120.277 140.304 120.471L139.425 121.26C139.005 121.647 138.576 121.975 138.139 122.242C137.701 122.509 137.258 122.698 136.81 122.81C136.362 122.923 135.912 122.942 135.46 122.869C135.006 122.799 134.554 122.619 134.104 122.33C133.449 121.896 132.992 121.36 132.732 120.721C132.474 120.087 132.421 119.381 132.574 118.601C132.727 117.826 133.098 117.013 133.685 116.162C134.268 115.318 134.908 114.669 135.606 114.216C136.301 113.767 137.031 113.537 137.794 113.528C138.558 113.523 139.332 113.766 140.117 114.254L138.64 116.394C138.264 116.183 137.894 116.086 137.53 116.106C137.168 116.13 136.822 116.253 136.493 116.472C136.165 116.698 135.87 117.001 135.606 117.382C135.348 117.757 135.18 118.119 135.101 118.468C135.02 118.82 135.027 119.138 135.121 119.422C135.214 119.705 135.39 119.932 135.649 120.101C135.89 120.259 136.141 120.322 136.402 120.29C136.66 120.261 136.939 120.152 137.237 119.962C137.534 119.775 137.861 119.522 138.218 119.202L139.298 118.255C140.126 117.517 140.951 117.046 141.772 116.842C142.593 116.638 143.399 116.797 144.191 117.32C144.843 117.742 145.295 118.282 145.546 118.941C145.795 119.603 145.849 120.323 145.708 121.101C145.568 121.878 145.234 122.649 144.708 123.411C144.172 124.188 143.569 124.776 142.896 125.177C142.222 125.58 141.53 125.785 140.821 125.791C140.112 125.796 139.434 125.595 138.787 125.186L140.249 123.066Z" fill="black"/>
<path d="M136.851 132.875L127.309 124.361L129.157 122.397L138.699 130.91L136.851 132.875Z" fill="black"/>
<path d="M122.845 139.629C123.101 139.816 123.365 139.953 123.635 140.042C123.908 140.134 124.186 140.175 124.47 140.166C124.753 140.162 125.038 140.108 125.327 140.003C125.612 139.9 125.895 139.745 126.177 139.536C126.703 139.147 127.067 138.677 127.267 138.127C127.464 137.579 127.484 136.98 127.325 136.329C127.169 135.682 126.819 135.009 126.273 134.31C125.728 133.611 125.155 133.097 124.555 132.769C123.955 132.44 123.354 132.294 122.754 132.332C122.156 132.372 121.585 132.593 121.042 132.996C120.549 133.36 120.194 133.757 119.978 134.185C119.761 134.618 119.682 135.06 119.742 135.51C119.799 135.963 119.994 136.403 120.328 136.831L119.836 137.095L122.492 135.129L123.739 136.727L119.427 139.917L118.441 138.653C117.752 137.771 117.352 136.872 117.24 135.955C117.131 135.042 117.278 134.166 117.681 133.326C118.087 132.49 118.722 131.752 119.588 131.111C120.554 130.397 121.564 129.976 122.619 129.85C123.676 129.727 124.709 129.898 125.717 130.363C126.725 130.833 127.641 131.598 128.467 132.656C129.101 133.469 129.546 134.284 129.802 135.1C130.057 135.921 130.138 136.716 130.045 137.486C129.952 138.255 129.704 138.972 129.302 139.635C128.899 140.299 128.357 140.883 127.676 141.387C127.093 141.819 126.484 142.137 125.851 142.343C125.221 142.552 124.593 142.65 123.97 142.638C123.343 142.628 122.744 142.507 122.172 142.276C121.602 142.048 121.089 141.712 120.631 141.267L122.845 139.629Z" fill="black"/>
<path d="M105.893 153.071L101.024 141.395L103.214 140.529L111.495 145.815L111.582 145.78L108.518 138.431L111.053 137.429L115.922 149.105L113.697 149.985L105.46 144.688L105.354 144.73L108.416 152.073L105.893 153.071Z" fill="black"/>
<path d="M93.7007 143.731L95.4727 156.215L86.8348 157.378L86.5259 155.201L92.4535 154.404L92.0313 151.429L86.5481 152.167L86.2392 149.991L91.7224 149.253L91.2993 146.272L85.3467 147.073L85.0378 144.897L93.7007 143.731Z" fill="black"/>
<path d="M79.3318 145.442L78.25 158L73.1623 157.584C72.1884 157.505 71.3718 157.267 70.7126 156.872C70.0488 156.48 69.563 155.961 69.2552 155.314C68.9428 154.671 68.8224 153.934 68.8939 153.104C68.9657 152.27 69.2122 151.568 69.6334 150.997C70.0542 150.431 70.6289 150.017 71.3574 149.755C72.0817 149.493 72.9392 149.403 73.9298 149.483L77.3364 149.762L77.1525 151.896L74.1868 151.653C73.6663 151.611 73.2279 151.645 72.8717 151.756C72.5155 151.867 72.2415 152.054 72.0496 152.319C71.8536 152.583 71.7378 152.921 71.7022 153.334C71.6663 153.751 71.722 154.109 71.8695 154.41C72.0128 154.71 72.2523 154.947 72.588 155.123C72.9192 155.302 73.3472 155.413 73.8719 155.456L75.7105 155.607L76.6053 145.219L79.3318 145.442ZM71.8753 150.588L69.1626 144.611L72.1725 144.857L74.8159 150.828L71.8753 150.588Z" fill="black"/>
<path d="M45.0132 150.5L42.5214 149.4L45.9921 141.946C46.3818 141.109 46.9281 140.467 47.6309 140.021C48.3298 139.573 49.1274 139.335 50.0238 139.307C50.9183 139.284 51.8528 139.487 52.8273 139.917C53.8056 140.349 54.5803 140.901 55.1513 141.572C55.7205 142.247 56.0623 142.988 56.1767 143.795C56.2911 144.602 56.1535 145.424 55.7638 146.261L52.293 153.715L49.8011 152.614L53.1754 145.368C53.3789 144.931 53.462 144.499 53.4247 144.073C53.3835 143.645 53.2278 143.254 52.9577 142.9C52.6875 142.547 52.3126 142.264 51.8331 142.052C51.3497 141.839 50.8843 141.751 50.4371 141.787C49.986 141.822 49.5834 141.967 49.2294 142.22C48.8716 142.472 48.5909 142.817 48.3874 143.254L45.0132 150.5Z" fill="black"/>
<path d="M33.3732 143.967L40.7241 133.595L42.9759 135.109L35.625 145.48L33.3732 143.967Z" fill="black"/>
<path d="M17.9951 131.288L32.2723 124.158L33.8305 125.83L19.5533 132.961L17.9951 131.288Z" fill="black"/>
<path d="M6.42164 112.517L5.26097 110.104L12.8714 106.633C13.7259 106.243 14.5691 106.1 15.4012 106.205C16.2315 106.307 16.9966 106.631 17.6965 107.177C18.3926 107.724 18.9676 108.47 19.4215 109.414C19.8772 110.361 20.0983 111.27 20.0849 112.142C20.0676 113.015 19.8333 113.794 19.3818 114.481C18.9304 115.167 18.2774 115.705 17.4229 116.095L9.8125 119.566L8.65183 117.154L16.0505 113.778C16.4968 113.575 16.848 113.299 17.104 112.951C17.3582 112.6 17.5005 112.204 17.5309 111.764C17.5613 111.325 17.4648 110.872 17.2414 110.408C17.0162 109.94 16.7214 109.578 16.3568 109.324C15.9905 109.065 15.5882 108.92 15.1499 108.889C14.7098 108.854 14.2666 108.938 13.8203 109.142L6.42164 112.517Z" fill="black"/>
<path d="M1.65852 99.5968L5.47656 96.2677L5.45688 96.1712L0.620177 94.5026L0.0185782 91.5511L7.13415 94.0966L12.6947 89.0129L13.3073 92.0187L9.49171 95.3912L9.5114 95.4878L14.3604 97.1854L14.9707 100.179L7.8354 97.537L2.26258 102.56L1.65852 99.5968Z" fill="black"/>
<path d="M6.41043 71.3134L8.53956 71.4773L8.07443 77.2069L5.94531 77.043L6.41043 71.3134Z" fill="black"/>
<path d="M59.996 91.4441L54.8285 101.197H47.9844L71.4578 56.7578L86.1081 101.197H79.5388L76.4603 91.4441H59.996ZM62.7171 86.1243H74.7012L70.1385 71.3739L62.7171 86.1243Z" fill="#3700FC"/>
<path d="M102.572 59.7133L98.0922 95.4743H110.104L109.389 101.197H91.0831L96.3056 59.7133H102.572Z" fill="#3700FC"/>
</svg>
