<svg width="158" height="158" viewBox="0 0 158 158" fill="none" xmlns="http://www.w3.org/2000/svg">
<g clip-path="url(#clip0_361_43239)">
<path d="M16.6619 57.105L15.4274 59.6948L5.57031 50.4427L7.05483 47.3281L20.6711 48.6936L19.4368 51.2834L9.01617 50.0531L8.97361 50.1425L16.6619 57.105ZM11.9709 55.1813L14.8867 49.0638L16.8239 49.9395L13.9081 56.0569L11.9709 55.1813Z" fill="#400477"/>
<path d="M19.0594 29.5586L29.0578 37.5595L27.5575 39.3376L17.6901 38.5379L17.6301 38.6094L23.923 43.645L22.1859 45.7037L12.1875 37.7028L13.7119 35.8962L23.5463 36.7251L23.6184 36.6395L17.3304 31.6077L19.0594 29.5586Z" fill="#400477"/>
<path d="M38.0177 29.4284L34.2772 32.0149L26.7852 21.7391L30.5566 19.1314C31.6178 18.3974 32.6815 17.9713 33.7475 17.8532C34.811 17.7317 35.828 17.9113 36.7987 18.3923C37.7728 18.871 38.6488 19.6438 39.4269 20.7109C40.2073 21.7812 40.6702 22.8447 40.8154 23.9014C40.9643 24.9558 40.8022 25.9559 40.3293 26.9017C39.8598 27.8451 39.0893 28.6874 38.0177 29.4284ZM35.1509 28.6107L36.5678 27.6311C37.2272 27.175 37.6991 26.6778 37.9831 26.1392C38.2682 25.5948 38.3487 25.0035 38.2242 24.365C38.1006 23.7209 37.7597 23.0159 37.201 22.2498C36.6475 21.4905 36.0799 20.9496 35.4987 20.6271C34.9208 20.3022 34.324 20.1816 33.7082 20.2651C33.0923 20.3489 32.4547 20.6187 31.7953 21.0748L30.3733 22.0581L35.1509 28.6107Z" fill="#400477"/>
<path d="M48.1499 22.8783L43.3594 11.1711L48.1024 9.33051C49.0102 8.97818 49.8497 8.83563 50.6209 8.90289C51.3946 8.96481 52.0673 9.21819 52.6392 9.66304C53.2137 10.1025 53.6592 10.7091 53.9757 11.4827C54.2939 12.2602 54.3953 12.9958 54.2802 13.6897C54.1636 14.3797 53.8392 15.0002 53.3074 15.551C52.7793 16.1004 52.0536 16.5542 51.1302 16.9126L47.9545 18.1451L47.1405 16.1557L49.9051 15.0828C50.3904 14.8945 50.7669 14.6733 51.0348 14.4192C51.3027 14.1651 51.462 13.8781 51.5124 13.5582C51.5668 13.2368 51.5152 12.8836 51.3577 12.4987C51.1986 12.11 50.9843 11.8134 50.7148 11.6089C50.449 11.4029 50.1256 11.2943 49.7449 11.2832C49.3662 11.2667 48.9324 11.3534 48.4431 11.5432L46.7292 12.2084L50.6916 21.892L48.1499 22.8783ZM52.4621 15.0312L57.6299 19.1993L54.824 20.2883L49.7208 16.095L52.4621 15.0312Z" fill="#400477"/>
<path d="M62.097 17.7584L60.0586 5.31321L68.6698 3.97571L69.0251 6.14512L63.1159 7.06296L63.6015 10.0284L69.0678 9.17938L69.4231 11.3488L63.9568 12.1978L64.4434 15.1694L70.3778 14.2476L70.7331 16.417L62.097 17.7584ZM63.2312 3.58664L64.1013 0.616243L66.5598 0.234375L65.1093 3.29492L63.2312 3.58664Z" fill="#400477"/>
<path d="M83.5 15.934L85.5847 3.49609L88.2851 3.92534L86.5636 14.1951L92.0392 15.0655L91.6756 17.2336L83.5 15.934Z" fill="#400477"/>
<path d="M103.817 7.42368L99.7288 19.3809L97.1328 18.5393L101.22 6.58203L103.817 7.42368Z" fill="#400477"/>
<path d="M114.497 15.8628C114.683 15.3982 114.67 14.9587 114.456 14.5443C114.243 14.1299 113.844 13.7773 113.258 13.4866C112.861 13.2891 112.496 13.1772 112.165 13.1508C111.835 13.1208 111.548 13.1645 111.302 13.2818C111.059 13.4011 110.875 13.5813 110.749 13.8225C110.636 14.0198 110.588 14.2167 110.603 14.4131C110.622 14.6114 110.687 14.8073 110.799 15.0008C110.912 15.1906 111.059 15.3807 111.238 15.5711C111.419 15.7577 111.621 15.9409 111.844 16.1206L112.754 16.8761C113.199 17.2354 113.584 17.6107 113.909 18.0022C114.233 18.3937 114.48 18.7992 114.648 19.2188C114.816 19.6384 114.89 20.0709 114.869 20.5167C114.852 20.9642 114.724 21.4227 114.482 21.8925C114.119 22.5777 113.627 23.084 113.006 23.4114C112.391 23.7369 111.677 23.8728 110.864 23.8189C110.056 23.7632 109.183 23.5023 108.245 23.0366C107.314 22.5745 106.576 22.0331 106.031 21.4125C105.489 20.7937 105.168 20.116 105.067 19.3796C104.971 18.6414 105.125 17.8637 105.529 17.0467L107.888 18.2178C107.717 18.6073 107.663 18.9765 107.726 19.3255C107.795 19.6729 107.961 19.9925 108.224 20.2844C108.493 20.5744 108.838 20.8239 109.258 21.0326C109.671 21.2375 110.06 21.3571 110.425 21.3909C110.794 21.4267 111.118 21.3825 111.396 21.258C111.674 21.1336 111.884 20.9361 112.025 20.6655C112.157 20.4134 112.191 20.1633 112.127 19.915C112.067 19.6687 111.922 19.4126 111.693 19.1466C111.467 18.8826 111.169 18.5968 110.801 18.2896L109.706 17.3592C108.855 16.6464 108.276 15.9053 107.969 15.1361C107.662 14.3668 107.728 13.5683 108.166 12.7406C108.518 12.0589 109.015 11.5572 109.656 11.2355C110.301 10.9157 111.029 10.7772 111.839 10.8201C112.648 10.863 113.474 11.0931 114.314 11.5105C115.17 11.9353 115.842 12.4486 116.331 13.0505C116.823 13.6542 117.115 14.2985 117.206 14.9836C117.296 15.6686 117.172 16.3483 116.833 17.0227L114.497 15.8628Z" fill="#400477"/>
<path d="M115.266 26.4946L123.328 16.6367L127.381 19.7803C128.126 20.358 128.659 20.9472 128.981 21.5481C129.302 22.1491 129.432 22.7375 129.37 23.3137C129.311 23.8865 129.079 24.4202 128.675 24.9144C128.36 25.2994 128.004 25.5766 127.607 25.746C127.213 25.9121 126.801 25.9809 126.372 25.9523C125.949 25.9232 125.53 25.8103 125.114 25.6138L125.035 25.71C125.408 26.0251 125.682 26.4108 125.858 26.8673C126.037 27.3264 126.088 27.8141 126.01 28.3307C125.935 28.844 125.699 29.343 125.303 29.8275C124.875 30.3505 124.36 30.7139 123.757 30.9177C123.16 31.1208 122.506 31.1403 121.795 30.9765C121.083 30.8127 120.348 30.437 119.59 29.8491L115.266 26.4946ZM118.799 26.4507L120.544 27.8041C121.141 28.2666 121.666 28.4933 122.121 28.484C122.578 28.4715 122.959 28.2791 123.263 27.9069C123.486 27.6341 123.615 27.3409 123.651 27.0276C123.686 26.7142 123.628 26.4012 123.474 26.0882C123.324 25.7778 123.078 25.4895 122.735 25.2237L120.941 23.8321L118.799 26.4507ZM122.094 22.4219L123.681 23.6525C123.974 23.8799 124.275 24.0321 124.584 24.109C124.899 24.1852 125.198 24.1813 125.482 24.0974C125.769 24.0161 126.019 23.8455 126.232 23.5856C126.523 23.2294 126.628 22.8413 126.546 22.4212C126.467 22.0035 126.191 21.6108 125.716 21.2427L124.09 19.9815L122.094 22.4219Z" fill="#400477"/>
<path d="M138.661 40.4301C137.54 41.2652 136.424 41.7689 135.313 41.9409C134.204 42.1161 133.163 42.0032 132.19 41.6021C131.223 41.2018 130.393 40.5602 129.699 39.6771C129 38.7878 128.58 37.835 128.44 36.8189C128.299 35.8028 128.461 34.7965 128.924 33.8002C129.388 32.8038 130.178 31.8893 131.296 31.0566C132.417 30.2215 133.531 29.7163 134.64 29.5411C135.749 29.3657 136.787 29.4782 137.754 29.8785C138.724 30.2765 139.559 30.9201 140.257 31.8096C140.951 32.6925 141.368 33.642 141.509 34.6582C141.656 35.675 141.497 36.6816 141.033 37.6779C140.572 38.6775 139.781 39.595 138.661 40.4301ZM136.975 38.2846C137.701 37.7437 138.23 37.1816 138.562 36.5984C138.897 36.0184 139.043 35.4418 139.001 34.8687C138.959 34.2955 138.737 33.7532 138.335 33.2418C137.934 32.7302 137.454 32.3798 136.897 32.1905C136.34 32.0013 135.729 31.9866 135.064 32.1463C134.402 32.3092 133.707 32.661 132.982 33.2021C132.256 33.743 131.725 34.3035 131.391 34.8834C131.058 35.4668 130.913 36.0449 130.955 36.6181C130.997 37.1913 131.219 37.7335 131.621 38.2449C132.023 38.7565 132.502 39.1069 133.059 39.2962C133.617 39.4854 134.226 39.4986 134.889 39.3357C135.554 39.1759 136.249 38.8257 136.975 38.2846Z" fill="#400477"/>
<path d="M138.005 51.6677L136.863 49.0378L150.522 48.1367L151.895 51.2993L141.714 60.2088L140.572 57.579L148.505 50.885L148.465 50.7943L138.005 51.6677ZM142.619 49.574L145.316 55.7858L143.349 56.5959L140.652 50.384L142.619 49.574Z" fill="#400477"/>
<path d="M144.511 87.8259L145.208 83.4102L157.999 85.3237L157.297 89.7758C157.099 91.0287 156.673 92.0691 156.018 92.8966C155.367 93.7249 154.527 94.3109 153.497 94.6548C152.466 95.003 151.286 95.0776 149.958 94.8788C148.626 94.6796 147.519 94.2628 146.639 93.6291C145.758 92.9992 145.134 92.1897 144.765 91.2008C144.396 90.2159 144.312 89.091 144.511 87.8259ZM147.11 86.3904L146.846 88.0629C146.723 88.8415 146.761 89.5176 146.961 90.0911C147.163 90.6694 147.543 91.1371 148.101 91.4943C148.662 91.8563 149.419 92.1088 150.372 92.2513C151.317 92.3926 152.111 92.3724 152.754 92.1904C153.396 92.0126 153.9 91.6792 154.267 91.1902C154.634 90.7015 154.879 90.0677 155.002 89.2893L155.266 87.6107L147.11 86.3904Z" fill="#400477"/>
<path d="M142.268 99.4688L154.251 104.229L150.957 112.092L148.868 111.262L151.128 105.867L148.273 104.732L146.182 109.723L144.094 108.893L146.185 103.902L143.324 102.766L141.054 108.184L138.965 107.354L142.268 99.4688Z" fill="#400477"/>
<path d="M140.249 123.066C140.7 123.302 141.15 123.342 141.598 123.185C142.046 123.029 142.453 122.685 142.819 122.154C143.069 121.793 143.226 121.454 143.293 121.136C143.363 120.821 143.353 120.538 143.263 120.286C143.17 120.038 143.009 119.838 142.778 119.687C142.59 119.555 142.395 119.484 142.193 119.475C141.989 119.47 141.781 119.51 141.571 119.594C141.363 119.681 141.152 119.8 140.937 119.95C140.725 120.103 140.514 120.277 140.304 120.471L139.425 121.259C139.005 121.647 138.576 121.974 138.138 122.241C137.7 122.508 137.257 122.698 136.809 122.81C136.361 122.922 135.911 122.942 135.46 122.869C135.005 122.799 134.553 122.619 134.103 122.33C133.448 121.896 132.991 121.36 132.732 120.721C132.474 120.087 132.421 119.38 132.573 118.6C132.727 117.826 133.097 117.013 133.684 116.162C134.267 115.317 134.907 114.669 135.605 114.216C136.301 113.767 137.03 113.537 137.793 113.527C138.557 113.523 139.332 113.765 140.116 114.254L138.64 116.394C138.263 116.182 137.893 116.086 137.53 116.105C137.167 116.13 136.822 116.253 136.493 116.472C136.165 116.697 135.869 117.001 135.606 117.382C135.348 117.757 135.179 118.119 135.101 118.468C135.02 118.82 135.027 119.138 135.12 119.422C135.214 119.705 135.39 119.932 135.649 120.101C135.89 120.259 136.141 120.322 136.401 120.29C136.66 120.261 136.938 120.152 137.237 119.962C137.533 119.775 137.86 119.522 138.218 119.202L139.297 118.255C140.126 117.517 140.951 117.046 141.772 116.842C142.593 116.638 143.399 116.797 144.19 117.32C144.843 117.742 145.295 118.282 145.546 118.941C145.795 119.603 145.849 120.323 145.708 121.1C145.567 121.878 145.234 122.648 144.708 123.411C144.172 124.188 143.568 124.776 142.896 125.176C142.221 125.58 141.53 125.785 140.82 125.79C140.111 125.796 139.433 125.594 138.786 125.186L140.249 123.066Z" fill="#400477"/>
<path d="M136.854 132.868L127.312 124.355L129.161 122.391L138.703 130.904L136.854 132.868Z" fill="#400477"/>
<path d="M122.847 139.626C123.103 139.813 123.366 139.95 123.637 140.039C123.909 140.131 124.188 140.172 124.471 140.163C124.755 140.16 125.04 140.105 125.328 140C125.614 139.898 125.897 139.742 126.179 139.534C126.705 139.144 127.069 138.674 127.269 138.124C127.466 137.576 127.485 136.977 127.327 136.327C127.171 135.679 126.821 135.006 126.275 134.307C125.73 133.608 125.157 133.094 124.557 132.766C123.956 132.437 123.356 132.291 122.756 132.329C122.158 132.369 121.587 132.591 121.044 132.993C120.55 133.358 120.196 133.754 119.979 134.182C119.762 134.616 119.684 135.058 119.744 135.508C119.801 135.96 119.996 136.4 120.33 136.828L119.838 137.092L122.494 135.127L123.74 136.724L119.429 139.914L118.442 138.65C117.754 137.768 117.354 136.869 117.242 135.952C117.133 135.039 117.279 134.163 117.683 133.323C118.088 132.487 118.724 131.749 119.589 131.109C120.555 130.394 121.566 129.973 122.621 129.847C123.678 129.724 124.711 129.895 125.719 130.36C126.726 130.831 127.643 131.595 128.469 132.653C129.103 133.467 129.548 134.281 129.804 135.097C130.058 135.918 130.139 136.714 130.047 137.483C129.954 138.252 129.706 138.969 129.303 139.633C128.901 140.296 128.359 140.88 127.678 141.384C127.094 141.816 126.486 142.135 125.853 142.34C125.222 142.549 124.595 142.648 123.972 142.635C123.345 142.625 122.746 142.504 122.174 142.273C121.604 142.045 121.091 141.709 120.633 141.265L122.847 139.626Z" fill="#400477"/>
<path d="M105.892 153.072L101.023 141.395L103.213 140.529L111.494 145.816L111.582 145.781L108.517 138.432L111.052 137.43L115.921 149.106L113.696 149.986L105.459 144.689L105.354 144.731L108.415 152.074L105.892 153.072Z" fill="#400477"/>
<path d="M93.702 143.734L95.4739 156.218L86.8361 157.381L86.5272 155.205L92.4547 154.407L92.0325 151.432L86.5494 152.17L86.2406 149.994L91.7237 149.256L91.3006 146.275L85.348 147.077L85.0391 144.901L93.702 143.734Z" fill="#400477"/>
<path d="M79.3328 145.44L78.251 157.999L73.1632 157.583C72.1894 157.503 71.3729 157.266 70.7137 156.87C70.0499 156.479 69.5642 155.959 69.2562 155.312C68.9439 154.669 68.8235 153.933 68.895 153.103C68.9668 152.269 69.2132 151.567 69.6344 150.996C70.0552 150.429 70.63 150.015 71.3583 149.754C72.0827 149.492 72.9403 149.401 73.9309 149.482L77.3374 149.76L77.1536 151.894L74.1878 151.652C73.6673 151.609 73.2289 151.644 72.8727 151.755C72.5165 151.865 72.2426 152.053 72.0507 152.317C71.8546 152.581 71.7388 152.92 71.7033 153.333C71.6673 153.75 71.7232 154.108 71.8706 154.408C72.0139 154.708 72.2533 154.946 72.589 155.122C72.9203 155.301 73.3483 155.412 73.873 155.455L75.7116 155.605L76.6064 145.217L79.3328 145.44ZM71.8764 150.586L69.1637 144.609L72.1735 144.855L74.817 150.826L71.8764 150.586Z" fill="#400477"/>
<path d="M45.0151 150.499L42.5234 149.399L45.9942 141.945C46.3839 141.108 46.9301 140.467 47.6328 140.02C48.3319 139.572 49.1294 139.334 50.0258 139.307C50.9203 139.283 51.8549 139.486 52.8292 139.916C53.8076 140.348 54.5823 140.9 55.1533 141.571C55.7226 142.246 56.0644 142.987 56.1787 143.794C56.2931 144.601 56.1555 145.423 55.7658 146.26L52.295 153.714L49.8032 152.614L53.1774 145.367C53.3808 144.93 53.4641 144.498 53.4267 144.072C53.3856 143.644 53.2299 143.253 52.9597 142.899C52.6895 142.546 52.3147 142.263 51.8351 142.052C51.3516 141.838 50.8864 141.75 50.4391 141.786C49.9879 141.821 49.5855 141.966 49.2314 142.219C48.8736 142.471 48.5929 142.816 48.3895 143.253L45.0151 150.499Z" fill="#400477"/>
<path d="M33.375 143.97L40.7259 133.598L42.9777 135.111L35.6269 145.483L33.375 143.97Z" fill="#400477"/>
<path d="M17.9961 131.287L32.2733 124.156L33.8316 125.829L19.5543 132.959L17.9961 131.287Z" fill="#400477"/>
<path d="M6.42239 112.513L5.26172 110.1L12.8721 106.629C13.7266 106.239 14.5699 106.096 15.402 106.201C16.2323 106.303 16.9974 106.627 17.6974 107.173C18.3935 107.72 18.9684 108.466 19.4222 109.41C19.8779 110.357 20.0991 111.266 20.0856 112.138C20.0684 113.011 19.8341 113.79 19.3825 114.477C18.9312 115.163 18.2781 115.701 17.4236 116.091L9.81324 119.562L8.65257 117.149L16.0513 113.774C16.4976 113.571 16.8487 113.295 17.1047 112.947C17.359 112.596 17.5013 112.2 17.5316 111.76C17.562 111.321 17.4655 110.868 17.2422 110.404C17.017 109.936 16.7221 109.575 16.3576 109.32C15.9912 109.061 15.5889 108.916 15.1506 108.885C14.7106 108.85 14.2674 108.934 13.8211 109.138L6.42239 112.513Z" fill="#400477"/>
<path d="M1.65947 99.5958L5.47751 96.2667L5.45783 96.1702L0.62113 94.5015L0.0195312 91.5499L7.1351 94.0955L12.6956 89.0117L13.3083 92.0176L9.49267 95.3902L9.51235 95.4867L14.3614 97.1844L14.9716 100.178L7.83636 97.536L2.26354 102.559L1.65947 99.5958Z" fill="#400477"/>
<circle cx="151.854" cy="71.0998" r="4.38889" fill="#FFC702"/>
<circle cx="6.1428" cy="74.6115" r="4.38889" fill="#FFC702"/>
</g>
<path d="M62.9171 93.6033L57.9381 103.253H51.3438L73.9607 59.2852L88.0764 103.253H81.7468L78.7807 93.6033H62.9171ZM65.5389 88.34H77.0857L72.6895 73.7461L65.5389 88.34Z" fill="#5A15AE"/>
<path d="M103.94 62.2092L99.6232 97.5907H111.197L110.508 103.253H92.8699L97.9018 62.2092H103.94Z" fill="#5A15AE"/>
<defs>
<clipPath id="clip0_361_43239">
<rect width="158" height="158" fill="white"/>
</clipPath>
</defs>
</svg>
