<svg width="90" height="90" viewBox="0 0 90 90" fill="none" xmlns="http://www.w3.org/2000/svg">
<path d="M9.49095 32.5277L8.78779 34.0029L3.17298 28.7327L4.01859 26.9586L11.7747 27.7364L11.0716 29.2116L5.13581 28.5108L5.11157 28.5617L9.49095 32.5277ZM6.81887 31.4319L8.47979 27.9473L9.58328 28.4461L7.92236 31.9307L6.81887 31.4319Z" fill="#313131"/>
<path d="M10.8558 16.8375L16.5511 21.395L15.6965 22.4078L10.0758 21.9523L10.0416 21.993L13.6262 24.8614L12.6367 26.0341L6.94141 21.4766L7.80975 20.4475L13.4116 20.9197L13.4527 20.8709L9.87093 18.0047L10.8558 16.8375Z" fill="#313131"/>
<path d="M21.6561 16.7628L19.5254 18.2361L15.2578 12.3828L17.4061 10.8974C18.0106 10.4793 18.6165 10.2366 19.2237 10.1693C19.8295 10.1001 20.4088 10.2024 20.9617 10.4764C21.5166 10.7491 22.0156 11.1893 22.4588 11.7971C22.9033 12.4068 23.167 13.0126 23.2497 13.6145C23.3345 14.2151 23.2422 14.7848 22.9728 15.3235C22.7054 15.8609 22.2665 16.3407 21.6561 16.7628ZM20.0231 16.297L20.8302 15.739C21.2058 15.4792 21.4746 15.196 21.6364 14.8892C21.7988 14.5791 21.8446 14.2423 21.7737 13.8786C21.7033 13.5117 21.5091 13.1101 21.1909 12.6737C20.8756 12.2412 20.5523 11.9331 20.2212 11.7494C19.892 11.5643 19.5521 11.4956 19.2013 11.5432C18.8505 11.5909 18.4873 11.7446 18.1117 12.0044L17.3017 12.5645L20.0231 16.297Z" fill="#313131"/>
<path d="M27.428 13.0319L24.6992 6.36328L27.4009 5.31483C27.918 5.11414 28.3962 5.03294 28.8355 5.07125C29.2762 5.10652 29.6594 5.25085 29.9852 5.50425C30.3124 5.7546 30.5662 6.10012 30.7465 6.54079C30.9277 6.98363 30.9855 7.40266 30.9199 7.79789C30.8535 8.19095 30.6687 8.54438 30.3658 8.85816C30.065 9.17108 29.6516 9.42962 29.1256 9.63377L27.3167 10.3358L26.853 9.20262L28.4278 8.59145C28.7042 8.48419 28.9187 8.35818 29.0713 8.21344C29.2239 8.0687 29.3146 7.90522 29.3433 7.72301C29.3743 7.53992 29.3449 7.33876 29.2552 7.11951C29.1646 6.89809 29.0425 6.72914 28.889 6.61265C28.7376 6.4953 28.5534 6.43345 28.3365 6.4271C28.1208 6.41771 27.8737 6.46709 27.595 6.57522L26.6187 6.95411L28.8758 12.4701L27.428 13.0319ZM29.8843 8.56205L32.828 10.9363L31.2297 11.5566L28.3228 9.16802L29.8843 8.56205Z" fill="#313131"/>
<path d="M35.3711 10.115L34.21 3.02595L39.1151 2.26408L39.3175 3.49982L35.9515 4.02264L36.2281 5.71183L39.3418 5.2282L39.5442 6.46394L36.4305 6.94756L36.7077 8.64021L40.088 8.11518L40.2904 9.35092L35.3711 10.115ZM36.0172 2.04246L36.5128 0.350462L37.9132 0.132942L37.087 1.87629L36.0172 2.04246Z" fill="#313131"/>
<path d="M47.5625 9.07707L48.75 1.99219L50.2882 2.2367L49.3076 8.08657L52.4266 8.58237L52.2195 9.81738L47.5625 9.07707Z" fill="#313131"/>
<path d="M59.135 4.22942L56.8065 11.0405L55.3278 10.5611L57.6562 3.75L59.135 4.22942Z" fill="#313131"/>
<path d="M65.2187 9.03499C65.3249 8.77034 65.3172 8.51999 65.1957 8.28392C65.0742 8.04785 64.8467 7.84703 64.5132 7.68146C64.2866 7.56895 64.0789 7.50518 63.8902 7.49016C63.7025 7.47305 63.5387 7.49793 63.3986 7.5648C63.2607 7.63272 63.1558 7.73538 63.0839 7.87279C63.0196 7.98516 62.9919 8.0973 63.0007 8.20919C63.0116 8.32214 63.0488 8.43373 63.1123 8.54394C63.1769 8.65208 63.2602 8.76036 63.3624 8.86878C63.4656 8.97512 63.5807 9.07946 63.7076 9.1818L64.2257 9.61214C64.4794 9.81682 64.6988 10.0306 64.8837 10.2536C65.0686 10.4766 65.209 10.7076 65.3047 10.9466C65.4005 11.1856 65.4425 11.432 65.4308 11.6859C65.4212 11.9408 65.3478 12.202 65.2104 12.4696C65.0033 12.8599 64.7231 13.1483 64.3696 13.3348C64.0193 13.5202 63.6125 13.5976 63.1492 13.5669C62.689 13.5352 62.1918 13.3866 61.6573 13.1213C61.1272 12.8581 60.7068 12.5497 60.3963 12.1962C60.0879 11.8437 59.9048 11.4577 59.847 11.0382C59.7925 10.6177 59.8803 10.1747 60.1104 9.70932L61.454 10.3764C61.3567 10.5983 61.3261 10.8086 61.362 11.0074C61.4012 11.2053 61.4958 11.3873 61.6458 11.5536C61.799 11.7188 61.9953 11.8609 62.2347 11.9798C62.4699 12.0965 62.6915 12.1646 62.8995 12.1839C63.1097 12.2043 63.2939 12.1791 63.4523 12.1082C63.6106 12.0373 63.7301 11.9248 63.8107 11.7707C63.8859 11.6271 63.9053 11.4846 63.8689 11.3432C63.8346 11.2029 63.7521 11.057 63.6213 10.9055C63.4926 10.7551 63.3233 10.5923 63.1133 10.4173L62.4898 9.88735C62.0048 9.4813 61.6749 9.05919 61.5003 8.62101C61.3257 8.18284 61.3632 7.72799 61.6127 7.25647C61.8133 6.86818 62.0962 6.58242 62.4615 6.39918C62.8289 6.217 63.2432 6.13812 63.7045 6.16254C64.1657 6.18695 64.6358 6.31804 65.1146 6.55578C65.6021 6.79778 65.985 7.09018 66.2634 7.433C66.5439 7.77688 66.71 8.14392 66.7616 8.53413C66.8132 8.92434 66.7425 9.31153 66.5494 9.69569L65.2187 9.03499Z" fill="#313131"/>
<path d="M65.6576 15.0918L70.25 9.47656L72.5587 11.2672C72.9829 11.5963 73.2866 11.9319 73.4699 12.2742C73.6531 12.6165 73.7271 12.9517 73.6919 13.2799C73.6581 13.6062 73.5262 13.9102 73.2959 14.1917C73.1165 14.411 72.9138 14.5689 72.6877 14.6654C72.463 14.76 72.2285 14.7992 71.9841 14.7829C71.7431 14.7663 71.5043 14.702 71.2676 14.5901L71.2227 14.6449C71.4348 14.8244 71.591 15.0441 71.6913 15.3041C71.7934 15.5656 71.8224 15.8434 71.778 16.1377C71.7352 16.4301 71.6009 16.7143 71.3752 16.9903C71.1315 17.2882 70.838 17.4952 70.4946 17.6113C70.1546 17.727 69.7819 17.7381 69.3766 17.6448C68.9713 17.5515 68.5528 17.3375 68.1211 17.0026L65.6576 15.0918ZM67.6705 15.0668L68.6643 15.8377C69.0041 16.1012 69.3034 16.2303 69.5623 16.225C69.8228 16.2179 70.0397 16.1083 70.2131 15.8963C70.3402 15.7409 70.4138 15.5739 70.434 15.3954C70.4543 15.2169 70.4207 15.0386 70.3334 14.8603C70.2479 14.6835 70.1076 14.5193 69.9124 14.3679L68.8903 13.5752L67.6705 15.0668ZM69.5474 12.7719L70.4511 13.4729C70.6182 13.6024 70.7896 13.6891 70.9655 13.7329C71.1447 13.7763 71.3152 13.7741 71.477 13.7263C71.6407 13.68 71.783 13.5828 71.9041 13.4348C72.0701 13.2319 72.1297 13.0108 72.0831 12.7715C72.0383 12.5336 71.8808 12.3099 71.6105 12.1002L70.6843 11.3818L69.5474 12.7719Z" fill="#313131"/>
<path d="M78.9848 23.0293C78.3464 23.505 77.7107 23.7919 77.0777 23.8899C76.4461 23.9897 75.8532 23.9254 75.2991 23.6969C74.7482 23.4689 74.2753 23.1034 73.8801 22.6004C73.482 22.0938 73.2429 21.5511 73.1628 20.9723C73.0827 20.3935 73.1747 19.8203 73.4388 19.2528C73.7029 18.6852 74.1532 18.1643 74.7897 17.69C75.4281 17.2143 76.0631 16.9265 76.6947 16.8267C77.3262 16.7268 77.9174 16.7909 78.4682 17.0189C79.021 17.2456 79.4964 17.6122 79.8944 18.1189C80.2896 18.6218 80.5272 19.1627 80.6073 19.7415C80.6908 20.3207 80.6005 20.8941 80.3364 21.4616C80.0738 22.031 79.6232 22.5536 78.9848 23.0293ZM78.0246 21.8072C78.4382 21.4991 78.7395 21.1789 78.9287 20.8467C79.1193 20.5163 79.2027 20.1879 79.1788 19.8614C79.1549 19.5349 79.0285 19.226 78.7996 18.9347C78.5707 18.6433 78.2976 18.4437 77.9802 18.3359C77.6629 18.2281 77.3148 18.2197 76.9361 18.3107C76.5588 18.4035 76.1634 18.6039 75.7499 18.9121C75.3364 19.2202 75.0343 19.5395 74.8437 19.8698C74.6545 20.2021 74.5718 20.5314 74.5957 20.8579C74.6196 21.1844 74.746 21.4933 74.9749 21.7846C75.2038 22.076 75.477 22.2756 75.7943 22.3834C76.1117 22.4912 76.459 22.4987 76.8362 22.4059C77.215 22.3149 77.6111 22.1154 78.0246 21.8072Z" fill="#313131"/>
<path d="M78.611 29.4305L77.9606 27.9325L85.7411 27.4192L86.5232 29.2207L80.7235 34.2957L80.073 32.7977L84.5919 28.9847L84.5694 28.933L78.611 29.4305ZM81.239 28.2379L82.7754 31.7763L81.6549 32.2377L80.1185 28.6993L81.239 28.2379Z" fill="#313131"/>
<path d="M86.0918 42.7658L84.8855 42.9193L84.4499 39.673L85.6562 39.5195L86.0918 42.7658Z" fill="#313131"/>
<path d="M82.3173 50.0269L82.714 47.5116L90 48.6016L89.6 51.1376C89.4874 51.8513 89.2446 52.4439 88.8716 52.9153C88.501 53.3871 88.0223 53.7209 87.4355 53.9168C86.8482 54.1151 86.1763 54.1576 85.4198 54.0444C84.6608 53.9309 84.0306 53.6935 83.5292 53.3325C83.0274 52.9737 82.6717 52.5126 82.4619 51.9493C82.2518 51.3883 82.2036 50.7475 82.3173 50.0269ZM83.7973 49.2092L83.647 50.1619C83.577 50.6054 83.5988 50.9905 83.7124 51.3172C83.8279 51.6466 84.0444 51.913 84.3619 52.1165C84.6814 52.3227 85.1127 52.4665 85.6559 52.5477C86.1942 52.6282 86.6464 52.6167 87.0123 52.513C87.3779 52.4117 87.6652 52.2218 87.8742 51.9433C88.0832 51.6649 88.2227 51.3039 88.2927 50.8605L88.4435 49.9043L83.7973 49.2092Z" fill="#313131"/>
<path d="M81.038 56.6593L87.8633 59.3711L85.9869 63.8499L84.7972 63.3771L86.0848 60.3037L84.4585 59.6575L83.2674 62.5005L82.0776 62.0278L83.2687 59.1848L81.6391 58.5373L80.346 61.6238L79.1562 61.151L81.038 56.6593Z" fill="#313131"/>
<path d="M79.8878 70.1012C80.1449 70.2356 80.401 70.2582 80.6562 70.169C80.9115 70.0798 81.1435 69.884 81.3522 69.5814C81.4941 69.3758 81.5839 69.1826 81.6219 69.0019C81.6618 68.8225 81.6561 68.6611 81.6047 68.5177C81.552 68.3762 81.4599 68.2625 81.3284 68.1765C81.2216 68.1009 81.1106 68.0607 80.9954 68.0557C80.879 68.0527 80.7608 68.0753 80.6408 68.1235C80.5228 68.173 80.4025 68.2407 80.2797 68.3264C80.1589 68.4135 80.0387 68.5122 79.9192 68.6227L79.4184 69.072C79.1793 69.2928 78.9351 69.4793 78.6856 69.6314C78.4362 69.7834 78.1839 69.8915 77.9287 69.9554C77.6736 70.0193 77.4173 70.0304 77.1599 69.9887C76.9012 69.9489 76.6437 69.8465 76.3874 69.6817C76.0143 69.4347 75.7538 69.1292 75.6061 68.7651C75.459 68.4042 75.4289 68.0017 75.5157 67.5574C75.6032 67.1163 75.8142 66.6533 76.1487 66.1684C76.4806 65.6873 76.8453 65.3179 77.2429 65.06C77.6392 64.8041 78.0546 64.6733 78.4892 64.6677C78.9245 64.6654 79.3656 64.8033 79.8124 65.0816L78.9714 66.3007C78.7569 66.1801 78.5461 66.1252 78.3391 66.1362C78.1327 66.1503 77.9358 66.22 77.7483 66.3451C77.5615 66.4734 77.3932 66.6462 77.2433 66.8634C77.0961 67.0768 77.0002 67.2829 76.9555 67.4817C76.9095 67.6824 76.9132 67.8636 76.9665 68.0252C77.0198 68.1867 77.1202 68.3157 77.2675 68.4122C77.405 68.5021 77.5479 68.5379 77.6964 68.5196C77.8436 68.5033 78.0022 68.441 78.1723 68.3327C78.3411 68.2263 78.5273 68.0821 78.7309 67.9001L79.3458 67.3607C79.8179 66.9404 80.2878 66.6721 80.7554 66.5558C81.223 66.4395 81.6822 66.5302 82.133 66.828C82.5048 67.0684 82.7622 67.3762 82.9053 67.7513C83.047 68.1284 83.0778 68.5384 82.9976 68.9814C82.9174 69.4245 82.7275 69.8632 82.4277 70.2977C82.1226 70.74 81.7786 71.0751 81.3958 71.3032C81.0116 71.5333 80.6175 71.6499 80.2135 71.653C79.8096 71.6561 79.4233 71.5413 79.0548 71.3087L79.8878 70.1012Z" fill="#313131"/>
<path d="M77.955 75.6855L72.5198 70.8361L73.5726 69.7171L79.0078 74.5664L77.955 75.6855Z" fill="#313131"/>
<path d="M69.9751 79.5343C70.1212 79.6405 70.2712 79.7188 70.4251 79.7692C70.5804 79.8216 70.7389 79.8451 70.9006 79.8399C71.0619 79.838 71.2246 79.8071 71.3888 79.7472C71.5512 79.6888 71.7126 79.6001 71.8731 79.4814C72.173 79.2594 72.3801 78.9918 72.4942 78.6784C72.6064 78.3664 72.6174 78.0252 72.5272 77.6547C72.4384 77.286 72.2387 76.9026 71.9281 76.5044C71.6174 76.1062 71.2911 75.8135 70.9491 75.6263C70.6072 75.4391 70.2652 75.3561 69.9232 75.3774C69.5826 75.4005 69.2575 75.5266 68.948 75.7556C68.6671 75.9634 68.4651 76.1892 68.3419 76.433C68.2182 76.6801 68.1735 76.9318 68.2078 77.1882C68.2402 77.4459 68.3514 77.6967 68.5416 77.9405L68.2611 78.0908L69.7743 76.9711L70.4842 77.8809L68.0281 79.6983L67.4663 78.9783C67.0743 78.4759 66.8465 77.9636 66.7826 77.4415C66.7203 76.9212 66.8039 76.4221 67.0336 75.9439C67.2647 75.4677 67.6268 75.0472 68.1197 74.6824C68.67 74.2753 69.2455 74.0357 69.8464 73.9638C70.4487 73.8938 71.037 73.9912 71.6113 74.2559C72.185 74.524 72.7071 74.9594 73.1775 75.5623C73.539 76.0256 73.7925 76.4895 73.938 76.9541C74.083 77.422 74.1292 77.8751 74.0763 78.3133C74.0234 78.7516 73.8823 79.1597 73.653 79.5378C73.4236 79.9159 73.115 80.2485 72.7271 80.5355C72.3947 80.7815 72.0482 80.9631 71.6875 81.0802C71.3284 81.1993 70.9712 81.2552 70.616 81.248C70.2589 81.2422 69.9175 81.1735 69.5917 81.0418C69.2674 80.912 68.9749 80.7205 68.7141 80.4674L69.9751 79.5343Z" fill="#313131"/>
<path d="M60.3186 87.1926L57.5453 80.5413L58.7926 80.0481L63.5094 83.0594L63.5595 83.0396L61.814 78.8534L63.258 78.2824L66.0312 84.9336L64.764 85.4347L60.0718 82.4174L60.0118 82.4412L61.7559 86.6242L60.3186 87.1926Z" fill="#313131"/>
<path d="M53.3735 81.8733L54.3828 88.9844L49.4625 89.6467L49.2866 88.4071L52.663 87.9526L52.4225 86.2582L49.2992 86.6786L49.1233 85.4391L52.2466 85.0186L52.0056 83.3207L48.6149 83.7772L48.4389 82.5376L53.3735 81.8733Z" fill="#313131"/>
<path d="M45.1904 82.8465L44.5742 90L41.6761 89.7632C41.1214 89.7179 40.6563 89.5826 40.2808 89.3573C39.9027 89.1341 39.626 88.8383 39.4506 88.4699C39.2727 88.1036 39.2041 87.6841 39.2448 87.2114C39.2857 86.7363 39.4261 86.3363 39.666 86.0112C39.9057 85.6884 40.2331 85.4525 40.648 85.3035C41.0606 85.1543 41.5491 85.1027 42.1134 85.1488L44.0538 85.3073L43.9491 86.5229L42.2597 86.3849C41.9632 86.3606 41.7135 86.3801 41.5106 86.4433C41.3077 86.5064 41.1517 86.6133 41.0424 86.7638C40.9307 86.9141 40.8647 87.1069 40.8445 87.3421C40.824 87.5796 40.8558 87.7839 40.9398 87.9549C41.0214 88.1257 41.1578 88.2611 41.349 88.3612C41.5377 88.4633 41.7815 88.5266 42.0804 88.5511L43.1277 88.6366L43.6374 82.7196L45.1904 82.8465ZM40.9431 85.7778L39.3979 82.3732L41.1123 82.5133L42.6181 85.9146L40.9431 85.7778Z" fill="#313131"/>
<path d="M25.6423 85.7274L24.223 85.1005L26.2 80.8548C26.422 80.3781 26.7331 80.0126 27.1334 79.7583C27.5316 79.503 27.9859 79.3676 28.4965 79.3518C29.006 79.3382 29.5384 79.454 30.0934 79.6991C30.6507 79.9452 31.092 80.2594 31.4172 80.6417C31.7415 81.026 31.9362 81.4482 32.0013 81.908C32.0665 82.3678 31.9881 82.8361 31.7661 83.3128L29.7891 87.5586L28.3697 86.9318L30.2917 82.8041C30.4076 82.5551 30.455 82.3092 30.4337 82.0663C30.4103 81.8224 30.3216 81.5998 30.1677 81.3984C30.0138 81.1971 29.8003 81.036 29.5271 80.9154C29.2517 80.7938 28.9867 80.7435 28.7319 80.7644C28.4749 80.7843 28.2457 80.8665 28.044 81.011C27.8402 81.1545 27.6803 81.3507 27.5644 81.5997L25.6423 85.7274Z" fill="#313131"/>
<path d="M19.0103 82.009L23.1975 76.1009L24.4802 76.963L20.293 82.8711L19.0103 82.009Z" fill="#313131"/>
<path d="M10.2506 74.7831L18.3832 70.7215L19.2708 71.6742L11.1382 75.7358L10.2506 74.7831Z" fill="#313131"/>
<path d="M3.65834 64.0901L2.9972 62.7157L7.33223 60.7381C7.81897 60.516 8.29933 60.4349 8.7733 60.4948C9.24626 60.5526 9.68207 60.737 10.0808 61.048C10.4773 61.36 10.8048 61.7847 11.0633 62.3222C11.3229 62.8618 11.4489 63.3798 11.4412 63.8762C11.4314 64.3735 11.2979 64.8176 11.0407 65.2085C10.7836 65.5993 10.4116 65.9058 9.92488 66.1278L5.58984 68.1055L4.9287 66.731L9.14314 64.8084C9.39737 64.6924 9.5974 64.5354 9.74323 64.3373C9.88803 64.137 9.96909 63.9117 9.9864 63.6612C10.0037 63.4107 9.94874 63.1532 9.8215 62.8887C9.69324 62.6221 9.52528 62.4162 9.31762 62.2709C9.10895 62.1235 8.87978 62.041 8.63013 62.0233C8.37946 62.0035 8.12701 62.0515 7.87277 62.1675L3.65834 64.0901Z" fill="#313131"/>
<path d="M0.944381 56.7316L3.11921 54.8353L3.108 54.7803L0.352919 53.8298L0.0102364 52.1485L4.06341 53.5985L7.23079 50.7027L7.57978 52.4149L5.40633 54.336L5.41754 54.391L8.17965 55.358L8.52724 57.0633L4.46286 55.5583L1.28847 58.4197L0.944381 56.7316Z" fill="#313131"/>
<path d="M3.65166 40.623L4.86445 40.7164L4.59951 43.9801L3.38672 43.8867L3.65166 40.623Z" fill="#313131"/>
</svg>
