<svg width="90" height="90" viewBox="0 0 90 90" fill="none" xmlns="http://www.w3.org/2000/svg">
<g clip-path="url(#clip0_3024_15858)">
<path d="M9.48985 32.5261L8.78669 34.0013L3.17188 28.7311L4.01749 26.957L11.7736 27.7348L11.0705 29.21L5.13471 28.5092L5.11047 28.5601L9.48985 32.5261ZM6.81777 31.4303L8.47869 27.9457L9.58218 28.4445L7.92126 31.9291L6.81777 31.4303Z" fill="#630CB5"/>
<path d="M10.8558 16.8359L16.5511 21.3934L15.6965 22.4062L10.0758 21.9507L10.0416 21.9914L13.6262 24.8598L12.6367 26.0325L6.94141 21.475L7.80975 20.4459L13.4116 20.9181L13.4527 20.8693L9.87093 18.0031L10.8558 16.8359Z" fill="#630CB5"/>
<path d="M21.6561 16.7629L19.5254 18.2362L15.2578 12.3829L17.4061 10.8975C18.0106 10.4794 18.6165 10.2367 19.2237 10.1694C19.8295 10.1002 20.4088 10.2025 20.9617 10.4765C21.5166 10.7492 22.0156 11.1894 22.4588 11.7972C22.9033 12.4069 23.167 13.0127 23.2497 13.6146C23.3345 14.2152 23.2422 14.7849 22.9728 15.3236C22.7054 15.861 22.2665 16.3408 21.6561 16.7629ZM20.0231 16.2971L20.8302 15.7391C21.2058 15.4793 21.4746 15.1961 21.6364 14.8893C21.7988 14.5792 21.8446 14.2424 21.7737 13.8787C21.7033 13.5118 21.5091 13.1102 21.1909 12.6738C20.8756 12.2413 20.5523 11.9332 20.2212 11.7495C19.892 11.5644 19.5521 11.4957 19.2013 11.5433C18.8505 11.591 18.4873 11.7447 18.1117 12.0045L17.3017 12.5646L20.0231 16.2971Z" fill="#630CB5"/>
<path d="M27.428 13.0324L24.6992 6.36374L27.4009 5.31529C27.918 5.1146 28.3962 5.0334 28.8355 5.07171C29.2762 5.10698 29.6594 5.25131 29.9852 5.50471C30.3124 5.75506 30.5662 6.10058 30.7465 6.54125C30.9277 6.98409 30.9855 7.40312 30.9199 7.79835C30.8535 8.19141 30.6687 8.54484 30.3658 8.85862C30.065 9.17154 29.6516 9.43008 29.1256 9.63423L27.3167 10.3363L26.853 9.20308L28.4278 8.59191C28.7042 8.48465 28.9187 8.35864 29.0713 8.2139C29.2239 8.06916 29.3146 7.90568 29.3433 7.72347C29.3743 7.54038 29.3449 7.33922 29.2552 7.11997C29.1646 6.89855 29.0425 6.7296 28.889 6.61311C28.7376 6.49576 28.5534 6.43391 28.3365 6.42756C28.1208 6.41817 27.8737 6.46755 27.595 6.57568L26.6187 6.95457L28.8758 12.4706L27.428 13.0324ZM29.8843 8.56251L32.828 10.9368L31.2297 11.5571L28.3228 9.16848L29.8843 8.56251Z" fill="#630CB5"/>
<path d="M35.372 10.1149L34.2109 3.02582L39.116 2.26395L39.3184 3.49969L35.9524 4.02251L36.229 5.7117L39.3427 5.22807L39.5451 6.46381L36.4314 6.94743L36.7086 8.64008L40.0889 8.11505L40.2913 9.35079L35.372 10.1149ZM36.0181 2.04233L36.5137 0.350333L37.9141 0.132812L37.0879 1.87616L36.0181 2.04233Z" fill="#630CB5"/>
<path d="M47.5625 9.07707L48.75 1.99219L50.2882 2.2367L49.3076 8.08657L52.4266 8.58237L52.2195 9.81738L47.5625 9.07707Z" fill="#630CB5"/>
<path d="M59.1353 4.22942L56.8068 11.0405L55.3281 10.5611L57.6565 3.75L59.1353 4.22942Z" fill="#630CB5"/>
<path d="M65.2194 9.03694C65.3256 8.77229 65.3179 8.52194 65.1964 8.28587C65.0749 8.0498 64.8474 7.84898 64.5139 7.68341C64.2873 7.5709 64.0796 7.50713 63.8909 7.49211C63.7032 7.475 63.5394 7.49988 63.3993 7.56675C63.2614 7.63467 63.1565 7.73733 63.0846 7.87474C63.0203 7.98711 62.9926 8.09925 63.0014 8.21114C63.0123 8.32409 63.0495 8.43567 63.113 8.54588C63.1776 8.65402 63.2609 8.76231 63.3631 8.87073C63.4663 8.97707 63.5814 9.0814 63.7083 9.18374L64.2264 9.61408C64.4801 9.81876 64.6995 10.0325 64.8844 10.2555C65.0693 10.4785 65.2097 10.7095 65.3054 10.9485C65.4012 11.1875 65.4432 11.4339 65.4315 11.6878C65.4219 11.9427 65.3485 12.2039 65.2111 12.4715C65.004 12.8618 64.7238 13.1502 64.3703 13.3367C64.02 13.5221 63.6132 13.5995 63.1499 13.5688C62.6897 13.5371 62.1925 13.3885 61.658 13.1232C61.1279 12.86 60.7075 12.5516 60.397 12.1981C60.0886 11.8456 59.9055 11.4596 59.8477 11.0401C59.7932 10.6196 59.881 10.1766 60.1111 9.71126L61.4547 10.3783C61.3574 10.6002 61.3268 10.8105 61.3627 11.0093C61.4019 11.2072 61.4965 11.3892 61.6465 11.5555C61.7997 11.7207 61.996 11.8628 62.2354 11.9817C62.4706 12.0984 62.6922 12.1665 62.9002 12.1858C63.1104 12.2062 63.2946 12.181 63.453 12.1101C63.6113 12.0392 63.7308 11.9267 63.8114 11.7726C63.8866 11.629 63.906 11.4865 63.8696 11.3451C63.8353 11.2048 63.7528 11.0589 63.622 10.9074C63.4933 10.757 63.324 10.5942 63.114 10.4192L62.4905 9.88929C62.0055 9.48325 61.6756 9.06113 61.501 8.62296C61.3264 8.18479 61.3639 7.72994 61.6134 7.25842C61.814 6.87013 62.0969 6.58437 62.4622 6.40113C62.8296 6.21895 63.2439 6.14007 63.7052 6.16449C64.1664 6.1889 64.6365 6.31999 65.1153 6.55773C65.6028 6.79973 65.9857 7.09213 66.2641 7.43495C66.5446 7.77883 66.7107 8.14587 66.7623 8.53608C66.8139 8.92629 66.7432 9.31348 66.5501 9.69764L65.2194 9.03694Z" fill="#630CB5"/>
<path d="M65.6562 15.0918L70.2486 9.47656L72.5574 11.2672C72.9816 11.5963 73.2853 11.9319 73.4686 12.2742C73.6518 12.6165 73.7258 12.9517 73.6906 13.2799C73.6568 13.6062 73.5248 13.9102 73.2945 14.1917C73.1151 14.411 72.9124 14.5689 72.6863 14.6654C72.4616 14.76 72.2271 14.7992 71.9827 14.7829C71.7417 14.7663 71.503 14.702 71.2663 14.5901L71.2214 14.6449C71.4335 14.8244 71.5896 15.0441 71.6899 15.3041C71.792 15.5656 71.821 15.8434 71.7766 16.1377C71.7338 16.4301 71.5995 16.7143 71.3738 16.9903C71.1301 17.2882 70.8366 17.4952 70.4932 17.6113C70.1532 17.727 69.7806 17.7381 69.3753 17.6448C68.97 17.5515 68.5515 17.3375 68.1198 17.0026L65.6562 15.0918ZM67.6692 15.0668L68.6629 15.8377C69.0027 16.1012 69.3021 16.2303 69.561 16.225C69.8215 16.2179 70.0383 16.1083 70.2117 15.8963C70.3388 15.7409 70.4124 15.5739 70.4326 15.3954C70.4529 15.2169 70.4193 15.0386 70.332 14.8603C70.2465 14.6835 70.1062 14.5193 69.911 14.3679L68.8889 13.5752L67.6692 15.0668ZM69.5461 12.7719L70.4498 13.4729C70.6169 13.6024 70.7882 13.6891 70.9641 13.7329C71.1433 13.7763 71.3138 13.7741 71.4756 13.7263C71.6393 13.68 71.7816 13.5828 71.9027 13.4348C72.0687 13.2319 72.1283 13.0108 72.0817 12.7715C72.0369 12.5336 71.8794 12.3099 71.6091 12.1002L70.683 11.3818L69.5461 12.7719Z" fill="#630CB5"/>
<path d="M78.9867 23.0295C78.3483 23.5052 77.7126 23.7921 77.0796 23.8901C76.448 23.9899 75.8551 23.9256 75.301 23.6971C74.7501 23.4691 74.2772 23.1036 73.882 22.6006C73.4839 22.094 73.2448 21.5513 73.1647 20.9725C73.0846 20.3937 73.1766 19.8205 73.4407 19.253C73.7048 18.6854 74.1551 18.1645 74.7916 17.6902C75.43 17.2145 76.065 16.9267 76.6966 16.8269C77.3281 16.727 77.9193 16.7911 78.4701 17.0191C79.0229 17.2458 79.4983 17.6124 79.8963 18.1191C80.2915 18.622 80.5291 19.1629 80.6092 19.7417C80.6927 20.3209 80.6024 20.8943 80.3383 21.4618C80.0757 22.0312 79.6251 22.5538 78.9867 23.0295ZM78.0265 21.8074C78.4401 21.4993 78.7414 21.1791 78.9306 20.8469C79.1212 20.5165 79.2046 20.1881 79.1807 19.8616C79.1568 19.5351 79.0304 19.2262 78.8015 18.9349C78.5726 18.6435 78.2995 18.4439 77.9821 18.3361C77.6648 18.2283 77.3167 18.2199 76.938 18.3109C76.5607 18.4037 76.1653 18.6041 75.7518 18.9123C75.3383 19.2204 75.0362 19.5397 74.8456 19.87C74.6564 20.2023 74.5737 20.5316 74.5976 20.8581C74.6215 21.1846 74.7479 21.4935 74.9768 21.7848C75.2057 22.0762 75.4789 22.2758 75.7962 22.3836C76.1136 22.4914 76.4609 22.4989 76.8381 22.4061C77.2169 22.3151 77.613 22.1156 78.0265 21.8074Z" fill="#630CB5"/>
<path d="M78.6113 29.4293L77.9609 27.9313L85.7414 27.418L86.5235 29.2195L80.7238 34.2945L80.0733 32.7965L84.5922 28.9835L84.5697 28.9318L78.6113 29.4293ZM81.2393 28.2367L82.7757 31.7751L81.6552 32.2365L80.1188 28.6981L81.2393 28.2367Z" fill="#630CB5"/>
<path d="M82.3177 50.027L82.7144 47.5117L90.0004 48.6017L89.6004 51.1377C89.4878 51.8514 89.245 52.444 88.872 52.9154C88.5014 53.3872 88.0227 53.721 87.4359 53.9169C86.8486 54.1152 86.1767 54.1577 85.4202 54.0445C84.6612 53.931 84.031 53.6936 83.5296 53.3326C83.0278 52.9738 82.6721 52.5127 82.4623 51.9494C82.2522 51.3884 82.204 50.7476 82.3177 50.027ZM83.7977 49.2093L83.6474 50.162C83.5774 50.6055 83.5992 50.9906 83.7128 51.3173C83.8283 51.6467 84.0448 51.9131 84.3623 52.1166C84.6818 52.3228 85.1131 52.4666 85.6563 52.5478C86.1946 52.6283 86.6468 52.6168 87.0127 52.5131C87.3783 52.4118 87.6656 52.2219 87.8746 51.9434C88.0836 51.665 88.2231 51.304 88.2931 50.8606L88.4439 49.9044L83.7977 49.2093Z" fill="#630CB5"/>
<path d="M81.0381 56.6602L87.8633 59.372L85.987 63.8508L84.7973 63.378L86.0849 60.3046L84.4586 59.6584L83.2675 62.5014L82.0777 62.0287L83.2688 59.1857L81.6392 58.5382L80.3461 61.6247L79.1562 61.1519L81.0381 56.6602Z" fill="#630CB5"/>
<path d="M79.8892 70.1015C80.1463 70.2359 80.4024 70.2585 80.6576 70.1693C80.9129 70.0801 81.1449 69.8843 81.3536 69.5817C81.4955 69.3761 81.5853 69.1829 81.6233 69.0022C81.6632 68.8228 81.6575 68.6614 81.6061 68.518C81.5534 68.3765 81.4613 68.2628 81.3298 68.1768C81.223 68.1012 81.112 68.061 80.9968 68.056C80.8804 68.053 80.7622 68.0756 80.6422 68.1238C80.5242 68.1733 80.4039 68.241 80.2811 68.3267C80.1603 68.4138 80.0401 68.5125 79.9206 68.623L79.4198 69.0723C79.1807 69.2931 78.9365 69.4796 78.687 69.6317C78.4376 69.7837 78.1853 69.8918 77.9301 69.9557C77.675 70.0196 77.4187 70.0307 77.1613 69.989C76.9026 69.9492 76.6451 69.8468 76.3888 69.682C76.0157 69.435 75.7552 69.1295 75.6075 68.7654C75.4604 68.4045 75.4303 68.002 75.5171 67.5577C75.6046 67.1166 75.8156 66.6536 76.1501 66.1687C76.482 65.6876 76.8467 65.3182 77.2443 65.0603C77.6406 64.8044 78.056 64.6736 78.4906 64.668C78.9259 64.6657 79.367 64.8036 79.8138 65.0819L78.9728 66.301C78.7583 66.1804 78.5475 66.1255 78.3405 66.1365C78.1341 66.1506 77.9372 66.2203 77.7497 66.3454C77.5629 66.4737 77.3946 66.6465 77.2447 66.8637C77.0975 67.0771 77.0016 67.2832 76.9569 67.482C76.9109 67.6827 76.9146 67.8639 76.9679 68.0255C77.0212 68.187 77.1216 68.316 77.2689 68.4125C77.4064 68.5024 77.5493 68.5382 77.6978 68.5199C77.845 68.5036 78.0036 68.4413 78.1737 68.333C78.3425 68.2266 78.5287 68.0824 78.7323 67.9004L79.3472 67.361C79.8193 66.9407 80.2892 66.6724 80.7568 66.5561C81.2244 66.4398 81.6836 66.5305 82.1344 66.8283C82.5062 67.0687 82.7636 67.3765 82.9067 67.7516C83.0484 68.1287 83.0792 68.5387 82.999 68.9817C82.9188 69.4248 82.7289 69.8635 82.4291 70.298C82.124 70.7403 81.78 71.0754 81.3972 71.3035C81.013 71.5336 80.6189 71.6502 80.2149 71.6533C79.811 71.6564 79.4247 71.5416 79.0562 71.309L79.8892 70.1015Z" fill="#630CB5"/>
<path d="M77.9547 75.6871L72.5195 70.8377L73.5723 69.7188L79.0075 74.568L77.9547 75.6871Z" fill="#630CB5"/>
<path d="M69.9742 79.5339C70.1203 79.6401 70.2703 79.7184 70.4242 79.7688C70.5795 79.8212 70.738 79.8447 70.8997 79.8395C71.061 79.8376 71.2237 79.8067 71.3879 79.7468C71.5503 79.6884 71.7117 79.5997 71.8722 79.481C72.1721 79.259 72.3792 78.9914 72.4933 78.678C72.6055 78.366 72.6165 78.0248 72.5263 77.6543C72.4375 77.2856 72.2378 76.9022 71.9272 76.504C71.6165 76.1058 71.2902 75.8131 70.9482 75.6259C70.6063 75.4387 70.2643 75.3557 69.9223 75.377C69.5817 75.4001 69.2566 75.5262 68.9471 75.7552C68.6662 75.963 68.4642 76.1888 68.341 76.4326C68.2173 76.6797 68.1726 76.9314 68.2069 77.1878C68.2393 77.4455 68.3505 77.6963 68.5407 77.9401L68.2602 78.0904L69.7734 76.9707L70.4833 77.8805L68.0272 79.6979L67.4654 78.9779C67.0734 78.4755 66.8456 77.9632 66.7817 77.4411C66.7194 76.9208 66.803 76.4217 67.0327 75.9435C67.2638 75.4673 67.6259 75.0468 68.1188 74.682C68.6691 74.2749 69.2446 74.0353 69.8455 73.9634C70.4478 73.8934 71.0361 73.9908 71.6104 74.2555C72.1841 74.5236 72.7062 74.959 73.1766 75.5619C73.5381 76.0252 73.7916 76.4891 73.9371 76.9537C74.0821 77.4216 74.1283 77.8747 74.0754 78.3129C74.0225 78.7512 73.8814 79.1593 73.6521 79.5374C73.4227 79.9155 73.1141 80.2481 72.7262 80.5351C72.3938 80.7811 72.0473 80.9627 71.6866 81.0798C71.3275 81.1989 70.9703 81.2548 70.6151 81.2476C70.258 81.2418 69.9166 81.1731 69.5908 81.0414C69.2665 80.9116 68.974 80.7201 68.7132 80.467L69.9742 79.5339Z" fill="#630CB5"/>
<path d="M60.3202 87.1914L57.5469 80.5401L58.7942 80.047L63.511 83.0583L63.5611 83.0384L61.8156 78.8522L63.2596 78.2812L66.0328 84.9325L64.7656 85.4336L60.0734 82.4162L60.0134 82.44L61.7575 86.623L60.3202 87.1914Z" fill="#630CB5"/>
<path d="M53.3721 81.875L54.3814 88.9861L49.4611 89.6484L49.2852 88.4088L52.6616 87.9543L52.4211 86.2599L49.2978 86.6803L49.1219 85.4408L52.2452 85.0203L52.0042 83.3224L48.6135 83.7789L48.4375 82.5393L53.3721 81.875Z" fill="#630CB5"/>
<path d="M45.1913 82.8483L44.5751 90.0018L41.677 89.765C41.1223 89.7197 40.6572 89.5844 40.2817 89.3591C39.9036 89.1359 39.6269 88.8401 39.4515 88.4717C39.2736 88.1054 39.205 87.6859 39.2457 87.2132C39.2866 86.7381 39.427 86.3381 39.6669 86.013C39.9066 85.6902 40.234 85.4543 40.6489 85.3053C41.0615 85.1561 41.55 85.1045 42.1143 85.1506L44.0547 85.3091L43.95 86.5247L42.2606 86.3867C41.9641 86.3624 41.7144 86.3819 41.5115 86.4451C41.3086 86.5082 41.1526 86.6151 41.0433 86.7656C40.9316 86.9159 40.8656 87.1087 40.8454 87.3439C40.8249 87.5814 40.8567 87.7857 40.9407 87.9567C41.0223 88.1275 41.1587 88.2629 41.3499 88.363C41.5386 88.4651 41.7824 88.5284 42.0813 88.5529L43.1286 88.6384L43.6383 82.7214L45.1913 82.8483ZM40.944 85.7796L39.3988 82.375L41.1132 82.5151L42.619 85.9164L40.944 85.7796Z" fill="#630CB5"/>
<path d="M25.642 85.7282L24.2227 85.1013L26.1997 80.8556C26.4217 80.3789 26.7328 80.0134 27.1331 79.7591C27.5313 79.5038 27.9856 79.3684 28.4962 79.3526C29.0057 79.339 29.5381 79.4548 30.0931 79.6999C30.6504 79.946 31.0917 80.2602 31.4169 80.6425C31.7412 81.0268 31.9359 81.449 32.001 81.9088C32.0662 82.3686 31.9878 82.8369 31.7658 83.3136L29.7888 87.5594L28.3694 86.9326L30.2914 82.8049C30.4073 82.5559 30.4547 82.31 30.4334 82.0671C30.41 81.8232 30.3213 81.6006 30.1674 81.3992C30.0135 81.1979 29.8 81.0368 29.5268 80.9162C29.2514 80.7946 28.9864 80.7443 28.7316 80.7652C28.4746 80.7851 28.2454 80.8673 28.0437 81.0118C27.8399 81.1553 27.68 81.3515 27.5641 81.6005L25.642 85.7282Z" fill="#630CB5"/>
<path d="M19.0117 82.0097L23.1989 76.1016L24.4816 76.9637L20.2944 82.8718L19.0117 82.0097Z" fill="#630CB5"/>
<path d="M10.25 74.7843L18.3826 70.7227L19.2702 71.6754L11.1376 75.737L10.25 74.7843Z" fill="#630CB5"/>
<path d="M3.65723 64.091L2.99609 62.7165L7.33112 60.7389C7.81786 60.5168 8.29822 60.4357 8.77219 60.4956C9.24515 60.5534 9.68096 60.7378 10.0797 61.0488C10.4762 61.3608 10.8037 61.7855 11.0622 62.323C11.3218 62.8626 11.4478 63.3806 11.4401 63.877C11.4303 64.3743 11.2968 64.8185 11.0396 65.2094C10.7825 65.6002 10.4105 65.9066 9.92377 66.1286L5.58873 68.1063L4.92759 66.7319L9.14203 64.8093C9.39626 64.6933 9.59629 64.5363 9.74212 64.3382C9.88692 64.1379 9.96798 63.9125 9.98529 63.662C10.0026 63.4115 9.94763 63.154 9.82039 62.8895C9.69213 62.6229 9.52417 62.417 9.31651 62.2717C9.10784 62.1243 8.87867 62.0418 8.62902 62.0241C8.37835 62.0043 8.1259 62.0523 7.87166 62.1683L3.65723 64.091Z" fill="#630CB5"/>
<path d="M0.945864 56.732L3.12069 54.8357L3.10948 54.7807L0.354401 53.8302L0.0117188 52.1489L4.06489 53.5989L7.23228 50.7031L7.58127 52.4153L5.40781 54.3364L5.41902 54.3914L8.18114 55.3584L8.52872 57.0637L4.46434 55.5587L1.28995 58.4201L0.945864 56.732Z" fill="#630CB5"/>
<circle cx="86.5" cy="40.5" r="2.5" fill="#FFC702"/>
<circle cx="3.5" cy="42.5" r="2.5" fill="#FFC702"/>
</g>
<defs>
<clipPath id="clip0_3024_15858">
<rect width="90" height="90" fill="white"/>
</clipPath>
</defs>
</svg>
