<svg width="92" height="50" viewBox="0 0 92 50" fill="none" xmlns="http://www.w3.org/2000/svg">
<rect width="92" height="50" rx="25" fill="#9585F9"/>
<path d="M20.272 33.11C19.0253 33.11 17.9693 32.8973 17.104 32.472C16.2533 32.0467 15.564 31.4673 15.036 30.734C14.5227 30.0007 14.1413 29.1647 13.892 28.226C13.6573 27.2873 13.54 26.312 13.54 25.3V17.38H16.004V25.3C16.004 26.0187 16.0773 26.7153 16.224 27.39C16.3707 28.05 16.6053 28.644 16.928 29.172C17.2507 29.7 17.6833 30.118 18.226 30.426C18.7833 30.734 19.4653 30.888 20.272 30.888C21.0933 30.888 21.7753 30.734 22.318 30.426C22.8753 30.1033 23.308 29.678 23.616 29.15C23.9387 28.6073 24.1733 28.006 24.32 27.346C24.4667 26.686 24.54 26.004 24.54 25.3V17.38H27.026V25.3C27.026 26.3707 26.894 27.3827 26.63 28.336C26.3807 29.2747 25.9847 30.1033 25.442 30.822C24.914 31.526 24.2247 32.0833 23.374 32.494C22.5233 32.9047 21.4893 33.11 20.272 33.11ZM30.303 33V17.38H32.767V33H30.303ZM48.5291 17.38L37.8151 33H35.1311L45.8451 17.38H48.5291ZM57.4185 33.11C56.1718 33.11 55.1158 32.8973 54.2505 32.472C53.3998 32.0467 52.7105 31.4673 52.1825 30.734C51.6692 30.0007 51.2878 29.1647 51.0385 28.226C50.8038 27.2873 50.6865 26.312 50.6865 25.3V17.38H53.1505V25.3C53.1505 26.0187 53.2238 26.7153 53.3705 27.39C53.5172 28.05 53.7518 28.644 54.0745 29.172C54.3972 29.7 54.8298 30.118 55.3725 30.426C55.9298 30.734 56.6118 30.888 57.4185 30.888C58.2398 30.888 58.9218 30.734 59.4645 30.426C60.0218 30.1033 60.4545 29.678 60.7625 29.15C61.0852 28.6073 61.3198 28.006 61.4665 27.346C61.6132 26.686 61.6865 26.004 61.6865 25.3V17.38H64.1725V25.3C64.1725 26.3707 64.0405 27.3827 63.7765 28.336C63.5272 29.2747 63.1312 30.1033 62.5885 30.822C62.0605 31.526 61.3712 32.0833 60.5205 32.494C59.6698 32.9047 58.6358 33.11 57.4185 33.11ZM68.4395 17.38L72.7515 23.518L77.0635 17.38H79.7915L74.1595 25.3L79.6155 33H76.8875L72.7515 27.082L68.6155 33H65.8655L71.3215 25.3L65.6895 17.38H68.4395Z" fill="white"/>
</svg>
