<svg width="392" height="361" viewBox="0 0 392 361" fill="none" xmlns="http://www.w3.org/2000/svg">
<rect width="392" height="361" rx="16" fill="#F5F5E5"/>
<path d="M23.856 43L28.848 31.8H31.408L36.416 43H33.696L29.6 33.112H30.624L26.512 43H23.856ZM26.352 40.6L27.04 38.632H32.8L33.504 40.6H26.352ZM41.3719 46.232C40.5612 46.232 39.7772 46.1307 39.0199 45.928C38.2732 45.736 37.6492 45.4427 37.1479 45.048L38.1399 43.256C38.5025 43.5547 38.9612 43.7893 39.5159 43.96C40.0812 44.1413 40.6359 44.232 41.1799 44.232C42.0652 44.232 42.7052 44.0347 43.0999 43.64C43.5052 43.2453 43.7079 42.6587 43.7079 41.88V40.584L43.8679 38.424L43.8359 36.248V34.392H46.2039V41.56C46.2039 43.16 45.7879 44.3387 44.9559 45.096C44.1239 45.8533 42.9292 46.232 41.3719 46.232ZM40.9879 42.584C40.1879 42.584 39.4625 42.4133 38.8119 42.072C38.1719 41.72 37.6545 41.2347 37.2599 40.616C36.8759 39.9867 36.6839 39.256 36.6839 38.424C36.6839 37.5813 36.8759 36.8507 37.2599 36.232C37.6545 35.6027 38.1719 35.1173 38.8119 34.776C39.4625 34.4347 40.1879 34.264 40.9879 34.264C41.7132 34.264 42.3532 34.4133 42.9079 34.712C43.4625 35 43.8945 35.4533 44.2039 36.072C44.5132 36.68 44.6679 37.464 44.6679 38.424C44.6679 39.3733 44.5132 40.1573 44.2039 40.776C43.8945 41.384 43.4625 41.8373 42.9079 42.136C42.3532 42.4347 41.7132 42.584 40.9879 42.584ZM41.4839 40.536C41.9212 40.536 42.3105 40.4507 42.6519 40.28C42.9932 40.0987 43.2599 39.848 43.4519 39.528C43.6439 39.208 43.7399 38.84 43.7399 38.424C43.7399 37.9973 43.6439 37.6293 43.4519 37.32C43.2599 37 42.9932 36.7547 42.6519 36.584C42.3105 36.4027 41.9212 36.312 41.4839 36.312C41.0465 36.312 40.6572 36.4027 40.3159 36.584C39.9745 36.7547 39.7025 37 39.4999 37.32C39.3079 37.6293 39.2119 37.9973 39.2119 38.424C39.2119 38.84 39.3079 39.208 39.4999 39.528C39.7025 39.848 39.9745 40.0987 40.3159 40.28C40.6572 40.4507 41.0465 40.536 41.4839 40.536ZM52.799 43.128C51.8177 43.128 50.9537 42.936 50.207 42.552C49.471 42.168 48.9003 41.6453 48.495 40.984C48.0897 40.312 47.887 39.5493 47.887 38.696C47.887 37.832 48.0843 37.0693 48.479 36.408C48.8843 35.736 49.4337 35.2133 50.127 34.84C50.8203 34.456 51.6043 34.264 52.479 34.264C53.3217 34.264 54.079 34.4453 54.751 34.808C55.4337 35.16 55.9723 35.672 56.367 36.344C56.7617 37.0053 56.959 37.8 56.959 38.728C56.959 38.824 56.9537 38.936 56.943 39.064C56.9323 39.1813 56.9217 39.2933 56.911 39.4H49.919V37.944H55.599L54.639 38.376C54.639 37.928 54.5483 37.5387 54.367 37.208C54.1857 36.8773 53.935 36.6213 53.615 36.44C53.295 36.248 52.9217 36.152 52.495 36.152C52.0683 36.152 51.6897 36.248 51.359 36.44C51.039 36.6213 50.7883 36.8827 50.607 37.224C50.4257 37.5547 50.335 37.9493 50.335 38.408V38.792C50.335 39.2613 50.4363 39.6773 50.639 40.04C50.8523 40.392 51.1457 40.664 51.519 40.856C51.903 41.0373 52.351 41.128 52.863 41.128C53.3217 41.128 53.7217 41.0587 54.063 40.92C54.415 40.7813 54.735 40.5733 55.023 40.296L56.351 41.736C55.9563 42.184 55.4603 42.5307 54.863 42.776C54.2657 43.0107 53.5777 43.128 52.799 43.128ZM67.248 43.128C66.3307 43.128 65.5147 42.936 64.8 42.552C64.096 42.168 63.536 41.6453 63.12 40.984C62.7147 40.312 62.512 39.5493 62.512 38.696C62.512 37.832 62.7147 37.0693 63.12 36.408C63.536 35.736 64.096 35.2133 64.8 34.84C65.5147 34.456 66.3307 34.264 67.248 34.264C68.1547 34.264 68.9653 34.456 69.68 34.84C70.3947 35.2133 70.9547 35.7307 71.36 36.392C71.7653 37.0533 71.968 37.8213 71.968 38.696C71.968 39.5493 71.7653 40.312 71.36 40.984C70.9547 41.6453 70.3947 42.168 69.68 42.552C68.9653 42.936 68.1547 43.128 67.248 43.128ZM67.248 41.08C67.664 41.08 68.0373 40.984 68.368 40.792C68.6987 40.6 68.96 40.328 69.152 39.976C69.344 39.6133 69.44 39.1867 69.44 38.696C69.44 38.1947 69.344 37.768 69.152 37.416C68.96 37.064 68.6987 36.792 68.368 36.6C68.0373 36.408 67.664 36.312 67.248 36.312C66.832 36.312 66.4587 36.408 66.128 36.6C65.7973 36.792 65.5307 37.064 65.328 37.416C65.136 37.768 65.04 38.1947 65.04 38.696C65.04 39.1867 65.136 39.6133 65.328 39.976C65.5307 40.328 65.7973 40.6 66.128 40.792C66.4587 40.984 66.832 41.08 67.248 41.08ZM73.9404 43V34.2C73.9404 33.2293 74.2284 32.456 74.8044 31.88C75.3804 31.2933 76.2017 31 77.2684 31C77.631 31 77.9777 31.0373 78.3084 31.112C78.6497 31.1867 78.9377 31.304 79.1724 31.464L78.5164 33.272C78.3777 33.176 78.223 33.1013 78.0524 33.048C77.8817 32.9947 77.7004 32.968 77.5084 32.968C77.1457 32.968 76.863 33.0747 76.6604 33.288C76.4684 33.4907 76.3724 33.8 76.3724 34.216V35.016L76.4364 36.088V43H73.9404ZM72.6124 36.504V34.584H78.5804V36.504H72.6124ZM87.8751 43.128C86.8618 43.128 86.0725 42.872 85.5071 42.36C84.9418 41.8373 84.6591 41.064 84.6591 40.04V32.488H87.1551V40.008C87.1551 40.3707 87.2511 40.6533 87.4431 40.856C87.6351 41.048 87.8965 41.144 88.2271 41.144C88.6218 41.144 88.9578 41.0373 89.2351 40.824L89.9071 42.584C89.6511 42.7653 89.3418 42.904 88.9791 43C88.6271 43.0853 88.2591 43.128 87.8751 43.128ZM83.3311 36.504V34.584H89.2991V36.504H83.3311ZM96.5403 34.264C97.2229 34.264 97.8309 34.4027 98.3643 34.68C98.9083 34.9467 99.3349 35.3627 99.6443 35.928C99.9536 36.4827 100.108 37.1973 100.108 38.072V43H97.6123V38.456C97.6123 37.7627 97.4576 37.2507 97.1483 36.92C96.8496 36.5893 96.4229 36.424 95.8683 36.424C95.4736 36.424 95.1163 36.5093 94.7963 36.68C94.4869 36.84 94.2416 37.0907 94.0603 37.432C93.8896 37.7733 93.8043 38.2107 93.8043 38.744V43H91.3083V31.128H93.8043V36.776L93.2443 36.056C93.5536 35.48 93.9963 35.0373 94.5723 34.728C95.1483 34.4187 95.8043 34.264 96.5403 34.264ZM106.705 43.128C105.724 43.128 104.86 42.936 104.113 42.552C103.377 42.168 102.807 41.6453 102.401 40.984C101.996 40.312 101.793 39.5493 101.793 38.696C101.793 37.832 101.991 37.0693 102.385 36.408C102.791 35.736 103.34 35.2133 104.033 34.84C104.727 34.456 105.511 34.264 106.385 34.264C107.228 34.264 107.985 34.4453 108.657 34.808C109.34 35.16 109.879 35.672 110.273 36.344C110.668 37.0053 110.865 37.8 110.865 38.728C110.865 38.824 110.86 38.936 110.849 39.064C110.839 39.1813 110.828 39.2933 110.817 39.4H103.825V37.944H109.505L108.545 38.376C108.545 37.928 108.455 37.5387 108.273 37.208C108.092 36.8773 107.841 36.6213 107.521 36.44C107.201 36.248 106.828 36.152 106.401 36.152C105.975 36.152 105.596 36.248 105.265 36.44C104.945 36.6213 104.695 36.8827 104.513 37.224C104.332 37.5547 104.241 37.9493 104.241 38.408V38.792C104.241 39.2613 104.343 39.6773 104.545 40.04C104.759 40.392 105.052 40.664 105.425 40.856C105.809 41.0373 106.257 41.128 106.769 41.128C107.228 41.128 107.628 41.0587 107.969 40.92C108.321 40.7813 108.641 40.5733 108.929 40.296L110.257 41.736C109.863 42.184 109.367 42.5307 108.769 42.776C108.172 43.0107 107.484 43.128 106.705 43.128ZM120.69 43.128C119.976 43.128 119.336 42.9893 118.77 42.712C118.216 42.4347 117.784 42.0133 117.474 41.448C117.165 40.872 117.01 40.1413 117.01 39.256V34.392H119.506V38.888C119.506 39.6027 119.656 40.1307 119.954 40.472C120.264 40.8027 120.696 40.968 121.25 40.968C121.634 40.968 121.976 40.888 122.274 40.728C122.573 40.5573 122.808 40.3013 122.978 39.96C123.149 39.608 123.234 39.1707 123.234 38.648V34.392H125.73V43H123.362V40.632L123.794 41.32C123.506 41.9173 123.08 42.3707 122.514 42.68C121.96 42.9787 121.352 43.128 120.69 43.128ZM130.939 43.128C130.203 43.128 129.493 43.0427 128.811 42.872C128.139 42.6907 127.605 42.4667 127.211 42.2L128.043 40.408C128.437 40.6533 128.901 40.856 129.435 41.016C129.979 41.1653 130.512 41.24 131.035 41.24C131.611 41.24 132.016 41.1707 132.251 41.032C132.496 40.8933 132.619 40.7013 132.619 40.456C132.619 40.2533 132.523 40.104 132.331 40.008C132.149 39.9013 131.904 39.8213 131.595 39.768C131.285 39.7147 130.944 39.6613 130.571 39.608C130.208 39.5547 129.84 39.4853 129.467 39.4C129.093 39.304 128.752 39.1653 128.443 38.984C128.133 38.8027 127.883 38.5573 127.691 38.248C127.509 37.9387 127.419 37.5387 127.419 37.048C127.419 36.504 127.573 36.024 127.883 35.608C128.203 35.192 128.661 34.8667 129.259 34.632C129.856 34.3867 130.571 34.264 131.403 34.264C131.989 34.264 132.587 34.328 133.195 34.456C133.803 34.584 134.309 34.7707 134.715 35.016L133.883 36.792C133.467 36.5467 133.045 36.3813 132.619 36.296C132.203 36.2 131.797 36.152 131.403 36.152C130.848 36.152 130.443 36.2267 130.187 36.376C129.931 36.5253 129.803 36.7173 129.803 36.952C129.803 37.1653 129.893 37.3253 130.075 37.432C130.267 37.5387 130.517 37.624 130.827 37.688C131.136 37.752 131.472 37.8107 131.835 37.864C132.208 37.9067 132.581 37.976 132.955 38.072C133.328 38.168 133.664 38.3067 133.963 38.488C134.272 38.6587 134.523 38.8987 134.715 39.208C134.907 39.5067 135.003 39.9013 135.003 40.392C135.003 40.9253 134.843 41.4 134.523 41.816C134.203 42.2213 133.739 42.5413 133.131 42.776C132.533 43.0107 131.803 43.128 130.939 43.128ZM140.815 43.128C139.833 43.128 138.969 42.936 138.223 42.552C137.487 42.168 136.916 41.6453 136.511 40.984C136.105 40.312 135.903 39.5493 135.903 38.696C135.903 37.832 136.1 37.0693 136.495 36.408C136.9 35.736 137.449 35.2133 138.143 34.84C138.836 34.456 139.62 34.264 140.495 34.264C141.337 34.264 142.095 34.4453 142.767 34.808C143.449 35.16 143.988 35.672 144.383 36.344C144.777 37.0053 144.975 37.8 144.975 38.728C144.975 38.824 144.969 38.936 144.959 39.064C144.948 39.1813 144.937 39.2933 144.927 39.4H137.935V37.944H143.615L142.655 38.376C142.655 37.928 142.564 37.5387 142.383 37.208C142.201 36.8773 141.951 36.6213 141.631 36.44C141.311 36.248 140.937 36.152 140.511 36.152C140.084 36.152 139.705 36.248 139.375 36.44C139.055 36.6213 138.804 36.8827 138.623 37.224C138.441 37.5547 138.351 37.9493 138.351 38.408V38.792C138.351 39.2613 138.452 39.6773 138.655 40.04C138.868 40.392 139.161 40.664 139.535 40.856C139.919 41.0373 140.367 41.128 140.879 41.128C141.337 41.128 141.737 41.0587 142.079 40.92C142.431 40.7813 142.751 40.5733 143.039 40.296L144.367 41.736C143.972 42.184 143.476 42.5307 142.879 42.776C142.281 43.0107 141.593 43.128 140.815 43.128ZM146.636 43V34.392H149.02V36.824L148.684 36.12C148.94 35.512 149.351 35.0533 149.916 34.744C150.482 34.424 151.17 34.264 151.98 34.264V36.568C151.874 36.5573 151.778 36.552 151.692 36.552C151.607 36.5413 151.516 36.536 151.42 36.536C150.738 36.536 150.183 36.7333 149.756 37.128C149.34 37.512 149.132 38.1147 149.132 38.936V43H146.636ZM156.423 43.128C155.687 43.128 154.978 43.0427 154.295 42.872C153.623 42.6907 153.09 42.4667 152.695 42.2L153.527 40.408C153.922 40.6533 154.386 40.856 154.919 41.016C155.463 41.1653 155.996 41.24 156.519 41.24C157.095 41.24 157.5 41.1707 157.735 41.032C157.98 40.8933 158.103 40.7013 158.103 40.456C158.103 40.2533 158.007 40.104 157.815 40.008C157.634 39.9013 157.388 39.8213 157.079 39.768C156.77 39.7147 156.428 39.6613 156.055 39.608C155.692 39.5547 155.324 39.4853 154.951 39.4C154.578 39.304 154.236 39.1653 153.927 38.984C153.618 38.8027 153.367 38.5573 153.175 38.248C152.994 37.9387 152.903 37.5387 152.903 37.048C152.903 36.504 153.058 36.024 153.367 35.608C153.687 35.192 154.146 34.8667 154.743 34.632C155.34 34.3867 156.055 34.264 156.887 34.264C157.474 34.264 158.071 34.328 158.679 34.456C159.287 34.584 159.794 34.7707 160.199 35.016L159.367 36.792C158.951 36.5467 158.53 36.3813 158.103 36.296C157.687 36.2 157.282 36.152 156.887 36.152C156.332 36.152 155.927 36.2267 155.671 36.376C155.415 36.5253 155.287 36.7173 155.287 36.952C155.287 37.1653 155.378 37.3253 155.559 37.432C155.751 37.5387 156.002 37.624 156.311 37.688C156.62 37.752 156.956 37.8107 157.319 37.864C157.692 37.9067 158.066 37.976 158.439 38.072C158.812 38.168 159.148 38.3067 159.447 38.488C159.756 38.6587 160.007 38.8987 160.199 39.208C160.391 39.5067 160.487 39.9013 160.487 40.392C160.487 40.9253 160.327 41.4 160.007 41.816C159.687 42.2213 159.223 42.5413 158.615 42.776C158.018 43.0107 157.287 43.128 156.423 43.128Z" fill="#313131"/>
<circle cx="32" cy="74" r="8" fill="white"/>
<path d="M52.368 80.096C51.568 80.096 50.8053 79.968 50.08 79.712C49.3547 79.4453 48.7787 79.0933 48.352 78.656L48.912 77.744C49.264 78.1173 49.744 78.4267 50.352 78.672C50.9707 78.9173 51.6373 79.04 52.352 79.04C53.3013 79.04 54.0213 78.832 54.512 78.416C55.0133 77.9893 55.264 77.4347 55.264 76.752C55.264 76.272 55.1467 75.8613 54.912 75.52C54.688 75.168 54.304 74.896 53.76 74.704C53.216 74.512 52.4693 74.416 51.52 74.416H49.136L49.712 68.8H55.84V69.824H50.176L50.768 69.264L50.272 73.968L49.68 73.392H51.776C52.9067 73.392 53.8133 73.5307 54.496 73.808C55.1787 74.0853 55.6693 74.4747 55.968 74.976C56.2773 75.4667 56.432 76.0427 56.432 76.704C56.432 77.3333 56.2827 77.9093 55.984 78.432C55.6853 78.944 55.2373 79.3493 54.64 79.648C54.0427 79.9467 53.2853 80.096 52.368 80.096ZM58.0225 76.16V75.168H62.2145V76.16H58.0225ZM65.6903 80V69.28L66.2023 69.824H63.0503V68.8H66.8423V80H65.6903ZM69.3275 77.056V76.224L75.2635 68.8H76.5435L70.6555 76.224L70.0315 76.032H79.0395V77.056H69.3275ZM75.6475 80V77.056L75.6795 76.032V73.44H76.7995V80H75.6475Z" fill="#313131"/>
<circle cx="32" cy="130" r="8" fill="#BCBC5E"/>
<path d="M50.784 136V125.28L51.296 125.824H48.144V124.8H51.936V136H50.784ZM54.4213 133.056V132.224L60.3573 124.8H61.6373L55.7493 132.224L55.1253 132.032H64.1333V133.056H54.4213ZM60.7413 136V133.056L60.7733 132.032V129.44H61.8933V136H60.7413ZM65.4756 132.16V131.168H69.6676V132.16H65.4756ZM74.4885 136.096C73.6778 136.096 72.9098 135.968 72.1845 135.712C71.4698 135.445 70.8938 135.093 70.4565 134.656L71.0165 133.744C71.3792 134.117 71.8645 134.427 72.4725 134.672C73.0912 134.917 73.7632 135.04 74.4885 135.04C75.4165 135.04 76.1258 134.837 76.6165 134.432C77.1178 134.027 77.3685 133.483 77.3685 132.8C77.3685 132.117 77.1232 131.573 76.6325 131.168C76.1525 130.763 75.3898 130.56 74.3445 130.56H73.5445V129.712L77.0005 125.376L77.1605 125.824H70.9205V124.8H78.1205V125.616L74.6645 129.952L74.1045 129.584H74.5365C75.8805 129.584 76.8832 129.883 77.5445 130.48C78.2165 131.077 78.5525 131.845 78.5525 132.784C78.5525 133.413 78.4032 133.979 78.1045 134.48C77.8058 134.981 77.3525 135.376 76.7445 135.664C76.1472 135.952 75.3952 136.096 74.4885 136.096ZM84.6398 136.096C83.7758 136.096 83.0078 135.872 82.3358 135.424C81.6638 134.965 81.1358 134.315 80.7518 133.472C80.3678 132.619 80.1758 131.595 80.1758 130.4C80.1758 129.205 80.3678 128.187 80.7518 127.344C81.1358 126.491 81.6638 125.84 82.3358 125.392C83.0078 124.933 83.7758 124.704 84.6398 124.704C85.5038 124.704 86.2718 124.933 86.9438 125.392C87.6158 125.84 88.1438 126.491 88.5278 127.344C88.9224 128.187 89.1198 129.205 89.1198 130.4C89.1198 131.595 88.9224 132.619 88.5278 133.472C88.1438 134.315 87.6158 134.965 86.9438 135.424C86.2718 135.872 85.5038 136.096 84.6398 136.096ZM84.6398 135.04C85.3011 135.04 85.8771 134.864 86.3678 134.512C86.8584 134.149 87.2424 133.627 87.5198 132.944C87.7971 132.251 87.9358 131.403 87.9358 130.4C87.9358 129.397 87.7971 128.555 87.5198 127.872C87.2424 127.179 86.8584 126.656 86.3678 126.304C85.8771 125.941 85.3011 125.76 84.6398 125.76C83.9998 125.76 83.4291 125.941 82.9278 126.304C82.4264 126.656 82.0371 127.179 81.7598 127.872C81.4824 128.555 81.3438 129.397 81.3438 130.4C81.3438 131.403 81.4824 132.251 81.7598 132.944C82.0371 133.627 82.4264 134.149 82.9278 134.512C83.4291 134.864 83.9998 135.04 84.6398 135.04Z" fill="#313131"/>
<circle cx="32" cy="186" r="8" fill="#9B7CFF"/>
<path d="M52.176 192.096C51.3653 192.096 50.5973 191.968 49.872 191.712C49.1573 191.445 48.5813 191.093 48.144 190.656L48.704 189.744C49.0667 190.117 49.552 190.427 50.16 190.672C50.7787 190.917 51.4507 191.04 52.176 191.04C53.104 191.04 53.8133 190.837 54.304 190.432C54.8053 190.027 55.056 189.483 55.056 188.8C55.056 188.117 54.8107 187.573 54.32 187.168C53.84 186.763 53.0773 186.56 52.032 186.56H51.232V185.712L54.688 181.376L54.848 181.824H48.608V180.8H55.808V181.616L52.352 185.952L51.792 185.584H52.224C53.568 185.584 54.5707 185.883 55.232 186.48C55.904 187.077 56.24 187.845 56.24 188.784C56.24 189.413 56.0907 189.979 55.792 190.48C55.4933 190.981 55.04 191.376 54.432 191.664C53.8347 191.952 53.0827 192.096 52.176 192.096ZM62.3273 192.096C61.4633 192.096 60.6953 191.872 60.0233 191.424C59.3513 190.965 58.8233 190.315 58.4393 189.472C58.0553 188.619 57.8633 187.595 57.8633 186.4C57.8633 185.205 58.0553 184.187 58.4393 183.344C58.8233 182.491 59.3513 181.84 60.0233 181.392C60.6953 180.933 61.4633 180.704 62.3273 180.704C63.1913 180.704 63.9593 180.933 64.6313 181.392C65.3033 181.84 65.8313 182.491 66.2153 183.344C66.6099 184.187 66.8073 185.205 66.8073 186.4C66.8073 187.595 66.6099 188.619 66.2153 189.472C65.8313 190.315 65.3033 190.965 64.6313 191.424C63.9593 191.872 63.1913 192.096 62.3273 192.096ZM62.3273 191.04C62.9886 191.04 63.5646 190.864 64.0553 190.512C64.5459 190.149 64.9299 189.627 65.2073 188.944C65.4846 188.251 65.6233 187.403 65.6233 186.4C65.6233 185.397 65.4846 184.555 65.2073 183.872C64.9299 183.179 64.5459 182.656 64.0553 182.304C63.5646 181.941 62.9886 181.76 62.3273 181.76C61.6873 181.76 61.1166 181.941 60.6153 182.304C60.1139 182.656 59.7246 183.179 59.4473 183.872C59.1699 184.555 59.0312 185.397 59.0312 186.4C59.0312 187.403 59.1699 188.251 59.4473 188.944C59.7246 189.627 60.1139 190.149 60.6153 190.512C61.1166 190.864 61.6873 191.04 62.3273 191.04ZM68.71 188.16V187.168H72.902V188.16H68.71ZM74.6244 189.056V188.224L80.5604 180.8H81.8404L75.9524 188.224L75.3284 188.032H84.3364V189.056H74.6244ZM80.9444 192V189.056L80.9764 188.032V185.44H82.0964V192H80.9444ZM88.8993 192.096C88.0993 192.096 87.3366 191.968 86.6113 191.712C85.8859 191.445 85.3099 191.093 84.8833 190.656L85.4433 189.744C85.7953 190.117 86.2753 190.427 86.8832 190.672C87.5019 190.917 88.1686 191.04 88.8833 191.04C89.8326 191.04 90.5526 190.832 91.0433 190.416C91.5446 189.989 91.7953 189.435 91.7953 188.752C91.7953 188.272 91.6779 187.861 91.4433 187.52C91.2193 187.168 90.8353 186.896 90.2913 186.704C89.7473 186.512 89.0006 186.416 88.0513 186.416H85.6673L86.2433 180.8H92.3713V181.824H86.7073L87.2993 181.264L86.8033 185.968L86.2113 185.392H88.3073C89.4379 185.392 90.3446 185.531 91.0273 185.808C91.7099 186.085 92.2006 186.475 92.4993 186.976C92.8086 187.467 92.9633 188.043 92.9633 188.704C92.9633 189.333 92.8139 189.909 92.5153 190.432C92.2166 190.944 91.7686 191.349 91.1713 191.648C90.5739 191.947 89.8166 192.096 88.8993 192.096Z" fill="#313131"/>
<circle cx="32" cy="242" r="8" fill="#3D10D2"/>
<path d="M48.64 245.056V244.224L54.576 236.8H55.856L49.968 244.224L49.344 244.032H58.352V245.056H48.64ZM54.96 248V245.056L54.992 244.032V241.44H56.112V248H54.96ZM62.9149 248.096C62.1149 248.096 61.3522 247.968 60.6269 247.712C59.9015 247.445 59.3255 247.093 58.8989 246.656L59.4589 245.744C59.8109 246.117 60.2909 246.427 60.8989 246.672C61.5175 246.917 62.1842 247.04 62.8989 247.04C63.8482 247.04 64.5682 246.832 65.0589 246.416C65.5602 245.989 65.8109 245.435 65.8109 244.752C65.8109 244.272 65.6935 243.861 65.4589 243.52C65.2349 243.168 64.8509 242.896 64.3069 242.704C63.7629 242.512 63.0162 242.416 62.0669 242.416H59.6829L60.2589 236.8H66.3869V237.824H60.7229L61.3149 237.264L60.8189 241.968L60.2269 241.392H62.3229C63.4535 241.392 64.3602 241.531 65.0429 241.808C65.7255 242.085 66.2162 242.475 66.5149 242.976C66.8242 243.467 66.9789 244.043 66.9789 244.704C66.9789 245.333 66.8295 245.909 66.5309 246.432C66.2322 246.944 65.7842 247.349 65.1869 247.648C64.5895 247.947 63.8322 248.096 62.9149 248.096ZM68.5694 244.16V243.168H72.7614V244.16H68.5694ZM79.2678 248.096C78.2758 248.096 77.4384 247.877 76.7558 247.44C76.0731 246.992 75.5558 246.352 75.2038 245.52C74.8518 244.677 74.6758 243.669 74.6758 242.496C74.6758 241.227 74.8891 240.165 75.3158 239.312C75.7531 238.448 76.3558 237.797 77.1238 237.36C77.8918 236.923 78.7824 236.704 79.7958 236.704C80.2971 236.704 80.7771 236.752 81.2358 236.848C81.6944 236.944 82.0998 237.099 82.4518 237.312L81.9878 238.24C81.6998 238.048 81.3691 237.915 80.9958 237.84C80.6224 237.755 80.2278 237.712 79.8118 237.712C78.6064 237.712 77.6411 238.096 76.9158 238.864C76.2011 239.632 75.8438 240.779 75.8438 242.304C75.8438 242.539 75.8544 242.832 75.8758 243.184C75.9078 243.525 75.9718 243.867 76.0678 244.208L75.6678 243.904C75.7851 243.349 76.0144 242.88 76.3558 242.496C76.6971 242.101 77.1238 241.803 77.6358 241.6C78.1478 241.397 78.7078 241.296 79.3158 241.296C80.0624 241.296 80.7184 241.435 81.2838 241.712C81.8491 241.989 82.2918 242.379 82.6118 242.88C82.9318 243.381 83.0918 243.973 83.0918 244.656C83.0918 245.349 82.9264 245.957 82.5958 246.48C82.2651 246.992 81.8064 247.392 81.2198 247.68C80.6438 247.957 79.9931 248.096 79.2678 248.096ZM79.2198 247.12C79.7531 247.12 80.2224 247.024 80.6278 246.832C81.0438 246.629 81.3691 246.347 81.6038 245.984C81.8384 245.611 81.9558 245.179 81.9558 244.688C81.9558 243.952 81.6998 243.365 81.1878 242.928C80.6864 242.491 80.0038 242.272 79.1398 242.272C78.5638 242.272 78.0624 242.379 77.6358 242.592C77.2091 242.805 76.8731 243.099 76.6278 243.472C76.3824 243.835 76.2598 244.251 76.2598 244.72C76.2598 245.125 76.3718 245.515 76.5958 245.888C76.8198 246.251 77.1504 246.549 77.5878 246.784C78.0358 247.008 78.5798 247.12 79.2198 247.12ZM87.9618 248.096C87.1618 248.096 86.3991 247.968 85.6738 247.712C84.9484 247.445 84.3724 247.093 83.9458 246.656L84.5058 245.744C84.8578 246.117 85.3378 246.427 85.9457 246.672C86.5644 246.917 87.2311 247.04 87.9458 247.04C88.8951 247.04 89.6151 246.832 90.1058 246.416C90.6071 245.989 90.8578 245.435 90.8578 244.752C90.8578 244.272 90.7404 243.861 90.5058 243.52C90.2818 243.168 89.8978 242.896 89.3538 242.704C88.8098 242.512 88.0631 242.416 87.1138 242.416H84.7298L85.3058 236.8H91.4338V237.824H85.7698L86.3618 237.264L85.8658 241.968L85.2738 241.392H87.3698C88.5004 241.392 89.4071 241.531 90.0898 241.808C90.7724 242.085 91.2631 242.475 91.5618 242.976C91.8711 243.467 92.0258 244.043 92.0258 244.704C92.0258 245.333 91.8764 245.909 91.5778 246.432C91.2791 246.944 90.8311 247.349 90.2338 247.648C89.6364 247.947 88.8791 248.096 87.9618 248.096Z" fill="#313131"/>
<circle cx="32" cy="298" r="8" fill="#313131"/>
<path d="M53.424 304.096C52.432 304.096 51.5947 303.877 50.912 303.44C50.2293 302.992 49.712 302.352 49.36 301.52C49.008 300.677 48.832 299.669 48.832 298.496C48.832 297.227 49.0453 296.165 49.472 295.312C49.9093 294.448 50.512 293.797 51.28 293.36C52.048 292.923 52.9387 292.704 53.952 292.704C54.4533 292.704 54.9333 292.752 55.392 292.848C55.8507 292.944 56.256 293.099 56.608 293.312L56.144 294.24C55.856 294.048 55.5253 293.915 55.152 293.84C54.7787 293.755 54.384 293.712 53.968 293.712C52.7627 293.712 51.7973 294.096 51.072 294.864C50.3573 295.632 50 296.779 50 298.304C50 298.539 50.0107 298.832 50.032 299.184C50.064 299.525 50.128 299.867 50.224 300.208L49.824 299.904C49.9413 299.349 50.1707 298.88 50.512 298.496C50.8533 298.101 51.28 297.803 51.792 297.6C52.304 297.397 52.864 297.296 53.472 297.296C54.2187 297.296 54.8747 297.435 55.44 297.712C56.0053 297.989 56.448 298.379 56.768 298.88C57.088 299.381 57.248 299.973 57.248 300.656C57.248 301.349 57.0827 301.957 56.752 302.48C56.4213 302.992 55.9627 303.392 55.376 303.68C54.8 303.957 54.1493 304.096 53.424 304.096ZM53.376 303.12C53.9093 303.12 54.3787 303.024 54.784 302.832C55.2 302.629 55.5253 302.347 55.76 301.984C55.9947 301.611 56.112 301.179 56.112 300.688C56.112 299.952 55.856 299.365 55.344 298.928C54.8427 298.491 54.16 298.272 53.296 298.272C52.72 298.272 52.2187 298.379 51.792 298.592C51.3653 298.805 51.0293 299.099 50.784 299.472C50.5387 299.835 50.416 300.251 50.416 300.72C50.416 301.125 50.528 301.515 50.752 301.888C50.976 302.251 51.3067 302.549 51.744 302.784C52.192 303.008 52.736 303.12 53.376 303.12ZM62.118 304.096C61.318 304.096 60.5553 303.968 59.83 303.712C59.1047 303.445 58.5287 303.093 58.102 302.656L58.662 301.744C59.014 302.117 59.494 302.427 60.102 302.672C60.7207 302.917 61.3873 303.04 62.102 303.04C63.0513 303.04 63.7713 302.832 64.262 302.416C64.7633 301.989 65.014 301.435 65.014 300.752C65.014 300.272 64.8967 299.861 64.662 299.52C64.438 299.168 64.054 298.896 63.51 298.704C62.966 298.512 62.2193 298.416 61.27 298.416H58.886L59.462 292.8H65.59V293.824H59.926L60.518 293.264L60.022 297.968L59.43 297.392H61.526C62.6567 297.392 63.5633 297.531 64.246 297.808C64.9287 298.085 65.4193 298.475 65.718 298.976C66.0273 299.467 66.182 300.043 66.182 300.704C66.182 301.333 66.0327 301.909 65.734 302.432C65.4353 302.944 64.9873 303.349 64.39 303.648C63.7927 303.947 63.0353 304.096 62.118 304.096ZM70.9085 301.792V295.008H71.9165V301.792H70.9085ZM67.9325 298.88V297.936H74.8925V298.88H67.9325Z" fill="#313131"/>
<g clip-path="url(#clip0_3084_52625)">
<path d="M151.012 171.526C152.531 160.719 155.741 150.218 160.525 140.41L197.915 158.646C195.045 164.531 193.118 170.832 192.207 177.316L151.012 171.526Z" fill="white"/>
<path d="M302.825 277.827C285.89 286.831 266.795 290.977 247.651 289.806C228.507 288.635 210.059 282.193 194.348 271.192C178.637 260.191 166.273 245.059 158.626 227.47C150.978 209.881 148.343 190.519 151.012 171.526L192.207 177.316C190.605 188.712 192.186 200.329 196.775 210.882C201.364 221.436 208.782 230.515 218.209 237.115C227.635 243.716 238.704 247.581 250.19 248.284C261.677 248.986 273.134 246.499 283.295 241.096L302.825 277.827Z" fill="#313131"/>
<path d="M160.525 140.41C167.72 125.658 178.304 112.819 191.411 102.942C204.519 93.0649 219.778 86.4301 235.941 83.5801L243.164 124.548C233.466 126.258 224.311 130.239 216.447 136.165C208.582 142.092 202.232 149.795 197.915 158.646L160.525 140.41Z" fill="#BCBC5E"/>
<path d="M235.94 83.5802C263.104 78.7905 291.057 84.9877 313.652 100.808C336.246 116.629 351.63 140.777 356.42 167.94L315.452 175.164C312.578 158.866 303.347 144.377 289.791 134.885C276.234 125.393 259.462 121.674 243.164 124.548L235.94 83.5802Z" fill="#9B7CFF"/>
<path d="M356.42 167.941C360.234 189.57 357.102 211.851 347.474 231.591C337.847 251.331 322.217 267.516 302.825 277.827L283.295 241.096C294.93 234.91 304.308 225.199 310.085 213.355C315.861 201.511 317.74 188.142 315.452 175.165L356.42 167.941Z" fill="#3D10D2"/>
</g>
<path d="M168.624 164.22C168.029 164.22 167.451 164.127 166.888 163.942C166.333 163.757 165.879 163.508 165.525 163.195L166.08 162.242C166.361 162.507 166.727 162.724 167.177 162.893C167.627 163.062 168.106 163.146 168.612 163.146C169.255 163.146 169.75 163.01 170.095 162.736C170.441 162.463 170.614 162.097 170.614 161.639C170.614 161.326 170.537 161.052 170.385 160.819C170.232 160.586 169.967 160.409 169.589 160.289C169.219 160.16 168.709 160.096 168.057 160.096H166.14L166.586 155.682H171.349V156.732H167.033L167.66 156.141L167.31 159.625L166.683 159.047H168.311C169.155 159.047 169.834 159.155 170.348 159.372C170.863 159.589 171.237 159.891 171.47 160.277C171.703 160.654 171.82 161.092 171.82 161.591C171.82 162.073 171.703 162.515 171.47 162.917C171.237 163.311 170.883 163.629 170.409 163.87C169.943 164.103 169.348 164.22 168.624 164.22ZM173.863 164.123L179.627 155.682H180.555L174.791 164.123H173.863ZM174.538 160.216C174.152 160.216 173.811 160.12 173.513 159.927C173.216 159.734 172.983 159.465 172.814 159.119C172.653 158.773 172.573 158.371 172.573 157.913C172.573 157.455 172.653 157.053 172.814 156.707C172.983 156.362 173.216 156.092 173.513 155.9C173.811 155.707 174.152 155.61 174.538 155.61C174.932 155.61 175.274 155.707 175.563 155.9C175.86 156.092 176.09 156.362 176.25 156.707C176.411 157.053 176.491 157.455 176.491 157.913C176.491 158.371 176.411 158.773 176.25 159.119C176.09 159.465 175.86 159.734 175.563 159.927C175.274 160.12 174.932 160.216 174.538 160.216ZM174.538 159.529C174.908 159.529 175.197 159.388 175.406 159.107C175.615 158.818 175.72 158.42 175.72 157.913C175.72 157.407 175.615 157.013 175.406 156.732C175.197 156.442 174.908 156.297 174.538 156.297C174.176 156.297 173.887 156.442 173.67 156.732C173.461 157.013 173.356 157.407 173.356 157.913C173.356 158.412 173.461 158.805 173.67 159.095C173.887 159.384 174.176 159.529 174.538 159.529ZM179.88 164.195C179.494 164.195 179.152 164.099 178.855 163.906C178.557 163.713 178.328 163.444 178.168 163.098C178.007 162.752 177.926 162.351 177.926 161.892C177.926 161.434 178.007 161.032 178.168 160.687C178.328 160.341 178.557 160.072 178.855 159.879C179.152 159.686 179.494 159.589 179.88 159.589C180.274 159.589 180.615 159.686 180.905 159.879C181.202 160.072 181.431 160.341 181.592 160.687C181.761 161.032 181.845 161.434 181.845 161.892C181.845 162.351 181.761 162.752 181.592 163.098C181.431 163.444 181.202 163.713 180.905 163.906C180.615 164.099 180.274 164.195 179.88 164.195ZM179.88 163.508C180.241 163.508 180.527 163.367 180.736 163.086C180.953 162.797 181.061 162.399 181.061 161.892C181.061 161.394 180.953 161 180.736 160.711C180.527 160.421 180.241 160.277 179.88 160.277C179.518 160.277 179.229 160.421 179.012 160.711C178.803 160.992 178.698 161.386 178.698 161.892C178.698 162.399 178.803 162.797 179.012 163.086C179.229 163.367 179.518 163.508 179.88 163.508Z" fill="#313131"/>
<path d="M195.723 123.191V115.233L196.241 115.8H193.818V114.751H196.917V123.191H195.723ZM201.488 123.288C200.893 123.288 200.314 123.195 199.752 123.011C199.197 122.826 198.743 122.576 198.389 122.263L198.944 121.31C199.225 121.576 199.591 121.793 200.041 121.961C200.491 122.13 200.969 122.215 201.476 122.215C202.119 122.215 202.613 122.078 202.959 121.805C203.305 121.531 203.478 121.166 203.478 120.707C203.478 120.394 203.401 120.121 203.248 119.888C203.096 119.654 202.83 119.478 202.453 119.357C202.083 119.228 201.572 119.164 200.921 119.164H199.004L199.45 114.751H204.213V115.8H199.896L200.523 115.209L200.174 118.694L199.547 118.115H201.174C202.018 118.115 202.698 118.224 203.212 118.441C203.727 118.658 204.1 118.959 204.334 119.345C204.567 119.723 204.683 120.161 204.683 120.659C204.683 121.142 204.567 121.584 204.334 121.986C204.1 122.38 203.747 122.697 203.273 122.938C202.806 123.171 202.211 123.288 201.488 123.288ZM206.727 123.191L212.49 114.751H213.419L207.655 123.191H206.727ZM207.402 119.285C207.016 119.285 206.674 119.188 206.377 118.995C206.079 118.802 205.846 118.533 205.678 118.187C205.517 117.842 205.436 117.44 205.436 116.982C205.436 116.523 205.517 116.121 205.678 115.776C205.846 115.43 206.079 115.161 206.377 114.968C206.674 114.775 207.016 114.678 207.402 114.678C207.796 114.678 208.137 114.775 208.427 114.968C208.724 115.161 208.953 115.43 209.114 115.776C209.275 116.121 209.355 116.523 209.355 116.982C209.355 117.44 209.275 117.842 209.114 118.187C208.953 118.533 208.724 118.802 208.427 118.995C208.137 119.188 207.796 119.285 207.402 119.285ZM207.402 118.597C207.772 118.597 208.061 118.457 208.27 118.175C208.479 117.886 208.583 117.488 208.583 116.982C208.583 116.475 208.479 116.081 208.27 115.8C208.061 115.51 207.772 115.366 207.402 115.366C207.04 115.366 206.751 115.51 206.534 115.8C206.325 116.081 206.22 116.475 206.22 116.982C206.22 117.48 206.325 117.874 206.534 118.163C206.751 118.453 207.04 118.597 207.402 118.597ZM212.743 123.264C212.358 123.264 212.016 123.167 211.719 122.974C211.421 122.781 211.192 122.512 211.031 122.166C210.87 121.821 210.79 121.419 210.79 120.961C210.79 120.502 210.87 120.101 211.031 119.755C211.192 119.409 211.421 119.14 211.719 118.947C212.016 118.754 212.358 118.658 212.743 118.658C213.137 118.658 213.479 118.754 213.768 118.947C214.066 119.14 214.295 119.409 214.456 119.755C214.625 120.101 214.709 120.502 214.709 120.961C214.709 121.419 214.625 121.821 214.456 122.166C214.295 122.512 214.066 122.781 213.768 122.974C213.479 123.167 213.137 123.264 212.743 123.264ZM212.743 122.576C213.105 122.576 213.391 122.436 213.6 122.154C213.817 121.865 213.925 121.467 213.925 120.961C213.925 120.462 213.817 120.068 213.6 119.779C213.391 119.49 213.105 119.345 212.743 119.345C212.382 119.345 212.092 119.49 211.875 119.779C211.666 120.06 211.562 120.454 211.562 120.961C211.562 121.467 211.666 121.865 211.875 122.154C212.092 122.436 212.382 122.576 212.743 122.576Z" fill="#313131"/>
<path d="M291.903 123.191V122.371L295.34 119.056C295.645 118.766 295.87 118.513 296.015 118.296C296.168 118.071 296.268 117.866 296.316 117.681C296.373 117.488 296.401 117.303 296.401 117.126C296.401 116.692 296.248 116.351 295.943 116.101C295.637 115.852 295.191 115.728 294.604 115.728C294.154 115.728 293.748 115.804 293.386 115.957C293.025 116.101 292.711 116.33 292.446 116.644L291.626 115.933C291.947 115.523 292.377 115.209 292.916 114.992C293.463 114.767 294.062 114.654 294.713 114.654C295.3 114.654 295.81 114.751 296.244 114.944C296.678 115.129 297.012 115.398 297.245 115.752C297.486 116.105 297.607 116.523 297.607 117.006C297.607 117.279 297.57 117.548 297.498 117.814C297.426 118.079 297.289 118.36 297.088 118.658C296.887 118.955 296.598 119.289 296.22 119.658L293.157 122.613L292.868 122.142H297.968V123.191H291.903ZM301.685 123.288C301.09 123.288 300.511 123.195 299.948 123.011C299.394 122.826 298.94 122.576 298.586 122.263L299.141 121.31C299.422 121.576 299.788 121.793 300.238 121.961C300.688 122.13 301.166 122.215 301.673 122.215C302.316 122.215 302.81 122.078 303.156 121.805C303.502 121.531 303.674 121.166 303.674 120.707C303.674 120.394 303.598 120.121 303.445 119.888C303.293 119.654 303.027 119.478 302.649 119.357C302.28 119.228 301.769 119.164 301.118 119.164H299.201L299.647 114.751H304.41V115.8H300.093L300.72 115.209L300.371 118.694L299.743 118.115H301.371C302.215 118.115 302.895 118.224 303.409 118.441C303.924 118.658 304.297 118.959 304.531 119.345C304.764 119.723 304.88 120.161 304.88 120.659C304.88 121.142 304.764 121.584 304.531 121.986C304.297 122.38 303.944 122.697 303.469 122.938C303.003 123.171 302.408 123.288 301.685 123.288ZM306.923 123.191L312.687 114.751H313.616L307.852 123.191H306.923ZM307.599 119.285C307.213 119.285 306.871 119.188 306.574 118.995C306.276 118.802 306.043 118.533 305.874 118.187C305.714 117.842 305.633 117.44 305.633 116.982C305.633 116.523 305.714 116.121 305.874 115.776C306.043 115.43 306.276 115.161 306.574 114.968C306.871 114.775 307.213 114.678 307.599 114.678C307.993 114.678 308.334 114.775 308.624 114.968C308.921 115.161 309.15 115.43 309.311 115.776C309.472 116.121 309.552 116.523 309.552 116.982C309.552 117.44 309.472 117.842 309.311 118.187C309.15 118.533 308.921 118.802 308.624 118.995C308.334 119.188 307.993 119.285 307.599 119.285ZM307.599 118.597C307.968 118.597 308.258 118.457 308.467 118.175C308.676 117.886 308.78 117.488 308.78 116.982C308.78 116.475 308.676 116.081 308.467 115.8C308.258 115.51 307.968 115.366 307.599 115.366C307.237 115.366 306.948 115.51 306.731 115.8C306.522 116.081 306.417 116.475 306.417 116.982C306.417 117.48 306.522 117.874 306.731 118.163C306.948 118.453 307.237 118.597 307.599 118.597ZM312.94 123.264C312.555 123.264 312.213 123.167 311.915 122.974C311.618 122.781 311.389 122.512 311.228 122.166C311.067 121.821 310.987 121.419 310.987 120.961C310.987 120.502 311.067 120.101 311.228 119.755C311.389 119.409 311.618 119.14 311.915 118.947C312.213 118.754 312.555 118.658 312.94 118.658C313.334 118.658 313.676 118.754 313.965 118.947C314.263 119.14 314.492 119.409 314.653 119.755C314.821 120.101 314.906 120.502 314.906 120.961C314.906 121.419 314.821 121.821 314.653 122.166C314.492 122.512 314.263 122.781 313.965 122.974C313.676 123.167 313.334 123.264 312.94 123.264ZM312.94 122.576C313.302 122.576 313.587 122.436 313.796 122.154C314.014 121.865 314.122 121.467 314.122 120.961C314.122 120.462 314.014 120.068 313.796 119.779C313.587 119.49 313.302 119.345 312.94 119.345C312.579 119.345 312.289 119.49 312.072 119.779C311.863 120.06 311.759 120.454 311.759 120.961C311.759 121.467 311.863 121.865 312.072 122.154C312.289 122.436 312.579 122.576 312.94 122.576Z" fill="#313131"/>
<path d="M318.634 220.926V220.106L322.07 216.79C322.376 216.501 322.601 216.248 322.745 216.031C322.898 215.806 322.999 215.601 323.047 215.416C323.103 215.223 323.131 215.038 323.131 214.861C323.131 214.427 322.979 214.085 322.673 213.836C322.368 213.587 321.921 213.462 321.335 213.462C320.884 213.462 320.479 213.539 320.117 213.691C319.755 213.836 319.442 214.065 319.176 214.379L318.356 213.667C318.678 213.257 319.108 212.944 319.647 212.727C320.193 212.502 320.792 212.389 321.443 212.389C322.03 212.389 322.54 212.486 322.975 212.679C323.409 212.864 323.742 213.133 323.975 213.487C324.216 213.84 324.337 214.258 324.337 214.741C324.337 215.014 324.301 215.283 324.229 215.548C324.156 215.814 324.02 216.095 323.819 216.392C323.618 216.69 323.328 217.024 322.95 217.393L319.888 220.347L319.598 219.877H324.699V220.926H318.634ZM329.127 221.023C328.468 221.023 327.877 220.854 327.354 220.516C326.84 220.179 326.43 219.688 326.125 219.045C325.827 218.402 325.678 217.622 325.678 216.706C325.678 215.79 325.827 215.01 326.125 214.367C326.43 213.724 326.84 213.233 327.354 212.896C327.877 212.558 328.468 212.389 329.127 212.389C329.778 212.389 330.365 212.558 330.887 212.896C331.41 213.233 331.82 213.724 332.117 214.367C332.415 215.01 332.564 215.79 332.564 216.706C332.564 217.622 332.415 218.402 332.117 219.045C331.82 219.688 331.41 220.179 330.887 220.516C330.365 220.854 329.778 221.023 329.127 221.023ZM329.127 219.95C329.569 219.95 329.955 219.829 330.285 219.588C330.622 219.347 330.883 218.985 331.068 218.503C331.261 218.02 331.358 217.421 331.358 216.706C331.358 215.991 331.261 215.392 331.068 214.909C330.883 214.427 330.622 214.065 330.285 213.824C329.955 213.583 329.569 213.462 329.127 213.462C328.685 213.462 328.295 213.583 327.957 213.824C327.62 214.065 327.354 214.427 327.162 214.909C326.977 215.392 326.884 215.991 326.884 216.706C326.884 217.421 326.977 218.02 327.162 218.503C327.354 218.985 327.62 219.347 327.957 219.588C328.295 219.829 328.685 219.95 329.127 219.95ZM334.879 220.926L340.642 212.486H341.571L335.807 220.926H334.879ZM335.554 217.019C335.168 217.019 334.826 216.923 334.529 216.73C334.231 216.537 333.998 216.268 333.83 215.922C333.669 215.577 333.588 215.175 333.588 214.716C333.588 214.258 333.669 213.856 333.83 213.511C333.998 213.165 334.231 212.896 334.529 212.703C334.826 212.51 335.168 212.413 335.554 212.413C335.948 212.413 336.289 212.51 336.579 212.703C336.876 212.896 337.105 213.165 337.266 213.511C337.427 213.856 337.507 214.258 337.507 214.716C337.507 215.175 337.427 215.577 337.266 215.922C337.105 216.268 336.876 216.537 336.579 216.73C336.289 216.923 335.948 217.019 335.554 217.019ZM335.554 216.332C335.924 216.332 336.213 216.192 336.422 215.91C336.631 215.621 336.735 215.223 336.735 214.716C336.735 214.21 336.631 213.816 336.422 213.535C336.213 213.245 335.924 213.101 335.554 213.101C335.192 213.101 334.903 213.245 334.686 213.535C334.477 213.816 334.372 214.21 334.372 214.716C334.372 215.215 334.477 215.609 334.686 215.898C334.903 216.187 335.192 216.332 335.554 216.332ZM340.895 220.999C340.51 220.999 340.168 220.902 339.871 220.709C339.573 220.516 339.344 220.247 339.183 219.901C339.022 219.556 338.942 219.154 338.942 218.696C338.942 218.237 339.022 217.835 339.183 217.49C339.344 217.144 339.573 216.875 339.871 216.682C340.168 216.489 340.51 216.392 340.895 216.392C341.289 216.392 341.631 216.489 341.92 216.682C342.218 216.875 342.447 217.144 342.608 217.49C342.777 217.835 342.861 218.237 342.861 218.696C342.861 219.154 342.777 219.556 342.608 219.901C342.447 220.247 342.218 220.516 341.92 220.709C341.631 220.902 341.289 220.999 340.895 220.999ZM340.895 220.311C341.257 220.311 341.543 220.171 341.752 219.889C341.969 219.6 342.077 219.202 342.077 218.696C342.077 218.197 341.969 217.803 341.752 217.514C341.543 217.224 341.257 217.08 340.895 217.08C340.534 217.08 340.244 217.224 340.027 217.514C339.818 217.795 339.714 218.189 339.714 218.696C339.714 219.202 339.818 219.6 340.027 219.889C340.244 220.171 340.534 220.311 340.895 220.311Z" fill="white"/>
<path d="M187.692 250.26C187.097 250.26 186.518 250.167 185.956 249.982C185.401 249.798 184.947 249.548 184.593 249.235L185.148 248.282C185.429 248.548 185.795 248.765 186.245 248.933C186.695 249.102 187.177 249.187 187.692 249.187C188.319 249.187 188.805 249.054 189.151 248.789C189.505 248.515 189.681 248.15 189.681 247.691C189.681 247.249 189.513 246.896 189.175 246.63C188.845 246.357 188.319 246.22 187.595 246.22H186.92V245.376L189.428 242.289L189.597 242.772H184.979V241.723H190.55V242.543L188.054 245.617L187.427 245.244H187.825C188.845 245.244 189.609 245.473 190.116 245.931C190.63 246.389 190.887 246.972 190.887 247.679C190.887 248.154 190.771 248.588 190.538 248.982C190.304 249.376 189.951 249.689 189.476 249.922C189.01 250.147 188.415 250.26 187.692 250.26ZM194.619 250.26C194.024 250.26 193.446 250.167 192.883 249.982C192.328 249.798 191.874 249.548 191.52 249.235L192.075 248.282C192.356 248.548 192.722 248.765 193.172 248.933C193.622 249.102 194.101 249.187 194.607 249.187C195.25 249.187 195.745 249.05 196.09 248.777C196.436 248.503 196.609 248.138 196.609 247.679C196.609 247.366 196.532 247.093 196.38 246.859C196.227 246.626 195.962 246.449 195.584 246.329C195.214 246.2 194.704 246.136 194.052 246.136H192.135L192.581 241.723H197.344V242.772H193.028L193.655 242.181L193.305 245.666L192.678 245.087H194.306C195.15 245.087 195.829 245.195 196.343 245.412C196.858 245.63 197.232 245.931 197.465 246.317C197.698 246.695 197.815 247.133 197.815 247.631C197.815 248.113 197.698 248.556 197.465 248.958C197.232 249.351 196.878 249.669 196.404 249.91C195.938 250.143 195.343 250.26 194.619 250.26ZM199.858 250.163L205.622 241.723H206.55L200.786 250.163H199.858ZM200.533 246.257C200.147 246.257 199.806 246.16 199.508 245.967C199.211 245.774 198.978 245.505 198.809 245.159C198.648 244.814 198.568 244.412 198.568 243.953C198.568 243.495 198.648 243.093 198.809 242.748C198.978 242.402 199.211 242.133 199.508 241.94C199.806 241.747 200.147 241.65 200.533 241.65C200.927 241.65 201.269 241.747 201.558 241.94C201.855 242.133 202.085 242.402 202.245 242.748C202.406 243.093 202.486 243.495 202.486 243.953C202.486 244.412 202.406 244.814 202.245 245.159C202.085 245.505 201.855 245.774 201.558 245.967C201.269 246.16 200.927 246.257 200.533 246.257ZM200.533 245.569C200.903 245.569 201.192 245.429 201.401 245.147C201.61 244.858 201.715 244.46 201.715 243.953C201.715 243.447 201.61 243.053 201.401 242.772C201.192 242.482 200.903 242.338 200.533 242.338C200.171 242.338 199.882 242.482 199.665 242.772C199.456 243.053 199.351 243.447 199.351 243.953C199.351 244.452 199.456 244.846 199.665 245.135C199.882 245.425 200.171 245.569 200.533 245.569ZM205.875 250.236C205.489 250.236 205.147 250.139 204.85 249.946C204.552 249.753 204.323 249.484 204.163 249.138C204.002 248.793 203.921 248.391 203.921 247.933C203.921 247.474 204.002 247.072 204.163 246.727C204.323 246.381 204.552 246.112 204.85 245.919C205.147 245.726 205.489 245.63 205.875 245.63C206.269 245.63 206.61 245.726 206.9 245.919C207.197 246.112 207.426 246.381 207.587 246.727C207.756 247.072 207.84 247.474 207.84 247.933C207.84 248.391 207.756 248.793 207.587 249.138C207.426 249.484 207.197 249.753 206.9 249.946C206.61 250.139 206.269 250.236 205.875 250.236ZM205.875 249.548C206.236 249.548 206.522 249.408 206.731 249.126C206.948 248.837 207.056 248.439 207.056 247.933C207.056 247.434 206.948 247.04 206.731 246.751C206.522 246.462 206.236 246.317 205.875 246.317C205.513 246.317 205.224 246.462 205.007 246.751C204.798 247.032 204.693 247.426 204.693 247.933C204.693 248.439 204.798 248.837 205.007 249.126C205.224 249.408 205.513 249.548 205.875 249.548Z" fill="white"/>
<defs>
<clipPath id="clip0_3084_52625">
<rect width="208" height="208" fill="white" transform="translate(150 82)"/>
</clipPath>
</defs>
</svg>
