<svg width="392" height="361" viewBox="0 0 392 361" fill="none" xmlns="http://www.w3.org/2000/svg">
<rect width="392" height="361" rx="16" fill="#F5F5E5"/>
<path d="M33.008 31.8H35.6V43H33.008V31.8ZM27.92 43H25.328V31.8H27.92V43ZM33.2 38.408H27.728V36.216H33.2V38.408ZM43.3539 43V41.32L43.1939 40.952V37.944C43.1939 37.4107 43.0285 36.9947 42.6979 36.696C42.3779 36.3973 41.8819 36.248 41.2099 36.248C40.7512 36.248 40.2979 36.3227 39.8499 36.472C39.4125 36.6107 39.0392 36.8027 38.7299 37.048L37.8339 35.304C38.3032 34.9733 38.8685 34.7173 39.5299 34.536C40.1912 34.3547 40.8632 34.264 41.5459 34.264C42.8579 34.264 43.8765 34.5733 44.6019 35.192C45.3272 35.8107 45.6899 36.776 45.6899 38.088V43H43.3539ZM40.7299 43.128C40.0579 43.128 39.4819 43.016 39.0019 42.792C38.5219 42.5573 38.1539 42.2427 37.8979 41.848C37.6419 41.4533 37.5139 41.0107 37.5139 40.52C37.5139 40.008 37.6365 39.56 37.8819 39.176C38.1379 38.792 38.5379 38.4933 39.0819 38.28C39.6259 38.056 40.3352 37.944 41.2099 37.944H43.4979V39.4H41.4819C40.8952 39.4 40.4899 39.496 40.2659 39.688C40.0525 39.88 39.9459 40.12 39.9459 40.408C39.9459 40.728 40.0685 40.984 40.3139 41.176C40.5699 41.3573 40.9165 41.448 41.3539 41.448C41.7699 41.448 42.1432 41.352 42.4739 41.16C42.8045 40.9573 43.0445 40.664 43.1939 40.28L43.5779 41.432C43.3965 41.9867 43.0659 42.408 42.5859 42.696C42.1059 42.984 41.4872 43.128 40.7299 43.128ZM50.8449 43.128C50.1089 43.128 49.3995 43.0427 48.7169 42.872C48.0449 42.6907 47.5115 42.4667 47.1169 42.2L47.9489 40.408C48.3435 40.6533 48.8075 40.856 49.3409 41.016C49.8849 41.1653 50.4182 41.24 50.9409 41.24C51.5169 41.24 51.9222 41.1707 52.1569 41.032C52.4022 40.8933 52.5249 40.7013 52.5249 40.456C52.5249 40.2533 52.4289 40.104 52.2369 40.008C52.0555 39.9013 51.8102 39.8213 51.5009 39.768C51.1915 39.7147 50.8502 39.6613 50.4769 39.608C50.1142 39.5547 49.7462 39.4853 49.3729 39.4C48.9995 39.304 48.6582 39.1653 48.3489 38.984C48.0395 38.8027 47.7889 38.5573 47.5969 38.248C47.4155 37.9387 47.3249 37.5387 47.3249 37.048C47.3249 36.504 47.4795 36.024 47.7889 35.608C48.1089 35.192 48.5675 34.8667 49.1649 34.632C49.7622 34.3867 50.4769 34.264 51.3089 34.264C51.8955 34.264 52.4929 34.328 53.1009 34.456C53.7089 34.584 54.2155 34.7707 54.6209 35.016L53.7889 36.792C53.3729 36.5467 52.9515 36.3813 52.5249 36.296C52.1089 36.2 51.7035 36.152 51.3089 36.152C50.7542 36.152 50.3489 36.2267 50.0929 36.376C49.8369 36.5253 49.7089 36.7173 49.7089 36.952C49.7089 37.1653 49.7995 37.3253 49.9809 37.432C50.1729 37.5387 50.4235 37.624 50.7329 37.688C51.0422 37.752 51.3782 37.8107 51.7409 37.864C52.1142 37.9067 52.4875 37.976 52.8609 38.072C53.2342 38.168 53.5702 38.3067 53.8689 38.488C54.1782 38.6587 54.4289 38.8987 54.6209 39.208C54.8129 39.5067 54.9089 39.9013 54.9089 40.392C54.9089 40.9253 54.7489 41.4 54.4289 41.816C54.1089 42.2213 53.6449 42.5413 53.0369 42.776C52.4395 43.0107 51.7089 43.128 50.8449 43.128ZM63.8761 43.128C63.1401 43.128 62.4308 43.0427 61.7481 42.872C61.0761 42.6907 60.5428 42.4667 60.1481 42.2L60.9801 40.408C61.3748 40.6533 61.8388 40.856 62.3721 41.016C62.9161 41.1653 63.4495 41.24 63.9721 41.24C64.5481 41.24 64.9535 41.1707 65.1881 41.032C65.4335 40.8933 65.5561 40.7013 65.5561 40.456C65.5561 40.2533 65.4601 40.104 65.2681 40.008C65.0868 39.9013 64.8415 39.8213 64.5321 39.768C64.2228 39.7147 63.8815 39.6613 63.5081 39.608C63.1455 39.5547 62.7775 39.4853 62.4041 39.4C62.0308 39.304 61.6895 39.1653 61.3801 38.984C61.0708 38.8027 60.8201 38.5573 60.6281 38.248C60.4468 37.9387 60.3561 37.5387 60.3561 37.048C60.3561 36.504 60.5108 36.024 60.8201 35.608C61.1401 35.192 61.5988 34.8667 62.1961 34.632C62.7935 34.3867 63.5081 34.264 64.3401 34.264C64.9268 34.264 65.5241 34.328 66.1321 34.456C66.7401 34.584 67.2468 34.7707 67.6521 35.016L66.8201 36.792C66.4041 36.5467 65.9828 36.3813 65.5561 36.296C65.1401 36.2 64.7348 36.152 64.3401 36.152C63.7855 36.152 63.3801 36.2267 63.1241 36.376C62.8681 36.5253 62.7401 36.7173 62.7401 36.952C62.7401 37.1653 62.8308 37.3253 63.0121 37.432C63.2041 37.5387 63.4548 37.624 63.7641 37.688C64.0735 37.752 64.4095 37.8107 64.7721 37.864C65.1455 37.9067 65.5188 37.976 65.8921 38.072C66.2655 38.168 66.6015 38.3067 66.9001 38.488C67.2095 38.6587 67.4601 38.8987 67.6521 39.208C67.8441 39.5067 67.9401 39.9013 67.9401 40.392C67.9401 40.9253 67.7801 41.4 67.4601 41.816C67.1401 42.2213 66.6761 42.5413 66.0681 42.776C65.4708 43.0107 64.7401 43.128 63.8761 43.128ZM73.6401 43.128C72.7121 43.128 71.8855 42.9413 71.1601 42.568C70.4348 42.184 69.8641 41.656 69.4481 40.984C69.0428 40.312 68.8401 39.5493 68.8401 38.696C68.8401 37.832 69.0428 37.0693 69.4481 36.408C69.8641 35.736 70.4348 35.2133 71.1601 34.84C71.8855 34.456 72.7121 34.264 73.6401 34.264C74.5468 34.264 75.3361 34.456 76.0081 34.84C76.6801 35.2133 77.1761 35.752 77.4961 36.456L75.5601 37.496C75.3361 37.0907 75.0535 36.792 74.7121 36.6C74.3815 36.408 74.0188 36.312 73.6241 36.312C73.1975 36.312 72.8135 36.408 72.4721 36.6C72.1308 36.792 71.8588 37.064 71.6561 37.416C71.4641 37.768 71.3681 38.1947 71.3681 38.696C71.3681 39.1973 71.4641 39.624 71.6561 39.976C71.8588 40.328 72.1308 40.6 72.4721 40.792C72.8135 40.984 73.1975 41.08 73.6241 41.08C74.0188 41.08 74.3815 40.9893 74.7121 40.808C75.0535 40.616 75.3361 40.312 75.5601 39.896L77.4961 40.952C77.1761 41.6453 76.6801 42.184 76.0081 42.568C75.3361 42.9413 74.5468 43.128 73.6401 43.128ZM84.1028 34.264C84.7854 34.264 85.3934 34.4027 85.9268 34.68C86.4708 34.9467 86.8974 35.3627 87.2068 35.928C87.5161 36.4827 87.6708 37.1973 87.6708 38.072V43H85.1748V38.456C85.1748 37.7627 85.0201 37.2507 84.7108 36.92C84.4121 36.5893 83.9854 36.424 83.4308 36.424C83.0361 36.424 82.6788 36.5093 82.3588 36.68C82.0494 36.84 81.8041 37.0907 81.6228 37.432C81.4521 37.7733 81.3668 38.2107 81.3668 38.744V43H78.8708V31.128H81.3668V36.776L80.8068 36.056C81.1161 35.48 81.5588 35.0373 82.1348 34.728C82.7108 34.4187 83.3668 34.264 84.1028 34.264ZM94.2678 43.128C93.2864 43.128 92.4224 42.936 91.6758 42.552C90.9398 42.168 90.3691 41.6453 89.9638 40.984C89.5584 40.312 89.3558 39.5493 89.3558 38.696C89.3558 37.832 89.5531 37.0693 89.9478 36.408C90.3531 35.736 90.9024 35.2133 91.5958 34.84C92.2891 34.456 93.0731 34.264 93.9478 34.264C94.7904 34.264 95.5478 34.4453 96.2198 34.808C96.9024 35.16 97.4411 35.672 97.8358 36.344C98.2304 37.0053 98.4278 37.8 98.4278 38.728C98.4278 38.824 98.4224 38.936 98.4118 39.064C98.4011 39.1813 98.3904 39.2933 98.3798 39.4H91.3878V37.944H97.0677L96.1078 38.376C96.1078 37.928 96.0171 37.5387 95.8358 37.208C95.6544 36.8773 95.4038 36.6213 95.0838 36.44C94.7638 36.248 94.3904 36.152 93.9638 36.152C93.5371 36.152 93.1584 36.248 92.8278 36.44C92.5078 36.6213 92.2571 36.8827 92.0758 37.224C91.8944 37.5547 91.8038 37.9493 91.8038 38.408V38.792C91.8038 39.2613 91.9051 39.6773 92.1078 40.04C92.3211 40.392 92.6144 40.664 92.9878 40.856C93.3718 41.0373 93.8198 41.128 94.3318 41.128C94.7904 41.128 95.1904 41.0587 95.5318 40.92C95.8838 40.7813 96.2038 40.5733 96.4918 40.296L97.8198 41.736C97.4251 42.184 96.9291 42.5307 96.3318 42.776C95.7344 43.0107 95.0464 43.128 94.2678 43.128ZM103.786 43.128C102.975 43.128 102.244 42.9467 101.594 42.584C100.943 42.2107 100.426 41.6933 100.042 41.032C99.6682 40.3707 99.4815 39.592 99.4815 38.696C99.4815 37.7893 99.6682 37.0053 100.042 36.344C100.426 35.6827 100.943 35.1707 101.594 34.808C102.244 34.4453 102.975 34.264 103.786 34.264C104.511 34.264 105.146 34.424 105.69 34.744C106.234 35.064 106.655 35.5493 106.954 36.2C107.252 36.8507 107.402 37.6827 107.402 38.696C107.402 39.6987 107.258 40.5307 106.97 41.192C106.682 41.8427 106.266 42.328 105.722 42.648C105.188 42.968 104.543 43.128 103.786 43.128ZM104.218 41.08C104.623 41.08 104.991 40.984 105.322 40.792C105.652 40.6 105.914 40.328 106.106 39.976C106.308 39.6133 106.41 39.1867 106.41 38.696C106.41 38.1947 106.308 37.768 106.106 37.416C105.914 37.064 105.652 36.792 105.322 36.6C104.991 36.408 104.623 36.312 104.218 36.312C103.802 36.312 103.428 36.408 103.098 36.6C102.767 36.792 102.5 37.064 102.298 37.416C102.106 37.768 102.01 38.1947 102.01 38.696C102.01 39.1867 102.106 39.6133 102.298 39.976C102.5 40.328 102.767 40.6 103.098 40.792C103.428 40.984 103.802 41.08 104.218 41.08ZM106.474 43V41.24L106.522 38.68L106.362 36.136V31.128H108.858V43H106.474ZM114.8 43.128C114.085 43.128 113.445 42.9893 112.88 42.712C112.325 42.4347 111.893 42.0133 111.584 41.448C111.274 40.872 111.12 40.1413 111.12 39.256V34.392H113.616V38.888C113.616 39.6027 113.765 40.1307 114.064 40.472C114.373 40.8027 114.805 40.968 115.36 40.968C115.744 40.968 116.085 40.888 116.384 40.728C116.682 40.5573 116.917 40.3013 117.088 39.96C117.258 39.608 117.344 39.1707 117.344 38.648V34.392H119.84V43H117.472V40.632L117.904 41.32C117.616 41.9173 117.189 42.3707 116.624 42.68C116.069 42.9787 115.461 43.128 114.8 43.128ZM122.152 43V31.128H124.648V43H122.152ZM131.237 43.128C130.255 43.128 129.391 42.936 128.645 42.552C127.909 42.168 127.338 41.6453 126.933 40.984C126.527 40.312 126.325 39.5493 126.325 38.696C126.325 37.832 126.522 37.0693 126.917 36.408C127.322 35.736 127.871 35.2133 128.565 34.84C129.258 34.456 130.042 34.264 130.917 34.264C131.759 34.264 132.517 34.4453 133.189 34.808C133.871 35.16 134.41 35.672 134.805 36.344C135.199 37.0053 135.397 37.8 135.397 38.728C135.397 38.824 135.391 38.936 135.381 39.064C135.37 39.1813 135.359 39.2933 135.349 39.4H128.357V37.944H134.036L133.077 38.376C133.077 37.928 132.986 37.5387 132.805 37.208C132.623 36.8773 132.373 36.6213 132.053 36.44C131.733 36.248 131.359 36.152 130.933 36.152C130.506 36.152 130.127 36.248 129.797 36.44C129.477 36.6213 129.226 36.8827 129.045 37.224C128.863 37.5547 128.773 37.9493 128.773 38.408V38.792C128.773 39.2613 128.874 39.6773 129.077 40.04C129.29 40.392 129.583 40.664 129.957 40.856C130.341 41.0373 130.789 41.128 131.301 41.128C131.759 41.128 132.159 41.0587 132.501 40.92C132.853 40.7813 133.173 40.5733 133.461 40.296L134.789 41.736C134.394 42.184 133.898 42.5307 133.301 42.776C132.703 43.0107 132.015 43.128 131.237 43.128ZM140.754 43.128C139.944 43.128 139.213 42.9467 138.562 42.584C137.912 42.2107 137.394 41.6933 137.01 41.032C136.637 40.3707 136.45 39.592 136.45 38.696C136.45 37.7893 136.637 37.0053 137.01 36.344C137.394 35.6827 137.912 35.1707 138.562 34.808C139.213 34.4453 139.944 34.264 140.754 34.264C141.48 34.264 142.114 34.424 142.658 34.744C143.202 35.064 143.624 35.5493 143.922 36.2C144.221 36.8507 144.37 37.6827 144.37 38.696C144.37 39.6987 144.226 40.5307 143.938 41.192C143.65 41.8427 143.234 42.328 142.69 42.648C142.157 42.968 141.512 43.128 140.754 43.128ZM141.186 41.08C141.592 41.08 141.96 40.984 142.29 40.792C142.621 40.6 142.882 40.328 143.074 39.976C143.277 39.6133 143.378 39.1867 143.378 38.696C143.378 38.1947 143.277 37.768 143.074 37.416C142.882 37.064 142.621 36.792 142.29 36.6C141.96 36.408 141.592 36.312 141.186 36.312C140.77 36.312 140.397 36.408 140.066 36.6C139.736 36.792 139.469 37.064 139.266 37.416C139.074 37.768 138.978 38.1947 138.978 38.696C138.978 39.1867 139.074 39.6133 139.266 39.976C139.469 40.328 139.736 40.6 140.066 40.792C140.397 40.984 140.77 41.08 141.186 41.08ZM143.442 43V41.24L143.49 38.68L143.33 36.136V31.128H145.826V43H143.442ZM157.948 43V41.32L157.788 40.952V37.944C157.788 37.4107 157.622 36.9947 157.292 36.696C156.972 36.3973 156.476 36.248 155.804 36.248C155.345 36.248 154.892 36.3227 154.444 36.472C154.006 36.6107 153.633 36.8027 153.324 37.048L152.428 35.304C152.897 34.9733 153.462 34.7173 154.124 34.536C154.785 34.3547 155.457 34.264 156.14 34.264C157.452 34.264 158.47 34.5733 159.196 35.192C159.921 35.8107 160.284 36.776 160.284 38.088V43H157.948ZM155.324 43.128C154.652 43.128 154.076 43.016 153.596 42.792C153.116 42.5573 152.748 42.2427 152.492 41.848C152.236 41.4533 152.108 41.0107 152.108 40.52C152.108 40.008 152.23 39.56 152.476 39.176C152.732 38.792 153.132 38.4933 153.676 38.28C154.22 38.056 154.929 37.944 155.804 37.944H158.092V39.4H156.076C155.489 39.4 155.084 39.496 154.86 39.688C154.646 39.88 154.54 40.12 154.54 40.408C154.54 40.728 154.662 40.984 154.908 41.176C155.164 41.3573 155.51 41.448 155.948 41.448C156.364 41.448 156.737 41.352 157.068 41.16C157.398 40.9573 157.638 40.664 157.788 40.28L158.172 41.432C157.99 41.9867 157.66 42.408 157.18 42.696C156.7 42.984 156.081 43.128 155.324 43.128ZM171.234 43.128C170.306 43.128 169.479 42.9413 168.754 42.568C168.029 42.184 167.458 41.656 167.042 40.984C166.637 40.312 166.434 39.5493 166.434 38.696C166.434 37.832 166.637 37.0693 167.042 36.408C167.458 35.736 168.029 35.2133 168.754 34.84C169.479 34.456 170.306 34.264 171.234 34.264C172.141 34.264 172.93 34.456 173.602 34.84C174.274 35.2133 174.77 35.752 175.09 36.456L173.154 37.496C172.93 37.0907 172.647 36.792 172.306 36.6C171.975 36.408 171.613 36.312 171.218 36.312C170.791 36.312 170.407 36.408 170.066 36.6C169.725 36.792 169.453 37.064 169.25 37.416C169.058 37.768 168.962 38.1947 168.962 38.696C168.962 39.1973 169.058 39.624 169.25 39.976C169.453 40.328 169.725 40.6 170.066 40.792C170.407 40.984 170.791 41.08 171.218 41.08C171.613 41.08 171.975 40.9893 172.306 40.808C172.647 40.616 172.93 40.312 173.154 39.896L175.09 40.952C174.77 41.6453 174.274 42.184 173.602 42.568C172.93 42.9413 172.141 43.128 171.234 43.128ZM176.465 43V31.128H178.961V43H176.465ZM186.557 43V41.32L186.397 40.952V37.944C186.397 37.4107 186.232 36.9947 185.901 36.696C185.581 36.3973 185.085 36.248 184.413 36.248C183.954 36.248 183.501 36.3227 183.053 36.472C182.616 36.6107 182.242 36.8027 181.933 37.048L181.037 35.304C181.506 34.9733 182.072 34.7173 182.733 34.536C183.394 34.3547 184.066 34.264 184.749 34.264C186.061 34.264 187.08 34.5733 187.805 35.192C188.53 35.8107 188.893 36.776 188.893 38.088V43H186.557ZM183.933 43.128C183.261 43.128 182.685 43.016 182.205 42.792C181.725 42.5573 181.357 42.2427 181.101 41.848C180.845 41.4533 180.717 41.0107 180.717 40.52C180.717 40.008 180.84 39.56 181.085 39.176C181.341 38.792 181.741 38.4933 182.285 38.28C182.829 38.056 183.538 37.944 184.413 37.944H186.701V39.4H184.685C184.098 39.4 183.693 39.496 183.469 39.688C183.256 39.88 183.149 40.12 183.149 40.408C183.149 40.728 183.272 40.984 183.517 41.176C183.773 41.3573 184.12 41.448 184.557 41.448C184.973 41.448 185.346 41.352 185.677 41.16C186.008 40.9573 186.248 40.664 186.397 40.28L186.781 41.432C186.6 41.9867 186.269 42.408 185.789 42.696C185.309 42.984 184.69 43.128 183.933 43.128ZM194.048 43.128C193.312 43.128 192.603 43.0427 191.92 42.872C191.248 42.6907 190.715 42.4667 190.32 42.2L191.152 40.408C191.547 40.6533 192.011 40.856 192.544 41.016C193.088 41.1653 193.621 41.24 194.144 41.24C194.72 41.24 195.125 41.1707 195.36 41.032C195.605 40.8933 195.728 40.7013 195.728 40.456C195.728 40.2533 195.632 40.104 195.44 40.008C195.259 39.9013 195.013 39.8213 194.704 39.768C194.395 39.7147 194.053 39.6613 193.68 39.608C193.317 39.5547 192.949 39.4853 192.576 39.4C192.203 39.304 191.861 39.1653 191.552 38.984C191.243 38.8027 190.992 38.5573 190.8 38.248C190.619 37.9387 190.528 37.5387 190.528 37.048C190.528 36.504 190.683 36.024 190.992 35.608C191.312 35.192 191.771 34.8667 192.368 34.632C192.965 34.3867 193.68 34.264 194.512 34.264C195.099 34.264 195.696 34.328 196.304 34.456C196.912 34.584 197.419 34.7707 197.824 35.016L196.992 36.792C196.576 36.5467 196.155 36.3813 195.728 36.296C195.312 36.2 194.907 36.152 194.512 36.152C193.957 36.152 193.552 36.2267 193.296 36.376C193.04 36.5253 192.912 36.7173 192.912 36.952C192.912 37.1653 193.003 37.3253 193.184 37.432C193.376 37.5387 193.627 37.624 193.936 37.688C194.245 37.752 194.581 37.8107 194.944 37.864C195.317 37.9067 195.691 37.976 196.064 38.072C196.437 38.168 196.773 38.3067 197.072 38.488C197.381 38.6587 197.632 38.8987 197.824 39.208C198.016 39.5067 198.112 39.9013 198.112 40.392C198.112 40.9253 197.952 41.4 197.632 41.816C197.312 42.2213 196.848 42.5413 196.24 42.776C195.643 43.0107 194.912 43.128 194.048 43.128ZM202.548 43.128C201.812 43.128 201.103 43.0427 200.42 42.872C199.748 42.6907 199.215 42.4667 198.82 42.2L199.652 40.408C200.047 40.6533 200.511 40.856 201.044 41.016C201.588 41.1653 202.121 41.24 202.644 41.24C203.22 41.24 203.625 41.1707 203.86 41.032C204.105 40.8933 204.228 40.7013 204.228 40.456C204.228 40.2533 204.132 40.104 203.94 40.008C203.759 39.9013 203.513 39.8213 203.204 39.768C202.895 39.7147 202.553 39.6613 202.18 39.608C201.817 39.5547 201.449 39.4853 201.076 39.4C200.703 39.304 200.361 39.1653 200.052 38.984C199.743 38.8027 199.492 38.5573 199.3 38.248C199.119 37.9387 199.028 37.5387 199.028 37.048C199.028 36.504 199.183 36.024 199.492 35.608C199.812 35.192 200.271 34.8667 200.868 34.632C201.465 34.3867 202.18 34.264 203.012 34.264C203.599 34.264 204.196 34.328 204.804 34.456C205.412 34.584 205.919 34.7707 206.324 35.016L205.492 36.792C205.076 36.5467 204.655 36.3813 204.228 36.296C203.812 36.2 203.407 36.152 203.012 36.152C202.457 36.152 202.052 36.2267 201.796 36.376C201.54 36.5253 201.412 36.7173 201.412 36.952C201.412 37.1653 201.503 37.3253 201.684 37.432C201.876 37.5387 202.127 37.624 202.436 37.688C202.745 37.752 203.081 37.8107 203.444 37.864C203.817 37.9067 204.191 37.976 204.564 38.072C204.937 38.168 205.273 38.3067 205.572 38.488C205.881 38.6587 206.132 38.8987 206.324 39.208C206.516 39.5067 206.612 39.9013 206.612 40.392C206.612 40.9253 206.452 41.4 206.132 41.816C205.812 42.2213 205.348 42.5413 204.74 42.776C204.143 43.0107 203.412 43.128 202.548 43.128ZM210.253 39.112C210.253 38.7387 210.312 38.408 210.429 38.12C210.557 37.832 210.712 37.576 210.893 37.352C211.085 37.128 211.288 36.92 211.501 36.728C211.715 36.536 211.912 36.3547 212.093 36.184C212.285 36.0027 212.44 35.816 212.557 35.624C212.685 35.432 212.749 35.2187 212.749 34.984C212.749 34.6 212.589 34.2907 212.269 34.056C211.96 33.8213 211.544 33.704 211.021 33.704C210.52 33.704 210.072 33.8107 209.677 34.024C209.283 34.2267 208.957 34.5147 208.701 34.888L206.765 33.752C207.192 33.1013 207.784 32.584 208.541 32.2C209.299 31.8053 210.216 31.608 211.293 31.608C212.093 31.608 212.797 31.7253 213.405 31.96C214.013 32.184 214.488 32.5147 214.829 32.952C215.181 33.3893 215.357 33.928 215.357 34.568C215.357 34.984 215.293 35.352 215.165 35.672C215.037 35.992 214.872 36.2693 214.669 36.504C214.467 36.7387 214.248 36.9573 214.013 37.16C213.789 37.3627 213.576 37.56 213.373 37.752C213.171 37.944 213 38.1467 212.861 38.36C212.733 38.5733 212.669 38.824 212.669 39.112H210.253ZM211.469 43.128C211.021 43.128 210.653 42.984 210.365 42.696C210.077 42.408 209.933 42.0667 209.933 41.672C209.933 41.2667 210.077 40.9307 210.365 40.664C210.653 40.3867 211.021 40.248 211.469 40.248C211.928 40.248 212.296 40.3867 212.573 40.664C212.861 40.9307 213.005 41.2667 213.005 41.672C213.005 42.0667 212.861 42.408 212.573 42.696C212.296 42.984 211.928 43.128 211.469 43.128Z" fill="#313131"/>
<circle cx="32" cy="157" r="8" fill="#BCBC5E"/>
<path d="M52.496 163V158.84L52.768 159.576L48.016 151.8H49.28L53.456 158.632H52.784L56.96 151.8H58.144L53.392 159.576L53.664 158.84V163H52.496ZM62.3551 163.08C61.4805 163.08 60.7125 162.899 60.0511 162.536C59.3898 162.163 58.8725 161.656 58.4991 161.016C58.1258 160.365 57.9391 159.624 57.9391 158.792C57.9391 157.96 58.1151 157.224 58.4671 156.584C58.8298 155.944 59.3205 155.443 59.9391 155.08C60.5685 154.707 61.2725 154.52 62.0511 154.52C62.8405 154.52 63.5391 154.701 64.1471 155.064C64.7658 155.416 65.2511 155.917 65.6031 156.568C65.9551 157.208 66.1311 157.949 66.1311 158.792C66.1311 158.845 66.1258 158.904 66.1151 158.968C66.1151 159.021 66.1151 159.08 66.1151 159.144H58.8031V158.296H65.5071L65.0591 158.632C65.0591 158.024 64.9258 157.485 64.6591 157.016C64.4031 156.536 64.0511 156.163 63.6031 155.896C63.1551 155.629 62.6378 155.496 62.0511 155.496C61.4751 155.496 60.9578 155.629 60.4991 155.896C60.0405 156.163 59.6831 156.536 59.4271 157.016C59.1711 157.496 59.0431 158.045 59.0431 158.664V158.84C59.0431 159.48 59.1818 160.045 59.4591 160.536C59.7471 161.016 60.1418 161.395 60.6431 161.672C61.1551 161.939 61.7365 162.072 62.3871 162.072C62.8991 162.072 63.3738 161.981 63.8111 161.8C64.2591 161.619 64.6431 161.341 64.9631 160.968L65.6031 161.704C65.2298 162.152 64.7605 162.493 64.1951 162.728C63.6405 162.963 63.0271 163.08 62.3551 163.08ZM70.6994 163.08C70.006 163.08 69.35 162.984 68.7314 162.792C68.1127 162.589 67.6274 162.339 67.2754 162.04L67.7874 161.144C68.1287 161.4 68.566 161.624 69.0994 161.816C69.6327 161.997 70.1927 162.088 70.7794 162.088C71.5794 162.088 72.1554 161.965 72.5074 161.72C72.8594 161.464 73.0354 161.128 73.0354 160.712C73.0354 160.403 72.934 160.163 72.7314 159.992C72.5394 159.811 72.2834 159.677 71.9634 159.592C71.6434 159.496 71.286 159.416 70.8914 159.352C70.4967 159.288 70.102 159.213 69.7074 159.128C69.3234 159.043 68.9714 158.92 68.6514 158.76C68.3314 158.589 68.07 158.36 67.8674 158.072C67.6754 157.784 67.5794 157.4 67.5794 156.92C67.5794 156.461 67.7074 156.051 67.9634 155.688C68.2194 155.325 68.5927 155.043 69.0834 154.84C69.5847 154.627 70.1927 154.52 70.9074 154.52C71.4514 154.52 71.9954 154.595 72.5394 154.744C73.0834 154.883 73.5314 155.069 73.8834 155.304L73.3874 156.216C73.014 155.96 72.614 155.779 72.1874 155.672C71.7607 155.555 71.334 155.496 70.9074 155.496C70.15 155.496 69.59 155.629 69.2274 155.896C68.8754 156.152 68.6994 156.483 68.6994 156.888C68.6994 157.208 68.7954 157.459 68.9874 157.64C69.19 157.821 69.4514 157.965 69.7714 158.072C70.102 158.168 70.4594 158.248 70.8434 158.312C71.238 158.376 71.6274 158.456 72.0114 158.552C72.406 158.637 72.7634 158.76 73.0834 158.92C73.414 159.069 73.6754 159.288 73.8674 159.576C74.07 159.853 74.1714 160.221 74.1714 160.68C74.1714 161.171 74.0327 161.597 73.7554 161.96C73.4887 162.312 73.094 162.589 72.5714 162.792C72.0594 162.984 71.4354 163.08 70.6994 163.08Z" fill="#313131"/>
<circle cx="32" cy="213" r="8" fill="#3D10D2"/>
<path d="M49.824 219V207.8H50.8L58.528 217.528H58.016V207.8H59.184V219H58.208L50.496 209.272H51.008V219H49.824ZM66.0236 219.08C65.213 219.08 64.4823 218.899 63.8316 218.536C63.1916 218.163 62.685 217.656 62.3116 217.016C61.9383 216.365 61.7516 215.624 61.7516 214.792C61.7516 213.949 61.9383 213.208 62.3116 212.568C62.685 211.928 63.1916 211.427 63.8316 211.064C64.4716 210.701 65.2023 210.52 66.0236 210.52C66.8556 210.52 67.5916 210.701 68.2316 211.064C68.8823 211.427 69.389 211.928 69.7516 212.568C70.125 213.208 70.3116 213.949 70.3116 214.792C70.3116 215.624 70.125 216.365 69.7516 217.016C69.389 217.656 68.8823 218.163 68.2316 218.536C67.581 218.899 66.845 219.08 66.0236 219.08ZM66.0236 218.072C66.6316 218.072 67.1703 217.939 67.6396 217.672C68.109 217.395 68.477 217.011 68.7436 216.52C69.021 216.019 69.1596 215.443 69.1596 214.792C69.1596 214.131 69.021 213.555 68.7436 213.064C68.477 212.573 68.109 212.195 67.6396 211.928C67.1703 211.651 66.637 211.512 66.0396 211.512C65.4423 211.512 64.909 211.651 64.4396 211.928C63.9703 212.195 63.597 212.573 63.3196 213.064C63.0423 213.555 62.9036 214.131 62.9036 214.792C62.9036 215.443 63.0423 216.019 63.3196 216.52C63.597 217.011 63.9703 217.395 64.4396 217.672C64.909 217.939 65.437 218.072 66.0236 218.072Z" fill="#313131"/>
<g clip-path="url(#clip0_3084_52679)">
<path d="M172.003 248.974C159.863 233.414 152.401 214.722 150.488 195.079C148.576 175.437 152.291 155.656 161.201 138.047L198.32 156.828C192.974 167.394 190.745 179.262 191.893 191.048C193.04 202.833 197.517 214.049 204.801 223.384L172.003 248.974Z" fill="#BCBC5E"/>
<path d="M161.366 137.723C171.604 117.663 188.077 101.469 208.308 91.5747C228.539 81.6803 251.435 78.6205 273.555 82.8554C295.674 87.0902 315.821 98.3908 330.967 115.058C346.113 131.726 355.439 152.859 357.544 175.282C359.648 197.705 354.417 220.204 342.637 239.399C330.857 258.594 313.165 273.446 292.22 281.722C271.274 289.999 248.209 291.253 226.49 285.296C204.771 279.339 185.572 266.492 171.781 248.688L204.668 223.213C212.943 233.896 224.462 241.603 237.493 245.178C250.525 248.752 264.364 248 276.931 243.034C289.498 238.067 300.114 229.156 307.182 217.64C314.25 206.123 317.389 192.623 316.126 179.169C314.863 165.716 309.267 153.036 300.18 143.035C291.092 133.035 279.004 126.254 265.732 123.713C252.461 121.172 238.723 123.008 226.584 128.945C214.445 134.882 204.562 144.598 198.419 156.634L161.366 137.723Z" fill="#3D10D2"/>
</g>
<path d="M158.736 198.014V197.194L162.173 193.879C162.478 193.589 162.703 193.336 162.848 193.119C163.001 192.894 163.101 192.689 163.149 192.504C163.206 192.311 163.234 192.126 163.234 191.949C163.234 191.515 163.081 191.174 162.776 190.924C162.47 190.675 162.024 190.551 161.437 190.551C160.987 190.551 160.581 190.627 160.219 190.78C159.858 190.924 159.544 191.153 159.279 191.467L158.459 190.756C158.78 190.346 159.21 190.032 159.749 189.815C160.296 189.59 160.895 189.477 161.546 189.477C162.133 189.477 162.643 189.574 163.077 189.767C163.511 189.952 163.845 190.221 164.078 190.575C164.319 190.928 164.44 191.346 164.44 191.829C164.44 192.102 164.403 192.371 164.331 192.637C164.259 192.902 164.122 193.183 163.921 193.481C163.72 193.778 163.431 194.112 163.053 194.481L159.99 197.436L159.701 196.965H164.801V198.014H158.736ZM169.23 198.111C168.57 198.111 167.98 197.942 167.457 197.604C166.943 197.267 166.533 196.776 166.227 196.133C165.93 195.49 165.781 194.711 165.781 193.794C165.781 192.878 165.93 192.098 166.227 191.455C166.533 190.812 166.943 190.321 167.457 189.984C167.98 189.646 168.57 189.477 169.23 189.477C169.881 189.477 170.467 189.646 170.99 189.984C171.513 190.321 171.922 190.812 172.22 191.455C172.517 192.098 172.666 192.878 172.666 193.794C172.666 194.711 172.517 195.49 172.22 196.133C171.922 196.776 171.513 197.267 170.99 197.604C170.467 197.942 169.881 198.111 169.23 198.111ZM169.23 197.038C169.672 197.038 170.058 196.917 170.387 196.676C170.725 196.435 170.986 196.073 171.171 195.591C171.364 195.108 171.46 194.51 171.46 193.794C171.46 193.079 171.364 192.48 171.171 191.997C170.986 191.515 170.725 191.153 170.387 190.912C170.058 190.671 169.672 190.551 169.23 190.551C168.787 190.551 168.398 190.671 168.06 190.912C167.722 191.153 167.457 191.515 167.264 191.997C167.079 192.48 166.987 193.079 166.987 193.794C166.987 194.51 167.079 195.108 167.264 195.591C167.457 196.073 167.722 196.435 168.06 196.676C168.398 196.917 168.787 197.038 169.23 197.038ZM174.981 198.014L180.745 189.574H181.673L175.91 198.014H174.981ZM175.656 194.108C175.27 194.108 174.929 194.011 174.631 193.818C174.334 193.625 174.101 193.356 173.932 193.01C173.771 192.665 173.691 192.263 173.691 191.805C173.691 191.346 173.771 190.944 173.932 190.599C174.101 190.253 174.334 189.984 174.631 189.791C174.929 189.598 175.27 189.501 175.656 189.501C176.05 189.501 176.392 189.598 176.681 189.791C176.979 189.984 177.208 190.253 177.369 190.599C177.529 190.944 177.61 191.346 177.61 191.805C177.61 192.263 177.529 192.665 177.369 193.01C177.208 193.356 176.979 193.625 176.681 193.818C176.392 194.011 176.05 194.108 175.656 194.108ZM175.656 193.42C176.026 193.42 176.316 193.28 176.525 192.998C176.734 192.709 176.838 192.311 176.838 191.805C176.838 191.298 176.734 190.904 176.525 190.623C176.316 190.333 176.026 190.189 175.656 190.189C175.295 190.189 175.005 190.333 174.788 190.623C174.579 190.904 174.475 191.298 174.475 191.805C174.475 192.303 174.579 192.697 174.788 192.986C175.005 193.276 175.295 193.42 175.656 193.42ZM180.998 198.087C180.612 198.087 180.271 197.99 179.973 197.797C179.676 197.604 179.447 197.335 179.286 196.989C179.125 196.644 179.045 196.242 179.045 195.784C179.045 195.325 179.125 194.924 179.286 194.578C179.447 194.232 179.676 193.963 179.973 193.77C180.271 193.577 180.612 193.481 180.998 193.481C181.392 193.481 181.734 193.577 182.023 193.77C182.32 193.963 182.549 194.232 182.71 194.578C182.879 194.924 182.963 195.325 182.963 195.784C182.963 196.242 182.879 196.644 182.71 196.989C182.549 197.335 182.32 197.604 182.023 197.797C181.734 197.99 181.392 198.087 180.998 198.087ZM180.998 197.399C181.36 197.399 181.645 197.259 181.854 196.977C182.071 196.688 182.18 196.29 182.18 195.784C182.18 195.285 182.071 194.891 181.854 194.602C181.645 194.313 181.36 194.168 180.998 194.168C180.636 194.168 180.347 194.313 180.13 194.602C179.921 194.883 179.816 195.277 179.816 195.784C179.816 196.29 179.921 196.688 180.13 196.977C180.347 197.259 180.636 197.399 180.998 197.399Z" fill="#313131"/>
<path d="M327.204 196.604C326.521 196.604 325.93 196.503 325.432 196.302C324.933 196.101 324.547 195.816 324.274 195.446C324.001 195.068 323.864 194.626 323.864 194.12C323.864 193.621 323.993 193.199 324.25 192.854C324.515 192.5 324.897 192.235 325.395 192.058C325.894 191.873 326.497 191.781 327.204 191.781C327.912 191.781 328.514 191.873 329.013 192.058C329.519 192.235 329.905 192.5 330.17 192.854C330.436 193.207 330.568 193.629 330.568 194.12C330.568 194.626 330.432 195.068 330.158 195.446C329.885 195.816 329.495 196.101 328.989 196.302C328.482 196.503 327.887 196.604 327.204 196.604ZM327.204 195.627C327.879 195.627 328.406 195.49 328.784 195.217C329.17 194.936 329.362 194.558 329.362 194.084C329.362 193.617 329.17 193.252 328.784 192.986C328.406 192.713 327.879 192.576 327.204 192.576C326.537 192.576 326.014 192.713 325.637 192.986C325.259 193.252 325.07 193.617 325.07 194.084C325.07 194.558 325.259 194.936 325.637 195.217C326.014 195.49 326.537 195.627 327.204 195.627ZM327.204 192.432C326.561 192.432 326.014 192.347 325.564 192.179C325.114 192.002 324.768 191.752 324.527 191.431C324.286 191.101 324.165 190.711 324.165 190.261C324.165 189.787 324.29 189.381 324.539 189.043C324.797 188.698 325.154 188.433 325.612 188.248C326.071 188.063 326.601 187.97 327.204 187.97C327.815 187.97 328.35 188.063 328.808 188.248C329.266 188.433 329.624 188.698 329.881 189.043C330.138 189.381 330.267 189.787 330.267 190.261C330.267 190.711 330.146 191.101 329.905 191.431C329.664 191.752 329.314 192.002 328.856 192.179C328.398 192.347 327.847 192.432 327.204 192.432ZM327.204 191.66C327.791 191.66 328.249 191.539 328.579 191.298C328.916 191.057 329.085 190.728 329.085 190.31C329.085 189.883 328.912 189.55 328.567 189.309C328.221 189.068 327.767 188.947 327.204 188.947C326.641 188.947 326.191 189.068 325.854 189.309C325.524 189.55 325.359 189.883 325.359 190.31C325.359 190.728 325.52 191.057 325.842 191.298C326.171 191.539 326.625 191.66 327.204 191.66ZM335.121 196.604C334.462 196.604 333.871 196.435 333.348 196.097C332.834 195.76 332.424 195.269 332.118 194.626C331.821 193.983 331.672 193.203 331.672 192.287C331.672 191.371 331.821 190.591 332.118 189.948C332.424 189.305 332.834 188.814 333.348 188.477C333.871 188.139 334.462 187.97 335.121 187.97C335.772 187.97 336.359 188.139 336.881 188.477C337.404 188.814 337.814 189.305 338.111 189.948C338.409 190.591 338.557 191.371 338.557 192.287C338.557 193.203 338.409 193.983 338.111 194.626C337.814 195.269 337.404 195.76 336.881 196.097C336.359 196.435 335.772 196.604 335.121 196.604ZM335.121 195.531C335.563 195.531 335.949 195.41 336.278 195.169C336.616 194.928 336.877 194.566 337.062 194.084C337.255 193.601 337.352 193.002 337.352 192.287C337.352 191.572 337.255 190.973 337.062 190.49C336.877 190.008 336.616 189.646 336.278 189.405C335.949 189.164 335.563 189.043 335.121 189.043C334.679 189.043 334.289 189.164 333.951 189.405C333.614 189.646 333.348 190.008 333.155 190.49C332.97 190.973 332.878 191.572 332.878 192.287C332.878 193.002 332.97 193.601 333.155 194.084C333.348 194.566 333.614 194.928 333.951 195.169C334.289 195.41 334.679 195.531 335.121 195.531ZM340.872 196.507L346.636 188.067H347.565L341.801 196.507H340.872ZM341.548 192.601C341.162 192.601 340.82 192.504 340.523 192.311C340.225 192.118 339.992 191.849 339.823 191.503C339.663 191.158 339.582 190.756 339.582 190.297C339.582 189.839 339.663 189.437 339.823 189.092C339.992 188.746 340.225 188.477 340.523 188.284C340.82 188.091 341.162 187.994 341.548 187.994C341.942 187.994 342.283 188.091 342.573 188.284C342.87 188.477 343.099 188.746 343.26 189.092C343.421 189.437 343.501 189.839 343.501 190.297C343.501 190.756 343.421 191.158 343.26 191.503C343.099 191.849 342.87 192.118 342.573 192.311C342.283 192.504 341.942 192.601 341.548 192.601ZM341.548 191.913C341.917 191.913 342.207 191.773 342.416 191.491C342.625 191.202 342.729 190.804 342.729 190.297C342.729 189.791 342.625 189.397 342.416 189.116C342.207 188.826 341.917 188.682 341.548 188.682C341.186 188.682 340.896 188.826 340.679 189.116C340.47 189.397 340.366 189.791 340.366 190.297C340.366 190.796 340.47 191.19 340.679 191.479C340.896 191.769 341.186 191.913 341.548 191.913ZM346.889 196.58C346.503 196.58 346.162 196.483 345.864 196.29C345.567 196.097 345.338 195.828 345.177 195.482C345.016 195.137 344.936 194.735 344.936 194.277C344.936 193.818 345.016 193.416 345.177 193.071C345.338 192.725 345.567 192.456 345.864 192.263C346.162 192.07 346.503 191.974 346.889 191.974C347.283 191.974 347.625 192.07 347.914 192.263C348.212 192.456 348.441 192.725 348.602 193.071C348.77 193.416 348.855 193.818 348.855 194.277C348.855 194.735 348.77 195.137 348.602 195.482C348.441 195.828 348.212 196.097 347.914 196.29C347.625 196.483 347.283 196.58 346.889 196.58ZM346.889 195.892C347.251 195.892 347.536 195.752 347.745 195.47C347.962 195.181 348.071 194.783 348.071 194.277C348.071 193.778 347.962 193.384 347.745 193.095C347.536 192.806 347.251 192.661 346.889 192.661C346.528 192.661 346.238 192.806 346.021 193.095C345.812 193.376 345.708 193.77 345.708 194.277C345.708 194.783 345.812 195.181 346.021 195.47C346.238 195.752 346.528 195.892 346.889 195.892Z" fill="white"/>
<defs>
<clipPath id="clip0_3084_52679">
<rect width="208" height="208" fill="white" transform="translate(150 81)"/>
</clipPath>
</defs>
</svg>
