<svg width="600" height="386" viewBox="0 0 600 386" fill="none" xmlns="http://www.w3.org/2000/svg">
<g clip-path="url(#clip0_3084_52772)">
<rect width="600" height="386" rx="16" fill="#F5F5E5"/>
<path d="M28.016 43L24.352 31.8H27.04L30.224 41.72H28.88L32.208 31.8H34.608L37.808 41.72H36.512L39.776 31.8H42.256L38.592 43H35.808L32.976 34.296H33.712L30.8 43H28.016ZM48.9934 34.264C49.676 34.264 50.284 34.4027 50.8174 34.68C51.3614 34.9467 51.788 35.3627 52.0974 35.928C52.4067 36.4827 52.5614 37.1973 52.5614 38.072V43H50.0654V38.456C50.0654 37.7627 49.9107 37.2507 49.6014 36.92C49.3027 36.5893 48.876 36.424 48.3214 36.424C47.9267 36.424 47.5694 36.5093 47.2494 36.68C46.94 36.84 46.6947 37.0907 46.5134 37.432C46.3427 37.7733 46.2574 38.2107 46.2574 38.744V43H43.7614V31.128H46.2574V36.776L45.6974 36.056C46.0067 35.48 46.4494 35.0373 47.0254 34.728C47.6014 34.4187 48.2574 34.264 48.9934 34.264ZM60.1039 43V41.32L59.9439 40.952V37.944C59.9439 37.4107 59.7785 36.9947 59.4479 36.696C59.1279 36.3973 58.6319 36.248 57.9599 36.248C57.5012 36.248 57.0479 36.3227 56.5999 36.472C56.1625 36.6107 55.7892 36.8027 55.4799 37.048L54.5839 35.304C55.0532 34.9733 55.6185 34.7173 56.2799 34.536C56.9412 34.3547 57.6132 34.264 58.2959 34.264C59.6079 34.264 60.6265 34.5733 61.3519 35.192C62.0772 35.8107 62.4399 36.776 62.4399 38.088V43H60.1039ZM57.4799 43.128C56.8079 43.128 56.2319 43.016 55.7519 42.792C55.2719 42.5573 54.9039 42.2427 54.6479 41.848C54.3919 41.4533 54.2639 41.0107 54.2639 40.52C54.2639 40.008 54.3865 39.56 54.6319 39.176C54.8879 38.792 55.2879 38.4933 55.8319 38.28C56.3759 38.056 57.0852 37.944 57.9599 37.944H60.2479V39.4H58.2319C57.6452 39.4 57.2399 39.496 57.0159 39.688C56.8025 39.88 56.6959 40.12 56.6959 40.408C56.6959 40.728 56.8185 40.984 57.0639 41.176C57.3199 41.3573 57.6665 41.448 58.1039 41.448C58.5199 41.448 58.8932 41.352 59.2239 41.16C59.5545 40.9573 59.7945 40.664 59.9439 40.28L60.3279 41.432C60.1465 41.9867 59.8159 42.408 59.3359 42.696C58.8559 42.984 58.2372 43.128 57.4799 43.128ZM68.2189 43.128C67.2055 43.128 66.4162 42.872 65.8509 42.36C65.2855 41.8373 65.0029 41.064 65.0029 40.04V32.488H67.4989V40.008C67.4989 40.3707 67.5949 40.6533 67.7869 40.856C67.9789 41.048 68.2402 41.144 68.5709 41.144C68.9655 41.144 69.3015 41.0373 69.5789 40.824L70.2509 42.584C69.9949 42.7653 69.6855 42.904 69.3229 43C68.9709 43.0853 68.6029 43.128 68.2189 43.128ZM63.6749 36.504V34.584H69.6429V36.504H63.6749ZM77.2713 46.232C76.8233 46.232 76.3806 46.1627 75.9433 46.024C75.5059 45.8853 75.1486 45.6933 74.8712 45.448L75.7833 43.672C75.9753 43.8427 76.1939 43.976 76.4393 44.072C76.6953 44.168 76.9459 44.216 77.1913 44.216C77.5433 44.216 77.8206 44.1307 78.0233 43.96C78.2366 43.8 78.4286 43.528 78.5993 43.144L79.0473 42.088L79.2393 41.816L82.3273 34.392H84.7273L80.8393 43.528C80.5619 44.2213 80.2419 44.7653 79.8793 45.16C79.5273 45.5547 79.1326 45.832 78.6953 45.992C78.2686 46.152 77.7939 46.232 77.2713 46.232ZM78.7433 43.336L74.9032 34.392H77.4793L80.4553 41.592L78.7433 43.336ZM89.6074 43.128C88.69 43.128 87.874 42.936 87.1594 42.552C86.4554 42.168 85.8954 41.6453 85.4794 40.984C85.074 40.312 84.8714 39.5493 84.8714 38.696C84.8714 37.832 85.074 37.0693 85.4794 36.408C85.8954 35.736 86.4554 35.2133 87.1594 34.84C87.874 34.456 88.69 34.264 89.6074 34.264C90.514 34.264 91.3247 34.456 92.0394 34.84C92.754 35.2133 93.314 35.7307 93.7194 36.392C94.1247 37.0533 94.3274 37.8213 94.3274 38.696C94.3274 39.5493 94.1247 40.312 93.7194 40.984C93.314 41.6453 92.754 42.168 92.0394 42.552C91.3247 42.936 90.514 43.128 89.6074 43.128ZM89.6074 41.08C90.0234 41.08 90.3967 40.984 90.7274 40.792C91.058 40.6 91.3194 40.328 91.5114 39.976C91.7034 39.6133 91.7994 39.1867 91.7994 38.696C91.7994 38.1947 91.7034 37.768 91.5114 37.416C91.3194 37.064 91.058 36.792 90.7274 36.6C90.3967 36.408 90.0234 36.312 89.6074 36.312C89.1914 36.312 88.818 36.408 88.4874 36.6C88.1567 36.792 87.89 37.064 87.6874 37.416C87.4954 37.768 87.3994 38.1947 87.3994 38.696C87.3994 39.1867 87.4954 39.6133 87.6874 39.976C87.89 40.328 88.1567 40.6 88.4874 40.792C88.818 40.984 89.1914 41.08 89.6074 41.08ZM99.6278 43.128C98.9131 43.128 98.2731 42.9893 97.7078 42.712C97.1531 42.4347 96.7211 42.0133 96.4118 41.448C96.1024 40.872 95.9478 40.1413 95.9478 39.256V34.392H98.4438V38.888C98.4438 39.6027 98.5931 40.1307 98.8918 40.472C99.2011 40.8027 99.6331 40.968 100.188 40.968C100.572 40.968 100.913 40.888 101.212 40.728C101.51 40.5573 101.745 40.3013 101.916 39.96C102.086 39.608 102.172 39.1707 102.172 38.648V34.392H104.668V43H102.3V40.632L102.732 41.32C102.444 41.9173 102.017 42.3707 101.452 42.68C100.897 42.9787 100.289 43.128 99.6278 43.128ZM115.207 43.128C114.397 43.128 113.666 42.9467 113.015 42.584C112.365 42.2107 111.847 41.6933 111.463 41.032C111.09 40.3707 110.903 39.592 110.903 38.696C110.903 37.7893 111.09 37.0053 111.463 36.344C111.847 35.6827 112.365 35.1707 113.015 34.808C113.666 34.4453 114.397 34.264 115.207 34.264C115.933 34.264 116.567 34.424 117.111 34.744C117.655 35.064 118.077 35.5493 118.375 36.2C118.674 36.8507 118.823 37.6827 118.823 38.696C118.823 39.6987 118.679 40.5307 118.391 41.192C118.103 41.8427 117.687 42.328 117.143 42.648C116.61 42.968 115.965 43.128 115.207 43.128ZM115.639 41.08C116.045 41.08 116.413 40.984 116.743 40.792C117.074 40.6 117.335 40.328 117.527 39.976C117.73 39.6133 117.831 39.1867 117.831 38.696C117.831 38.1947 117.73 37.768 117.527 37.416C117.335 37.064 117.074 36.792 116.743 36.6C116.413 36.408 116.045 36.312 115.639 36.312C115.223 36.312 114.85 36.408 114.519 36.6C114.189 36.792 113.922 37.064 113.719 37.416C113.527 37.768 113.431 38.1947 113.431 38.696C113.431 39.1867 113.527 39.6133 113.719 39.976C113.922 40.328 114.189 40.6 114.519 40.792C114.85 40.984 115.223 41.08 115.639 41.08ZM117.895 43V41.24L117.943 38.68L117.783 36.136V31.128H120.279V43H117.895ZM122.59 43V34.392H125.086V43H122.59ZM123.838 33.192C123.379 33.192 123.006 33.0587 122.718 32.792C122.43 32.5253 122.286 32.1947 122.286 31.8C122.286 31.4053 122.43 31.0747 122.718 30.808C123.006 30.5413 123.379 30.408 123.838 30.408C124.296 30.408 124.67 30.536 124.958 30.792C125.246 31.0373 125.39 31.3573 125.39 31.752C125.39 32.168 125.246 32.5147 124.958 32.792C124.68 33.0587 124.307 33.192 123.838 33.192ZM131.098 43.128C130.287 43.128 129.557 42.9467 128.906 42.584C128.255 42.2107 127.738 41.6933 127.354 41.032C126.981 40.3707 126.794 39.592 126.794 38.696C126.794 37.7893 126.981 37.0053 127.354 36.344C127.738 35.6827 128.255 35.1707 128.906 34.808C129.557 34.4453 130.287 34.264 131.098 34.264C131.823 34.264 132.458 34.424 133.002 34.744C133.546 35.064 133.967 35.5493 134.266 36.2C134.565 36.8507 134.714 37.6827 134.714 38.696C134.714 39.6987 134.57 40.5307 134.282 41.192C133.994 41.8427 133.578 42.328 133.034 42.648C132.501 42.968 131.855 43.128 131.098 43.128ZM131.53 41.08C131.935 41.08 132.303 40.984 132.634 40.792C132.965 40.6 133.226 40.328 133.418 39.976C133.621 39.6133 133.722 39.1867 133.722 38.696C133.722 38.1947 133.621 37.768 133.418 37.416C133.226 37.064 132.965 36.792 132.634 36.6C132.303 36.408 131.935 36.312 131.53 36.312C131.114 36.312 130.741 36.408 130.41 36.6C130.079 36.792 129.813 37.064 129.61 37.416C129.418 37.768 129.322 38.1947 129.322 38.696C129.322 39.1867 129.418 39.6133 129.61 39.976C129.813 40.328 130.079 40.6 130.41 40.792C130.741 40.984 131.114 41.08 131.53 41.08ZM133.786 43V41.24L133.834 38.68L133.674 36.136V31.128H136.17V43H133.786ZM147.107 43.128C146.19 43.128 145.374 42.936 144.659 42.552C143.955 42.168 143.395 41.6453 142.979 40.984C142.574 40.312 142.371 39.5493 142.371 38.696C142.371 37.832 142.574 37.0693 142.979 36.408C143.395 35.736 143.955 35.2133 144.659 34.84C145.374 34.456 146.19 34.264 147.107 34.264C148.014 34.264 148.825 34.456 149.539 34.84C150.254 35.2133 150.814 35.7307 151.219 36.392C151.625 37.0533 151.827 37.8213 151.827 38.696C151.827 39.5493 151.625 40.312 151.219 40.984C150.814 41.6453 150.254 42.168 149.539 42.552C148.825 42.936 148.014 43.128 147.107 43.128ZM147.107 41.08C147.523 41.08 147.897 40.984 148.227 40.792C148.558 40.6 148.819 40.328 149.011 39.976C149.203 39.6133 149.299 39.1867 149.299 38.696C149.299 38.1947 149.203 37.768 149.011 37.416C148.819 37.064 148.558 36.792 148.227 36.6C147.897 36.408 147.523 36.312 147.107 36.312C146.691 36.312 146.318 36.408 145.987 36.6C145.657 36.792 145.39 37.064 145.187 37.416C144.995 37.768 144.899 38.1947 144.899 38.696C144.899 39.1867 144.995 39.6133 145.187 39.976C145.39 40.328 145.657 40.6 145.987 40.792C146.318 40.984 146.691 41.08 147.107 41.08ZM158.728 34.264C159.41 34.264 160.018 34.4027 160.552 34.68C161.096 34.9467 161.522 35.3627 161.832 35.928C162.141 36.4827 162.296 37.1973 162.296 38.072V43H159.8V38.456C159.8 37.7627 159.645 37.2507 159.336 36.92C159.037 36.5893 158.61 36.424 158.056 36.424C157.661 36.424 157.304 36.5093 156.984 36.68C156.674 36.84 156.429 37.0907 156.248 37.432C156.077 37.7733 155.992 38.2107 155.992 38.744V43H153.496V34.392H155.88V36.776L155.432 36.056C155.741 35.48 156.184 35.0373 156.76 34.728C157.336 34.4187 157.992 34.264 158.728 34.264ZM172.049 43V38.424L172.641 39.992L167.713 31.8H170.466L174.242 38.088H172.658L176.45 31.8H178.994L174.066 39.992L174.642 38.424V43H172.049ZM183.045 43.128C182.128 43.128 181.312 42.936 180.597 42.552C179.893 42.168 179.333 41.6453 178.917 40.984C178.512 40.312 178.309 39.5493 178.309 38.696C178.309 37.832 178.512 37.0693 178.917 36.408C179.333 35.736 179.893 35.2133 180.597 34.84C181.312 34.456 182.128 34.264 183.045 34.264C183.952 34.264 184.762 34.456 185.477 34.84C186.192 35.2133 186.752 35.7307 187.157 36.392C187.562 37.0533 187.765 37.8213 187.765 38.696C187.765 39.5493 187.562 40.312 187.157 40.984C186.752 41.6453 186.192 42.168 185.477 42.552C184.762 42.936 183.952 43.128 183.045 43.128ZM183.045 41.08C183.461 41.08 183.834 40.984 184.165 40.792C184.496 40.6 184.757 40.328 184.949 39.976C185.141 39.6133 185.237 39.1867 185.237 38.696C185.237 38.1947 185.141 37.768 184.949 37.416C184.757 37.064 184.496 36.792 184.165 36.6C183.834 36.408 183.461 36.312 183.045 36.312C182.629 36.312 182.256 36.408 181.925 36.6C181.594 36.792 181.328 37.064 181.125 37.416C180.933 37.768 180.837 38.1947 180.837 38.696C180.837 39.1867 180.933 39.6133 181.125 39.976C181.328 40.328 181.594 40.6 181.925 40.792C182.256 40.984 182.629 41.08 183.045 41.08ZM191.167 43L188.063 34.392H190.415L192.991 41.8H191.871L194.559 34.392H196.671L199.279 41.8H198.159L200.815 34.392H203.023L199.903 43H197.487L195.199 36.648H195.935L193.567 43H191.167ZM203.435 43V41.496L208.523 35.48L208.955 36.312H203.547V34.392H210.971V35.896L205.883 41.912L205.435 41.08H211.115V43H203.435ZM217.995 43V41.32L217.835 40.952V37.944C217.835 37.4107 217.669 36.9947 217.339 36.696C217.019 36.3973 216.523 36.248 215.851 36.248C215.392 36.248 214.939 36.3227 214.491 36.472C214.053 36.6107 213.68 36.8027 213.371 37.048L212.475 35.304C212.944 34.9733 213.509 34.7173 214.171 34.536C214.832 34.3547 215.504 34.264 216.187 34.264C217.499 34.264 218.517 34.5733 219.243 35.192C219.968 35.8107 220.331 36.776 220.331 38.088V43H217.995ZM215.371 43.128C214.699 43.128 214.123 43.016 213.643 42.792C213.163 42.5573 212.795 42.2427 212.539 41.848C212.283 41.4533 212.155 41.0107 212.155 40.52C212.155 40.008 212.277 39.56 212.523 39.176C212.779 38.792 213.179 38.4933 213.723 38.28C214.267 38.056 214.976 37.944 215.851 37.944H218.139V39.4H216.123C215.536 39.4 215.131 39.496 214.907 39.688C214.693 39.88 214.587 40.12 214.587 40.408C214.587 40.728 214.709 40.984 214.955 41.176C215.211 41.3573 215.557 41.448 215.995 41.448C216.411 41.448 216.784 41.352 217.115 41.16C217.445 40.9573 217.685 40.664 217.835 40.28L218.219 41.432C218.037 41.9867 217.707 42.408 217.227 42.696C216.747 42.984 216.128 43.128 215.371 43.128ZM224.206 39.112C224.206 38.7387 224.265 38.408 224.382 38.12C224.51 37.832 224.665 37.576 224.846 37.352C225.038 37.128 225.241 36.92 225.454 36.728C225.668 36.536 225.865 36.3547 226.046 36.184C226.238 36.0027 226.393 35.816 226.51 35.624C226.638 35.432 226.702 35.2187 226.702 34.984C226.702 34.6 226.542 34.2907 226.222 34.056C225.913 33.8213 225.497 33.704 224.974 33.704C224.473 33.704 224.025 33.8107 223.63 34.024C223.236 34.2267 222.91 34.5147 222.654 34.888L220.718 33.752C221.145 33.1013 221.737 32.584 222.494 32.2C223.252 31.8053 224.169 31.608 225.246 31.608C226.046 31.608 226.75 31.7253 227.358 31.96C227.966 32.184 228.441 32.5147 228.782 32.952C229.134 33.3893 229.31 33.928 229.31 34.568C229.31 34.984 229.246 35.352 229.118 35.672C228.99 35.992 228.825 36.2693 228.622 36.504C228.42 36.7387 228.201 36.9573 227.966 37.16C227.742 37.3627 227.529 37.56 227.326 37.752C227.124 37.944 226.953 38.1467 226.814 38.36C226.686 38.5733 226.622 38.824 226.622 39.112H224.206ZM225.422 43.128C224.974 43.128 224.606 42.984 224.318 42.696C224.03 42.408 223.886 42.0667 223.886 41.672C223.886 41.2667 224.03 40.9307 224.318 40.664C224.606 40.3867 224.974 40.248 225.422 40.248C225.881 40.248 226.249 40.3867 226.526 40.664C226.814 40.9307 226.958 41.2667 226.958 41.672C226.958 42.0667 226.814 42.408 226.526 42.696C226.249 42.984 225.881 43.128 225.422 43.128Z" fill="#313131"/>
<path d="M29.2718 101V91.2H30.3078V101H29.2718ZM40.7025 93.58C41.2998 93.58 41.8225 93.6967 42.2705 93.93C42.7278 94.154 43.0825 94.4993 43.3345 94.966C43.5958 95.4327 43.7265 96.0207 43.7265 96.73V101H42.7325V96.828C42.7325 96.0533 42.5365 95.47 42.1445 95.078C41.7618 94.6767 41.2205 94.476 40.5205 94.476C39.9978 94.476 39.5405 94.5833 39.1485 94.798C38.7658 95.0033 38.4671 95.3067 38.2525 95.708C38.0471 96.1 37.9445 96.576 37.9445 97.136V101H36.9505V90.612H37.9445V95.666L37.7485 95.288C37.9818 94.756 38.3551 94.3407 38.8685 94.042C39.3818 93.734 39.9931 93.58 40.7025 93.58ZM51.0174 101V99.376L50.9754 99.11V96.394C50.9754 95.7687 50.7981 95.288 50.4434 94.952C50.0981 94.616 49.5801 94.448 48.8894 94.448C48.4134 94.448 47.9607 94.5273 47.5314 94.686C47.1021 94.8447 46.7381 95.0547 46.4394 95.316L45.9914 94.574C46.3647 94.2567 46.8127 94.014 47.3354 93.846C47.8581 93.6687 48.4087 93.58 48.9874 93.58C49.9394 93.58 50.6721 93.818 51.1854 94.294C51.7081 94.7607 51.9694 95.4747 51.9694 96.436V101H51.0174ZM48.4834 101.07C47.9327 101.07 47.4521 100.981 47.0414 100.804C46.6401 100.617 46.3321 100.365 46.1174 100.048C45.9027 99.7213 45.7954 99.348 45.7954 98.928C45.7954 98.5453 45.8841 98.2 46.0614 97.892C46.2481 97.5747 46.5467 97.3227 46.9574 97.136C47.3774 96.94 47.9374 96.842 48.6374 96.842H51.1714V97.584H48.6654C47.9561 97.584 47.4614 97.71 47.1814 97.962C46.9107 98.214 46.7754 98.5267 46.7754 98.9C46.7754 99.32 46.9387 99.656 47.2654 99.908C47.5921 100.16 48.0494 100.286 48.6374 100.286C49.1974 100.286 49.6781 100.16 50.0794 99.908C50.4901 99.6467 50.7887 99.2733 50.9754 98.788L51.1994 99.474C51.0127 99.9593 50.6861 100.347 50.2194 100.636C49.7621 100.925 49.1834 101.07 48.4834 101.07ZM56.4225 101L53.1605 93.65H54.1965L57.1925 100.468H56.7025L59.7405 93.65H60.7205L57.4445 101H56.4225ZM65.0373 101.07C64.272 101.07 63.6 100.911 63.0213 100.594C62.4426 100.267 61.99 99.824 61.6633 99.264C61.3366 98.6947 61.1733 98.046 61.1733 97.318C61.1733 96.59 61.3273 95.946 61.6353 95.386C61.9526 94.826 62.382 94.3873 62.9233 94.07C63.474 93.7433 64.09 93.58 64.7713 93.58C65.462 93.58 66.0733 93.7387 66.6053 94.056C67.1466 94.364 67.5713 94.8027 67.8793 95.372C68.1873 95.932 68.3413 96.5807 68.3413 97.318C68.3413 97.3647 68.3366 97.416 68.3273 97.472C68.3273 97.5187 68.3273 97.57 68.3273 97.626H61.9293V96.884H67.7953L67.4033 97.178C67.4033 96.646 67.2866 96.1747 67.0533 95.764C66.8293 95.344 66.5213 95.0173 66.1293 94.784C65.7373 94.5507 65.2846 94.434 64.7713 94.434C64.2673 94.434 63.8146 94.5507 63.4133 94.784C63.012 95.0173 62.6993 95.344 62.4753 95.764C62.2513 96.184 62.1393 96.6647 62.1393 97.206V97.36C62.1393 97.92 62.2606 98.4147 62.5033 98.844C62.7553 99.264 63.1006 99.5953 63.5393 99.838C63.9873 100.071 64.496 100.188 65.0653 100.188C65.5133 100.188 65.9286 100.109 66.3113 99.95C66.7033 99.7913 67.0393 99.5487 67.3193 99.222L67.8793 99.866C67.5526 100.258 67.142 100.557 66.6473 100.762C66.162 100.967 65.6253 101.07 65.0373 101.07ZM74.1165 93.58C74.7138 93.58 75.2365 93.6967 75.6845 93.93C76.1418 94.154 76.4965 94.4993 76.7485 94.966C77.0098 95.4327 77.1405 96.0207 77.1405 96.73V101H76.1465V96.828C76.1465 96.0533 75.9505 95.47 75.5585 95.078C75.1758 94.6767 74.6345 94.476 73.9345 94.476C73.4118 94.476 72.9545 94.5833 72.5625 94.798C72.1798 95.0033 71.8812 95.3067 71.6665 95.708C71.4612 96.1 71.3585 96.576 71.3585 97.136V101H70.3645V93.65H71.3165V95.666L71.1625 95.288C71.3958 94.756 71.7692 94.3407 72.2825 94.042C72.7958 93.734 73.4072 93.58 74.1165 93.58ZM79.4755 94.896L79.4055 91.2H80.2875L80.2175 94.896H79.4755ZM84.9795 101.07C84.2889 101.07 83.7569 100.883 83.3835 100.51C83.0102 100.137 82.8235 99.6093 82.8235 98.928V92.026H83.8175V98.872C83.8175 99.3013 83.9249 99.6327 84.1395 99.866C84.3635 100.099 84.6809 100.216 85.0915 100.216C85.5302 100.216 85.8942 100.09 86.1835 99.838L86.5335 100.552C86.3375 100.729 86.0995 100.86 85.8195 100.944C85.5489 101.028 85.2689 101.07 84.9795 101.07ZM81.5075 94.476V93.65H86.0575V94.476H81.5075ZM95.1291 101.07C94.3638 101.07 93.6918 100.911 93.1131 100.594C92.5344 100.267 92.0818 99.824 91.7551 99.264C91.4284 98.6947 91.2651 98.046 91.2651 97.318C91.2651 96.59 91.4191 95.946 91.7271 95.386C92.0444 94.826 92.4738 94.3873 93.0151 94.07C93.5658 93.7433 94.1818 93.58 94.8631 93.58C95.5538 93.58 96.1651 93.7387 96.6971 94.056C97.2384 94.364 97.6631 94.8027 97.9711 95.372C98.2791 95.932 98.4331 96.5807 98.4331 97.318C98.4331 97.3647 98.4284 97.416 98.4191 97.472C98.4191 97.5187 98.4191 97.57 98.4191 97.626H92.0211V96.884H97.8871L97.4951 97.178C97.4951 96.646 97.3784 96.1747 97.1451 95.764C96.9211 95.344 96.6131 95.0173 96.2211 94.784C95.8291 94.5507 95.3764 94.434 94.8631 94.434C94.3591 94.434 93.9064 94.5507 93.5051 94.784C93.1038 95.0173 92.7911 95.344 92.5671 95.764C92.3431 96.184 92.2311 96.6647 92.2311 97.206V97.36C92.2311 97.92 92.3524 98.4147 92.5951 98.844C92.8471 99.264 93.1924 99.5953 93.6311 99.838C94.0791 100.071 94.5878 100.188 95.1571 100.188C95.6051 100.188 96.0204 100.109 96.4031 99.95C96.7951 99.7913 97.1311 99.5487 97.4111 99.222L97.9711 99.866C97.6444 100.258 97.2338 100.557 96.7391 100.762C96.2538 100.967 95.7171 101.07 95.1291 101.07ZM102.21 101L98.9476 93.65H99.9836L102.98 100.468H102.49L105.528 93.65H106.508L103.232 101H102.21ZM110.824 101.07C110.059 101.07 109.387 100.911 108.808 100.594C108.23 100.267 107.777 99.824 107.45 99.264C107.124 98.6947 106.96 98.046 106.96 97.318C106.96 96.59 107.114 95.946 107.422 95.386C107.74 94.826 108.169 94.3873 108.71 94.07C109.261 93.7433 109.877 93.58 110.558 93.58C111.249 93.58 111.86 93.7387 112.392 94.056C112.934 94.364 113.358 94.8027 113.666 95.372C113.974 95.932 114.128 96.5807 114.128 97.318C114.128 97.3647 114.124 97.416 114.114 97.472C114.114 97.5187 114.114 97.57 114.114 97.626H107.716V96.884H113.582L113.19 97.178C113.19 96.646 113.074 96.1747 112.84 95.764C112.616 95.344 112.308 95.0173 111.916 94.784C111.524 94.5507 111.072 94.434 110.558 94.434C110.054 94.434 109.602 94.5507 109.2 94.784C108.799 95.0173 108.486 95.344 108.262 95.764C108.038 96.184 107.926 96.6647 107.926 97.206V97.36C107.926 97.92 108.048 98.4147 108.29 98.844C108.542 99.264 108.888 99.5953 109.326 99.838C109.774 100.071 110.283 100.188 110.852 100.188C111.3 100.188 111.716 100.109 112.098 99.95C112.49 99.7913 112.826 99.5487 113.106 99.222L113.666 99.866C113.34 100.258 112.929 100.557 112.434 100.762C111.949 100.967 111.412 101.07 110.824 101.07ZM119.904 93.58C120.501 93.58 121.024 93.6967 121.472 93.93C121.929 94.154 122.284 94.4993 122.536 94.966C122.797 95.4327 122.928 96.0207 122.928 96.73V101H121.934V96.828C121.934 96.0533 121.738 95.47 121.346 95.078C120.963 94.6767 120.422 94.476 119.722 94.476C119.199 94.476 118.742 94.5833 118.35 94.798C117.967 95.0033 117.668 95.3067 117.454 95.708C117.248 96.1 117.146 96.576 117.146 97.136V101H116.152V93.65H117.104V95.666L116.95 95.288C117.183 94.756 117.556 94.3407 118.07 94.042C118.583 93.734 119.194 93.58 119.904 93.58ZM133.883 101V99.376L133.841 99.11V96.394C133.841 95.7687 133.663 95.288 133.309 94.952C132.963 94.616 132.445 94.448 131.755 94.448C131.279 94.448 130.826 94.5273 130.397 94.686C129.967 94.8447 129.603 95.0547 129.305 95.316L128.857 94.574C129.23 94.2567 129.678 94.014 130.201 93.846C130.723 93.6687 131.274 93.58 131.853 93.58C132.805 93.58 133.537 93.818 134.051 94.294C134.573 94.7607 134.835 95.4747 134.835 96.436V101H133.883ZM131.349 101.07C130.798 101.07 130.317 100.981 129.907 100.804C129.505 100.617 129.197 100.365 128.983 100.048C128.768 99.7213 128.661 99.348 128.661 98.928C128.661 98.5453 128.749 98.2 128.927 97.892C129.113 97.5747 129.412 97.3227 129.823 97.136C130.243 96.94 130.803 96.842 131.503 96.842H134.037V97.584H131.531C130.821 97.584 130.327 97.71 130.047 97.962C129.776 98.214 129.641 98.5267 129.641 98.9C129.641 99.32 129.804 99.656 130.131 99.908C130.457 100.16 130.915 100.286 131.503 100.286C132.063 100.286 132.543 100.16 132.945 99.908C133.355 99.6467 133.654 99.2733 133.841 98.788L134.065 99.474C133.878 99.9593 133.551 100.347 133.085 100.636C132.627 100.925 132.049 101.07 131.349 101.07ZM140.586 101.07C139.858 101.07 139.205 100.911 138.626 100.594C138.057 100.267 137.609 99.824 137.282 99.264C136.956 98.6947 136.792 98.046 136.792 97.318C136.792 96.5807 136.956 95.932 137.282 95.372C137.609 94.812 138.057 94.3733 138.626 94.056C139.205 93.7387 139.858 93.58 140.586 93.58C141.212 93.58 141.776 93.7013 142.28 93.944C142.784 94.1867 143.181 94.5507 143.47 95.036L142.728 95.54C142.476 95.1667 142.164 94.8913 141.79 94.714C141.417 94.5367 141.011 94.448 140.572 94.448C140.05 94.448 139.578 94.5693 139.158 94.812C138.738 95.0453 138.407 95.3767 138.164 95.806C137.922 96.2353 137.8 96.7393 137.8 97.318C137.8 97.8967 137.922 98.4007 138.164 98.83C138.407 99.2593 138.738 99.5953 139.158 99.838C139.578 100.071 140.05 100.188 140.572 100.188C141.011 100.188 141.417 100.099 141.79 99.922C142.164 99.7447 142.476 99.474 142.728 99.11L143.47 99.614C143.181 100.09 142.784 100.454 142.28 100.706C141.776 100.949 141.212 101.07 140.586 101.07ZM148.352 101.07C147.624 101.07 146.971 100.911 146.392 100.594C145.823 100.267 145.375 99.824 145.048 99.264C144.721 98.6947 144.558 98.046 144.558 97.318C144.558 96.5807 144.721 95.932 145.048 95.372C145.375 94.812 145.823 94.3733 146.392 94.056C146.971 93.7387 147.624 93.58 148.352 93.58C148.977 93.58 149.542 93.7013 150.046 93.944C150.55 94.1867 150.947 94.5507 151.236 95.036L150.494 95.54C150.242 95.1667 149.929 94.8913 149.556 94.714C149.183 94.5367 148.777 94.448 148.338 94.448C147.815 94.448 147.344 94.5693 146.924 94.812C146.504 95.0453 146.173 95.3767 145.93 95.806C145.687 96.2353 145.566 96.7393 145.566 97.318C145.566 97.8967 145.687 98.4007 145.93 98.83C146.173 99.2593 146.504 99.5953 146.924 99.838C147.344 100.071 147.815 100.188 148.338 100.188C148.777 100.188 149.183 100.099 149.556 99.922C149.929 99.7447 150.242 99.474 150.494 99.11L151.236 99.614C150.947 100.09 150.55 100.454 150.046 100.706C149.542 100.949 148.977 101.07 148.352 101.07ZM156.188 101.07C155.422 101.07 154.75 100.911 154.172 100.594C153.593 100.267 153.14 99.824 152.814 99.264C152.487 98.6947 152.324 98.046 152.324 97.318C152.324 96.59 152.478 95.946 152.786 95.386C153.103 94.826 153.532 94.3873 154.074 94.07C154.624 93.7433 155.24 93.58 155.922 93.58C156.612 93.58 157.224 93.7387 157.756 94.056C158.297 94.364 158.722 94.8027 159.03 95.372C159.338 95.932 159.492 96.5807 159.492 97.318C159.492 97.3647 159.487 97.416 159.478 97.472C159.478 97.5187 159.478 97.57 159.478 97.626H153.08V96.884H158.946L158.554 97.178C158.554 96.646 158.437 96.1747 158.204 95.764C157.98 95.344 157.672 95.0173 157.28 94.784C156.888 94.5507 156.435 94.434 155.922 94.434C155.418 94.434 154.965 94.5507 154.564 94.784C154.162 95.0173 153.85 95.344 153.626 95.764C153.402 96.184 153.29 96.6647 153.29 97.206V97.36C153.29 97.92 153.411 98.4147 153.654 98.844C153.906 99.264 154.251 99.5953 154.69 99.838C155.138 100.071 155.646 100.188 156.216 100.188C156.664 100.188 157.079 100.109 157.462 99.95C157.854 99.7913 158.19 99.5487 158.47 99.222L159.03 99.866C158.703 100.258 158.292 100.557 157.798 100.762C157.312 100.967 156.776 101.07 156.188 101.07ZM163.489 101.07C162.882 101.07 162.308 100.986 161.767 100.818C161.226 100.641 160.801 100.421 160.493 100.16L160.941 99.376C161.24 99.6 161.622 99.796 162.089 99.964C162.556 100.123 163.046 100.202 163.559 100.202C164.259 100.202 164.763 100.095 165.071 99.88C165.379 99.656 165.533 99.362 165.533 98.998C165.533 98.7273 165.444 98.5173 165.267 98.368C165.099 98.2093 164.875 98.0927 164.595 98.018C164.315 97.934 164.002 97.864 163.657 97.808C163.312 97.752 162.966 97.6867 162.621 97.612C162.285 97.5373 161.977 97.43 161.697 97.29C161.417 97.1407 161.188 96.94 161.011 96.688C160.843 96.436 160.759 96.1 160.759 95.68C160.759 95.2787 160.871 94.9193 161.095 94.602C161.319 94.2847 161.646 94.0373 162.075 93.86C162.514 93.6733 163.046 93.58 163.671 93.58C164.147 93.58 164.623 93.6453 165.099 93.776C165.575 93.8973 165.967 94.0607 166.275 94.266L165.841 95.064C165.514 94.84 165.164 94.6813 164.791 94.588C164.418 94.4853 164.044 94.434 163.671 94.434C163.008 94.434 162.518 94.5507 162.201 94.784C161.893 95.008 161.739 95.2973 161.739 95.652C161.739 95.932 161.823 96.1513 161.991 96.31C162.168 96.4687 162.397 96.5947 162.677 96.688C162.966 96.772 163.279 96.842 163.615 96.898C163.96 96.954 164.301 97.024 164.637 97.108C164.982 97.1827 165.295 97.29 165.575 97.43C165.864 97.5607 166.093 97.752 166.261 98.004C166.438 98.2467 166.527 98.5687 166.527 98.97C166.527 99.3993 166.406 99.7727 166.163 100.09C165.93 100.398 165.584 100.641 165.127 100.818C164.679 100.986 164.133 101.07 163.489 101.07ZM170.325 101.07C169.718 101.07 169.144 100.986 168.603 100.818C168.062 100.641 167.637 100.421 167.329 100.16L167.777 99.376C168.076 99.6 168.458 99.796 168.925 99.964C169.392 100.123 169.882 100.202 170.395 100.202C171.095 100.202 171.599 100.095 171.907 99.88C172.215 99.656 172.369 99.362 172.369 98.998C172.369 98.7273 172.28 98.5173 172.103 98.368C171.935 98.2093 171.711 98.0927 171.431 98.018C171.151 97.934 170.838 97.864 170.493 97.808C170.148 97.752 169.802 97.6867 169.457 97.612C169.121 97.5373 168.813 97.43 168.533 97.29C168.253 97.1407 168.024 96.94 167.847 96.688C167.679 96.436 167.595 96.1 167.595 95.68C167.595 95.2787 167.707 94.9193 167.931 94.602C168.155 94.2847 168.482 94.0373 168.911 93.86C169.35 93.6733 169.882 93.58 170.507 93.58C170.983 93.58 171.459 93.6453 171.935 93.776C172.411 93.8973 172.803 94.0607 173.111 94.266L172.677 95.064C172.35 94.84 172 94.6813 171.627 94.588C171.254 94.4853 170.88 94.434 170.507 94.434C169.844 94.434 169.354 94.5507 169.037 94.784C168.729 95.008 168.575 95.2973 168.575 95.652C168.575 95.932 168.659 96.1513 168.827 96.31C169.004 96.4687 169.233 96.5947 169.513 96.688C169.802 96.772 170.115 96.842 170.451 96.898C170.796 96.954 171.137 97.024 171.473 97.108C171.818 97.1827 172.131 97.29 172.411 97.43C172.7 97.5607 172.929 97.752 173.097 98.004C173.274 98.2467 173.363 98.5687 173.363 98.97C173.363 99.3993 173.242 99.7727 172.999 100.09C172.766 100.398 172.42 100.641 171.963 100.818C171.515 100.986 170.969 101.07 170.325 101.07ZM178.309 101.07C177.543 101.07 176.871 100.911 176.293 100.594C175.714 100.267 175.261 99.824 174.935 99.264C174.608 98.6947 174.445 98.046 174.445 97.318C174.445 96.59 174.599 95.946 174.907 95.386C175.224 94.826 175.653 94.3873 176.195 94.07C176.745 93.7433 177.361 93.58 178.043 93.58C178.733 93.58 179.345 93.7387 179.877 94.056C180.418 94.364 180.843 94.8027 181.151 95.372C181.459 95.932 181.613 96.5807 181.613 97.318C181.613 97.3647 181.608 97.416 181.599 97.472C181.599 97.5187 181.599 97.57 181.599 97.626H175.201V96.884H181.067L180.675 97.178C180.675 96.646 180.558 96.1747 180.325 95.764C180.101 95.344 179.793 95.0173 179.401 94.784C179.009 94.5507 178.556 94.434 178.043 94.434C177.539 94.434 177.086 94.5507 176.685 94.784C176.283 95.0173 175.971 95.344 175.747 95.764C175.523 96.184 175.411 96.6647 175.411 97.206V97.36C175.411 97.92 175.532 98.4147 175.775 98.844C176.027 99.264 176.372 99.5953 176.811 99.838C177.259 100.071 177.767 100.188 178.337 100.188C178.785 100.188 179.2 100.109 179.583 99.95C179.975 99.7913 180.311 99.5487 180.591 99.222L181.151 99.866C180.824 100.258 180.413 100.557 179.919 100.762C179.433 100.967 178.897 101.07 178.309 101.07ZM186.562 101.07C185.862 101.07 185.232 100.911 184.672 100.594C184.121 100.277 183.687 99.838 183.37 99.278C183.053 98.7087 182.894 98.0553 182.894 97.318C182.894 96.5713 183.053 95.918 183.37 95.358C183.687 94.798 184.121 94.364 184.672 94.056C185.232 93.7387 185.862 93.58 186.562 93.58C187.206 93.58 187.78 93.7247 188.284 94.014C188.797 94.3033 189.203 94.728 189.502 95.288C189.81 95.8387 189.964 96.5153 189.964 97.318C189.964 98.1113 189.815 98.788 189.516 99.348C189.217 99.908 188.811 100.337 188.298 100.636C187.794 100.925 187.215 101.07 186.562 101.07ZM186.632 100.188C187.155 100.188 187.621 100.071 188.032 99.838C188.452 99.5953 188.779 99.2593 189.012 98.83C189.255 98.3913 189.376 97.8873 189.376 97.318C189.376 96.7393 189.255 96.2353 189.012 95.806C188.779 95.3767 188.452 95.0453 188.032 94.812C187.621 94.5693 187.155 94.448 186.632 94.448C186.119 94.448 185.657 94.5693 185.246 94.812C184.835 95.0453 184.509 95.3767 184.266 95.806C184.023 96.2353 183.902 96.7393 183.902 97.318C183.902 97.8873 184.023 98.3913 184.266 98.83C184.509 99.2593 184.835 99.5953 185.246 99.838C185.657 100.071 186.119 100.188 186.632 100.188ZM189.404 101V98.788L189.502 97.304L189.362 95.82V90.612H190.356V101H189.404ZM199.112 101.07C198.422 101.07 197.89 100.883 197.516 100.51C197.143 100.137 196.956 99.6093 196.956 98.928V92.026H197.95V98.872C197.95 99.3013 198.058 99.6327 198.272 99.866C198.496 100.099 198.814 100.216 199.224 100.216C199.663 100.216 200.027 100.09 200.316 99.838L200.666 100.552C200.47 100.729 200.232 100.86 199.952 100.944C199.682 101.028 199.402 101.07 199.112 101.07ZM195.64 94.476V93.65H200.19V94.476H195.64ZM206.228 93.58C206.825 93.58 207.348 93.6967 207.796 93.93C208.253 94.154 208.608 94.4993 208.86 94.966C209.121 95.4327 209.252 96.0207 209.252 96.73V101H208.258V96.828C208.258 96.0533 208.062 95.47 207.67 95.078C207.287 94.6767 206.746 94.476 206.046 94.476C205.523 94.476 205.066 94.5833 204.674 94.798C204.291 95.0033 203.993 95.3067 203.778 95.708C203.573 96.1 203.47 96.576 203.47 97.136V101H202.476V90.612H203.47V95.666L203.274 95.288C203.507 94.756 203.881 94.3407 204.394 94.042C204.907 93.734 205.519 93.58 206.228 93.58ZM215.059 101.07C214.293 101.07 213.621 100.911 213.043 100.594C212.464 100.267 212.011 99.824 211.685 99.264C211.358 98.6947 211.195 98.046 211.195 97.318C211.195 96.59 211.349 95.946 211.657 95.386C211.974 94.826 212.403 94.3873 212.945 94.07C213.495 93.7433 214.111 93.58 214.793 93.58C215.483 93.58 216.095 93.7387 216.627 94.056C217.168 94.364 217.593 94.8027 217.901 95.372C218.209 95.932 218.363 96.5807 218.363 97.318C218.363 97.3647 218.358 97.416 218.349 97.472C218.349 97.5187 218.349 97.57 218.349 97.626H211.951V96.884H217.817L217.425 97.178C217.425 96.646 217.308 96.1747 217.075 95.764C216.851 95.344 216.543 95.0173 216.151 94.784C215.759 94.5507 215.306 94.434 214.793 94.434C214.289 94.434 213.836 94.5507 213.435 94.784C213.033 95.0173 212.721 95.344 212.497 95.764C212.273 96.184 212.161 96.6647 212.161 97.206V97.36C212.161 97.92 212.282 98.4147 212.525 98.844C212.777 99.264 213.122 99.5953 213.561 99.838C214.009 100.071 214.517 100.188 215.087 100.188C215.535 100.188 215.95 100.109 216.333 99.95C216.725 99.7913 217.061 99.5487 217.341 99.222L217.901 99.866C217.574 100.258 217.163 100.557 216.669 100.762C216.183 100.967 215.647 101.07 215.059 101.07ZM163.231 129.07C162.596 129.07 162.022 128.925 161.509 128.636C160.995 128.337 160.585 127.913 160.277 127.362C159.978 126.802 159.829 126.121 159.829 125.318C159.829 124.515 159.978 123.839 160.277 123.288C160.575 122.728 160.981 122.303 161.495 122.014C162.008 121.725 162.587 121.58 163.231 121.58C163.931 121.58 164.556 121.739 165.107 122.056C165.667 122.364 166.105 122.803 166.423 123.372C166.74 123.932 166.899 124.581 166.899 125.318C166.899 126.065 166.74 126.718 166.423 127.278C166.105 127.838 165.667 128.277 165.107 128.594C164.556 128.911 163.931 129.07 163.231 129.07ZM159.437 131.716V121.65H160.389V123.862L160.291 125.332L160.431 126.816V131.716H159.437ZM163.161 128.188C163.683 128.188 164.15 128.071 164.561 127.838C164.971 127.595 165.298 127.259 165.541 126.83C165.783 126.391 165.905 125.887 165.905 125.318C165.905 124.749 165.783 124.249 165.541 123.82C165.298 123.391 164.971 123.055 164.561 122.812C164.15 122.569 163.683 122.448 163.161 122.448C162.638 122.448 162.167 122.569 161.747 122.812C161.336 123.055 161.009 123.391 160.767 123.82C160.533 124.249 160.417 124.749 160.417 125.318C160.417 125.887 160.533 126.391 160.767 126.83C161.009 127.259 161.336 127.595 161.747 127.838C162.167 128.071 162.638 128.188 163.161 128.188ZM168.925 129V118.612H169.919V129H168.925ZM177.291 129V127.376L177.249 127.11V124.394C177.249 123.769 177.071 123.288 176.717 122.952C176.371 122.616 175.853 122.448 175.163 122.448C174.687 122.448 174.234 122.527 173.805 122.686C173.375 122.845 173.011 123.055 172.713 123.316L172.265 122.574C172.638 122.257 173.086 122.014 173.609 121.846C174.131 121.669 174.682 121.58 175.261 121.58C176.213 121.58 176.945 121.818 177.459 122.294C177.981 122.761 178.243 123.475 178.243 124.436V129H177.291ZM174.757 129.07C174.206 129.07 173.725 128.981 173.315 128.804C172.913 128.617 172.605 128.365 172.391 128.048C172.176 127.721 172.069 127.348 172.069 126.928C172.069 126.545 172.157 126.2 172.335 125.892C172.521 125.575 172.82 125.323 173.231 125.136C173.651 124.94 174.211 124.842 174.911 124.842H177.445V125.584H174.939C174.229 125.584 173.735 125.71 173.455 125.962C173.184 126.214 173.049 126.527 173.049 126.9C173.049 127.32 173.212 127.656 173.539 127.908C173.865 128.16 174.323 128.286 174.911 128.286C175.471 128.286 175.951 128.16 176.353 127.908C176.763 127.647 177.062 127.273 177.249 126.788L177.473 127.474C177.286 127.959 176.959 128.347 176.493 128.636C176.035 128.925 175.457 129.07 174.757 129.07ZM183.267 129.07C182.576 129.07 182.044 128.883 181.671 128.51C181.297 128.137 181.111 127.609 181.111 126.928V120.026H182.105V126.872C182.105 127.301 182.212 127.633 182.427 127.866C182.651 128.099 182.968 128.216 183.379 128.216C183.817 128.216 184.181 128.09 184.471 127.838L184.821 128.552C184.625 128.729 184.387 128.86 184.107 128.944C183.836 129.028 183.556 129.07 183.267 129.07ZM179.795 122.476V121.65H184.345V122.476H179.795ZM186.798 129V120.726C186.798 120.073 186.989 119.545 187.372 119.144C187.755 118.743 188.305 118.542 189.024 118.542C189.304 118.542 189.575 118.579 189.836 118.654C190.097 118.729 190.317 118.845 190.494 119.004L190.158 119.746C190.018 119.625 189.855 119.536 189.668 119.48C189.481 119.415 189.281 119.382 189.066 119.382C188.646 119.382 188.324 119.499 188.1 119.732C187.876 119.965 187.764 120.311 187.764 120.768V121.888L187.792 122.35V129H186.798ZM185.482 122.476V121.65H190.032V122.476H185.482ZM194.247 129.07C193.538 129.07 192.899 128.911 192.329 128.594C191.769 128.267 191.326 127.824 190.999 127.264C190.673 126.695 190.509 126.046 190.509 125.318C190.509 124.581 190.673 123.932 190.999 123.372C191.326 122.812 191.769 122.373 192.329 122.056C192.889 121.739 193.529 121.58 194.247 121.58C194.975 121.58 195.619 121.739 196.179 122.056C196.749 122.373 197.192 122.812 197.509 123.372C197.836 123.932 197.999 124.581 197.999 125.318C197.999 126.046 197.836 126.695 197.509 127.264C197.192 127.824 196.749 128.267 196.179 128.594C195.61 128.911 194.966 129.07 194.247 129.07ZM194.247 128.188C194.779 128.188 195.251 128.071 195.661 127.838C196.072 127.595 196.394 127.259 196.627 126.83C196.87 126.391 196.991 125.887 196.991 125.318C196.991 124.739 196.87 124.235 196.627 123.806C196.394 123.377 196.072 123.045 195.661 122.812C195.251 122.569 194.784 122.448 194.261 122.448C193.739 122.448 193.272 122.569 192.861 122.812C192.451 123.045 192.124 123.377 191.881 123.806C191.639 124.235 191.517 124.739 191.517 125.318C191.517 125.887 191.639 126.391 191.881 126.83C192.124 127.259 192.451 127.595 192.861 127.838C193.272 128.071 193.734 128.188 194.247 128.188ZM200.029 129V121.65H200.981V123.652L200.883 123.302C201.088 122.742 201.433 122.317 201.919 122.028C202.404 121.729 203.006 121.58 203.725 121.58V122.546C203.687 122.546 203.65 122.546 203.613 122.546C203.575 122.537 203.538 122.532 203.501 122.532C202.726 122.532 202.119 122.77 201.681 123.246C201.242 123.713 201.023 124.38 201.023 125.248V129H200.029ZM214.722 121.58C215.32 121.58 215.838 121.697 216.276 121.93C216.724 122.154 217.07 122.499 217.312 122.966C217.564 123.433 217.69 124.021 217.69 124.73V129H216.696V124.828C216.696 124.053 216.51 123.47 216.136 123.078C215.772 122.677 215.254 122.476 214.582 122.476C214.078 122.476 213.64 122.583 213.266 122.798C212.902 123.003 212.618 123.307 212.412 123.708C212.216 124.1 212.118 124.576 212.118 125.136V129H211.124V124.828C211.124 124.053 210.938 123.47 210.564 123.078C210.191 122.677 209.668 122.476 208.996 122.476C208.502 122.476 208.068 122.583 207.694 122.798C207.321 123.003 207.032 123.307 206.826 123.708C206.63 124.1 206.532 124.576 206.532 125.136V129H205.538V121.65H206.49V123.638L206.336 123.288C206.56 122.756 206.92 122.341 207.414 122.042C207.918 121.734 208.511 121.58 209.192 121.58C209.911 121.58 210.522 121.762 211.026 122.126C211.53 122.481 211.857 123.017 212.006 123.736L211.614 123.582C211.829 122.985 212.207 122.504 212.748 122.14C213.299 121.767 213.957 121.58 214.722 121.58Z" fill="#313131"/>
<rect x="227" y="92" width="245" height="36" fill="#313131"/>
<path d="M484.104 109.068C484.88 109.164 485.472 109.428 485.88 109.86C486.288 110.292 486.492 110.832 486.492 111.48C486.492 111.968 486.368 112.412 486.12 112.812C485.872 113.212 485.496 113.532 484.992 113.772C484.496 114.004 483.888 114.12 483.168 114.12C482.568 114.12 481.988 114.036 481.428 113.868C480.876 113.692 480.404 113.452 480.012 113.148L480.684 111.936C480.988 112.192 481.356 112.396 481.788 112.548C482.228 112.692 482.68 112.764 483.144 112.764C483.696 112.764 484.128 112.652 484.44 112.428C484.76 112.196 484.92 111.884 484.92 111.492C484.92 111.1 484.768 110.796 484.464 110.58C484.168 110.356 483.712 110.244 483.096 110.244H482.328V109.176L484.236 106.908H480.42V105.6H486.144V106.644L484.104 109.068ZM491.016 114.12C490.344 114.12 489.744 113.952 489.216 113.616C488.688 113.272 488.272 112.776 487.968 112.128C487.664 111.472 487.512 110.696 487.512 109.8C487.512 108.904 487.664 108.132 487.968 107.484C488.272 106.828 488.688 106.332 489.216 105.996C489.744 105.652 490.344 105.48 491.016 105.48C491.688 105.48 492.288 105.652 492.816 105.996C493.352 106.332 493.772 106.828 494.076 107.484C494.38 108.132 494.532 108.904 494.532 109.8C494.532 110.696 494.38 111.472 494.076 112.128C493.772 112.776 493.352 113.272 492.816 113.616C492.288 113.952 491.688 114.12 491.016 114.12ZM491.016 112.764C491.616 112.764 492.088 112.516 492.432 112.02C492.784 111.524 492.96 110.784 492.96 109.8C492.96 108.816 492.784 108.076 492.432 107.58C492.088 107.084 491.616 106.836 491.016 106.836C490.424 106.836 489.952 107.084 489.6 107.58C489.256 108.076 489.084 108.816 489.084 109.8C489.084 110.784 489.256 111.524 489.6 112.02C489.952 112.516 490.424 112.764 491.016 112.764ZM497.459 110.124C496.859 110.124 496.375 109.912 496.007 109.488C495.639 109.064 495.455 108.508 495.455 107.82C495.455 107.132 495.639 106.576 496.007 106.152C496.375 105.728 496.859 105.516 497.459 105.516C498.059 105.516 498.543 105.728 498.911 106.152C499.287 106.568 499.475 107.124 499.475 107.82C499.475 108.516 499.287 109.076 498.911 109.5C498.543 109.916 498.059 110.124 497.459 110.124ZM502.499 105.6H503.675L497.939 114H496.763L502.499 105.6ZM497.459 109.284C497.787 109.284 498.039 109.156 498.215 108.9C498.399 108.644 498.491 108.284 498.491 107.82C498.491 107.356 498.399 106.996 498.215 106.74C498.039 106.484 497.787 106.356 497.459 106.356C497.147 106.356 496.895 106.488 496.703 106.752C496.519 107.008 496.427 107.364 496.427 107.82C496.427 108.276 496.519 108.636 496.703 108.9C496.895 109.156 497.147 109.284 497.459 109.284ZM502.967 114.084C502.367 114.084 501.883 113.872 501.515 113.448C501.147 113.024 500.963 112.468 500.963 111.78C500.963 111.092 501.147 110.536 501.515 110.112C501.883 109.688 502.367 109.476 502.967 109.476C503.567 109.476 504.051 109.688 504.419 110.112C504.795 110.536 504.983 111.092 504.983 111.78C504.983 112.468 504.795 113.024 504.419 113.448C504.051 113.872 503.567 114.084 502.967 114.084ZM502.967 113.244C503.287 113.244 503.539 113.116 503.723 112.86C503.907 112.596 503.999 112.236 503.999 111.78C503.999 111.324 503.907 110.968 503.723 110.712C503.539 110.448 503.287 110.316 502.967 110.316C502.647 110.316 502.395 110.444 502.211 110.7C502.027 110.956 501.935 111.316 501.935 111.78C501.935 112.244 502.027 112.604 502.211 112.86C502.395 113.116 502.647 113.244 502.967 113.244Z" fill="#313131"/>
<path d="M56.9847 187V177.2H58.0207V187H56.9847ZM69.2693 187V185.376L69.2273 185.11V182.394C69.2273 181.769 69.05 181.288 68.6953 180.952C68.35 180.616 67.832 180.448 67.1413 180.448C66.6653 180.448 66.2127 180.527 65.7833 180.686C65.354 180.845 64.99 181.055 64.6913 181.316L64.2433 180.574C64.6167 180.257 65.0647 180.014 65.5873 179.846C66.11 179.669 66.6607 179.58 67.2393 179.58C68.1913 179.58 68.924 179.818 69.4373 180.294C69.96 180.761 70.2213 181.475 70.2213 182.436V187H69.2693ZM66.7353 187.07C66.1847 187.07 65.704 186.981 65.2933 186.804C64.892 186.617 64.584 186.365 64.3693 186.048C64.1547 185.721 64.0473 185.348 64.0473 184.928C64.0473 184.545 64.136 184.2 64.3133 183.892C64.5 183.575 64.7987 183.323 65.2093 183.136C65.6293 182.94 66.1893 182.842 66.8893 182.842H69.4233V183.584H66.9173C66.208 183.584 65.7133 183.71 65.4333 183.962C65.1627 184.214 65.0273 184.527 65.0273 184.9C65.0273 185.32 65.1907 185.656 65.5173 185.908C65.844 186.16 66.3013 186.286 66.8893 186.286C67.4493 186.286 67.93 186.16 68.3313 185.908C68.742 185.647 69.0407 185.273 69.2273 184.788L69.4513 185.474C69.2647 185.959 68.938 186.347 68.4713 186.636C68.014 186.925 67.4353 187.07 66.7353 187.07ZM75.9732 187.07C75.2452 187.07 74.5918 186.911 74.0132 186.594C73.4438 186.267 72.9958 185.824 72.6692 185.264C72.3425 184.695 72.1792 184.046 72.1792 183.318C72.1792 182.581 72.3425 181.932 72.6692 181.372C72.9958 180.812 73.4438 180.373 74.0132 180.056C74.5918 179.739 75.2452 179.58 75.9732 179.58C76.5985 179.58 77.1632 179.701 77.6672 179.944C78.1712 180.187 78.5678 180.551 78.8572 181.036L78.1152 181.54C77.8632 181.167 77.5505 180.891 77.1772 180.714C76.8038 180.537 76.3978 180.448 75.9592 180.448C75.4365 180.448 74.9652 180.569 74.5452 180.812C74.1252 181.045 73.7938 181.377 73.5512 181.806C73.3085 182.235 73.1872 182.739 73.1872 183.318C73.1872 183.897 73.3085 184.401 73.5512 184.83C73.7938 185.259 74.1252 185.595 74.5452 185.838C74.9652 186.071 75.4365 186.188 75.9592 186.188C76.3978 186.188 76.8038 186.099 77.1772 185.922C77.5505 185.745 77.8632 185.474 78.1152 185.11L78.8572 185.614C78.5678 186.09 78.1712 186.454 77.6672 186.706C77.1632 186.949 76.5985 187.07 75.9732 187.07ZM83.7388 187.07C83.0108 187.07 82.3574 186.911 81.7788 186.594C81.2094 186.267 80.7614 185.824 80.4348 185.264C80.1081 184.695 79.9448 184.046 79.9448 183.318C79.9448 182.581 80.1081 181.932 80.4348 181.372C80.7614 180.812 81.2094 180.373 81.7788 180.056C82.3574 179.739 83.0108 179.58 83.7388 179.58C84.3641 179.58 84.9288 179.701 85.4328 179.944C85.9368 180.187 86.3334 180.551 86.6228 181.036L85.8808 181.54C85.6288 181.167 85.3161 180.891 84.9428 180.714C84.5694 180.537 84.1634 180.448 83.7248 180.448C83.2021 180.448 82.7308 180.569 82.3108 180.812C81.8908 181.045 81.5594 181.377 81.3168 181.806C81.0741 182.235 80.9528 182.739 80.9528 183.318C80.9528 183.897 81.0741 184.401 81.3168 184.83C81.5594 185.259 81.8908 185.595 82.3108 185.838C82.7308 186.071 83.2021 186.188 83.7248 186.188C84.1634 186.188 84.5694 186.099 84.9428 185.922C85.3161 185.745 85.6288 185.474 85.8808 185.11L86.6228 185.614C86.3334 186.09 85.9368 186.454 85.4328 186.706C84.9288 186.949 84.3641 187.07 83.7388 187.07ZM91.5744 187.07C90.8091 187.07 90.1371 186.911 89.5584 186.594C88.9797 186.267 88.5271 185.824 88.2004 185.264C87.8737 184.695 87.7104 184.046 87.7104 183.318C87.7104 182.59 87.8644 181.946 88.1724 181.386C88.4897 180.826 88.9191 180.387 89.4604 180.07C90.0111 179.743 90.6271 179.58 91.3084 179.58C91.9991 179.58 92.6104 179.739 93.1424 180.056C93.6837 180.364 94.1084 180.803 94.4164 181.372C94.7244 181.932 94.8784 182.581 94.8784 183.318C94.8784 183.365 94.8737 183.416 94.8644 183.472C94.8644 183.519 94.8644 183.57 94.8644 183.626H88.4664V182.884H94.3324L93.9404 183.178C93.9404 182.646 93.8237 182.175 93.5904 181.764C93.3664 181.344 93.0584 181.017 92.6664 180.784C92.2744 180.551 91.8217 180.434 91.3084 180.434C90.8044 180.434 90.3517 180.551 89.9504 180.784C89.5491 181.017 89.2364 181.344 89.0124 181.764C88.7884 182.184 88.6764 182.665 88.6764 183.206V183.36C88.6764 183.92 88.7977 184.415 89.0404 184.844C89.2924 185.264 89.6377 185.595 90.0764 185.838C90.5244 186.071 91.0331 186.188 91.6024 186.188C92.0504 186.188 92.4657 186.109 92.8484 185.95C93.2404 185.791 93.5764 185.549 93.8564 185.222L94.4164 185.866C94.0897 186.258 93.6791 186.557 93.1844 186.762C92.6991 186.967 92.1624 187.07 91.5744 187.07ZM98.8756 187.07C98.269 187.07 97.695 186.986 97.1536 186.818C96.6123 186.641 96.1876 186.421 95.8796 186.16L96.3276 185.376C96.6263 185.6 97.009 185.796 97.4756 185.964C97.9423 186.123 98.4323 186.202 98.9456 186.202C99.6456 186.202 100.15 186.095 100.458 185.88C100.766 185.656 100.92 185.362 100.92 184.998C100.92 184.727 100.831 184.517 100.654 184.368C100.486 184.209 100.262 184.093 99.9816 184.018C99.7016 183.934 99.389 183.864 99.0436 183.808C98.6983 183.752 98.353 183.687 98.0076 183.612C97.6716 183.537 97.3636 183.43 97.0836 183.29C96.8036 183.141 96.575 182.94 96.3976 182.688C96.2296 182.436 96.1456 182.1 96.1456 181.68C96.1456 181.279 96.2576 180.919 96.4816 180.602C96.7056 180.285 97.0323 180.037 97.4616 179.86C97.9003 179.673 98.4323 179.58 99.0576 179.58C99.5336 179.58 100.01 179.645 100.486 179.776C100.962 179.897 101.354 180.061 101.662 180.266L101.228 181.064C100.901 180.84 100.551 180.681 100.178 180.588C99.8043 180.485 99.431 180.434 99.0576 180.434C98.395 180.434 97.905 180.551 97.5876 180.784C97.2796 181.008 97.1256 181.297 97.1256 181.652C97.1256 181.932 97.2096 182.151 97.3776 182.31C97.555 182.469 97.7836 182.595 98.0636 182.688C98.353 182.772 98.6656 182.842 99.0016 182.898C99.347 182.954 99.6876 183.024 100.024 183.108C100.369 183.183 100.682 183.29 100.962 183.43C101.251 183.561 101.48 183.752 101.648 184.004C101.825 184.247 101.914 184.569 101.914 184.97C101.914 185.399 101.792 185.773 101.55 186.09C101.316 186.398 100.971 186.641 100.514 186.818C100.066 186.986 99.5196 187.07 98.8756 187.07ZM105.712 187.07C105.105 187.07 104.531 186.986 103.99 186.818C103.448 186.641 103.024 186.421 102.716 186.16L103.164 185.376C103.462 185.6 103.845 185.796 104.312 185.964C104.778 186.123 105.268 186.202 105.782 186.202C106.482 186.202 106.986 186.095 107.294 185.88C107.602 185.656 107.756 185.362 107.756 184.998C107.756 184.727 107.667 184.517 107.49 184.368C107.322 184.209 107.098 184.093 106.818 184.018C106.538 183.934 106.225 183.864 105.88 183.808C105.534 183.752 105.189 183.687 104.844 183.612C104.508 183.537 104.2 183.43 103.92 183.29C103.64 183.141 103.411 182.94 103.234 182.688C103.066 182.436 102.982 182.1 102.982 181.68C102.982 181.279 103.094 180.919 103.318 180.602C103.542 180.285 103.868 180.037 104.298 179.86C104.736 179.673 105.268 179.58 105.894 179.58C106.37 179.58 106.846 179.645 107.322 179.776C107.798 179.897 108.19 180.061 108.498 180.266L108.064 181.064C107.737 180.84 107.387 180.681 107.014 180.588C106.64 180.485 106.267 180.434 105.894 180.434C105.231 180.434 104.741 180.551 104.424 180.784C104.116 181.008 103.962 181.297 103.962 181.652C103.962 181.932 104.046 182.151 104.214 182.31C104.391 182.469 104.62 182.595 104.9 182.688C105.189 182.772 105.502 182.842 105.838 182.898C106.183 182.954 106.524 183.024 106.86 183.108C107.205 183.183 107.518 183.29 107.798 183.43C108.087 183.561 108.316 183.752 108.484 184.004C108.661 184.247 108.75 184.569 108.75 184.97C108.75 185.399 108.628 185.773 108.386 186.09C108.152 186.398 107.807 186.641 107.35 186.818C106.902 186.986 106.356 187.07 105.712 187.07ZM113.696 187.07C112.93 187.07 112.258 186.911 111.68 186.594C111.101 186.267 110.648 185.824 110.322 185.264C109.995 184.695 109.832 184.046 109.832 183.318C109.832 182.59 109.986 181.946 110.294 181.386C110.611 180.826 111.04 180.387 111.582 180.07C112.132 179.743 112.748 179.58 113.43 179.58C114.12 179.58 114.732 179.739 115.264 180.056C115.805 180.364 116.23 180.803 116.538 181.372C116.846 181.932 117 182.581 117 183.318C117 183.365 116.995 183.416 116.986 183.472C116.986 183.519 116.986 183.57 116.986 183.626H110.588V182.884H116.454L116.062 183.178C116.062 182.646 115.945 182.175 115.712 181.764C115.488 181.344 115.18 181.017 114.788 180.784C114.396 180.551 113.943 180.434 113.43 180.434C112.926 180.434 112.473 180.551 112.072 180.784C111.67 181.017 111.358 181.344 111.134 181.764C110.91 182.184 110.798 182.665 110.798 183.206V183.36C110.798 183.92 110.919 184.415 111.162 184.844C111.414 185.264 111.759 185.595 112.198 185.838C112.646 186.071 113.154 186.188 113.724 186.188C114.172 186.188 114.587 186.109 114.97 185.95C115.362 185.791 115.698 185.549 115.978 185.222L116.538 185.866C116.211 186.258 115.8 186.557 115.306 186.762C114.82 186.967 114.284 187.07 113.696 187.07ZM121.949 187.07C121.249 187.07 120.619 186.911 120.059 186.594C119.508 186.277 119.074 185.838 118.757 185.278C118.439 184.709 118.281 184.055 118.281 183.318C118.281 182.571 118.439 181.918 118.757 181.358C119.074 180.798 119.508 180.364 120.059 180.056C120.619 179.739 121.249 179.58 121.949 179.58C122.593 179.58 123.167 179.725 123.671 180.014C124.184 180.303 124.59 180.728 124.889 181.288C125.197 181.839 125.351 182.515 125.351 183.318C125.351 184.111 125.201 184.788 124.903 185.348C124.604 185.908 124.198 186.337 123.685 186.636C123.181 186.925 122.602 187.07 121.949 187.07ZM122.019 186.188C122.541 186.188 123.008 186.071 123.419 185.838C123.839 185.595 124.165 185.259 124.399 184.83C124.641 184.391 124.763 183.887 124.763 183.318C124.763 182.739 124.641 182.235 124.399 181.806C124.165 181.377 123.839 181.045 123.419 180.812C123.008 180.569 122.541 180.448 122.019 180.448C121.505 180.448 121.043 180.569 120.633 180.812C120.222 181.045 119.895 181.377 119.653 181.806C119.41 182.235 119.289 182.739 119.289 183.318C119.289 183.887 119.41 184.391 119.653 184.83C119.895 185.259 120.222 185.595 120.633 185.838C121.043 186.071 121.505 186.188 122.019 186.188ZM124.791 187V184.788L124.889 183.304L124.749 181.82V176.612H125.743V187H124.791ZM134.499 187.07C133.808 187.07 133.276 186.883 132.903 186.51C132.53 186.137 132.343 185.609 132.343 184.928V178.026H133.337V184.872C133.337 185.301 133.444 185.633 133.659 185.866C133.883 186.099 134.2 186.216 134.611 186.216C135.05 186.216 135.414 186.09 135.703 185.838L136.053 186.552C135.857 186.729 135.619 186.86 135.339 186.944C135.068 187.028 134.788 187.07 134.499 187.07ZM131.027 180.476V179.65H135.577V180.476H131.027ZM141.615 179.58C142.212 179.58 142.735 179.697 143.183 179.93C143.64 180.154 143.995 180.499 144.247 180.966C144.508 181.433 144.639 182.021 144.639 182.73V187H143.645V182.828C143.645 182.053 143.449 181.47 143.057 181.078C142.674 180.677 142.133 180.476 141.433 180.476C140.91 180.476 140.453 180.583 140.061 180.798C139.678 181.003 139.379 181.307 139.165 181.708C138.959 182.1 138.857 182.576 138.857 183.136V187H137.863V176.612H138.857V181.666L138.661 181.288C138.894 180.756 139.267 180.341 139.781 180.042C140.294 179.734 140.905 179.58 141.615 179.58ZM150.446 187.07C149.68 187.07 149.008 186.911 148.43 186.594C147.851 186.267 147.398 185.824 147.072 185.264C146.745 184.695 146.582 184.046 146.582 183.318C146.582 182.59 146.736 181.946 147.044 181.386C147.361 180.826 147.79 180.387 148.332 180.07C148.882 179.743 149.498 179.58 150.18 179.58C150.87 179.58 151.482 179.739 152.014 180.056C152.555 180.364 152.98 180.803 153.288 181.372C153.596 181.932 153.75 182.581 153.75 183.318C153.75 183.365 153.745 183.416 153.736 183.472C153.736 183.519 153.736 183.57 153.736 183.626H147.338V182.884H153.204L152.812 183.178C152.812 182.646 152.695 182.175 152.462 181.764C152.238 181.344 151.93 181.017 151.538 180.784C151.146 180.551 150.693 180.434 150.18 180.434C149.676 180.434 149.223 180.551 148.822 180.784C148.42 181.017 148.108 181.344 147.884 181.764C147.66 182.184 147.548 182.665 147.548 183.206V183.36C147.548 183.92 147.669 184.415 147.912 184.844C148.164 185.264 148.509 185.595 148.948 185.838C149.396 186.071 149.904 186.188 150.474 186.188C150.922 186.188 151.337 186.109 151.72 185.95C152.112 185.791 152.448 185.549 152.728 185.222L153.288 185.866C152.961 186.258 152.55 186.557 152.056 186.762C151.57 186.967 151.034 187.07 150.446 187.07ZM163.231 187.07C162.596 187.07 162.022 186.925 161.509 186.636C160.995 186.337 160.585 185.913 160.277 185.362C159.978 184.802 159.829 184.121 159.829 183.318C159.829 182.515 159.978 181.839 160.277 181.288C160.575 180.728 160.981 180.303 161.495 180.014C162.008 179.725 162.587 179.58 163.231 179.58C163.931 179.58 164.556 179.739 165.107 180.056C165.667 180.364 166.105 180.803 166.423 181.372C166.74 181.932 166.899 182.581 166.899 183.318C166.899 184.065 166.74 184.718 166.423 185.278C166.105 185.838 165.667 186.277 165.107 186.594C164.556 186.911 163.931 187.07 163.231 187.07ZM159.437 189.716V179.65H160.389V181.862L160.291 183.332L160.431 184.816V189.716H159.437ZM163.161 186.188C163.683 186.188 164.15 186.071 164.561 185.838C164.971 185.595 165.298 185.259 165.541 184.83C165.783 184.391 165.905 183.887 165.905 183.318C165.905 182.749 165.783 182.249 165.541 181.82C165.298 181.391 164.971 181.055 164.561 180.812C164.15 180.569 163.683 180.448 163.161 180.448C162.638 180.448 162.167 180.569 161.747 180.812C161.336 181.055 161.009 181.391 160.767 181.82C160.533 182.249 160.417 182.749 160.417 183.318C160.417 183.887 160.533 184.391 160.767 184.83C161.009 185.259 161.336 185.595 161.747 185.838C162.167 186.071 162.638 186.188 163.161 186.188ZM168.925 187V176.612H169.919V187H168.925ZM177.291 187V185.376L177.249 185.11V182.394C177.249 181.769 177.071 181.288 176.717 180.952C176.371 180.616 175.853 180.448 175.163 180.448C174.687 180.448 174.234 180.527 173.805 180.686C173.375 180.845 173.011 181.055 172.713 181.316L172.265 180.574C172.638 180.257 173.086 180.014 173.609 179.846C174.131 179.669 174.682 179.58 175.261 179.58C176.213 179.58 176.945 179.818 177.459 180.294C177.981 180.761 178.243 181.475 178.243 182.436V187H177.291ZM174.757 187.07C174.206 187.07 173.725 186.981 173.315 186.804C172.913 186.617 172.605 186.365 172.391 186.048C172.176 185.721 172.069 185.348 172.069 184.928C172.069 184.545 172.157 184.2 172.335 183.892C172.521 183.575 172.82 183.323 173.231 183.136C173.651 182.94 174.211 182.842 174.911 182.842H177.445V183.584H174.939C174.229 183.584 173.735 183.71 173.455 183.962C173.184 184.214 173.049 184.527 173.049 184.9C173.049 185.32 173.212 185.656 173.539 185.908C173.865 186.16 174.323 186.286 174.911 186.286C175.471 186.286 175.951 186.16 176.353 185.908C176.763 185.647 177.062 185.273 177.249 184.788L177.473 185.474C177.286 185.959 176.959 186.347 176.493 186.636C176.035 186.925 175.457 187.07 174.757 187.07ZM183.267 187.07C182.576 187.07 182.044 186.883 181.671 186.51C181.297 186.137 181.111 185.609 181.111 184.928V178.026H182.105V184.872C182.105 185.301 182.212 185.633 182.427 185.866C182.651 186.099 182.968 186.216 183.379 186.216C183.817 186.216 184.181 186.09 184.471 185.838L184.821 186.552C184.625 186.729 184.387 186.86 184.107 186.944C183.836 187.028 183.556 187.07 183.267 187.07ZM179.795 180.476V179.65H184.345V180.476H179.795ZM186.798 187V178.726C186.798 178.073 186.989 177.545 187.372 177.144C187.755 176.743 188.305 176.542 189.024 176.542C189.304 176.542 189.575 176.579 189.836 176.654C190.097 176.729 190.317 176.845 190.494 177.004L190.158 177.746C190.018 177.625 189.855 177.536 189.668 177.48C189.481 177.415 189.281 177.382 189.066 177.382C188.646 177.382 188.324 177.499 188.1 177.732C187.876 177.965 187.764 178.311 187.764 178.768V179.888L187.792 180.35V187H186.798ZM185.482 180.476V179.65H190.032V180.476H185.482ZM194.247 187.07C193.538 187.07 192.899 186.911 192.329 186.594C191.769 186.267 191.326 185.824 190.999 185.264C190.673 184.695 190.509 184.046 190.509 183.318C190.509 182.581 190.673 181.932 190.999 181.372C191.326 180.812 191.769 180.373 192.329 180.056C192.889 179.739 193.529 179.58 194.247 179.58C194.975 179.58 195.619 179.739 196.179 180.056C196.749 180.373 197.192 180.812 197.509 181.372C197.836 181.932 197.999 182.581 197.999 183.318C197.999 184.046 197.836 184.695 197.509 185.264C197.192 185.824 196.749 186.267 196.179 186.594C195.61 186.911 194.966 187.07 194.247 187.07ZM194.247 186.188C194.779 186.188 195.251 186.071 195.661 185.838C196.072 185.595 196.394 185.259 196.627 184.83C196.87 184.391 196.991 183.887 196.991 183.318C196.991 182.739 196.87 182.235 196.627 181.806C196.394 181.377 196.072 181.045 195.661 180.812C195.251 180.569 194.784 180.448 194.261 180.448C193.739 180.448 193.272 180.569 192.861 180.812C192.451 181.045 192.124 181.377 191.881 181.806C191.639 182.235 191.517 182.739 191.517 183.318C191.517 183.887 191.639 184.391 191.881 184.83C192.124 185.259 192.451 185.595 192.861 185.838C193.272 186.071 193.734 186.188 194.247 186.188ZM200.029 187V179.65H200.981V181.652L200.883 181.302C201.088 180.742 201.433 180.317 201.919 180.028C202.404 179.729 203.006 179.58 203.725 179.58V180.546C203.687 180.546 203.65 180.546 203.613 180.546C203.575 180.537 203.538 180.532 203.501 180.532C202.726 180.532 202.119 180.77 201.681 181.246C201.242 181.713 201.023 182.38 201.023 183.248V187H200.029ZM214.722 179.58C215.32 179.58 215.838 179.697 216.276 179.93C216.724 180.154 217.07 180.499 217.312 180.966C217.564 181.433 217.69 182.021 217.69 182.73V187H216.696V182.828C216.696 182.053 216.51 181.47 216.136 181.078C215.772 180.677 215.254 180.476 214.582 180.476C214.078 180.476 213.64 180.583 213.266 180.798C212.902 181.003 212.618 181.307 212.412 181.708C212.216 182.1 212.118 182.576 212.118 183.136V187H211.124V182.828C211.124 182.053 210.938 181.47 210.564 181.078C210.191 180.677 209.668 180.476 208.996 180.476C208.502 180.476 208.068 180.583 207.694 180.798C207.321 181.003 207.032 181.307 206.826 181.708C206.63 182.1 206.532 182.576 206.532 183.136V187H205.538V179.65H206.49V181.638L206.336 181.288C206.56 180.756 206.92 180.341 207.414 180.042C207.918 179.734 208.511 179.58 209.192 179.58C209.911 179.58 210.522 179.762 211.026 180.126C211.53 180.481 211.857 181.017 212.006 181.736L211.614 181.582C211.829 180.985 212.207 180.504 212.748 180.14C213.299 179.767 213.957 179.58 214.722 179.58Z" fill="#313131"/>
<rect x="227" y="164" width="311" height="36" fill="#9B7CFF"/>
<path d="M554.016 184.092H552.528V186H551.016V184.092H546.408V183.012L550.548 177.6H552.216L548.316 182.772H551.064V181.08H552.528V182.772H554.016V184.092ZM557.265 180.852C558.449 180.852 559.325 181.084 559.893 181.548C560.461 182.004 560.745 182.628 560.745 183.42C560.745 183.924 560.621 184.38 560.373 184.788C560.125 185.196 559.753 185.52 559.257 185.76C558.761 186 558.149 186.12 557.421 186.12C556.821 186.12 556.241 186.036 555.681 185.868C555.121 185.692 554.649 185.452 554.265 185.148L554.925 183.936C555.237 184.192 555.609 184.396 556.041 184.548C556.481 184.692 556.933 184.764 557.397 184.764C557.949 184.764 558.381 184.652 558.693 184.428C559.013 184.196 559.173 183.88 559.173 183.48C559.173 183.048 559.001 182.724 558.657 182.508C558.321 182.284 557.741 182.172 556.917 182.172H554.889L555.321 177.6H560.253V178.908H556.641L556.461 180.852H557.265ZM563.4 182.124C562.8 182.124 562.316 181.912 561.948 181.488C561.58 181.064 561.396 180.508 561.396 179.82C561.396 179.132 561.58 178.576 561.948 178.152C562.316 177.728 562.8 177.516 563.4 177.516C564 177.516 564.484 177.728 564.852 178.152C565.228 178.568 565.416 179.124 565.416 179.82C565.416 180.516 565.228 181.076 564.852 181.5C564.484 181.916 564 182.124 563.4 182.124ZM568.44 177.6H569.616L563.88 186H562.704L568.44 177.6ZM563.4 181.284C563.728 181.284 563.98 181.156 564.156 180.9C564.34 180.644 564.432 180.284 564.432 179.82C564.432 179.356 564.34 178.996 564.156 178.74C563.98 178.484 563.728 178.356 563.4 178.356C563.088 178.356 562.836 178.488 562.644 178.752C562.46 179.008 562.368 179.364 562.368 179.82C562.368 180.276 562.46 180.636 562.644 180.9C562.836 181.156 563.088 181.284 563.4 181.284ZM568.908 186.084C568.308 186.084 567.824 185.872 567.456 185.448C567.088 185.024 566.904 184.468 566.904 183.78C566.904 183.092 567.088 182.536 567.456 182.112C567.824 181.688 568.308 181.476 568.908 181.476C569.508 181.476 569.992 181.688 570.36 182.112C570.736 182.536 570.924 183.092 570.924 183.78C570.924 184.468 570.736 185.024 570.36 185.448C569.992 185.872 569.508 186.084 568.908 186.084ZM568.908 185.244C569.228 185.244 569.48 185.116 569.664 184.86C569.848 184.596 569.94 184.236 569.94 183.78C569.94 183.324 569.848 182.968 569.664 182.712C569.48 182.448 569.228 182.316 568.908 182.316C568.588 182.316 568.336 182.444 568.152 182.7C567.968 182.956 567.876 183.316 567.876 183.78C567.876 184.244 567.968 184.604 568.152 184.86C568.336 185.116 568.588 185.244 568.908 185.244Z" fill="#313131"/>
<path d="M90.5355 259V249.2H91.5715V259H90.5355ZM100.188 259.07C99.5815 259.07 99.0075 258.986 98.4661 258.818C97.9248 258.641 97.5001 258.421 97.1921 258.16L97.6401 257.376C97.9388 257.6 98.3215 257.796 98.7881 257.964C99.2548 258.123 99.7448 258.202 100.258 258.202C100.958 258.202 101.462 258.095 101.77 257.88C102.078 257.656 102.232 257.362 102.232 256.998C102.232 256.727 102.143 256.517 101.966 256.368C101.798 256.209 101.574 256.093 101.294 256.018C101.014 255.934 100.701 255.864 100.356 255.808C100.011 255.752 99.6655 255.687 99.3201 255.612C98.9841 255.537 98.6761 255.43 98.3961 255.29C98.1161 255.141 97.8875 254.94 97.7101 254.688C97.5421 254.436 97.4581 254.1 97.4581 253.68C97.4581 253.279 97.5701 252.919 97.7941 252.602C98.0181 252.285 98.3448 252.037 98.7741 251.86C99.2128 251.673 99.7448 251.58 100.37 251.58C100.846 251.58 101.322 251.645 101.798 251.776C102.274 251.897 102.666 252.061 102.974 252.266L102.54 253.064C102.213 252.84 101.863 252.681 101.49 252.588C101.117 252.485 100.743 252.434 100.37 252.434C99.7075 252.434 99.2175 252.551 98.9001 252.784C98.5921 253.008 98.4381 253.297 98.4381 253.652C98.4381 253.932 98.5221 254.151 98.6901 254.31C98.8675 254.469 99.0961 254.595 99.3761 254.688C99.6655 254.772 99.9781 254.842 100.314 254.898C100.659 254.954 101 255.024 101.336 255.108C101.681 255.183 101.994 255.29 102.274 255.43C102.563 255.561 102.792 255.752 102.96 256.004C103.137 256.247 103.226 256.569 103.226 256.97C103.226 257.399 103.105 257.773 102.862 258.09C102.629 258.398 102.283 258.641 101.826 258.818C101.378 258.986 100.832 259.07 100.188 259.07ZM108.102 259.07C107.374 259.07 106.721 258.911 106.142 258.594C105.573 258.267 105.125 257.824 104.798 257.264C104.471 256.695 104.308 256.046 104.308 255.318C104.308 254.581 104.471 253.932 104.798 253.372C105.125 252.812 105.573 252.373 106.142 252.056C106.721 251.739 107.374 251.58 108.102 251.58C108.727 251.58 109.292 251.701 109.796 251.944C110.3 252.187 110.697 252.551 110.986 253.036L110.244 253.54C109.992 253.167 109.679 252.891 109.306 252.714C108.933 252.537 108.527 252.448 108.088 252.448C107.565 252.448 107.094 252.569 106.674 252.812C106.254 253.045 105.923 253.377 105.68 253.806C105.437 254.235 105.316 254.739 105.316 255.318C105.316 255.897 105.437 256.401 105.68 256.83C105.923 257.259 106.254 257.595 106.674 257.838C107.094 258.071 107.565 258.188 108.088 258.188C108.527 258.188 108.933 258.099 109.306 257.922C109.679 257.745 109.992 257.474 110.244 257.11L110.986 257.614C110.697 258.09 110.3 258.454 109.796 258.706C109.292 258.949 108.727 259.07 108.102 259.07ZM116.581 251.58C117.179 251.58 117.701 251.697 118.149 251.93C118.607 252.154 118.961 252.499 119.213 252.966C119.475 253.433 119.605 254.021 119.605 254.73V259H118.611V254.828C118.611 254.053 118.415 253.47 118.023 253.078C117.641 252.677 117.099 252.476 116.399 252.476C115.877 252.476 115.419 252.583 115.027 252.798C114.645 253.003 114.346 253.307 114.131 253.708C113.926 254.1 113.823 254.576 113.823 255.136V259H112.829V248.612H113.823V253.666L113.627 253.288C113.861 252.756 114.234 252.341 114.747 252.042C115.261 251.734 115.872 251.58 116.581 251.58ZM125.412 259.07C124.647 259.07 123.975 258.911 123.396 258.594C122.818 258.267 122.365 257.824 122.038 257.264C121.712 256.695 121.548 256.046 121.548 255.318C121.548 254.59 121.702 253.946 122.01 253.386C122.328 252.826 122.757 252.387 123.298 252.07C123.849 251.743 124.465 251.58 125.146 251.58C125.837 251.58 126.448 251.739 126.98 252.056C127.522 252.364 127.946 252.803 128.254 253.372C128.562 253.932 128.716 254.581 128.716 255.318C128.716 255.365 128.712 255.416 128.702 255.472C128.702 255.519 128.702 255.57 128.702 255.626H122.304V254.884H128.17L127.778 255.178C127.778 254.646 127.662 254.175 127.428 253.764C127.204 253.344 126.896 253.017 126.504 252.784C126.112 252.551 125.66 252.434 125.146 252.434C124.642 252.434 124.19 252.551 123.788 252.784C123.387 253.017 123.074 253.344 122.85 253.764C122.626 254.184 122.514 254.665 122.514 255.206V255.36C122.514 255.92 122.636 256.415 122.878 256.844C123.13 257.264 123.476 257.595 123.914 257.838C124.362 258.071 124.871 258.188 125.44 258.188C125.888 258.188 126.304 258.109 126.686 257.95C127.078 257.791 127.414 257.549 127.694 257.222L128.254 257.866C127.928 258.258 127.517 258.557 127.022 258.762C126.537 258.967 126 259.07 125.412 259.07ZM133.666 259.07C132.966 259.07 132.336 258.911 131.776 258.594C131.225 258.277 130.791 257.838 130.474 257.278C130.156 256.709 129.998 256.055 129.998 255.318C129.998 254.571 130.156 253.918 130.474 253.358C130.791 252.798 131.225 252.364 131.776 252.056C132.336 251.739 132.966 251.58 133.666 251.58C134.31 251.58 134.884 251.725 135.388 252.014C135.901 252.303 136.307 252.728 136.606 253.288C136.914 253.839 137.068 254.515 137.068 255.318C137.068 256.111 136.918 256.788 136.62 257.348C136.321 257.908 135.915 258.337 135.402 258.636C134.898 258.925 134.319 259.07 133.666 259.07ZM133.736 258.188C134.258 258.188 134.725 258.071 135.136 257.838C135.556 257.595 135.882 257.259 136.116 256.83C136.358 256.391 136.48 255.887 136.48 255.318C136.48 254.739 136.358 254.235 136.116 253.806C135.882 253.377 135.556 253.045 135.136 252.812C134.725 252.569 134.258 252.448 133.736 252.448C133.222 252.448 132.76 252.569 132.35 252.812C131.939 253.045 131.612 253.377 131.37 253.806C131.127 254.235 131.006 254.739 131.006 255.318C131.006 255.887 131.127 256.391 131.37 256.83C131.612 257.259 131.939 257.595 132.35 257.838C132.76 258.071 133.222 258.188 133.736 258.188ZM136.508 259V256.788L136.606 255.304L136.466 253.82V248.612H137.46V259H136.508ZM143.266 259.07C142.64 259.07 142.094 258.953 141.628 258.72C141.161 258.487 140.797 258.137 140.536 257.67C140.284 257.203 140.158 256.62 140.158 255.92V251.65H141.152V255.808C141.152 256.592 141.343 257.185 141.726 257.586C142.118 257.978 142.664 258.174 143.364 258.174C143.877 258.174 144.32 258.071 144.694 257.866C145.076 257.651 145.366 257.343 145.562 256.942C145.767 256.541 145.87 256.06 145.87 255.5V251.65H146.864V259H145.912V256.984L146.066 257.348C145.832 257.889 145.468 258.314 144.974 258.622C144.488 258.921 143.919 259.07 143.266 259.07ZM149.634 259V248.612H150.628V259H149.634ZM156.516 259.07C155.75 259.07 155.078 258.911 154.5 258.594C153.921 258.267 153.468 257.824 153.142 257.264C152.815 256.695 152.652 256.046 152.652 255.318C152.652 254.59 152.806 253.946 153.114 253.386C153.431 252.826 153.86 252.387 154.402 252.07C154.952 251.743 155.568 251.58 156.25 251.58C156.94 251.58 157.552 251.739 158.084 252.056C158.625 252.364 159.05 252.803 159.358 253.372C159.666 253.932 159.82 254.581 159.82 255.318C159.82 255.365 159.815 255.416 159.806 255.472C159.806 255.519 159.806 255.57 159.806 255.626H153.408V254.884H159.274L158.882 255.178C158.882 254.646 158.765 254.175 158.532 253.764C158.308 253.344 158 253.017 157.608 252.784C157.216 252.551 156.763 252.434 156.25 252.434C155.746 252.434 155.293 252.551 154.892 252.784C154.49 253.017 154.178 253.344 153.954 253.764C153.73 254.184 153.618 254.665 153.618 255.206V255.36C153.618 255.92 153.739 256.415 153.982 256.844C154.234 257.264 154.579 257.595 155.018 257.838C155.466 258.071 155.974 258.188 156.544 258.188C156.992 258.188 157.407 258.109 157.79 257.95C158.182 257.791 158.518 257.549 158.798 257.222L159.358 257.866C159.031 258.258 158.62 258.557 158.126 258.762C157.64 258.967 157.104 259.07 156.516 259.07ZM164.769 259.07C164.069 259.07 163.439 258.911 162.879 258.594C162.328 258.277 161.894 257.838 161.577 257.278C161.26 256.709 161.101 256.055 161.101 255.318C161.101 254.571 161.26 253.918 161.577 253.358C161.894 252.798 162.328 252.364 162.879 252.056C163.439 251.739 164.069 251.58 164.769 251.58C165.413 251.58 165.987 251.725 166.491 252.014C167.004 252.303 167.41 252.728 167.709 253.288C168.017 253.839 168.171 254.515 168.171 255.318C168.171 256.111 168.022 256.788 167.723 257.348C167.424 257.908 167.018 258.337 166.505 258.636C166.001 258.925 165.422 259.07 164.769 259.07ZM164.839 258.188C165.362 258.188 165.828 258.071 166.239 257.838C166.659 257.595 166.986 257.259 167.219 256.83C167.462 256.391 167.583 255.887 167.583 255.318C167.583 254.739 167.462 254.235 167.219 253.806C166.986 253.377 166.659 253.045 166.239 252.812C165.828 252.569 165.362 252.448 164.839 252.448C164.326 252.448 163.864 252.569 163.453 252.812C163.042 253.045 162.716 253.377 162.473 253.806C162.23 254.235 162.109 254.739 162.109 255.318C162.109 255.887 162.23 256.391 162.473 256.83C162.716 257.259 163.042 257.595 163.453 257.838C163.864 258.071 164.326 258.188 164.839 258.188ZM167.611 259V256.788L167.709 255.304L167.569 253.82V248.612H168.563V259H167.611ZM179.601 259V257.376L179.559 257.11V254.394C179.559 253.769 179.382 253.288 179.027 252.952C178.682 252.616 178.164 252.448 177.473 252.448C176.997 252.448 176.545 252.527 176.115 252.686C175.686 252.845 175.322 253.055 175.023 253.316L174.575 252.574C174.949 252.257 175.397 252.014 175.919 251.846C176.442 251.669 176.993 251.58 177.571 251.58C178.523 251.58 179.256 251.818 179.769 252.294C180.292 252.761 180.553 253.475 180.553 254.436V259H179.601ZM177.067 259.07C176.517 259.07 176.036 258.981 175.625 258.804C175.224 258.617 174.916 258.365 174.701 258.048C174.487 257.721 174.379 257.348 174.379 256.928C174.379 256.545 174.468 256.2 174.645 255.892C174.832 255.575 175.131 255.323 175.541 255.136C175.961 254.94 176.521 254.842 177.221 254.842H179.755V255.584H177.249C176.54 255.584 176.045 255.71 175.765 255.962C175.495 256.214 175.359 256.527 175.359 256.9C175.359 257.32 175.523 257.656 175.849 257.908C176.176 258.16 176.633 258.286 177.221 258.286C177.781 258.286 178.262 258.16 178.663 257.908C179.074 257.647 179.373 257.273 179.559 256.788L179.783 257.474C179.597 257.959 179.27 258.347 178.803 258.636C178.346 258.925 177.767 259.07 177.067 259.07ZM189.969 259.07C189.241 259.07 188.588 258.911 188.009 258.594C187.44 258.267 186.992 257.824 186.665 257.264C186.339 256.695 186.175 256.046 186.175 255.318C186.175 254.581 186.339 253.932 186.665 253.372C186.992 252.812 187.44 252.373 188.009 252.056C188.588 251.739 189.241 251.58 189.969 251.58C190.595 251.58 191.159 251.701 191.663 251.944C192.167 252.187 192.564 252.551 192.853 253.036L192.111 253.54C191.859 253.167 191.547 252.891 191.173 252.714C190.8 252.537 190.394 252.448 189.955 252.448C189.433 252.448 188.961 252.569 188.541 252.812C188.121 253.045 187.79 253.377 187.547 253.806C187.305 254.235 187.183 254.739 187.183 255.318C187.183 255.897 187.305 256.401 187.547 256.83C187.79 257.259 188.121 257.595 188.541 257.838C188.961 258.071 189.433 258.188 189.955 258.188C190.394 258.188 190.8 258.099 191.173 257.922C191.547 257.745 191.859 257.474 192.111 257.11L192.853 257.614C192.564 258.09 192.167 258.454 191.663 258.706C191.159 258.949 190.595 259.07 189.969 259.07ZM194.697 259V248.612H195.691V259H194.697ZM203.062 259V257.376L203.02 257.11V254.394C203.02 253.769 202.843 253.288 202.488 252.952C202.143 252.616 201.625 252.448 200.934 252.448C200.458 252.448 200.006 252.527 199.576 252.686C199.147 252.845 198.783 253.055 198.484 253.316L198.036 252.574C198.41 252.257 198.858 252.014 199.38 251.846C199.903 251.669 200.454 251.58 201.032 251.58C201.984 251.58 202.717 251.818 203.23 252.294C203.753 252.761 204.014 253.475 204.014 254.436V259H203.062ZM200.528 259.07C199.978 259.07 199.497 258.981 199.086 258.804C198.685 258.617 198.377 258.365 198.162 258.048C197.948 257.721 197.84 257.348 197.84 256.928C197.84 256.545 197.929 256.2 198.106 255.892C198.293 255.575 198.592 255.323 199.002 255.136C199.422 254.94 199.982 254.842 200.682 254.842H203.216V255.584H200.71C200.001 255.584 199.506 255.71 199.226 255.962C198.956 256.214 198.82 256.527 198.82 256.9C198.82 257.32 198.984 257.656 199.31 257.908C199.637 258.16 200.094 258.286 200.682 258.286C201.242 258.286 201.723 258.16 202.124 257.908C202.535 257.647 202.834 257.273 203.02 256.788L203.244 257.474C203.058 257.959 202.731 258.347 202.264 258.636C201.807 258.925 201.228 259.07 200.528 259.07ZM208.688 259.07C208.081 259.07 207.507 258.986 206.966 258.818C206.425 258.641 206 258.421 205.692 258.16L206.14 257.376C206.439 257.6 206.821 257.796 207.288 257.964C207.755 258.123 208.245 258.202 208.758 258.202C209.458 258.202 209.962 258.095 210.27 257.88C210.578 257.656 210.732 257.362 210.732 256.998C210.732 256.727 210.643 256.517 210.466 256.368C210.298 256.209 210.074 256.093 209.794 256.018C209.514 255.934 209.201 255.864 208.856 255.808C208.511 255.752 208.165 255.687 207.82 255.612C207.484 255.537 207.176 255.43 206.896 255.29C206.616 255.141 206.387 254.94 206.21 254.688C206.042 254.436 205.958 254.1 205.958 253.68C205.958 253.279 206.07 252.919 206.294 252.602C206.518 252.285 206.845 252.037 207.274 251.86C207.713 251.673 208.245 251.58 208.87 251.58C209.346 251.58 209.822 251.645 210.298 251.776C210.774 251.897 211.166 252.061 211.474 252.266L211.04 253.064C210.713 252.84 210.363 252.681 209.99 252.588C209.617 252.485 209.243 252.434 208.87 252.434C208.207 252.434 207.717 252.551 207.4 252.784C207.092 253.008 206.938 253.297 206.938 253.652C206.938 253.932 207.022 254.151 207.19 254.31C207.367 254.469 207.596 254.595 207.876 254.688C208.165 254.772 208.478 254.842 208.814 254.898C209.159 254.954 209.5 255.024 209.836 255.108C210.181 255.183 210.494 255.29 210.774 255.43C211.063 255.561 211.292 255.752 211.46 256.004C211.637 256.247 211.726 256.569 211.726 256.97C211.726 257.399 211.605 257.773 211.362 258.09C211.129 258.398 210.783 258.641 210.326 258.818C209.878 258.986 209.332 259.07 208.688 259.07ZM215.524 259.07C214.917 259.07 214.343 258.986 213.802 258.818C213.261 258.641 212.836 258.421 212.528 258.16L212.976 257.376C213.275 257.6 213.657 257.796 214.124 257.964C214.591 258.123 215.081 258.202 215.594 258.202C216.294 258.202 216.798 258.095 217.106 257.88C217.414 257.656 217.568 257.362 217.568 256.998C217.568 256.727 217.479 256.517 217.302 256.368C217.134 256.209 216.91 256.093 216.63 256.018C216.35 255.934 216.037 255.864 215.692 255.808C215.347 255.752 215.001 255.687 214.656 255.612C214.32 255.537 214.012 255.43 213.732 255.29C213.452 255.141 213.223 254.94 213.046 254.688C212.878 254.436 212.794 254.1 212.794 253.68C212.794 253.279 212.906 252.919 213.13 252.602C213.354 252.285 213.681 252.037 214.11 251.86C214.549 251.673 215.081 251.58 215.706 251.58C216.182 251.58 216.658 251.645 217.134 251.776C217.61 251.897 218.002 252.061 218.31 252.266L217.876 253.064C217.549 252.84 217.199 252.681 216.826 252.588C216.453 252.485 216.079 252.434 215.706 252.434C215.043 252.434 214.553 252.551 214.236 252.784C213.928 253.008 213.774 253.297 213.774 253.652C213.774 253.932 213.858 254.151 214.026 254.31C214.203 254.469 214.432 254.595 214.712 254.688C215.001 254.772 215.314 254.842 215.65 254.898C215.995 254.954 216.336 255.024 216.672 255.108C217.017 255.183 217.33 255.29 217.61 255.43C217.899 255.561 218.128 255.752 218.296 256.004C218.473 256.247 218.562 256.569 218.562 256.97C218.562 257.399 218.441 257.773 218.198 258.09C217.965 258.398 217.619 258.641 217.162 258.818C216.714 258.986 216.168 259.07 215.524 259.07Z" fill="#313131"/>
<rect x="227" y="236" width="48" height="36" fill="#3D10D2"/>
<path d="M286.156 252.852C287.34 252.852 288.216 253.084 288.784 253.548C289.352 254.004 289.636 254.628 289.636 255.42C289.636 255.924 289.512 256.38 289.264 256.788C289.016 257.196 288.644 257.52 288.148 257.76C287.652 258 287.04 258.12 286.312 258.12C285.712 258.12 285.132 258.036 284.572 257.868C284.012 257.692 283.54 257.452 283.156 257.148L283.816 255.936C284.128 256.192 284.5 256.396 284.932 256.548C285.372 256.692 285.824 256.764 286.288 256.764C286.84 256.764 287.272 256.652 287.584 256.428C287.904 256.196 288.064 255.88 288.064 255.48C288.064 255.048 287.892 254.724 287.548 254.508C287.212 254.284 286.632 254.172 285.808 254.172H283.78L284.212 249.6H289.144V250.908H285.532L285.352 252.852H286.156ZM292.291 254.124C291.691 254.124 291.207 253.912 290.839 253.488C290.471 253.064 290.287 252.508 290.287 251.82C290.287 251.132 290.471 250.576 290.839 250.152C291.207 249.728 291.691 249.516 292.291 249.516C292.891 249.516 293.375 249.728 293.743 250.152C294.119 250.568 294.307 251.124 294.307 251.82C294.307 252.516 294.119 253.076 293.743 253.5C293.375 253.916 292.891 254.124 292.291 254.124ZM297.331 249.6H298.507L292.771 258H291.595L297.331 249.6ZM292.291 253.284C292.619 253.284 292.871 253.156 293.047 252.9C293.231 252.644 293.323 252.284 293.323 251.82C293.323 251.356 293.231 250.996 293.047 250.74C292.871 250.484 292.619 250.356 292.291 250.356C291.979 250.356 291.727 250.488 291.535 250.752C291.351 251.008 291.259 251.364 291.259 251.82C291.259 252.276 291.351 252.636 291.535 252.9C291.727 253.156 291.979 253.284 292.291 253.284ZM297.799 258.084C297.199 258.084 296.715 257.872 296.347 257.448C295.979 257.024 295.795 256.468 295.795 255.78C295.795 255.092 295.979 254.536 296.347 254.112C296.715 253.688 297.199 253.476 297.799 253.476C298.399 253.476 298.883 253.688 299.251 254.112C299.627 254.536 299.815 255.092 299.815 255.78C299.815 256.468 299.627 257.024 299.251 257.448C298.883 257.872 298.399 258.084 297.799 258.084ZM297.799 257.244C298.119 257.244 298.371 257.116 298.555 256.86C298.739 256.596 298.831 256.236 298.831 255.78C298.831 255.324 298.739 254.968 298.555 254.712C298.371 254.448 298.119 254.316 297.799 254.316C297.479 254.316 297.227 254.444 297.043 254.7C296.859 254.956 296.767 255.316 296.767 255.78C296.767 256.244 296.859 256.604 297.043 256.86C297.227 257.116 297.479 257.244 297.799 257.244Z" fill="#313131"/>
<path d="M99.1351 331V321.2H100.171V331H99.1351ZM111.42 331V329.376L111.378 329.11V326.394C111.378 325.769 111.2 325.288 110.846 324.952C110.5 324.616 109.982 324.448 109.292 324.448C108.816 324.448 108.363 324.527 107.934 324.686C107.504 324.845 107.14 325.055 106.842 325.316L106.394 324.574C106.767 324.257 107.215 324.014 107.738 323.846C108.26 323.669 108.811 323.58 109.39 323.58C110.342 323.58 111.074 323.818 111.588 324.294C112.11 324.761 112.372 325.475 112.372 326.436V331H111.42ZM108.886 331.07C108.335 331.07 107.854 330.981 107.444 330.804C107.042 330.617 106.734 330.365 106.52 330.048C106.305 329.721 106.198 329.348 106.198 328.928C106.198 328.545 106.286 328.2 106.464 327.892C106.65 327.575 106.949 327.323 107.36 327.136C107.78 326.94 108.34 326.842 109.04 326.842H111.574V327.584H109.068C108.358 327.584 107.864 327.71 107.584 327.962C107.313 328.214 107.178 328.527 107.178 328.9C107.178 329.32 107.341 329.656 107.668 329.908C107.994 330.16 108.452 330.286 109.04 330.286C109.6 330.286 110.08 330.16 110.482 329.908C110.892 329.647 111.191 329.273 111.378 328.788L111.602 329.474C111.415 329.959 111.088 330.347 110.622 330.636C110.164 330.925 109.586 331.07 108.886 331.07ZM117.396 331.07C116.705 331.07 116.173 330.883 115.8 330.51C115.426 330.137 115.24 329.609 115.24 328.928V322.026H116.234V328.872C116.234 329.301 116.341 329.633 116.556 329.866C116.78 330.099 117.097 330.216 117.508 330.216C117.946 330.216 118.31 330.09 118.6 329.838L118.95 330.552C118.754 330.729 118.516 330.86 118.236 330.944C117.965 331.028 117.685 331.07 117.396 331.07ZM113.924 324.476V323.65H118.474V324.476H113.924ZM122.892 331.07C122.201 331.07 121.669 330.883 121.296 330.51C120.922 330.137 120.736 329.609 120.736 328.928V322.026H121.73V328.872C121.73 329.301 121.837 329.633 122.052 329.866C122.276 330.099 122.593 330.216 123.004 330.216C123.442 330.216 123.806 330.09 124.096 329.838L124.446 330.552C124.25 330.729 124.012 330.86 123.732 330.944C123.461 331.028 123.181 331.07 122.892 331.07ZM119.42 324.476V323.65H123.97V324.476H119.42ZM129.117 331.07C128.352 331.07 127.68 330.911 127.101 330.594C126.523 330.267 126.07 329.824 125.743 329.264C125.417 328.695 125.253 328.046 125.253 327.318C125.253 326.59 125.407 325.946 125.715 325.386C126.033 324.826 126.462 324.387 127.003 324.07C127.554 323.743 128.17 323.58 128.851 323.58C129.542 323.58 130.153 323.739 130.685 324.056C131.227 324.364 131.651 324.803 131.959 325.372C132.267 325.932 132.421 326.581 132.421 327.318C132.421 327.365 132.417 327.416 132.407 327.472C132.407 327.519 132.407 327.57 132.407 327.626H126.009V326.884H131.875L131.483 327.178C131.483 326.646 131.367 326.175 131.133 325.764C130.909 325.344 130.601 325.017 130.209 324.784C129.817 324.551 129.365 324.434 128.851 324.434C128.347 324.434 127.895 324.551 127.493 324.784C127.092 325.017 126.779 325.344 126.555 325.764C126.331 326.184 126.219 326.665 126.219 327.206V327.36C126.219 327.92 126.341 328.415 126.583 328.844C126.835 329.264 127.181 329.595 127.619 329.838C128.067 330.071 128.576 330.188 129.145 330.188C129.593 330.188 130.009 330.109 130.391 329.95C130.783 329.791 131.119 329.549 131.399 329.222L131.959 329.866C131.633 330.258 131.222 330.557 130.727 330.762C130.242 330.967 129.705 331.07 129.117 331.07ZM138.197 323.58C138.794 323.58 139.317 323.697 139.765 323.93C140.222 324.154 140.577 324.499 140.829 324.966C141.09 325.433 141.221 326.021 141.221 326.73V331H140.227V326.828C140.227 326.053 140.031 325.47 139.639 325.078C139.256 324.677 138.715 324.476 138.015 324.476C137.492 324.476 137.035 324.583 136.643 324.798C136.26 325.003 135.961 325.307 135.747 325.708C135.541 326.1 135.439 326.576 135.439 327.136V331H134.445V323.65H135.397V325.666L135.243 325.288C135.476 324.756 135.849 324.341 136.363 324.042C136.876 323.734 137.487 323.58 138.197 323.58ZM146.832 331.07C146.132 331.07 145.502 330.911 144.942 330.594C144.391 330.277 143.957 329.838 143.64 329.278C143.322 328.709 143.164 328.055 143.164 327.318C143.164 326.571 143.322 325.918 143.64 325.358C143.957 324.798 144.391 324.364 144.942 324.056C145.502 323.739 146.132 323.58 146.832 323.58C147.476 323.58 148.05 323.725 148.554 324.014C149.067 324.303 149.473 324.728 149.772 325.288C150.08 325.839 150.234 326.515 150.234 327.318C150.234 328.111 150.084 328.788 149.786 329.348C149.487 329.908 149.081 330.337 148.568 330.636C148.064 330.925 147.485 331.07 146.832 331.07ZM146.902 330.188C147.424 330.188 147.891 330.071 148.302 329.838C148.722 329.595 149.048 329.259 149.282 328.83C149.524 328.391 149.646 327.887 149.646 327.318C149.646 326.739 149.524 326.235 149.282 325.806C149.048 325.377 148.722 325.045 148.302 324.812C147.891 324.569 147.424 324.448 146.902 324.448C146.388 324.448 145.926 324.569 145.516 324.812C145.105 325.045 144.778 325.377 144.536 325.806C144.293 326.235 144.172 326.739 144.172 327.318C144.172 327.887 144.293 328.391 144.536 328.83C144.778 329.259 145.105 329.595 145.516 329.838C145.926 330.071 146.388 330.188 146.902 330.188ZM149.674 331V328.788L149.772 327.304L149.632 325.82V320.612H150.626V331H149.674ZM156.516 331.07C155.75 331.07 155.078 330.911 154.5 330.594C153.921 330.267 153.468 329.824 153.142 329.264C152.815 328.695 152.652 328.046 152.652 327.318C152.652 326.59 152.806 325.946 153.114 325.386C153.431 324.826 153.86 324.387 154.402 324.07C154.952 323.743 155.568 323.58 156.25 323.58C156.94 323.58 157.552 323.739 158.084 324.056C158.625 324.364 159.05 324.803 159.358 325.372C159.666 325.932 159.82 326.581 159.82 327.318C159.82 327.365 159.815 327.416 159.806 327.472C159.806 327.519 159.806 327.57 159.806 327.626H153.408V326.884H159.274L158.882 327.178C158.882 326.646 158.765 326.175 158.532 325.764C158.308 325.344 158 325.017 157.608 324.784C157.216 324.551 156.763 324.434 156.25 324.434C155.746 324.434 155.293 324.551 154.892 324.784C154.49 325.017 154.178 325.344 153.954 325.764C153.73 326.184 153.618 326.665 153.618 327.206V327.36C153.618 327.92 153.739 328.415 153.982 328.844C154.234 329.264 154.579 329.595 155.018 329.838C155.466 330.071 155.974 330.188 156.544 330.188C156.992 330.188 157.407 330.109 157.79 329.95C158.182 329.791 158.518 329.549 158.798 329.222L159.358 329.866C159.031 330.258 158.62 330.557 158.126 330.762C157.64 330.967 157.104 331.07 156.516 331.07ZM164.769 331.07C164.069 331.07 163.439 330.911 162.879 330.594C162.328 330.277 161.894 329.838 161.577 329.278C161.26 328.709 161.101 328.055 161.101 327.318C161.101 326.571 161.26 325.918 161.577 325.358C161.894 324.798 162.328 324.364 162.879 324.056C163.439 323.739 164.069 323.58 164.769 323.58C165.413 323.58 165.987 323.725 166.491 324.014C167.004 324.303 167.41 324.728 167.709 325.288C168.017 325.839 168.171 326.515 168.171 327.318C168.171 328.111 168.022 328.788 167.723 329.348C167.424 329.908 167.018 330.337 166.505 330.636C166.001 330.925 165.422 331.07 164.769 331.07ZM164.839 330.188C165.362 330.188 165.828 330.071 166.239 329.838C166.659 329.595 166.986 329.259 167.219 328.83C167.462 328.391 167.583 327.887 167.583 327.318C167.583 326.739 167.462 326.235 167.219 325.806C166.986 325.377 166.659 325.045 166.239 324.812C165.828 324.569 165.362 324.448 164.839 324.448C164.326 324.448 163.864 324.569 163.453 324.812C163.042 325.045 162.716 325.377 162.473 325.806C162.23 326.235 162.109 326.739 162.109 327.318C162.109 327.887 162.23 328.391 162.473 328.83C162.716 329.259 163.042 329.595 163.453 329.838C163.864 330.071 164.326 330.188 164.839 330.188ZM167.611 331V328.788L167.709 327.304L167.569 325.82V320.612H168.563V331H167.611ZM179.601 331V329.376L179.559 329.11V326.394C179.559 325.769 179.382 325.288 179.027 324.952C178.682 324.616 178.164 324.448 177.473 324.448C176.997 324.448 176.545 324.527 176.115 324.686C175.686 324.845 175.322 325.055 175.023 325.316L174.575 324.574C174.949 324.257 175.397 324.014 175.919 323.846C176.442 323.669 176.993 323.58 177.571 323.58C178.523 323.58 179.256 323.818 179.769 324.294C180.292 324.761 180.553 325.475 180.553 326.436V331H179.601ZM177.067 331.07C176.517 331.07 176.036 330.981 175.625 330.804C175.224 330.617 174.916 330.365 174.701 330.048C174.487 329.721 174.379 329.348 174.379 328.928C174.379 328.545 174.468 328.2 174.645 327.892C174.832 327.575 175.131 327.323 175.541 327.136C175.961 326.94 176.521 326.842 177.221 326.842H179.755V327.584H177.249C176.54 327.584 176.045 327.71 175.765 327.962C175.495 328.214 175.359 328.527 175.359 328.9C175.359 329.32 175.523 329.656 175.849 329.908C176.176 330.16 176.633 330.286 177.221 330.286C177.781 330.286 178.262 330.16 178.663 329.908C179.074 329.647 179.373 329.273 179.559 328.788L179.783 329.474C179.597 329.959 179.27 330.347 178.803 330.636C178.346 330.925 177.767 331.07 177.067 331.07ZM189.969 331.07C189.241 331.07 188.588 330.911 188.009 330.594C187.44 330.267 186.992 329.824 186.665 329.264C186.339 328.695 186.175 328.046 186.175 327.318C186.175 326.581 186.339 325.932 186.665 325.372C186.992 324.812 187.44 324.373 188.009 324.056C188.588 323.739 189.241 323.58 189.969 323.58C190.595 323.58 191.159 323.701 191.663 323.944C192.167 324.187 192.564 324.551 192.853 325.036L192.111 325.54C191.859 325.167 191.547 324.891 191.173 324.714C190.8 324.537 190.394 324.448 189.955 324.448C189.433 324.448 188.961 324.569 188.541 324.812C188.121 325.045 187.79 325.377 187.547 325.806C187.305 326.235 187.183 326.739 187.183 327.318C187.183 327.897 187.305 328.401 187.547 328.83C187.79 329.259 188.121 329.595 188.541 329.838C188.961 330.071 189.433 330.188 189.955 330.188C190.394 330.188 190.8 330.099 191.173 329.922C191.547 329.745 191.859 329.474 192.111 329.11L192.853 329.614C192.564 330.09 192.167 330.454 191.663 330.706C191.159 330.949 190.595 331.07 189.969 331.07ZM194.697 331V320.612H195.691V331H194.697ZM203.062 331V329.376L203.02 329.11V326.394C203.02 325.769 202.843 325.288 202.488 324.952C202.143 324.616 201.625 324.448 200.934 324.448C200.458 324.448 200.006 324.527 199.576 324.686C199.147 324.845 198.783 325.055 198.484 325.316L198.036 324.574C198.41 324.257 198.858 324.014 199.38 323.846C199.903 323.669 200.454 323.58 201.032 323.58C201.984 323.58 202.717 323.818 203.23 324.294C203.753 324.761 204.014 325.475 204.014 326.436V331H203.062ZM200.528 331.07C199.978 331.07 199.497 330.981 199.086 330.804C198.685 330.617 198.377 330.365 198.162 330.048C197.948 329.721 197.84 329.348 197.84 328.928C197.84 328.545 197.929 328.2 198.106 327.892C198.293 327.575 198.592 327.323 199.002 327.136C199.422 326.94 199.982 326.842 200.682 326.842H203.216V327.584H200.71C200.001 327.584 199.506 327.71 199.226 327.962C198.956 328.214 198.82 328.527 198.82 328.9C198.82 329.32 198.984 329.656 199.31 329.908C199.637 330.16 200.094 330.286 200.682 330.286C201.242 330.286 201.723 330.16 202.124 329.908C202.535 329.647 202.834 329.273 203.02 328.788L203.244 329.474C203.058 329.959 202.731 330.347 202.264 330.636C201.807 330.925 201.228 331.07 200.528 331.07ZM208.688 331.07C208.081 331.07 207.507 330.986 206.966 330.818C206.425 330.641 206 330.421 205.692 330.16L206.14 329.376C206.439 329.6 206.821 329.796 207.288 329.964C207.755 330.123 208.245 330.202 208.758 330.202C209.458 330.202 209.962 330.095 210.27 329.88C210.578 329.656 210.732 329.362 210.732 328.998C210.732 328.727 210.643 328.517 210.466 328.368C210.298 328.209 210.074 328.093 209.794 328.018C209.514 327.934 209.201 327.864 208.856 327.808C208.511 327.752 208.165 327.687 207.82 327.612C207.484 327.537 207.176 327.43 206.896 327.29C206.616 327.141 206.387 326.94 206.21 326.688C206.042 326.436 205.958 326.1 205.958 325.68C205.958 325.279 206.07 324.919 206.294 324.602C206.518 324.285 206.845 324.037 207.274 323.86C207.713 323.673 208.245 323.58 208.87 323.58C209.346 323.58 209.822 323.645 210.298 323.776C210.774 323.897 211.166 324.061 211.474 324.266L211.04 325.064C210.713 324.84 210.363 324.681 209.99 324.588C209.617 324.485 209.243 324.434 208.87 324.434C208.207 324.434 207.717 324.551 207.4 324.784C207.092 325.008 206.938 325.297 206.938 325.652C206.938 325.932 207.022 326.151 207.19 326.31C207.367 326.469 207.596 326.595 207.876 326.688C208.165 326.772 208.478 326.842 208.814 326.898C209.159 326.954 209.5 327.024 209.836 327.108C210.181 327.183 210.494 327.29 210.774 327.43C211.063 327.561 211.292 327.752 211.46 328.004C211.637 328.247 211.726 328.569 211.726 328.97C211.726 329.399 211.605 329.773 211.362 330.09C211.129 330.398 210.783 330.641 210.326 330.818C209.878 330.986 209.332 331.07 208.688 331.07ZM215.524 331.07C214.917 331.07 214.343 330.986 213.802 330.818C213.261 330.641 212.836 330.421 212.528 330.16L212.976 329.376C213.275 329.6 213.657 329.796 214.124 329.964C214.591 330.123 215.081 330.202 215.594 330.202C216.294 330.202 216.798 330.095 217.106 329.88C217.414 329.656 217.568 329.362 217.568 328.998C217.568 328.727 217.479 328.517 217.302 328.368C217.134 328.209 216.91 328.093 216.63 328.018C216.35 327.934 216.037 327.864 215.692 327.808C215.347 327.752 215.001 327.687 214.656 327.612C214.32 327.537 214.012 327.43 213.732 327.29C213.452 327.141 213.223 326.94 213.046 326.688C212.878 326.436 212.794 326.1 212.794 325.68C212.794 325.279 212.906 324.919 213.13 324.602C213.354 324.285 213.681 324.037 214.11 323.86C214.549 323.673 215.081 323.58 215.706 323.58C216.182 323.58 216.658 323.645 217.134 323.776C217.61 323.897 218.002 324.061 218.31 324.266L217.876 325.064C217.549 324.84 217.199 324.681 216.826 324.588C216.453 324.485 216.079 324.434 215.706 324.434C215.043 324.434 214.553 324.551 214.236 324.784C213.928 325.008 213.774 325.297 213.774 325.652C213.774 325.932 213.858 326.151 214.026 326.31C214.203 326.469 214.432 326.595 214.712 326.688C215.001 326.772 215.314 326.842 215.65 326.898C215.995 326.954 216.336 327.024 216.672 327.108C217.017 327.183 217.33 327.29 217.61 327.43C217.899 327.561 218.128 327.752 218.296 328.004C218.473 328.247 218.562 328.569 218.562 328.97C218.562 329.399 218.441 329.773 218.198 330.09C217.965 330.398 217.619 330.641 217.162 330.818C216.714 330.986 216.168 331.07 215.524 331.07Z" fill="#313131"/>
<rect x="227" y="308" width="151" height="36" fill="#BCBC5E"/>
<path d="M392.612 328.68V330H386.42V328.956L389.756 325.788C390.132 325.428 390.384 325.116 390.512 324.852C390.648 324.58 390.716 324.312 390.716 324.048C390.716 323.656 390.584 323.356 390.32 323.148C390.056 322.94 389.668 322.836 389.156 322.836C388.3 322.836 387.644 323.128 387.188 323.712L386.096 322.872C386.424 322.432 386.864 322.092 387.416 321.852C387.976 321.604 388.6 321.48 389.288 321.48C390.2 321.48 390.928 321.696 391.472 322.128C392.016 322.56 392.288 323.148 392.288 323.892C392.288 324.348 392.192 324.776 392 325.176C391.808 325.576 391.44 326.032 390.896 326.544L388.652 328.68H392.612ZM396.981 330.12C396.309 330.12 395.709 329.952 395.181 329.616C394.653 329.272 394.237 328.776 393.933 328.128C393.629 327.472 393.477 326.696 393.477 325.8C393.477 324.904 393.629 324.132 393.933 323.484C394.237 322.828 394.653 322.332 395.181 321.996C395.709 321.652 396.309 321.48 396.981 321.48C397.653 321.48 398.253 321.652 398.781 321.996C399.317 322.332 399.737 322.828 400.041 323.484C400.345 324.132 400.497 324.904 400.497 325.8C400.497 326.696 400.345 327.472 400.041 328.128C399.737 328.776 399.317 329.272 398.781 329.616C398.253 329.952 397.653 330.12 396.981 330.12ZM396.981 328.764C397.581 328.764 398.053 328.516 398.397 328.02C398.749 327.524 398.925 326.784 398.925 325.8C398.925 324.816 398.749 324.076 398.397 323.58C398.053 323.084 397.581 322.836 396.981 322.836C396.389 322.836 395.917 323.084 395.565 323.58C395.221 324.076 395.049 324.816 395.049 325.8C395.049 326.784 395.221 327.524 395.565 328.02C395.917 328.516 396.389 328.764 396.981 328.764ZM403.423 326.124C402.823 326.124 402.339 325.912 401.971 325.488C401.603 325.064 401.419 324.508 401.419 323.82C401.419 323.132 401.603 322.576 401.971 322.152C402.339 321.728 402.823 321.516 403.423 321.516C404.023 321.516 404.507 321.728 404.875 322.152C405.251 322.568 405.439 323.124 405.439 323.82C405.439 324.516 405.251 325.076 404.875 325.5C404.507 325.916 404.023 326.124 403.423 326.124ZM408.463 321.6H409.639L403.903 330H402.727L408.463 321.6ZM403.423 325.284C403.751 325.284 404.003 325.156 404.179 324.9C404.363 324.644 404.455 324.284 404.455 323.82C404.455 323.356 404.363 322.996 404.179 322.74C404.003 322.484 403.751 322.356 403.423 322.356C403.111 322.356 402.859 322.488 402.667 322.752C402.483 323.008 402.391 323.364 402.391 323.82C402.391 324.276 402.483 324.636 402.667 324.9C402.859 325.156 403.111 325.284 403.423 325.284ZM408.931 330.084C408.331 330.084 407.847 329.872 407.479 329.448C407.111 329.024 406.927 328.468 406.927 327.78C406.927 327.092 407.111 326.536 407.479 326.112C407.847 325.688 408.331 325.476 408.931 325.476C409.531 325.476 410.015 325.688 410.383 326.112C410.759 326.536 410.947 327.092 410.947 327.78C410.947 328.468 410.759 329.024 410.383 329.448C410.015 329.872 409.531 330.084 408.931 330.084ZM408.931 329.244C409.251 329.244 409.503 329.116 409.687 328.86C409.871 328.596 409.963 328.236 409.963 327.78C409.963 327.324 409.871 326.968 409.687 326.712C409.503 326.448 409.251 326.316 408.931 326.316C408.611 326.316 408.359 326.444 408.175 326.7C407.991 326.956 407.899 327.316 407.899 327.78C407.899 328.244 407.991 328.604 408.175 328.86C408.359 329.116 408.611 329.244 408.931 329.244Z" fill="#313131"/>
</g>
<defs>
<clipPath id="clip0_3084_52772">
<rect width="600" height="386" rx="16" fill="white"/>
</clipPath>
</defs>
</svg>
