<svg width="392" height="361" viewBox="0 0 392 361" fill="none" xmlns="http://www.w3.org/2000/svg">
<rect width="392" height="361" rx="16" fill="#F5F5E5"/>
<path d="M27.712 36.312H33.104V38.328H27.712V36.312ZM27.904 40.92H34V43H25.328V31.8H33.792V33.88H27.904V40.92ZM41.1184 34.264C41.801 34.264 42.409 34.4027 42.9424 34.68C43.4864 34.9467 43.913 35.3627 44.2224 35.928C44.5317 36.4827 44.6864 37.1973 44.6864 38.072V43H42.1904V38.456C42.1904 37.7627 42.0357 37.2507 41.7264 36.92C41.4277 36.5893 41.001 36.424 40.4464 36.424C40.0517 36.424 39.6944 36.5093 39.3744 36.68C39.065 36.84 38.8197 37.0907 38.6384 37.432C38.4677 37.7733 38.3824 38.2107 38.3824 38.744V43H35.8864V34.392H38.2704V36.776L37.8224 36.056C38.1317 35.48 38.5744 35.0373 39.1504 34.728C39.7264 34.4187 40.3824 34.264 41.1184 34.264ZM51.0594 46.232C50.2487 46.232 49.4647 46.1307 48.7074 45.928C47.9607 45.736 47.3367 45.4427 46.8354 45.048L47.8274 43.256C48.19 43.5547 48.6487 43.7893 49.2034 43.96C49.7687 44.1413 50.3234 44.232 50.8674 44.232C51.7527 44.232 52.3927 44.0347 52.7874 43.64C53.1927 43.2453 53.3954 42.6587 53.3954 41.88V40.584L53.5554 38.424L53.5234 36.248V34.392H55.8914V41.56C55.8914 43.16 55.4754 44.3387 54.6434 45.096C53.8114 45.8533 52.6167 46.232 51.0594 46.232ZM50.6754 42.584C49.8754 42.584 49.15 42.4133 48.4994 42.072C47.8594 41.72 47.342 41.2347 46.9474 40.616C46.5634 39.9867 46.3714 39.256 46.3714 38.424C46.3714 37.5813 46.5634 36.8507 46.9474 36.232C47.342 35.6027 47.8594 35.1173 48.4994 34.776C49.15 34.4347 49.8754 34.264 50.6754 34.264C51.4007 34.264 52.0407 34.4133 52.5954 34.712C53.15 35 53.582 35.4533 53.8914 36.072C54.2007 36.68 54.3554 37.464 54.3554 38.424C54.3554 39.3733 54.2007 40.1573 53.8914 40.776C53.582 41.384 53.15 41.8373 52.5954 42.136C52.0407 42.4347 51.4007 42.584 50.6754 42.584ZM51.1714 40.536C51.6087 40.536 51.998 40.4507 52.3394 40.28C52.6807 40.0987 52.9474 39.848 53.1394 39.528C53.3314 39.208 53.4274 38.84 53.4274 38.424C53.4274 37.9973 53.3314 37.6293 53.1394 37.32C52.9474 37 52.6807 36.7547 52.3394 36.584C51.998 36.4027 51.6087 36.312 51.1714 36.312C50.734 36.312 50.3447 36.4027 50.0034 36.584C49.662 36.7547 49.39 37 49.1874 37.32C48.9954 37.6293 48.8994 37.9973 48.8994 38.424C48.8994 38.84 48.9954 39.208 49.1874 39.528C49.39 39.848 49.662 40.0987 50.0034 40.28C50.3447 40.4507 50.734 40.536 51.1714 40.536ZM58.2145 43V31.128H60.7105V43H58.2145ZM63.027 43V34.392H65.523V43H63.027ZM64.275 33.192C63.8163 33.192 63.443 33.0587 63.155 32.792C62.867 32.5253 62.723 32.1947 62.723 31.8C62.723 31.4053 62.867 31.0747 63.155 30.808C63.443 30.5413 63.8163 30.408 64.275 30.408C64.7337 30.408 65.107 30.536 65.395 30.792C65.683 31.0373 65.827 31.3573 65.827 31.752C65.827 32.168 65.683 32.5147 65.395 32.792C65.1177 33.0587 64.7443 33.192 64.275 33.192ZM70.7355 43.128C69.9995 43.128 69.2902 43.0427 68.6075 42.872C67.9355 42.6907 67.4022 42.4667 67.0075 42.2L67.8395 40.408C68.2342 40.6533 68.6982 40.856 69.2315 41.016C69.7755 41.1653 70.3088 41.24 70.8315 41.24C71.4075 41.24 71.8128 41.1707 72.0475 41.032C72.2928 40.8933 72.4155 40.7013 72.4155 40.456C72.4155 40.2533 72.3195 40.104 72.1275 40.008C71.9462 39.9013 71.7008 39.8213 71.3915 39.768C71.0822 39.7147 70.7408 39.6613 70.3675 39.608C70.0048 39.5547 69.6368 39.4853 69.2635 39.4C68.8902 39.304 68.5488 39.1653 68.2395 38.984C67.9302 38.8027 67.6795 38.5573 67.4875 38.248C67.3062 37.9387 67.2155 37.5387 67.2155 37.048C67.2155 36.504 67.3702 36.024 67.6795 35.608C67.9995 35.192 68.4582 34.8667 69.0555 34.632C69.6528 34.3867 70.3675 34.264 71.1995 34.264C71.7862 34.264 72.3835 34.328 72.9915 34.456C73.5995 34.584 74.1062 34.7707 74.5115 35.016L73.6795 36.792C73.2635 36.5467 72.8422 36.3813 72.4155 36.296C71.9995 36.2 71.5942 36.152 71.1995 36.152C70.6448 36.152 70.2395 36.2267 69.9835 36.376C69.7275 36.5253 69.5995 36.7173 69.5995 36.952C69.5995 37.1653 69.6902 37.3253 69.8715 37.432C70.0635 37.5387 70.3142 37.624 70.6235 37.688C70.9328 37.752 71.2688 37.8107 71.6315 37.864C72.0048 37.9067 72.3782 37.976 72.7515 38.072C73.1248 38.168 73.4608 38.3067 73.7595 38.488C74.0688 38.6587 74.3195 38.8987 74.5115 39.208C74.7035 39.5067 74.7995 39.9013 74.7995 40.392C74.7995 40.9253 74.6395 41.4 74.3195 41.816C73.9995 42.2213 73.5355 42.5413 72.9275 42.776C72.3302 43.0107 71.5995 43.128 70.7355 43.128ZM81.5715 34.264C82.2542 34.264 82.8622 34.4027 83.3955 34.68C83.9395 34.9467 84.3662 35.3627 84.6755 35.928C84.9848 36.4827 85.1395 37.1973 85.1395 38.072V43H82.6435V38.456C82.6435 37.7627 82.4888 37.2507 82.1795 36.92C81.8808 36.5893 81.4542 36.424 80.8995 36.424C80.5048 36.424 80.1475 36.5093 79.8275 36.68C79.5182 36.84 79.2728 37.0907 79.0915 37.432C78.9208 37.7733 78.8355 38.2107 78.8355 38.744V43H76.3395V31.128H78.8355V36.776L78.2755 36.056C78.5848 35.48 79.0275 35.0373 79.6035 34.728C80.1795 34.4187 80.8355 34.264 81.5715 34.264ZM91.9333 43V31.128H94.4293V43H91.9333ZM101.018 43.128C100.036 43.128 99.1724 42.936 98.4258 42.552C97.6898 42.168 97.1191 41.6453 96.7138 40.984C96.3084 40.312 96.1058 39.5493 96.1058 38.696C96.1058 37.832 96.3031 37.0693 96.6978 36.408C97.1031 35.736 97.6524 35.2133 98.3458 34.84C99.0391 34.456 99.8231 34.264 100.698 34.264C101.54 34.264 102.298 34.4453 102.97 34.808C103.652 35.16 104.191 35.672 104.586 36.344C104.98 37.0053 105.178 37.8 105.178 38.728C105.178 38.824 105.172 38.936 105.162 39.064C105.151 39.1813 105.14 39.2933 105.13 39.4H98.1378V37.944H103.818L102.858 38.376C102.858 37.928 102.767 37.5387 102.586 37.208C102.404 36.8773 102.154 36.6213 101.834 36.44C101.514 36.248 101.14 36.152 100.714 36.152C100.287 36.152 99.9084 36.248 99.5778 36.44C99.2578 36.6213 99.0071 36.8827 98.8258 37.224C98.6444 37.5547 98.5538 37.9493 98.5538 38.408V38.792C98.5538 39.2613 98.6551 39.6773 98.8578 40.04C99.0711 40.392 99.3644 40.664 99.7378 40.856C100.122 41.0373 100.57 41.128 101.082 41.128C101.54 41.128 101.94 41.0587 102.282 40.92C102.634 40.7813 102.954 40.5733 103.242 40.296L104.57 41.736C104.175 42.184 103.679 42.5307 103.082 42.776C102.484 43.0107 101.796 43.128 101.018 43.128ZM109.019 43L105.403 34.392H107.979L110.987 41.8H109.707L112.827 34.392H115.227L111.595 43H109.019ZM120.283 43.128C119.302 43.128 118.438 42.936 117.691 42.552C116.955 42.168 116.385 41.6453 115.979 40.984C115.574 40.312 115.371 39.5493 115.371 38.696C115.371 37.832 115.569 37.0693 115.963 36.408C116.369 35.736 116.918 35.2133 117.611 34.84C118.305 34.456 119.089 34.264 119.963 34.264C120.806 34.264 121.563 34.4453 122.235 34.808C122.918 35.16 123.457 35.672 123.851 36.344C124.246 37.0053 124.443 37.8 124.443 38.728C124.443 38.824 124.438 38.936 124.427 39.064C124.417 39.1813 124.406 39.2933 124.395 39.4H117.403V37.944H123.083L122.123 38.376C122.123 37.928 122.033 37.5387 121.851 37.208C121.67 36.8773 121.419 36.6213 121.099 36.44C120.779 36.248 120.406 36.152 119.979 36.152C119.553 36.152 119.174 36.248 118.843 36.44C118.523 36.6213 118.273 36.8827 118.091 37.224C117.91 37.5547 117.819 37.9493 117.819 38.408V38.792C117.819 39.2613 117.921 39.6773 118.123 40.04C118.337 40.392 118.63 40.664 119.003 40.856C119.387 41.0373 119.835 41.128 120.347 41.128C120.806 41.128 121.206 41.0587 121.547 40.92C121.899 40.7813 122.219 40.5733 122.507 40.296L123.835 41.736C123.441 42.184 122.945 42.5307 122.347 42.776C121.75 43.0107 121.062 43.128 120.283 43.128ZM126.105 43V31.128H128.601V43H126.105Z" fill="#313131"/>
<circle cx="32" cy="129" r="8" fill="#BCBC5E"/>
<path d="M49.824 135V123.8H54.656C55.904 123.8 56.8693 124.051 57.552 124.552C58.2453 125.053 58.592 125.763 58.592 126.68C58.592 127.288 58.448 127.8 58.16 128.216C57.8827 128.632 57.4987 128.947 57.008 129.16C56.528 129.373 56 129.48 55.424 129.48L55.696 129.096C56.4107 129.096 57.024 129.208 57.536 129.432C58.0587 129.645 58.464 129.971 58.752 130.408C59.04 130.835 59.184 131.368 59.184 132.008C59.184 132.957 58.832 133.693 58.128 134.216C57.4347 134.739 56.384 135 54.976 135H49.824ZM51.008 134.024H54.96C55.9413 134.024 56.6933 133.859 57.216 133.528C57.7387 133.187 58 132.648 58 131.912C58 131.187 57.7387 130.659 57.216 130.328C56.6933 129.987 55.9413 129.816 54.96 129.816H50.88V128.84H54.576C55.472 128.84 56.1653 128.669 56.656 128.328C57.1573 127.987 57.408 127.48 57.408 126.808C57.408 126.125 57.1573 125.619 56.656 125.288C56.1653 124.947 55.472 124.776 54.576 124.776H51.008V134.024ZM66.9105 135V133.144L66.8625 132.84V129.736C66.8625 129.021 66.6598 128.472 66.2545 128.088C65.8598 127.704 65.2678 127.512 64.4785 127.512C63.9345 127.512 63.4172 127.603 62.9265 127.784C62.4358 127.965 62.0198 128.205 61.6785 128.504L61.1665 127.656C61.5932 127.293 62.1052 127.016 62.7025 126.824C63.2998 126.621 63.9292 126.52 64.5905 126.52C65.6785 126.52 66.5158 126.792 67.1025 127.336C67.6998 127.869 67.9985 128.685 67.9985 129.784V135H66.9105ZM64.0145 135.08C63.3852 135.08 62.8358 134.979 62.3665 134.776C61.9078 134.563 61.5558 134.275 61.3105 133.912C61.0652 133.539 60.9425 133.112 60.9425 132.632C60.9425 132.195 61.0438 131.8 61.2465 131.448C61.4598 131.085 61.8012 130.797 62.2705 130.584C62.7505 130.36 63.3905 130.248 64.1905 130.248H67.0865V131.096H64.2225C63.4118 131.096 62.8465 131.24 62.5265 131.528C62.2172 131.816 62.0625 132.173 62.0625 132.6C62.0625 133.08 62.2492 133.464 62.6225 133.752C62.9958 134.04 63.5185 134.184 64.1905 134.184C64.8305 134.184 65.3798 134.04 65.8385 133.752C66.3078 133.453 66.6492 133.027 66.8625 132.472L67.1185 133.256C66.9052 133.811 66.5318 134.253 65.9985 134.584C65.4758 134.915 64.8145 135.08 64.0145 135.08ZM73.34 135.08C72.6467 135.08 71.9907 134.984 71.372 134.792C70.7533 134.589 70.268 134.339 69.916 134.04L70.428 133.144C70.7693 133.4 71.2067 133.624 71.74 133.816C72.2733 133.997 72.8333 134.088 73.42 134.088C74.22 134.088 74.796 133.965 75.148 133.72C75.5 133.464 75.676 133.128 75.676 132.712C75.676 132.403 75.5747 132.163 75.372 131.992C75.18 131.811 74.924 131.677 74.604 131.592C74.284 131.496 73.9267 131.416 73.532 131.352C73.1373 131.288 72.7427 131.213 72.348 131.128C71.964 131.043 71.612 130.92 71.292 130.76C70.972 130.589 70.7107 130.36 70.508 130.072C70.316 129.784 70.22 129.4 70.22 128.92C70.22 128.461 70.348 128.051 70.604 127.688C70.86 127.325 71.2333 127.043 71.724 126.84C72.2253 126.627 72.8333 126.52 73.548 126.52C74.092 126.52 74.636 126.595 75.18 126.744C75.724 126.883 76.172 127.069 76.524 127.304L76.028 128.216C75.6547 127.96 75.2547 127.779 74.828 127.672C74.4013 127.555 73.9747 127.496 73.548 127.496C72.7907 127.496 72.2307 127.629 71.868 127.896C71.516 128.152 71.34 128.483 71.34 128.888C71.34 129.208 71.436 129.459 71.628 129.64C71.8307 129.821 72.092 129.965 72.412 130.072C72.7427 130.168 73.1 130.248 73.484 130.312C73.8787 130.376 74.268 130.456 74.652 130.552C75.0467 130.637 75.404 130.76 75.724 130.92C76.0547 131.069 76.316 131.288 76.508 131.576C76.7107 131.853 76.812 132.221 76.812 132.68C76.812 133.171 76.6733 133.597 76.396 133.96C76.1293 134.312 75.7347 134.589 75.212 134.792C74.7 134.984 74.076 135.08 73.34 135.08ZM78.8965 135V126.6H80.0325V135H78.8965ZM79.4725 124.744C79.2378 124.744 79.0405 124.664 78.8805 124.504C78.7205 124.344 78.6405 124.152 78.6405 123.928C78.6405 123.704 78.7205 123.517 78.8805 123.368C79.0405 123.208 79.2378 123.128 79.4725 123.128C79.7072 123.128 79.9045 123.203 80.0645 123.352C80.2245 123.501 80.3045 123.688 80.3045 123.912C80.3045 124.147 80.2245 124.344 80.0645 124.504C79.9152 124.664 79.7178 124.744 79.4725 124.744ZM86.6814 135.08C85.8494 135.08 85.1027 134.899 84.4414 134.536C83.7907 134.163 83.2787 133.656 82.9054 133.016C82.532 132.365 82.3454 131.624 82.3454 130.792C82.3454 129.949 82.532 129.208 82.9054 128.568C83.2787 127.928 83.7907 127.427 84.4414 127.064C85.1027 126.701 85.8494 126.52 86.6814 126.52C87.396 126.52 88.0414 126.659 88.6174 126.936C89.1934 127.213 89.6467 127.629 89.9774 128.184L89.1294 128.76C88.8414 128.333 88.484 128.019 88.0574 127.816C87.6307 127.613 87.1667 127.512 86.6654 127.512C86.068 127.512 85.5294 127.651 85.0494 127.928C84.5694 128.195 84.1907 128.573 83.9134 129.064C83.636 129.555 83.4974 130.131 83.4974 130.792C83.4974 131.453 83.636 132.029 83.9134 132.52C84.1907 133.011 84.5694 133.395 85.0494 133.672C85.5294 133.939 86.068 134.072 86.6654 134.072C87.1667 134.072 87.6307 133.971 88.0574 133.768C88.484 133.565 88.8414 133.256 89.1294 132.84L89.9774 133.416C89.6467 133.96 89.1934 134.376 88.6174 134.664C88.0414 134.941 87.396 135.08 86.6814 135.08Z" fill="#313131"/>
<circle cx="32" cy="185" r="8" fill="#9B7CFF"/>
<path d="M49.824 191V179.8H50.8L55.92 188.536H55.408L60.48 179.8H61.456V191H60.32V181.576H60.592L55.92 189.576H55.36L50.656 181.576H50.96V191H49.824ZM68.4333 191.08C67.5586 191.08 66.7906 190.899 66.1293 190.536C65.4679 190.163 64.9506 189.656 64.5773 189.016C64.2039 188.365 64.0173 187.624 64.0173 186.792C64.0173 185.96 64.1933 185.224 64.5453 184.584C64.9079 183.944 65.3986 183.443 66.0173 183.08C66.6466 182.707 67.3506 182.52 68.1293 182.52C68.9186 182.52 69.6173 182.701 70.2253 183.064C70.8439 183.416 71.3293 183.917 71.6813 184.568C72.0333 185.208 72.2093 185.949 72.2093 186.792C72.2093 186.845 72.2039 186.904 72.1933 186.968C72.1933 187.021 72.1933 187.08 72.1933 187.144H64.8813V186.296H71.5853L71.1373 186.632C71.1373 186.024 71.0039 185.485 70.7373 185.016C70.4813 184.536 70.1293 184.163 69.6813 183.896C69.2333 183.629 68.7159 183.496 68.1293 183.496C67.5533 183.496 67.0359 183.629 66.5773 183.896C66.1186 184.163 65.7613 184.536 65.5053 185.016C65.2493 185.496 65.1213 186.045 65.1213 186.664V186.84C65.1213 187.48 65.2599 188.045 65.5373 188.536C65.8253 189.016 66.2199 189.395 66.7213 189.672C67.2333 189.939 67.8146 190.072 68.4653 190.072C68.9773 190.072 69.4519 189.981 69.8893 189.8C70.3373 189.619 70.7213 189.341 71.0413 188.968L71.6813 189.704C71.3079 190.152 70.8386 190.493 70.2733 190.728C69.7186 190.963 69.1053 191.08 68.4333 191.08ZM77.8655 191.08C77.0655 191.08 76.3455 190.899 75.7055 190.536C75.0762 190.173 74.5802 189.672 74.2175 189.032C73.8548 188.381 73.6735 187.635 73.6735 186.792C73.6735 185.939 73.8548 185.192 74.2175 184.552C74.5802 183.912 75.0762 183.416 75.7055 183.064C76.3455 182.701 77.0655 182.52 77.8655 182.52C78.6015 182.52 79.2575 182.685 79.8335 183.016C80.4202 183.347 80.8842 183.832 81.2255 184.472C81.5775 185.101 81.7535 185.875 81.7535 186.792C81.7535 187.699 81.5828 188.472 81.2415 189.112C80.9002 189.752 80.4362 190.243 79.8495 190.584C79.2735 190.915 78.6122 191.08 77.8655 191.08ZM77.9455 190.072C78.5428 190.072 79.0762 189.939 79.5455 189.672C80.0255 189.395 80.3988 189.011 80.6655 188.52C80.9428 188.019 81.0815 187.443 81.0815 186.792C81.0815 186.131 80.9428 185.555 80.6655 185.064C80.3988 184.573 80.0255 184.195 79.5455 183.928C79.0762 183.651 78.5428 183.512 77.9455 183.512C77.3588 183.512 76.8308 183.651 76.3615 183.928C75.8922 184.195 75.5188 184.573 75.2415 185.064C74.9642 185.555 74.8255 186.131 74.8255 186.792C74.8255 187.443 74.9642 188.019 75.2415 188.52C75.5188 189.011 75.8922 189.395 76.3615 189.672C76.8308 189.939 77.3588 190.072 77.9455 190.072ZM81.1135 191V188.472L81.2255 186.776L81.0655 185.08V179.128H82.2015V191H81.1135ZM85.3653 191V182.6H86.5013V191H85.3653ZM85.9413 180.744C85.7066 180.744 85.5093 180.664 85.3493 180.504C85.1893 180.344 85.1093 180.152 85.1093 179.928C85.1093 179.704 85.1893 179.517 85.3493 179.368C85.5093 179.208 85.7066 179.128 85.9413 179.128C86.1759 179.128 86.3733 179.203 86.5333 179.352C86.6933 179.501 86.7733 179.688 86.7733 179.912C86.7733 180.147 86.6933 180.344 86.5333 180.504C86.3839 180.664 86.1866 180.744 85.9413 180.744ZM93.1341 191.08C92.4195 191.08 91.7955 190.947 91.2621 190.68C90.7288 190.413 90.3128 190.013 90.0141 189.48C89.7261 188.947 89.5821 188.28 89.5821 187.48V182.6H90.7181V187.352C90.7181 188.248 90.9368 188.925 91.3741 189.384C91.8221 189.832 92.4461 190.056 93.2461 190.056C93.8328 190.056 94.3395 189.939 94.7661 189.704C95.2035 189.459 95.5341 189.107 95.7581 188.648C95.9928 188.189 96.1101 187.64 96.1101 187V182.6H97.2461V191H96.1581V188.696L96.3341 189.112C96.0675 189.731 95.6515 190.216 95.0861 190.568C94.5315 190.909 93.8808 191.08 93.1341 191.08ZM110.908 182.52C111.591 182.52 112.183 182.653 112.684 182.92C113.196 183.176 113.591 183.571 113.868 184.104C114.156 184.637 114.3 185.309 114.3 186.12V191H113.164V186.232C113.164 185.347 112.951 184.68 112.524 184.232C112.108 183.773 111.516 183.544 110.748 183.544C110.172 183.544 109.671 183.667 109.244 183.912C108.828 184.147 108.503 184.493 108.268 184.952C108.044 185.4 107.932 185.944 107.932 186.584V191H106.796V186.232C106.796 185.347 106.583 184.68 106.156 184.232C105.729 183.773 105.132 183.544 104.364 183.544C103.799 183.544 103.303 183.667 102.876 183.912C102.449 184.147 102.119 184.493 101.884 184.952C101.66 185.4 101.548 185.944 101.548 186.584V191H100.412V182.6H101.5V184.872L101.324 184.472C101.58 183.864 101.991 183.389 102.556 183.048C103.132 182.696 103.809 182.52 104.588 182.52C105.409 182.52 106.108 182.728 106.684 183.144C107.26 183.549 107.633 184.163 107.804 184.984L107.356 184.808C107.601 184.125 108.033 183.576 108.652 183.16C109.281 182.733 110.033 182.52 110.908 182.52Z" fill="#313131"/>
<circle cx="32" cy="241" r="8" fill="#3D10D2"/>
<path d="M48.032 247L53.152 235.8H54.32L59.44 247H58.192L53.488 236.488H53.968L49.264 247H48.032ZM50.048 244.008L50.4 243.048H56.912L57.264 244.008H50.048ZM64.3186 247.08C63.5186 247.08 62.7986 246.899 62.1586 246.536C61.5293 246.173 61.0333 245.672 60.6706 245.032C60.308 244.381 60.1266 243.635 60.1266 242.792C60.1266 241.939 60.308 241.192 60.6706 240.552C61.0333 239.912 61.5293 239.416 62.1586 239.064C62.7986 238.701 63.5186 238.52 64.3186 238.52C65.0546 238.52 65.7106 238.685 66.2866 239.016C66.8733 239.347 67.3373 239.832 67.6786 240.472C68.0306 241.101 68.2066 241.875 68.2066 242.792C68.2066 243.699 68.036 244.472 67.6946 245.112C67.3533 245.752 66.8893 246.243 66.3026 246.584C65.7266 246.915 65.0653 247.08 64.3186 247.08ZM64.3986 246.072C64.996 246.072 65.5293 245.939 65.9986 245.672C66.4786 245.395 66.852 245.011 67.1186 244.52C67.396 244.019 67.5346 243.443 67.5346 242.792C67.5346 242.131 67.396 241.555 67.1186 241.064C66.852 240.573 66.4786 240.195 65.9986 239.928C65.5293 239.651 64.996 239.512 64.3986 239.512C63.812 239.512 63.284 239.651 62.8146 239.928C62.3453 240.195 61.972 240.573 61.6946 241.064C61.4173 241.555 61.2786 242.131 61.2786 242.792C61.2786 243.443 61.4173 244.019 61.6946 244.52C61.972 245.011 62.3453 245.395 62.8146 245.672C63.284 245.939 63.812 246.072 64.3986 246.072ZM67.5666 247V244.472L67.6786 242.776L67.5186 241.08V235.128H68.6546V247H67.5666ZM73.9784 247L70.2504 238.6H71.4344L74.8584 246.392H74.2984L77.7704 238.6H78.8904L75.1464 247H73.9784ZM85.5043 247V245.144L85.4563 244.84V241.736C85.4563 241.021 85.2536 240.472 84.8483 240.088C84.4536 239.704 83.8616 239.512 83.0723 239.512C82.5283 239.512 82.0109 239.603 81.5203 239.784C81.0296 239.965 80.6136 240.205 80.2723 240.504L79.7603 239.656C80.1869 239.293 80.6989 239.016 81.2963 238.824C81.8936 238.621 82.5229 238.52 83.1843 238.52C84.2723 238.52 85.1096 238.792 85.6963 239.336C86.2936 239.869 86.5923 240.685 86.5923 241.784V247H85.5043ZM82.6083 247.08C81.9789 247.08 81.4296 246.979 80.9603 246.776C80.5016 246.563 80.1496 246.275 79.9043 245.912C79.6589 245.539 79.5363 245.112 79.5363 244.632C79.5363 244.195 79.6376 243.8 79.8403 243.448C80.0536 243.085 80.3949 242.797 80.8643 242.584C81.3443 242.36 81.9843 242.248 82.7843 242.248H85.6803V243.096H82.8163C82.0056 243.096 81.4403 243.24 81.1203 243.528C80.8109 243.816 80.6562 244.173 80.6562 244.6C80.6562 245.08 80.8429 245.464 81.2163 245.752C81.5896 246.04 82.1123 246.184 82.7843 246.184C83.4243 246.184 83.9736 246.04 84.4323 245.752C84.9016 245.453 85.2429 245.027 85.4563 244.472L85.7123 245.256C85.4989 245.811 85.1256 246.253 84.5923 246.584C84.0696 246.915 83.4083 247.08 82.6083 247.08ZM93.9658 238.52C94.6484 238.52 95.2458 238.653 95.7578 238.92C96.2804 239.176 96.6858 239.571 96.9738 240.104C97.2724 240.637 97.4218 241.309 97.4218 242.12V247H96.2858V242.232C96.2858 241.347 96.0618 240.68 95.6138 240.232C95.1764 239.773 94.5578 239.544 93.7578 239.544C93.1604 239.544 92.6378 239.667 92.1898 239.912C91.7524 240.147 91.4111 240.493 91.1658 240.952C90.9311 241.4 90.8138 241.944 90.8138 242.584V247H89.6778V238.6H90.7658V240.904L90.5898 240.472C90.8564 239.864 91.2831 239.389 91.8698 239.048C92.4564 238.696 93.1551 238.52 93.9658 238.52ZM103.978 247.08C103.146 247.08 102.4 246.899 101.738 246.536C101.088 246.163 100.576 245.656 100.202 245.016C99.8289 244.365 99.6423 243.624 99.6423 242.792C99.6423 241.949 99.8289 241.208 100.202 240.568C100.576 239.928 101.088 239.427 101.738 239.064C102.4 238.701 103.146 238.52 103.978 238.52C104.693 238.52 105.338 238.659 105.914 238.936C106.49 239.213 106.944 239.629 107.274 240.184L106.426 240.76C106.138 240.333 105.781 240.019 105.354 239.816C104.928 239.613 104.464 239.512 103.962 239.512C103.365 239.512 102.826 239.651 102.346 239.928C101.866 240.195 101.488 240.573 101.21 241.064C100.933 241.555 100.794 242.131 100.794 242.792C100.794 243.453 100.933 244.029 101.21 244.52C101.488 245.011 101.866 245.395 102.346 245.672C102.826 245.939 103.365 246.072 103.962 246.072C104.464 246.072 104.928 245.971 105.354 245.768C105.781 245.565 106.138 245.256 106.426 244.84L107.274 245.416C106.944 245.96 106.49 246.376 105.914 246.664C105.338 246.941 104.693 247.08 103.978 247.08ZM112.933 247.08C112.059 247.08 111.291 246.899 110.629 246.536C109.968 246.163 109.451 245.656 109.077 245.016C108.704 244.365 108.517 243.624 108.517 242.792C108.517 241.96 108.693 241.224 109.045 240.584C109.408 239.944 109.899 239.443 110.517 239.08C111.147 238.707 111.851 238.52 112.629 238.52C113.419 238.52 114.117 238.701 114.725 239.064C115.344 239.416 115.829 239.917 116.181 240.568C116.533 241.208 116.709 241.949 116.709 242.792C116.709 242.845 116.704 242.904 116.693 242.968C116.693 243.021 116.693 243.08 116.693 243.144H109.381V242.296H116.085L115.637 242.632C115.637 242.024 115.504 241.485 115.237 241.016C114.981 240.536 114.629 240.163 114.181 239.896C113.733 239.629 113.216 239.496 112.629 239.496C112.053 239.496 111.536 239.629 111.077 239.896C110.619 240.163 110.261 240.536 110.005 241.016C109.749 241.496 109.621 242.045 109.621 242.664V242.84C109.621 243.48 109.76 244.045 110.037 244.536C110.325 245.016 110.72 245.395 111.221 245.672C111.733 245.939 112.315 246.072 112.965 246.072C113.477 246.072 113.952 245.981 114.389 245.8C114.837 245.619 115.221 245.341 115.541 244.968L116.181 245.704C115.808 246.152 115.339 246.493 114.773 246.728C114.219 246.963 113.605 247.08 112.933 247.08ZM122.366 247.08C121.566 247.08 120.846 246.899 120.206 246.536C119.576 246.173 119.08 245.672 118.718 245.032C118.355 244.381 118.174 243.635 118.174 242.792C118.174 241.939 118.355 241.192 118.718 240.552C119.08 239.912 119.576 239.416 120.206 239.064C120.846 238.701 121.566 238.52 122.366 238.52C123.102 238.52 123.758 238.685 124.334 239.016C124.92 239.347 125.384 239.832 125.726 240.472C126.078 241.101 126.253 241.875 126.253 242.792C126.253 243.699 126.083 244.472 125.742 245.112C125.4 245.752 124.936 246.243 124.35 246.584C123.774 246.915 123.112 247.08 122.366 247.08ZM122.446 246.072C123.043 246.072 123.576 245.939 124.046 245.672C124.526 245.395 124.899 245.011 125.166 244.52C125.443 244.019 125.582 243.443 125.582 242.792C125.582 242.131 125.443 241.555 125.166 241.064C124.899 240.573 124.526 240.195 124.046 239.928C123.576 239.651 123.043 239.512 122.446 239.512C121.859 239.512 121.331 239.651 120.862 239.928C120.392 240.195 120.019 240.573 119.742 241.064C119.464 241.555 119.326 242.131 119.326 242.792C119.326 243.443 119.464 244.019 119.742 244.52C120.019 245.011 120.392 245.395 120.862 245.672C121.331 245.939 121.859 246.072 122.446 246.072ZM125.614 247V244.472L125.726 242.776L125.566 241.08V235.128H126.702V247H125.614Z" fill="#313131"/>
<g clip-path="url(#clip0_3084_52657)">
<path d="M253.999 289C232.036 289 210.638 282.047 192.869 269.137C175.101 256.228 161.876 238.025 155.089 217.137C148.302 196.25 148.302 173.749 155.089 152.862C161.876 131.974 175.101 113.771 192.869 100.862L217.321 134.517C206.66 142.262 198.725 153.184 194.653 165.717C190.581 178.249 190.581 191.75 194.653 204.282C198.725 216.815 206.66 227.737 217.321 235.482C227.982 243.228 240.821 247.4 253.999 247.4L253.999 289Z" fill="#BCBC5E"/>
<path d="M192.869 100.862C208.386 89.5881 226.719 82.8249 245.839 81.3201C264.96 79.8153 284.125 83.6273 301.214 92.3348C318.303 101.042 332.652 114.306 342.674 130.66C352.695 147.013 357.999 165.82 357.999 185L316.399 185C316.399 173.492 313.217 162.208 307.204 152.396C301.191 142.583 292.582 134.625 282.328 129.401C272.074 124.176 260.576 121.889 249.103 122.792C237.631 123.695 226.631 127.753 217.321 134.517L192.869 100.862Z" fill="#9B7CFF"/>
<path d="M357.999 185C357.999 198.657 355.309 212.181 350.082 224.799C344.856 237.416 337.195 248.881 327.538 258.539C317.881 268.196 306.416 275.856 293.798 281.083C281.18 286.309 267.656 289 253.999 289L253.999 247.4C262.193 247.4 270.308 245.785 277.878 242.65C285.449 239.514 292.328 234.917 298.122 229.123C303.917 223.329 308.513 216.45 311.649 208.879C314.785 201.308 316.399 193.194 316.399 185L357.999 185Z" fill="#3D10D2"/>
</g>
<path d="M158.748 195.94V195.096L163.065 189.574H164.367L160.087 195.096L159.472 194.903H166.212V195.94H158.748ZM163.439 198.014V195.94L163.475 194.903V193.071H164.608V198.014H163.439ZM170.384 198.111C169.724 198.111 169.134 197.942 168.611 197.604C168.097 197.267 167.687 196.776 167.381 196.133C167.084 195.49 166.935 194.711 166.935 193.794C166.935 192.878 167.084 192.098 167.381 191.455C167.687 190.812 168.097 190.321 168.611 189.984C169.134 189.646 169.724 189.477 170.384 189.477C171.035 189.477 171.621 189.646 172.144 189.984C172.667 190.321 173.076 190.812 173.374 191.455C173.671 192.098 173.82 192.878 173.82 193.794C173.82 194.711 173.671 195.49 173.374 196.133C173.076 196.776 172.667 197.267 172.144 197.604C171.621 197.942 171.035 198.111 170.384 198.111ZM170.384 197.038C170.826 197.038 171.212 196.917 171.541 196.676C171.879 196.435 172.14 196.073 172.325 195.591C172.518 195.108 172.614 194.51 172.614 193.794C172.614 193.079 172.518 192.48 172.325 191.997C172.14 191.515 171.879 191.153 171.541 190.912C171.212 190.671 170.826 190.551 170.384 190.551C169.941 190.551 169.552 190.671 169.214 190.912C168.876 191.153 168.611 191.515 168.418 191.997C168.233 192.48 168.141 193.079 168.141 193.794C168.141 194.51 168.233 195.108 168.418 195.591C168.611 196.073 168.876 196.435 169.214 196.676C169.552 196.917 169.941 197.038 170.384 197.038ZM176.135 198.014L181.899 189.574H182.827L177.064 198.014H176.135ZM176.81 194.108C176.424 194.108 176.083 194.011 175.785 193.818C175.488 193.625 175.255 193.356 175.086 193.01C174.925 192.665 174.845 192.263 174.845 191.805C174.845 191.346 174.925 190.944 175.086 190.599C175.255 190.253 175.488 189.984 175.785 189.791C176.083 189.598 176.424 189.501 176.81 189.501C177.204 189.501 177.546 189.598 177.835 189.791C178.133 189.984 178.362 190.253 178.523 190.599C178.683 190.944 178.764 191.346 178.764 191.805C178.764 192.263 178.683 192.665 178.523 193.01C178.362 193.356 178.133 193.625 177.835 193.818C177.546 194.011 177.204 194.108 176.81 194.108ZM176.81 193.42C177.18 193.42 177.469 193.28 177.679 192.998C177.888 192.709 177.992 192.311 177.992 191.805C177.992 191.298 177.888 190.904 177.679 190.623C177.469 190.333 177.18 190.189 176.81 190.189C176.449 190.189 176.159 190.333 175.942 190.623C175.733 190.904 175.629 191.298 175.629 191.805C175.629 192.303 175.733 192.697 175.942 192.986C176.159 193.276 176.449 193.42 176.81 193.42ZM182.152 198.087C181.766 198.087 181.425 197.99 181.127 197.797C180.83 197.604 180.601 197.335 180.44 196.989C180.279 196.644 180.199 196.242 180.199 195.784C180.199 195.325 180.279 194.924 180.44 194.578C180.601 194.232 180.83 193.963 181.127 193.77C181.425 193.577 181.766 193.481 182.152 193.481C182.546 193.481 182.888 193.577 183.177 193.77C183.474 193.963 183.703 194.232 183.864 194.578C184.033 194.924 184.117 195.325 184.117 195.784C184.117 196.242 184.033 196.644 183.864 196.989C183.703 197.335 183.474 197.604 183.177 197.797C182.888 197.99 182.546 198.087 182.152 198.087ZM182.152 197.399C182.514 197.399 182.799 197.259 183.008 196.977C183.225 196.688 183.334 196.29 183.334 195.784C183.334 195.285 183.225 194.891 183.008 194.602C182.799 194.313 182.514 194.168 182.152 194.168C181.79 194.168 181.501 194.313 181.284 194.602C181.075 194.883 180.97 195.277 180.97 195.784C180.97 196.29 181.075 196.688 181.284 196.977C181.501 197.259 181.79 197.399 182.152 197.399Z" fill="#313131"/>
<path d="M266.203 109.937C265.608 109.937 265.029 109.845 264.466 109.66C263.912 109.475 263.457 109.226 263.104 108.912L263.658 107.96C263.94 108.225 264.306 108.442 264.756 108.611C265.206 108.779 265.688 108.864 266.203 108.864C266.83 108.864 267.316 108.731 267.662 108.466C268.015 108.193 268.192 107.827 268.192 107.369C268.192 106.927 268.023 106.573 267.686 106.308C267.356 106.034 266.83 105.898 266.106 105.898H265.431V105.054L267.939 101.967L268.108 102.449H263.49V101.4H269.06V102.22L266.564 105.295L265.937 104.921H266.335C267.356 104.921 268.12 105.15 268.626 105.608C269.141 106.066 269.398 106.649 269.398 107.357C269.398 107.831 269.281 108.265 269.048 108.659C268.815 109.053 268.462 109.366 267.987 109.599C267.521 109.824 266.926 109.937 266.203 109.937ZM273.13 109.937C272.535 109.937 271.956 109.845 271.394 109.66C270.839 109.475 270.385 109.226 270.031 108.912L270.586 107.96C270.867 108.225 271.233 108.442 271.683 108.611C272.133 108.779 272.611 108.864 273.118 108.864C273.761 108.864 274.255 108.727 274.601 108.454C274.947 108.181 275.12 107.815 275.12 107.357C275.12 107.043 275.043 106.77 274.89 106.537C274.738 106.304 274.472 106.127 274.095 106.006C273.725 105.878 273.214 105.813 272.563 105.813H270.646L271.092 101.4H275.855V102.449H271.538L272.165 101.858L271.816 105.343L271.189 104.764H272.816C273.661 104.764 274.34 104.873 274.854 105.09C275.369 105.307 275.743 105.608 275.976 105.994C276.209 106.372 276.325 106.81 276.325 107.308C276.325 107.791 276.209 108.233 275.976 108.635C275.743 109.029 275.389 109.346 274.915 109.587C274.448 109.82 273.853 109.937 273.13 109.937ZM278.369 109.841L284.132 101.4H285.061L279.297 109.841H278.369ZM279.044 105.934C278.658 105.934 278.316 105.837 278.019 105.644C277.721 105.451 277.488 105.182 277.32 104.837C277.159 104.491 277.078 104.089 277.078 103.631C277.078 103.173 277.159 102.771 277.32 102.425C277.488 102.079 277.721 101.81 278.019 101.617C278.316 101.424 278.658 101.328 279.044 101.328C279.438 101.328 279.779 101.424 280.069 101.617C280.366 101.81 280.595 102.079 280.756 102.425C280.917 102.771 280.997 103.173 280.997 103.631C280.997 104.089 280.917 104.491 280.756 104.837C280.595 105.182 280.366 105.451 280.069 105.644C279.779 105.837 279.438 105.934 279.044 105.934ZM279.044 105.246C279.414 105.246 279.703 105.106 279.912 104.824C280.121 104.535 280.226 104.137 280.226 103.631C280.226 103.124 280.121 102.73 279.912 102.449C279.703 102.16 279.414 102.015 279.044 102.015C278.682 102.015 278.393 102.16 278.176 102.449C277.967 102.73 277.862 103.124 277.862 103.631C277.862 104.129 277.967 104.523 278.176 104.812C278.393 105.102 278.682 105.246 279.044 105.246ZM284.386 109.913C284 109.913 283.658 109.816 283.361 109.624C283.063 109.431 282.834 109.161 282.673 108.816C282.512 108.47 282.432 108.068 282.432 107.61C282.432 107.152 282.512 106.75 282.673 106.404C282.834 106.058 283.063 105.789 283.361 105.596C283.658 105.403 284 105.307 284.386 105.307C284.779 105.307 285.121 105.403 285.41 105.596C285.708 105.789 285.937 106.058 286.098 106.404C286.267 106.75 286.351 107.152 286.351 107.61C286.351 108.068 286.267 108.47 286.098 108.816C285.937 109.161 285.708 109.431 285.41 109.624C285.121 109.816 284.779 109.913 284.386 109.913ZM284.386 109.226C284.747 109.226 285.033 109.085 285.242 108.804C285.459 108.514 285.567 108.116 285.567 107.61C285.567 107.111 285.459 106.718 285.242 106.428C285.033 106.139 284.747 105.994 284.386 105.994C284.024 105.994 283.734 106.139 283.517 106.428C283.308 106.71 283.204 107.103 283.204 107.61C283.204 108.116 283.308 108.514 283.517 108.804C283.734 109.085 284.024 109.226 284.386 109.226Z" fill="#313131"/>
<path d="M307.953 240.217V239.397L311.39 236.081C311.695 235.792 311.921 235.539 312.065 235.322C312.218 235.097 312.318 234.892 312.367 234.707C312.423 234.514 312.451 234.329 312.451 234.152C312.451 233.718 312.298 233.376 311.993 233.127C311.687 232.878 311.241 232.753 310.654 232.753C310.204 232.753 309.798 232.83 309.437 232.983C309.075 233.127 308.761 233.356 308.496 233.67L307.676 232.958C307.998 232.548 308.428 232.235 308.966 232.018C309.513 231.793 310.112 231.68 310.763 231.68C311.35 231.68 311.86 231.777 312.294 231.97C312.728 232.155 313.062 232.424 313.295 232.778C313.536 233.131 313.657 233.549 313.657 234.032C313.657 234.305 313.621 234.574 313.548 234.839C313.476 235.105 313.339 235.386 313.138 235.683C312.937 235.981 312.648 236.315 312.27 236.684L309.207 239.639L308.918 239.168H314.019V240.217H307.953ZM317.735 240.314C317.14 240.314 316.561 240.221 315.999 240.036C315.444 239.852 314.99 239.602 314.636 239.289L315.191 238.336C315.472 238.602 315.838 238.819 316.288 238.987C316.738 239.156 317.217 239.241 317.723 239.241C318.366 239.241 318.861 239.104 319.206 238.831C319.552 238.557 319.725 238.192 319.725 237.733C319.725 237.42 319.648 237.147 319.496 236.913C319.343 236.68 319.078 236.503 318.7 236.383C318.33 236.254 317.82 236.19 317.168 236.19H315.251L315.697 231.777H320.46V232.826H316.143L316.77 232.235L316.421 235.72L315.794 235.141H317.422C318.266 235.141 318.945 235.249 319.459 235.466C319.974 235.683 320.348 235.985 320.581 236.371C320.814 236.749 320.93 237.187 320.93 237.685C320.93 238.167 320.814 238.61 320.581 239.011C320.348 239.405 319.994 239.723 319.52 239.964C319.053 240.197 318.459 240.314 317.735 240.314ZM322.974 240.217L328.737 231.777H329.666L323.902 240.217H322.974ZM323.649 236.311C323.263 236.311 322.921 236.214 322.624 236.021C322.327 235.828 322.094 235.559 321.925 235.213C321.764 234.868 321.684 234.466 321.684 234.007C321.684 233.549 321.764 233.147 321.925 232.802C322.094 232.456 322.327 232.187 322.624 231.994C322.921 231.801 323.263 231.704 323.649 231.704C324.043 231.704 324.385 231.801 324.674 231.994C324.971 232.187 325.2 232.456 325.361 232.802C325.522 233.147 325.602 233.549 325.602 234.007C325.602 234.466 325.522 234.868 325.361 235.213C325.2 235.559 324.971 235.828 324.674 236.021C324.385 236.214 324.043 236.311 323.649 236.311ZM323.649 235.623C324.019 235.623 324.308 235.483 324.517 235.201C324.726 234.912 324.831 234.514 324.831 234.007C324.831 233.501 324.726 233.107 324.517 232.826C324.308 232.536 324.019 232.392 323.649 232.392C323.287 232.392 322.998 232.536 322.781 232.826C322.572 233.107 322.467 233.501 322.467 234.007C322.467 234.506 322.572 234.9 322.781 235.189C322.998 235.479 323.287 235.623 323.649 235.623ZM328.991 240.29C328.605 240.29 328.263 240.193 327.966 240C327.668 239.807 327.439 239.538 327.278 239.192C327.118 238.847 327.037 238.445 327.037 237.987C327.037 237.528 327.118 237.126 327.278 236.781C327.439 236.435 327.668 236.166 327.966 235.973C328.263 235.78 328.605 235.683 328.991 235.683C329.385 235.683 329.726 235.78 330.016 235.973C330.313 236.166 330.542 236.435 330.703 236.781C330.872 237.126 330.956 237.528 330.956 237.987C330.956 238.445 330.872 238.847 330.703 239.192C330.542 239.538 330.313 239.807 330.016 240C329.726 240.193 329.385 240.29 328.991 240.29ZM328.991 239.602C329.352 239.602 329.638 239.462 329.847 239.18C330.064 238.891 330.172 238.493 330.172 237.987C330.172 237.488 330.064 237.094 329.847 236.805C329.638 236.515 329.352 236.371 328.991 236.371C328.629 236.371 328.34 236.515 328.122 236.805C327.913 237.086 327.809 237.48 327.809 237.987C327.809 238.493 327.913 238.891 328.122 239.18C328.34 239.462 328.629 239.602 328.991 239.602Z" fill="white"/>
<defs>
<clipPath id="clip0_3084_52657">
<rect width="208" height="208" fill="white" transform="translate(150 81)"/>
</clipPath>
</defs>
</svg>
